<?xml version="1.0" encoding="utf-8" ?>
<svg baseProfile="full" height="200mm" version="1.1" viewBox="0,0,200,200" width="200mm" xmlns="http://www.w3.org/2000/svg" xmlns:ev="http://www.w3.org/2001/xml-events" xmlns:xlink="http://www.w3.org/1999/xlink"><defs /><rect fill="#1a1a1a" height="200" width="200" x="0" y="0" /><text alignment-baseline="middle" fill="#e1ed5e" style="dominant-baseline: central; font-size:9.0px; font-family:Arial;" text-anchor="middle" x="100.0" y="100.0">2023</text><line stroke="#e1ed5e" stroke-width="0.3" x1="100.0" x2="100.0" y1="15.0" y2="10.0" /><path d="M 100.0 14.0 a86.0,86.0 0 0,1 42.46469731375804,11.215312516191453" fill="none" id="id37" stroke="none" /><text fill="#e1ed5e" style="font-size:6.75px; font-family:Arial;" text-anchor="middle"><textPath startOffset="22.20632615414155" xlink:href="#id37">January</textPath></text><path d="M 100.0 79.0 l 0.0 -21.01842068539304 a42.01842068539304,42.01842068539304 0 0,0 0.7232780403633617,0.006225482440434192 l -0.36179756109083333 21.015306579561162" fill="#fff116" stroke="none" /><path d="M 100.72285384407766 79.0124445844662 l 0.7225440145757034 -20.97855973280351 a41.990998983273855,41.990998983273855 0 0,0 0.7221635352352196,0.031097880938577835 l -1.0835483822002545 20.963014125340738" fill="#fff116" stroke="none" /><path d="M 101.08401301168833 79.027996857942 l 1.0848018012843623 -20.98726356578729 a42.015280795837405,42.015280795837405 0 0,0 0.7219384685618271,0.04354929995208933 l -1.4459023186858013 20.965480996454897" fill="#fff116" stroke="none" /><path d="M 101.80526077348638 79.07773832637324 l 1.8041990882564596 -20.90995715977393 a41.987649767747854,41.987649767747854 0 0,0 0.7195381011403618,0.06832881275715176 l -2.1638623164870654 20.875802802501603" fill="#fff116" stroke="none" /><path d="M 102.16513564639614 79.11191278185805 l 2.1651572282589973 -20.888295428576523 a42.000209325970374,42.000209325970374 0 0,0 0.7184701737833294,0.08072849540371302 l -2.524394105552052 20.84793097970221" fill="#fff116" stroke="none" /><path d="M 103.2404852339499 79.25152402106235 l 3.2349940905339896 -20.713316782386354 a41.96441458503619,41.96441458503619 0 0,0 0.7127371935220106,0.11760774389906188 l -3.5910604901948755 20.654562775547667" fill="#fff116" stroke="none" /><path d="M 104.66035177308747 79.52364482259891 l 3.739541852570142 -16.430559516165825 a37.850740615218996,37.850740615218996 0 0,0 0.6340473323504573,0.15005851831964923 l -4.021812871883123 16.363755085705307" fill="#ffba11" stroke="none" /><path d="M 105.01212808612495 79.60689891045804 l 6.011236332235743 -24.458223750460405 a46.186100755567075,46.186100755567075 0 0,0 0.7704085981415711,0.1963943055292823 l -6.431353819062339 24.351126448762255" fill="#d8ff1c" stroke="none" /><path d="M 105.71112130821622 79.79150937346287 l 5.704119175873253 -20.183713963920102 a41.97425290564382,41.97425290564382 0 0,0 0.6935941124766318,0.2024791410347945 l -6.0507035060733125 20.082536493966604" fill="#fff116" stroke="none" /><path d="M 108.09893153111575 80.62456947434976 l 4.847959932084316 -11.597988017846014 a33.57044317298299,33.57044317298299 0 0,0 0.5312382630742607,0.22744850005477743 l -5.046881952948892 11.512819989828445" fill="#ff7f0b" stroke="none" /><path d="M 108.43124777332544 80.76684994638697 l 8.443517885313884 -19.26114032402059 a42.030561591674804,42.030561591674804 0 0,0 0.6601157516103666,0.2961746958352673 l -8.77381575539103 19.11294529766879" fill="#fff116" stroke="none" /><path d="M 109.08828744355905 81.06846463323043 l 10.124469255917544 -21.08997420894885 a44.39427044915372,44.39427044915372 0 0,0 0.6860579209933374,0.33664564231459265 l -10.485998443921314 20.912573406499423" fill="#efff19" stroke="none" /><path d="M 109.41281617654863 81.2277094730956 l 12.221123436972823 -24.372990550436374 a48.26533561930583,48.26533561930583 0 0,0 0.7394697880247869,0.3787851465886863 l -12.638853712586366 24.159012878535187" fill="#bfff1e" stroke="none" /><path d="M 109.73455568895987 81.39251694778311 l 14.78939853560044 -28.26975276496373 a52.90462710073564,52.90462710073564 0 0,0 0.803281067268672,0.4290849267498622 l -15.273824649397424 28.010989111712114" fill="#89ff24" stroke="none" /><path d="M 110.36928655335952 81.73862282372117 l 9.997293747140137 -17.606259690010337 a41.24663583261896,41.24663583261896 0 0,0 0.6143848792026612,0.3558913778341509 l -10.298875358808127 17.431564154786138" fill="#ffe715" stroke="none" /><line stroke="#e1ed5e" stroke-width="0.3" x1="143.23703022742887" x2="145.7803849466894" y1="26.81831364943548" y2="22.513508569990506" /><path d="M 143.74570117128098 25.957352633546492 a86.0,86.0 0 0,1 28.547481713284135,27.462654790039103" fill="none" id="id38" stroke="none" /><text fill="#e1ed5e" style="font-size:6.75px; font-family:Arial;" text-anchor="middle"><textPath startOffset="19.985693538727396" xlink:href="#id38">February</textPath></text><path d="M 110.68208982089419 81.91981866633111 l 10.504058539813919 -17.778850985491065 a41.65000697753234,41.65000697753234 0 0,0 0.6141153382163854,0.3699976198919533 l -10.808535944247941 17.5954067561405" fill="#ffec16" stroke="none" /><path d="M 111.2981086023043 82.29822771554956 l 10.961154186143384 -17.173835215063107 a41.37369669663683,41.37369669663683 0 0,0 0.5970283030609982,0.38832381573354763 l -11.255149514988663 16.982612475170033" fill="#ffe915" stroke="none" /><path d="M 111.60114157652 82.49532879139004 l 11.227743058243028 -16.941259560789927 a41.324086441657855,41.324086441657855 0 0,0 0.5895477288504269,0.39806525820416294 l -11.517695481499997 16.745482390287094" fill="#ffe815" stroke="none" /><path d="M 111.90073688211348 82.69761687909136 l 18.071867183356535 -26.27453852765799 a52.8895556308686,52.8895556308686 0 0,0 0.7456643077884935,0.5223854998724851 l -18.521462630728678 25.959568185021574" fill="#89ff24" stroke="none" /><path d="M 112.48926042617603 83.11751280151076 l 12.850659949881589 -17.371012749586857 a42.60767329199976,42.60767329199976 0 0,0 0.5858633115462453,0.44126010003641564 l -13.147769415186216 17.14723606004459" fill="#fff917" stroke="none" /><path d="M 112.77801427241765 83.33499621200491 l 19.141929516402772 -24.96478099801271 a52.45876278383605,52.45876278383605 0 0,0 0.7118590280955871,0.5556172627494095 l -19.56882109965779 24.631585346040076" fill="#8eff24" stroke="none" /><path d="M 113.6212207817346 84.01681056812373 l 20.40861364550241 -23.947540618051736 a52.464205259065814,52.464205259065814 0 0,0 0.6822999907295201,0.5916838284648843 l -20.817807434878695 23.59269179616718" fill="#8eff24" stroke="none" /><path d="M 113.89432698308785 84.25364557470407 l 20.92763580051722 -23.717159600430044 a52.63020075357349,52.63020075357349 0 0,0 0.6741402725394531,0.6052497928885174 l -21.332787060652663 23.353410798772227" fill="#8cff24" stroke="none" /><path d="M 114.42810811169701 84.74124197986012 l 21.66373486562524 -22.910951703990452 a52.53139889555631,52.53139889555631 0 0,0 0.6516814118463107,0.6269170018696449 l -22.054899521083968 22.534651615358506" fill="#8dff24" stroke="none" /><path d="M 114.68862486808459 84.99185889309783 l 22.00497207665487 -22.48363811764661 a52.46001873965831,52.46001873965831 0 0,0 0.6399227963643731,0.6371747645099894 l -22.388730673186565 22.1015275024865" fill="#8eff24" stroke="none" /><path d="M 115.19652480421416 85.50635884689758 l 22.771308195290224 -21.71806869144933 a52.467554474591815,52.467554474591815 0 0,0 0.6176997144006645,0.6589189874555488 l -23.141775231661352 21.322880287115723" fill="#8eff24" stroke="none" /><path d="M 115.4437574822437 85.77008943001954 l 23.2278287436784 -21.4021701737669 a52.58456769203166,52.58456769203166 0 0,0 0.6076180836156208,0.6709470640816956 l -23.59279046791006 20.999170322415658" fill="#8dff24" stroke="none" /><path d="M 115.68641384162765 86.03803664274999 l 20.356750308559903 -18.11887693072045 a48.25235740914256,48.25235740914256 0 0,0 0.5468787459488396,0.6251769441696726 l -20.665620918086592 17.76578443034783" fill="#bfff1e" stroke="none" /><path d="M 116.15771136456269 86.58626213691792 l 24.182934564592895 -20.076082416038087 a52.430294451864995,52.430294451864995 0 0,0 0.5704953020537641,0.6993597841940926 l -24.52492835872307 19.656838462235893" fill="#8eff24" stroke="none" /><path d="M 116.38621287248628 86.86637796730983 l 24.571969180350187 -19.694541888656964 a52.490580331333106,52.490580331333106 0 0,0 0.559014480874161,0.7098916219008402 l -24.907337741818314 19.268657872803086" fill="#8eff24" stroke="none" /><path d="M 116.82858285166822 87.43820079747576 l 23.5199583221836 -17.556617589206052 a50.35001295827436,50.35001295827436 0 0,0 0.5124609633146009,0.6989961780459016 l -23.81868189801183 17.149158967488656" fill="#a6ff21" stroke="none" /><path d="M 117.04232023915458 87.72973835380427 l 25.517443908254307 -18.37224678932193 a52.44327266202828,52.44327266202828 0 0,0 0.5211547228928252,0.7371363964621374 l -25.829911250951017 17.930283892528" fill="#8eff24" stroke="none" /><path d="M 117.2510076193507 88.02491185347247 l 18.999975926366265 -13.189165034332113 a44.1290544446881,44.1290544446881 0 0,0 0.4277902780052827,0.6277294464250041 l -19.224190670040283 12.860157564636703" fill="#f2ff19" stroke="none" /><path d="M 117.65298651832404 88.62581576622439 l 11.0103733221484 -7.094211198698267 a34.09794461832898,34.09794461832898 0 0,0 0.31365628214261376,0.49612891363053063 l -11.13085720053697 6.90363463735353" fill="#ff870c" stroke="none" /><line stroke="#e1ed5e" stroke-width="0.3" x1="172.23445277983987" x2="176.4835382374775" y1="55.19839476539836" y2="52.563006222186495" /><path d="M 173.08426987136738 54.67131705675599 a86.0,86.0 0 0,1 12.851231095245387,41.99856678651699" fill="none" id="id39" stroke="none" /><text fill="#e1ed5e" style="font-size:6.75px; font-family:Arial;" text-anchor="middle"><textPath startOffset="22.20632615414155" xlink:href="#id39">March</textPath></text><path d="M 117.84615892207809 88.93136811851018 l 17.846692588440057 -11.068962874648289 a42.00062797791112,42.00062797791112 0 0,0 0.3757740218622438,0.6176736888152022 l -18.034582408588527 10.760121412626006" fill="#fff116" stroke="none" /><path d="M 118.03404312379186 89.2402003453031 l 23.421857765707788 -13.974375871783634 a48.27391798409123,48.27391798409123 0 0,0 0.419616033495654,0.7172598217798098 l -23.65893347367377 13.56913663764993" fill="#bfff1e" stroke="none" /><path d="M 118.21658344932153 89.55222093294921 l 9.137889451004332 -5.240864753197345 a31.534120133171186,31.534120133171186 0 0,0 0.26600135334084385,0.47318672636473585 l -9.22674844563761 5.082794516897815" fill="#ff6209" stroke="none" /><path d="M 118.3937258080291 89.86733742301442 l 18.472748313793144 -10.176194180927702 a42.09021949323179,42.09021949323179 0 0,0 0.34412141852880906,0.6376047255479941 l -18.64517783154042 9.856708472047249" fill="#fff216" stroke="none" /><path d="M 118.73160827565052 90.50648371742162 l 18.812269095561216 -9.53439663817411 a42.09042881920217,42.09042881920217 0 0,0 0.3219717114429587,0.6490753232888614 l -18.973600819957582 9.2091617263863" fill="#fff216" stroke="none" /><path d="M 118.89224826269711 90.83032412892265 l 18.919742413993472 -9.183020627732683 a42.030561591674804,42.030561591674804 0 0,0 0.3103092468104082,0.6535904125070862 l -19.075009854645636 8.855987799585057" fill="#fff116" stroke="none" /><path d="M 119.196687751892 91.48605970444005 l 19.224050906020917 -8.526076152722531 a42.02993361376368,42.02993361376368 0 0,0 0.28762342499967763,0.6638745206025577 l -19.367965040863275 8.193902487533371" fill="#fff116" stroke="none" /><path d="M 119.34039704204932 91.81776055985345 l 22.274750258462802 -9.423660728781847 a45.18615059508383,45.18615059508383 0 0,0 0.29689089691504356,0.7189448560544818 l -22.433662842264045 9.038841302274063" fill="#e5ff1a" stroke="none" /><path d="M 119.47837535516314 92.15188598940014 l 21.78284333915898 -8.776616883267957 a44.48448994238552,44.48448994238552 0 0,0 0.2800541190764757,0.7127071860866229 l -21.930691008117154 8.400360692285549" fill="#edff19" stroke="none" /><path d="M 119.61058180528143 92.48833698450437 l 33.64578618337604 -12.88772613736907 a57.0296046729531,57.0296046729531 0 0,0 0.3432514452489306,0.9197432193853825 l -33.86264221712659 12.306659780954355" fill="#5bff2a" stroke="none" /><path d="M 119.85752413597 93.16781622104841 l 26.546636899381507 -9.133641272082597 a49.07396184286597,49.07396184286597 0 0,0 0.2679501557259003,0.801136860280881 l -26.69992434887918 8.675331308879402" fill="#b5ff1f" stroke="none" /><path d="M 119.97218684219823 93.5106431181261 l 13.961737559360895 -4.536443526671102 a35.68023962839656,35.68023962839656 0 0,0 0.18476335225830778,0.5857503177978667 l -14.037756395387408 4.2954430424468155" fill="#ff9d0e" stroke="none" /><path d="M 120.37134235888165 94.90015583598534 l 10.992020738930457 -2.7517868890815658 a32.331233428360676,32.331233428360676 0 0,0 0.13050610103980576,0.5410320431139539 l -11.037759640231082 2.562169614308206" fill="#ff6e0a" stroke="none" /><path d="M 120.45610955862082 95.25157060432595 l 13.081086865435323 -3.0364824367604077 a34.42888897749248,34.42888897749248 0 0,0 0.12903556246725414,0.5784411252095223 l -13.131416814904615 2.8108631420009216" fill="#ff8b0c" stroke="none" /><path d="M 120.53481517161879 95.60439243477599 l 14.388616978219567 -3.079974819056861 a35.71456908753813,35.71456908753813 0 0,0 0.12350557872521456,0.6022570639776637 l -14.439501852859777 2.8318420989157853" fill="#ff9d0e" stroke="none" /><path d="M 120.6074358757038 95.95851677861258 l 20.641739834867714 -4.048210835449866 a42.03495743705269,42.03495743705269 0 0,0 0.13313927449549695,0.7112353281101383 l -20.70836483327307 3.6922974298771645" fill="#fff116" stroke="none" /><path d="M 120.73433829027371 96.67025291283417 l 23.131388344006638 -3.7146916328980653 a44.427762604413786,44.427762604413786 0 0,0 0.11475925185558614,0.7561200852024451 l -23.191903489301524 3.315972435303538" fill="#eeff19" stroke="none" /><path d="M 120.83666639777658 97.38593545837742 l 43.91003123096768 -5.508734145432247 a65.25423137497259,65.25423137497259 0 0,0 0.1302277048546302,1.1157114464753697 l -43.9983492888259 4.752078960632025" fill="#35ff61" stroke="none" /><path d="M 120.94382443527127 98.46500227214037 l 10.883598804688871 -0.7976718620691998 a31.912790813580273,31.912790813580273 0 0,0 0.03543749624630523,0.5482023819232423 l -10.895716891939593 0.6102104158929224" fill="#ff6809" stroke="none" /><line stroke="#e1ed5e" stroke-width="0.3" x1="184.98032266829074" x2="189.97916517819016" y1="98.17113171792111" y2="98.06355123074" /><path d="M 185.9800911702706 98.14961562048488 a86.0,86.0 0 0,1 -9.607161424134198,41.387399972396054" fill="none" id="id40" stroke="none" /><text fill="#e1ed5e" style="font-size:6.75px; font-family:Arial;" text-anchor="middle"><textPath startOffset="21.466115282336823" xlink:href="#id40">April</textPath></text><path d="M 120.99980553446 99.90962569577887 l 12.618680618746156 -0.05430547817390387 a33.61879747213971,33.61879747213971 0 0,0 -0.0024905168738598568,0.5787084114461157 l -12.617745804582793 -0.16291241147589652" fill="#ff800b" stroke="none" /><path d="M 120.99824983174949 100.27111621757518 l 21.080717390547264 0.2721809869151568 a42.082474432327906,42.082474432327906 0 0,0 -0.015586421342591568,0.724239754123591 l -21.072908906519665 -0.6350105568288626" fill="#fff216" stroke="none" /><path d="M 120.9904718944345 100.63252640178507 l 21.18652133688068 0.638434151216627 a42.196138434241746,42.196138434241746 0 0,0 -0.028126473333083563,0.7258192995521384 l -21.172392730696394 -1.0030306977827717" fill="#fff417" stroke="none" /><path d="M 120.9764740272857 100.99374915477107 l 21.098374351819785 0.9995241169651148 a42.122037040728856,42.122037040728856 0 0,0 -0.04054476555446604,0.7239540254079043 l -21.07804323537779 -1.3625498587084424" fill="#fff316" stroke="none" /><path d="M 120.95626037817324 101.35467743843564 l 8.512266605635446 0.5502592214693922 a29.530033292797192,29.530033292797192 0 0,0 -0.03715643344535152,0.5069700134380059 l -8.501533613525757 -0.6967023714041682" fill="#ff4506" stroke="none" /><path d="M 120.92983693683757 101.71520430193887 l 20.917110714741256 1.7141613855056035 a41.987231115807106,41.987231115807106 0 0,0 -0.06523096982671196,0.7198183164287203 l -20.88450514863747 -2.0739610904828942" fill="#fff116" stroke="none" /><path d="M 120.89721153311464 102.0752229133903 l 19.001668930780735 1.8869837583510098 a40.095133669583944,40.095133669583944 0 0,0 -0.07411432428861585,0.6862065959699719 l -18.96637230499107 -2.213786676205773" fill="#ffd814" stroke="none" /><path d="M 120.8583938346157 102.4346265915055 l 38.0078017278057 4.436334144655854 a59.2658340144734,59.2658340144734 0 0,0 -0.12699395637514835,1.0122667827781817 l -37.925806262183706 -5.08991868172143" fill="#44ff2d" stroke="none" /><path d="M 120.81339534386255 102.79330883721812 l 3.8966247816872324 0.5229553495806566 a24.9315603755906,24.9315603755906 0 0,0 -0.06074509267876153,0.42485103671423347 l -3.8870456379918696 -0.5899518582752994" fill="#ff0000" stroke="none" /><path d="M 120.76222939487914 103.15116336523771 l 22.942923670649584 3.482135718056724 a44.205667749845496,44.205667749845496 0 0,0 -0.12065672965280545,0.751329570723862 l -22.87958518663549 -3.876544518473791" fill="#f1ff19" stroke="none" /><path d="M 120.70491114924044 103.5080841355445 l 10.331197965637426 1.750440338680315 a31.478439425051334,31.478439425051334 0 0,0 -0.09511518910142144,0.533456492740761 l -10.299536334196816 -1.9280155821542941" fill="#ff6109" stroke="none" /><path d="M 120.64145759157962 103.86396538481128 l 26.81031568363063 5.018741108654624 a48.27601124379498,48.27601124379498 0 0,0 -0.15993168275706712,0.8154882047928483 l -26.7199540678979 -5.479493040515417" fill="#bfff1e" stroke="none" /><path d="M 120.5718875245553 104.21870165774334 l 32.8930377588053 6.74541471975532 a54.57756025597576,54.57756025597576 0 0,0 -0.19665064575443028,0.9186863485937506 l -32.77205307432643 -7.310614887765239" fill="#76ff27" stroke="none" /><path d="M 120.49622156327973 104.57218783832717 l 20.483758997587667 4.569407755612131 a41.987231115807106,41.987231115807106 0 0,0 -0.16342916712138836,0.7040485746202509 l -20.402069264535726 -4.921324987580947" fill="#fff116" stroke="none" /><path d="M 120.41448212921028 104.9243191809786 l 22.511849280042313 5.4302396949072165 a44.15752277665916,44.15752277665916 0 0,0 -0.18459670897851535,0.7373720913785603 l -22.415041256768735 -5.8169396256831725" fill="#f1ff19" stroke="none" /><path d="M 120.23288151984713 105.62410040840565 l 22.244633609722484 6.1833037892577805 a44.08802655449453,44.08802655449453 0 0,0 -0.2095385559666537,0.7294312021959336 l -22.13490241686973 -6.5652924669582955" fill="#f2ff19" stroke="none" /><path d="M 120.13307415673323 105.97154293290107 l 24.208977110454764 7.180470555628105 a46.2514104583242,46.2514104583242 0 0,0 -0.23296004572955045,0.7613269084222083 l -24.081790292219083 -7.596124436602371" fill="#d7ff1c" stroke="none" /><path d="M 119.9155931802556 106.66101706037122 l 29.890462207271646 9.99723567874479 a52.518002033452284,52.518002033452284 0 0,0 -0.2941237418893352,0.8548612702021724 l -29.71394763443908 -10.510269652036262" fill="#8dff24" stroke="none" /><path d="M 119.79798401119884 107.00284435728193 l 25.786596905716884 9.121106701195295 a48.35220589701162,48.35220589701162 0 0,0 -0.28430115976956877,0.7822746891963256 l -25.62577148494209 -9.563629187397751" fill="#beff1f" stroke="none" /><path d="M 119.67450827220406 107.3425965602758 l 19.699806926209313 7.3520381080547015 a42.02700305017843,42.02700305017843 0 0,0 -0.2587777098061529,0.6755869422081818 l -19.57033493680965 -7.690048617096027" fill="#fff116" stroke="none" /><path d="M 119.54520255179757 107.68017299344265 l 7.958004113088608 3.1270511579030704 a29.550337911923606,29.550337911923606 0 0,0 -0.1901034952243592,0.47182128487268854 l -7.9029980036068554 -3.2635718106185725" fill="#ff4506" stroke="none" /><path d="M 119.41010516605496 108.01547362559984 l 32.94931231214649 13.606538530328862 a56.64821275492913,56.64821275492913 0 0,0 -0.37994500874957615,0.8980777667428033 l -32.71021632220461 -14.171690822737828" fill="#5fff29" stroke="none" /><path d="M 119.26925614724726 108.34839909993367 l 29.017976226128628 12.57202897490759 a52.624339626402985,52.624339626402985 0 0,0 -0.3672650539227959,0.8280857414532686 l -28.79727008747456 -13.069663052853548" fill="#8cff24" stroke="none" /><path d="M 119.12269723197855 108.67885076344098 l 9.669045072759154 4.388303500989887 a31.6182691732621,31.6182691732621 0 0,0 -0.22919538760767486,0.4936664747280477 l -9.592075068311647 -4.554090042996766" fill="#ff6309" stroke="none" /><path d="M 118.97047184881838 109.00673069616215 l 19.075987321911427 9.056826943530215 a42.11680389146947,42.11680389146947 0 0,0 -0.31657144457453257,0.6522309411881209 l -18.91726262072218 -9.383846840683612" fill="#fff316" stroke="none" /><path d="M 118.81262510543309 109.33194174019688 l 21.369493422577687 10.600267985961363 a44.854159606068464,44.854159606068464 0 0,0 -0.3490536394496527,0.6887159453615196 l -21.183861113341766 -10.966538143025575" fill="#e9ff1a" stroke="none" /><line stroke="#e1ed5e" stroke-width="0.3" x1="174.80103733775053" x2="179.2010983576182" y1="140.37084112569926" y2="142.7455964860345" /><path d="M 175.68104954172406 140.8457921977663 a86.0,86.0 0 0,1 -30.038265399797805,32.042727171017184" fill="none" id="id41" stroke="none" /><text fill="#e1ed5e" style="font-size:6.75px; font-family:Arial;" text-anchor="middle"><textPath startOffset="22.206326154141568" xlink:href="#id41">May</textPath></text><path d="M 118.12598468904814 110.60418214915192 l 5.544287057356625 3.2435550869089145 a27.423376726939257,27.423376726939257 0 0,0 -0.24187303917910977,0.4053931261754079 l -5.487633142479288 -3.3385103069704267" fill="#ff2603" stroke="none" /><path d="M 117.94076556474637 110.91462005526583 l 12.54755562174662 7.633553971787558 a35.68714738541895,35.68714738541895 0 0,0 -0.32379349934777696,0.5220582190432804 l -12.414297482730879 -7.848408522196112" fill="#ff9d0e" stroke="none" /><path d="M 117.55443506779139 111.5257021239791 l 17.570008368971916 11.535927074528672 a42.01863001136341,42.01863001136341 0 0,0 -0.40217210224666305,0.6011927254313687 l -17.368833161314534 -11.836656714165848" fill="#fff116" stroke="none" /><path d="M 117.35343817320211 111.8261652097733 l 17.417612786569634 11.869899458420901 a42.077659935009265,42.077659935009265 0 0,0 -0.413040507035378,0.5950156564011508 l -17.21071137237212 -12.167956377009073" fill="#fff216" stroke="none" /><path d="M 117.14729908036423 112.12312394758627 l 22.31172604267765 15.77436883979655 a48.32478419489245,48.32478419489245 0 0,0 -0.4860557595737796,0.6750889384098933 l -22.036890490728265 -16.156091383657575" fill="#beff1e" stroke="none" /><path d="M 116.93607887273984 112.41649034213515 l 18.667805683175885 13.686085823979822 a44.14726580411076,44.14726580411076 0 0,0 -0.45458803982647566,0.6089949670633206 l -18.42945637665432 -14.005393670552456" fill="#f2ff19" stroke="none" /><path d="M 116.498646956653 112.99209946851258 l 17.66612661959114 13.911448306523885 a43.486005063694904,43.486005063694904 0 0,0 -0.46816222958063514,0.5841043646354095 l -17.42404647795565 -14.213480504737545" fill="#faff18" stroke="none" /><path d="M 116.27256486870786 113.27417163493432 l 24.412091370139535 19.913903765599972 a52.50418651940751,52.50418651940751 0 0,0 -0.5773060328412709,0.6954023064177202 l -24.06568933740472 -20.331167329131464" fill="#8dff24" stroke="none" /><path d="M 116.0416608686014 113.55231037782055 l 20.926818473081383 17.67938753290912 a48.39511772093857,48.39511772093857 0 0,0 -0.5430796186258627,0.6317242883849059 l -20.61939634488474 -18.036988920455553" fill="#bdff1f" stroke="none" /><path d="M 115.80600337817218 113.82643327865902 l 15.046441743773263 13.162000404150792 a40.99083949682024,40.99083949682024 0 0,0 -0.4691326437402908,0.5270754984832271 l -14.817650250384634 -13.419050072374885" fill="#ffe415" stroke="none" /><path d="M 115.32070863581623 114.36230785411682 l 11.413792017027866 10.699791937051065 a36.64481369988636,36.64481369988636 0 0,0 -0.4353638544790484,0.4564772608595295 l -11.227921611169853 -10.894676314493102" fill="#ffaa0f" stroke="none" /><path d="M 115.07121518719521 114.62390073753431 l 18.050244683836826 17.51451248396387 a46.15093399254401,46.15093399254401 0 0,0 -0.5581172547547483,0.5653698324406107 l -17.746086804026543 -17.822622810385145" fill="#d9ff1c" stroke="none" /><path d="M 114.55890576462653 115.13401014063108 l 19.19061203427646 19.948677587934572 a48.68084767050098,48.68084767050098 0 0,0 -0.6088911540247779,0.575744591200021 l -18.84438504586087 -20.276056815880516" fill="#baff1f" stroke="none" /><path d="M 114.29624159901734 115.38237550388516 l 17.19077379892604 18.49681512066827 a46.25182911026495,46.25182911026495 0 0,0 -0.5878397155957777,0.5369776426516116 l -16.869834533863397 -18.789985529906467" fill="#d7ff1c" stroke="none" /><path d="M 114.0293411484842 115.62618273729858 l 17.25692028074847 19.221129982936137 a46.831243396264036,46.831243396264036 0 0,0 -0.6044746021642967,0.5333785553531275 l -16.923503325677586 -19.515331680061553" fill="#d0ff1d" stroke="none" /><path d="M 113.48314897796784 116.09983520530334 l 17.507315628336777 20.904975311333843 a48.26763820497996,48.26763820497996 0 0,0 -0.641568554647972,0.5279672427104589 l -17.144876945144112 -21.20323767290148" fill="#bfff1e" stroke="none" /><path d="M 113.20401910651253 116.32954008644616 l 17.171595071563267 21.236280242203815 a48.31013137696617,48.31013137696617 0 0,0 -0.6511343196233653,0.5173004836493589 l -16.803503259222552 -21.5287146398583" fill="#beff1e" stroke="none" /><path d="M 112.34349029814194 116.9893568818739 l 24.780120906043383 34.106910402167856 a63.158459759574164,63.158459759574164 0 0,0 -0.8850385105904087,0.6314514780763604 l -24.189355067604087 -34.528406142088436" fill="#32ff47" stroke="none" /><path d="M 112.04921762599082 117.19931262002967 l 3.645440216344106 5.203579839348703 a27.353461852833874,27.353461852833874 0 0,0 -0.38795429974272194,0.266838504919217 l -3.5553290319785007 -5.2655591336330145" fill="#ff2503" stroke="none" /><path d="M 111.7513745106137 117.40417183066458 l 11.742354995080548 17.390813631755453 a41.98388190028109,41.98388190028109 0 0,0 -0.6024193267460937,0.39925068084545295 l -11.44126096959449 -17.590362333692223" fill="#fff116" stroke="none" /><path d="M 111.45004920935366 117.60387380957326 l 17.145056839268637 26.359661127909085 a52.44494726979127,52.44494726979127 0 0,0 -0.760996658275931,0.48570407262240867 l -16.688778378945777 -26.650879629355305" fill="#8eff24" stroke="none" /><line stroke="#e1ed5e" stroke-width="0.3" x1="143.8653032363475" x2="146.44561519142675" y1="172.8068346515853" y2="177.08958963109032" /><path d="M 144.38136562736335 173.6633856474863 a86.0,86.0 0 0,1 -40.68145358897372,12.25698825130547" fill="none" id="id42" stroke="none" /><text fill="#e1ed5e" style="font-size:6.75px; font-family:Arial;" text-anchor="middle"><textPath startOffset="21.466115282336833" xlink:href="#id42">June</textPath></text><path d="M 110.8373102113329 117.98757091392108 l 10.269421415445898 17.044999391279156 a40.89957337373657,40.89957337373657 0 0,0 -0.6061552997685205,0.358127235454249 l -9.974498244648995 -17.219245199027153" fill="#ffe315" stroke="none" /><path d="M 110.5260780823613 118.17145234162733 l 9.460270969657937 16.331520792353484 a39.87366679292678,39.87366679292678 0 0,0 -0.5968731582728461,0.33892015669987047 l -9.17774904446389 -16.491944114847982" fill="#ffd513" stroke="none" /><path d="M 110.21172684928248 118.3499491758327 l 12.27978424842597 22.06614220832201 a46.25287574011682,46.25287574011682 0 0,0 -0.6990289354946224,0.3811663109438543 l -11.8981325010627 -22.274249171025634" fill="#d7ff1c" stroke="none" /><path d="M 109.89434966115114 118.52300852407294 l 9.87876676561016 18.493836105791754 a41.966926496680685,41.966926496680685 0 0,0 -0.6401137309470804,0.33487725038824495 l -9.558962132136585 -18.661142775124716" fill="#fff116" stroke="none" /><path d="M 109.2508944713604 118.85261126421891 l 13.847018284043719 28.219158016102476 a52.43343434142063,52.43343434142063 0 0,0 -0.8136853345290734,0.3906184081503031 l -13.359220281514412 -28.45333070075234" fill="#8eff24" stroke="none" /><path d="M 108.92500713936063 119.00905698771935 l 10.763351146933726 22.924480858796812 a46.32551185183709,46.32551185183709 0 0,0 -0.7247339645611526,0.3326898171737672 l -10.367149186605154 -23.106357746304653" fill="#d7ff1c" stroke="none" /><path d="M 108.2653958097858 119.30500536409082 l 8.29464378642576 19.37331816591148 a42.074310719483265,42.074310719483265 0 0,0 -0.6682373069961705,0.2793232485200495 l -7.959935019932129 -19.513226457451502" fill="#fff216" stroke="none" /><path d="M 107.93186726928326 119.44442032107085 l 7.936294858118014 19.45527424680977 a42.011722254341024,42.011722254341024 0 0,0 -0.6719453364007639,0.2673809167251647 l -7.600228445675383 -19.589002007941" fill="#fff116" stroke="none" /><path d="M 107.2578585660854 119.70592522655815 l 4.354411287993802 11.822730143550846 a33.59912083092442,33.59912083092442 0 0,0 -0.5444344570857901,0.19521482626078984 l -4.150257270278278 -11.895932510851596" fill="#ff800b" stroke="none" /><path d="M 106.91757812671514 119.82793768551818 l 6.904476914178749 19.790385521882616 a41.960228065628684,41.960228065628684 0 0,0 -0.6840121942724539,0.23205407412455542 l -6.5627949869690685 -19.906302582905294" fill="#fff116" stroke="none" /><path d="M 106.57524785965236 119.94407469862006 l 8.52759613065299 25.865947240260926 a48.235402005542156,48.235402005542156 0 0,0 -0.7907818724507528,0.2531833834902663 l -8.081092913111297 -26.0089034704109" fill="#bfff1e" stroke="none" /><path d="M 105.88484417918355 120.15858648285463 l 5.873757522718711 20.120609041762354 a41.96043739159905,41.96043739159905 0 0,0 -0.6950823019635898,0.19643720152436323 l -5.526544052650515 -20.218735036625233" fill="#fff116" stroke="none" /><path d="M 105.53697534728816 120.25689768951611 l 5.54668914546924 20.292435398028246 a42.036841370786064,42.036841370786064 0 0,0 -0.6996322768146077,0.18477924316554958 l -5.196566425843135 -20.38490599049738" fill="#fff116" stroke="none" /><path d="M 105.18746579009965 120.34920634021253 l 5.71126942692617 22.40396462081253 a44.12047207990272,44.12047207990272 0 0,0 -0.7375403237727959,0.18126946731642765 l -5.324775818410163 -22.498955346442987" fill="#f2ff19" stroke="none" /><path d="M 104.48393922423573 120.51570834832081 l 5.369669409107235 24.568257064840353 a46.148212754929126,46.148212754929126 0 0,0 -0.7775062720222672,0.16293399885414966 l -4.94597167565559 -24.657047044421045" fill="#d9ff1c" stroke="none" /><path d="M 104.13013068566511 120.58985236759428 l 4.1392701467226765 20.635415127762585 a42.04647036542333,42.04647036542333 0 0,0 -0.7108504129845898,0.1362361734867387 l -3.7834521191663817 -20.70360849959779" fill="#fff216" stroke="none" /><path d="M 103.7750983002368 120.6578951692458 l 6.402750651737341 35.03679672397224 a56.61702318534319,56.61702318534319 0 0,0 -0.9602005256976559,0.16694316931169528 l -5.798701154567635 -35.14181847180494" fill="#60ff29" stroke="none" /><path d="M 103.06178313531738 120.77559828337769 l 3.37012223358208 22.867820023942723 a44.11482027870258,44.11482027870258 0 0,0 -0.7522026593683244,0.10424843450220775 l -2.975990983026925 -22.922443023937536" fill="#f2ff19" stroke="none" /><path d="M 102.70371172650421 120.8252237178851 l 1.4837777637448986 11.428734644563324 a32.524650624987544,32.524650624987544 0 0,0 -0.5558192944829912,0.06730197601435801 l -1.286831046210527 -11.452582149303034" fill="#ff700a" stroke="none" /><path d="M 102.34483914955558 120.86867818915974 l 3.528127229791241 31.399745173514127 a52.597336576224556,52.597336576224556 0 0,0 -0.9005851303892488,0.09334933103528224 l -2.9871095027963896 -31.455823873005166" fill="#8cff24" stroke="none" /><path d="M 101.62511606390274 120.93702456842531 l 1.6492039766937787 21.247358847379566 a42.311267717948205,42.311267717948205 0 0,0 -0.7266199417973528,0.05011196541714443 l -1.2832212741174955 -21.272599157312996" fill="#fff517" stroke="none" /><path d="M 101.26447882468166 120.96189622390904 l 1.3964322228953383 23.14935352707388 a44.191433583859975,44.191433583859975 0 0,0 -0.7596968951279389,0.039267651910959434 l -0.9977472593539198 -23.169960985747043" fill="#f1ff19" stroke="none" /><path d="M 100.90346689309514 120.98055641714683 l 0.9200823554838562 21.366405249802042 a42.3862064153426,42.3862064153426 0 0,0 -0.729203511789551,0.025115243351395464 l -0.552158492019653 -21.37907729157953" fill="#fff617" stroke="none" /><line stroke="#e1ed5e" stroke-width="0.3" x1="102.19456741930631" x2="102.32365962044197" y1="184.97166512339345" y2="189.96999836594603" /><path d="M 102.22038585953345 185.97133177190398 a86.0,86.0 0 0,1 -42.740103519485714,-10.115201625700543" fill="none" id="id43" stroke="none" /><text fill="#e1ed5e" style="font-size:6.75px; font-family:Arial;" text-anchor="middle"><textPath startOffset="22.20632615414155" xlink:href="#id43">July</textPath></text><path d="M 100.54218724476979 120.99299961872073 l 0.38036660240922393 14.727450740271983 a35.73236179502004,35.73236179502004 0 0,0 -0.6150055203837823,0.010587877768514263 l -0.12680139213277372 -14.731816095319656" fill="#ff9d0e" stroke="none" /><path d="M 100.18074693466247 120.99922214144158 l 0.27127534543960785 31.51683457880342 a52.518002033452284,52.518002033452284 0 0,0 -0.904044560204105,0.0 l 0.27127534543958615 -31.51683457880342" fill="#8dff24" stroke="none" /><path d="M 99.45781275523022 120.99299961872073 l -0.5449327155572748 21.099301763876433 a42.106337592950695,42.106337592950695 0 0,0 -0.724388706564285,-0.02494941172419193 l 0.9080417737962029 -21.086795553726144" fill="#fff216" stroke="none" /><path d="M 99.09653310690486 120.98055641714683 l -1.2619196028284534 29.304643726726933 a50.3318015988517,50.3318015988517 0 0,0 -0.8652562340681189,-0.04472386399243278 l 1.7661639053100613 -29.2785800559723" fill="#a7ff21" stroke="none" /><path d="M 98.73552117531835 120.96189622390904 l -1.2608110016918521 20.9010928926242 a41.939086142620766,41.939086142620766 0 0,0 -0.7202283924728279,-0.04967116675433823 l 1.62040215494361 -20.876293381353577" fill="#fff016" stroke="none" /><path d="M 98.37488393609728 120.93702456842531 l -2.27009544230776 29.246553587149247 a50.334522836466576,50.334522836466576 0 0,0 -0.8632506863486462,-0.07448490158761384 l 2.773190446397948 -29.203144433282972" fill="#a6ff21" stroke="none" /><path d="M 98.01472825383883 120.90594882070398 l -1.9953443455790116 21.012018555654823 a42.106546918921076,42.106546918921076 0 0,0 -0.7209591305495813,-0.07473036170549192 l 2.3567360727341864 -20.97455882549357" fill="#fff216" stroke="none" /><path d="M 97.65516085044442 120.86867818915974 l -3.6690204575331165 32.65367145213951 a53.85915352564742,53.85915352564742 0 0,0 -0.92040824847714,-0.11144862094082314 l 4.230556129061646 -32.58567730247334" fill="#7eff26" stroke="none" /><path d="M 96.93821686468263 120.77559828337769 l -3.0604402747488533 20.766486360524592 a41.99078965730348,41.99078965730348 0 0,0 -0.7141716249689147,-0.1115389201388587 l 3.4174477633262854 -20.71072913303863" fill="#fff116" stroke="none" /><path d="M 96.58105272829116 120.7198165907248 l -3.4177204012140243 20.71238139807248 a41.99246426506649,41.99246426506649 0 0,0 -0.7121742542107913,-0.12382062279517946 l 3.7737436268968656 -20.650482196756297" fill="#fff116" stroke="none" /><path d="M 96.22490169976321 120.6578951692458 l -4.846419133231967 26.520320913035086 a47.95951037658739,47.95951037658739 0 0,0 -0.810818065379684,-0.1553952119932724 l 5.302204813183346 -26.432968502693345" fill="#c3ff1e" stroke="none" /><path d="M 95.51606077576429 120.51570834832081 l -6.728903433032503 30.78726392854707 a52.51402484001515,52.51402484001515 0 0,0 -0.8814350300184781,-0.20061174312611962 l 7.257858612443844 -30.66687545184326" fill="#8dff24" stroke="none" /><path d="M 95.16358092515715 120.4354850818985 l -3.0644024091663424 12.94812313581147 a34.30580530691174,34.30580530691174 0 0,0 -0.5734733460585859,-0.1409457959240104 l 3.286829039968139 -12.89345608157343" fill="#ff8a0c" stroke="none" /><path d="M 94.81253420990036 120.34920634021253 l -15.562397370298923 61.0476190206376 a84.0,84.0 0 0,0 -1.398038228754043,-0.36923460278567344 l 16.610926041864456 -60.77069306854834" fill="#4dd2ff" stroke="none" /><path d="M 94.11515582081647 120.15858648285463 l -5.874754735204953 20.124025002072244 a41.96399593309543,41.96399593309543 0 0,0 -0.6916566269015274,-0.20839046793960428 l 6.220286336546726 -20.019919165026916" fill="#fff116" stroke="none" /><line stroke="#e1ed5e" stroke-width="0.3" x1="58.666819895761336" x2="56.23545636021788" y1="174.27360380694188" y2="178.64263932499728" /><path d="M 58.180547188652646 175.14741091055294 a86.0,86.0 0 0,1 -31.652253787137756,-30.449443065178592" fill="none" id="id44" stroke="none" /><text fill="#e1ed5e" style="font-size:6.75px; font-family:Arial;" text-anchor="middle"><textPath startOffset="22.20632615414155" xlink:href="#id44">August</textPath></text><line stroke="#e1ed5e" stroke-width="0.3" x1="26.63291911575756" x2="22.317208475507996" y1="142.92168965132927" y2="145.44649492493687" /><path d="M 25.769776987707644 143.4266507060508 a86.0,86.0 0 0,1 -11.730757126820373,-40.83630448921669" fill="none" id="id45" stroke="none" /><text fill="#e1ed5e" style="font-size:6.75px; font-family:Arial;" text-anchor="middle"><textPath startOffset="21.46611528233685" xlink:href="#id45">September</textPath></text><line stroke="#e1ed5e" stroke-width="0.3" x1="15.007084014347285" x2="10.007500721073583" y1="101.09737516637583" y2="101.16192664675087" /><path d="M 14.007167355692545 101.11028546245083 a86.0,86.0 0 0,1 10.666146001902534,-42.60595125391555" fill="none" id="id46" stroke="none" /><text fill="#e1ed5e" style="font-size:6.75px; font-family:Arial;" text-anchor="middle"><textPath startOffset="22.20632615414155" xlink:href="#id46">October</textPath></text><line stroke="#e1ed5e" stroke-width="0.3" x1="26.266209847984243" x2="21.928928074336255" y1="57.711370442889674" y2="55.22380399835377" /><path d="M 25.398753493254645 57.213857153982495 a86.0,86.0 0 0,1 29.58750427330803,-30.492523968695096" fill="none" id="id47" stroke="none" /><text fill="#e1ed5e" style="font-size:6.75px; font-family:Arial;" text-anchor="middle"><textPath startOffset="21.46611528233685" xlink:href="#id47">November</textPath></text><line stroke="#e1ed5e" stroke-width="0.3" x1="56.762969772571076" x2="54.21961505331055" y1="26.818313649435495" y2="22.513508569990535" /><path d="M 56.25429882871897 25.957352633546506 a86.0,86.0 0 0,1 42.265352541879196,-11.944610805530505" fill="none" id="id48" stroke="none" /><text fill="#e1ed5e" style="font-size:6.75px; font-family:Arial;" text-anchor="middle"><textPath startOffset="22.20632615414155" xlink:href="#id48">December</textPath></text></svg>