<?xml version="1.0" encoding="utf-8" ?>
<svg baseProfile="full" height="200mm" version="1.1" viewBox="0,0,200,200" width="200mm" xmlns="http://www.w3.org/2000/svg" xmlns:ev="http://www.w3.org/2001/xml-events" xmlns:xlink="http://www.w3.org/1999/xlink"><defs /><rect fill="#1a1a1a" height="200" width="200" x="0" y="0" /><text alignment-baseline="middle" fill="#e1ed5e" style="dominant-baseline: central; font-size:9.0px; font-family:Arial;" text-anchor="middle" x="100.0" y="100.0">2023</text><line stroke="#e1ed5e" stroke-width="0.3" x1="100.0" x2="100.0" y1="15.0" y2="10.0" /><path d="M 100.0 14.0 a86.0,86.0 0 0,1 42.46469731375804,11.215312516191453" fill="none" id="id37" stroke="none" /><text fill="#e1ed5e" style="font-size:6.75px; font-family:Arial;" text-anchor="middle"><textPath startOffset="22.20632615414155" xlink:href="#id37">January</textPath></text><path d="M 100.0 79.0 l 0.0 -25.527966101694915 a46.527966101694915,46.527966101694915 0 0,0 0.8009024517150777,0.006893620255839693 l -0.4394219724425493 25.524183858047635" fill="#d6ff1c" stroke="none" /><path d="M 100.72285384407766 79.0124445844662 l 0.8775673199789797 -25.479552899689033 a46.49466101694915,46.49466101694915 0 0,0 0.7996177652962644,0.03443322301430733 l -1.3160259176645757 25.46067195015053" fill="#d7ff1c" stroke="none" /><path d="M 101.08401301168833 79.027996857942 l 1.3175482603928546 -25.490124157952934 a46.52415254237288,46.52415254237288 0 0,0 0.7994133277553901,0.04822279503330817 l -1.7561236369878566 25.463668093539322" fill="#d6ff1c" stroke="none" /><path d="M 101.80526077348638 79.07773832637324 l 2.191293715884558 -25.39623150342421 a46.49059322033898,46.49059322033898 0 0,0 0.7967045869842212,0.07565670040340153 l -2.6281234299590235 25.354749258505635" fill="#d7ff1c" stroke="none" /><path d="M 102.16513564639614 79.11191278185805 l 2.6296961677166957 -25.369922203216145 a46.50584745762711,46.50584745762711 0 0,0 0.7955451851560595,0.08938877098422864 l -3.0660080563824805 25.320897478761314" fill="#d7ff1c" stroke="none" /><path d="M 103.2404852339499 79.25152402106235 l 3.929068730636209 -25.15740152836033 a46.46237288135593,46.46237288135593 0 0,0 0.7891319723935628,0.13021353698859217 l -4.361529909168647 25.086041728432114" fill="#d7ff1c" stroke="none" /><path d="M 104.66035177308747 79.52364482259891 l 4.541868253432709 -19.955769876280723 a41.46610169491525,41.46610169491525 0 0,0 0.6946091604892544,0.1643915463659119 l -4.884701100884486 19.87463241777394" fill="#ffe715" stroke="none" /><path d="M 105.01212808612495 79.60689891045804 l 7.3009594591108256 -29.70578599387032 a51.58983050847458,51.58983050847458 0 0,0 0.8605456695887981,0.21937225202679583 l -7.811214017384649 29.57571074567466" fill="#9aff23" stroke="none" /><path d="M 105.71112130821622 79.79150937346287 l 6.92794968476945 -24.514171335210566 a46.474322033898304,46.474322033898304 0 0,0 0.7679544938302088,0.22418697544781985 l -7.348894396323086 24.391286030844043" fill="#d7ff1c" stroke="none" /><path d="M 108.09893153111575 80.62456947434976 l 5.888099713154515 -14.086360217026009 a36.267457627118645,36.267457627118645 0 0,0 0.5739173920544304,0.24572147575123443 l -6.129700862999261 13.982919213311982" fill="#ffa20e" stroke="none" /><path d="M 108.43124777332544 80.76684994638697 l 10.255092025308226 -23.393657622111302 a46.542711864406776,46.542711864406776 0 0,0 0.7309818394252237,0.32797024374091593 l -10.65625598320023 23.213667047853857" fill="#d6ff1c" stroke="none" /><path d="M 109.08828744355905 81.06846463323043 l 12.296694972060047 -25.614871580994752 a49.4135593220339,49.4135593220339 0 0,0 0.7636247523468822,0.37470734959072705 l -12.735790991417362 25.399409071269194" fill="#b3ff20" stroke="none" /><path d="M 109.41281617654863 81.2277094730956 l 14.843190622808567 -29.60226583536172 a54.11516949152542,54.11516949152542 0 0,0 0.8290946783931067,0.42469449648496754 l -15.35054578879043 29.342378813564252" fill="#7dff26" stroke="none" /><path d="M 109.73455568895987 81.39251694778311 l 17.962494429642945 -34.335086402986576 a59.74983050847458,59.74983050847458 0 0,0 0.9072156869867123,0.48460320111941596 l -18.55085516315797 34.0208044753654" fill="#40ff2d" stroke="none" /><path d="M 110.36928655335952 81.73862282372117 l 12.142233696133086 -21.38371894214549 a45.59059322033898,45.59059322033898 0 0,0 0.6790898346745754,0.39337266445937225 l -12.50852026327299 21.171542120296067" fill="#e2ff1b" stroke="none" /><line stroke="#e1ed5e" stroke-width="0.3" x1="143.23703022742887" x2="145.7803849466894" y1="26.81831364943548" y2="22.513508569990506" /><path d="M 143.74570117128098 25.957352633546492 a86.0,86.0 0 0,1 28.547481713284135,27.462654790039103" fill="none" id="id38" stroke="none" /><text fill="#e1ed5e" style="font-size:6.75px; font-family:Arial;" text-anchor="middle"><textPath startOffset="19.985693538727396" xlink:href="#id38">February</textPath></text><path d="M 110.68208982089419 81.91981866633111 l 12.757725918053415 -21.593340055283715 a46.08050847457627,46.08050847457627 0 0,0 0.6794415919861162,0.4093559568477737 l -13.127529576257169 21.370537488977327" fill="#dcff1b" stroke="none" /><path d="M 111.2981086023043 82.29822771554956 l 13.312892376056617 -20.85851690612059 a45.744915254237284,45.744915254237284 0 0,0 0.6601056059398845,0.4293510481353041 l -13.669965007780782 20.62626693382576" fill="#e0ff1b" stroke="none" /><path d="M 111.60114157652 82.49532879139004 l 13.636678439334835 -20.576041666556506 a45.68466101694915,45.68466101694915 0 0,0 0.6517576180145916,0.4400696530667684 l -13.98884075175597 20.338260101191068" fill="#e1ff1b" stroke="none" /><path d="M 111.90073688211348 82.69761687909136 l 21.949223481461193 -31.91179484469377 a59.73152542372881,59.73152542372881 0 0,0 0.8421259363396938,0.5899630351291757 l -22.495280557384536 31.52924696680066" fill="#40ff2d" stroke="none" /><path d="M 112.48926042617603 83.11751280151076 l 15.607795490218168 -21.097999286489742 a47.24364406779661,47.24364406779661 0 0,0 0.649608758811725,0.4892718493350595 l -15.968650402788276 20.826210847648834" fill="#cdff1d" stroke="none" /><path d="M 112.77801427241765 83.33499621200491 l 23.24886989036996 -30.321026141436214 a59.20830508474577,59.20830508474577 0 0,0 0.8034494958733767,0.6271050756339012 l -23.76735194140277 29.916342676579088" fill="#46ff2d" stroke="none" /><path d="M 113.6212207817346 84.01681056812373 l 24.787323706344946 -29.085534744360604 a59.21491525423729,59.21491525423729 0 0,0 0.7700933604065964,0.6678173735186141 l -25.284310865398307 28.654552377422316" fill="#45ff2d" stroke="none" /><path d="M 113.89432698308785 84.25364557470407 l 25.41770313292359 -28.805725005258388 a59.416525423728814,59.416525423728814 0 0,0 0.7610663092479316,0.6832928469197499 l -25.909780429767515 28.36393314956934" fill="#43ff2d" stroke="none" /><path d="M 114.42810811169701 84.74124197986012 l 26.311733767424396 -27.826543545372033 a59.29652542372881,59.29652542372881 0 0,0 0.7356065937354098,0.7076529603531239 l -26.786823604772223 27.369507498256606" fill="#45ff2d" stroke="none" /><path d="M 114.68862486808459 84.99185889309783 l 26.726184124384616 -27.30754894961916 a59.20983050847458,59.20983050847458 0 0,0 0.7222589930681831,0.7191573834187962 l -27.192278917620122 26.843455715550245" fill="#46ff2d" stroke="none" /><path d="M 115.19652480421416 85.50635884689758 l 27.65693923447828 -26.377725027404107 a59.218983050847456,59.218983050847456 0 0,0 0.6971841795165135,0.7437074729470756 l -28.106890735965255 25.89774813757898" fill="#45ff2d" stroke="none" /><path d="M 115.4437574822437 85.77008943001954 l 28.211407206093273 -25.99404983259858 a59.361101694915256,59.361101694915256 0 0,0 0.6859213726814005,0.7574115116076853 l -28.65467221939071 25.504585533721347" fill="#44ff2d" stroke="none" /><path d="M 115.68641384162765 86.03803664274999 l 24.724332983720902 -22.006319266873327 a54.09940677966102,54.09940677966102 0 0,0 0.6131475709129068,0.7009336668283116 l -25.099472418211658 21.57747004384207" fill="#7dff26" stroke="none" /><path d="M 116.15771136456269 86.58626213691792 l 29.371432946599136 -24.383447217212748 a59.17372881355932,59.17372881355932 0 0,0 0.6438707744457123,0.7893094373331057 l -29.786802213121256 23.87425361027154" fill="#46ff2c" stroke="none" /><path d="M 116.38621287248628 86.86637796730983 l 29.843935739843722 -23.920046384429103 a59.24694915254237,59.24694915254237 0 0,0 0.6309684959630001,0.8012659140190296 l -30.251258316400687 23.402788076457036" fill="#45ff2d" stroke="none" /><path d="M 116.82858285166822 87.43820079747576 l 28.566213786901976 -21.32342602644467 a56.6471186440678,56.6471186440678 0 0,0 0.5765527213149381,0.7864172639305951 l -28.92902912073054 20.82854631884258" fill="#61ff29" stroke="none" /><path d="M 117.04232023915458 87.72973835380427 l 30.992264016511964 -22.314050150101142 a59.18949152542373,59.18949152542373 0 0,0 0.5881952343609977,0.8319604455781425 l -31.371771870676845 21.777263204191208" fill="#46ff2d" stroke="none" /><path d="M 117.2510076193507 88.02491185347247 l 23.076459865434824 -16.01892753721872 a49.0914406779661,49.0914406779661 0 0,0 0.4758960127194584,0.6983186761821719 l -23.348780343823016 15.61933083776614" fill="#b7ff1f" stroke="none" /><path d="M 117.65298651832404 88.62581576622439 l 13.372671578989971 -8.61628881205578 a36.90813559322034,36.90813559322034 0 0,0 0.33950634622012255,0.5370175070948336 l -13.51900552145605 8.38482365724674" fill="#ffaa0f" stroke="none" /><line stroke="#e1ed5e" stroke-width="0.3" x1="172.23445277983987" x2="176.4835382374775" y1="55.19839476539836" y2="52.563006222186495" /><path d="M 173.08426987136738 54.67131705675599 a86.0,86.0 0 0,1 12.851231095245387,41.99856678651699" fill="none" id="id39" stroke="none" /><text fill="#e1ed5e" style="font-size:6.75px; font-family:Arial;" text-anchor="middle"><textPath startOffset="22.20632615414155" xlink:href="#id39">March</textPath></text><path d="M 117.84615892207809 88.93136811851018 l 21.67573721377099 -13.443831640562541 a46.50635593220339,46.50635593220339 0 0,0 0.41608616947327465,0.683936260122211 l -21.90393918153049 13.06872760723325" fill="#d7ff1c" stroke="none" /><path d="M 118.03404312379186 89.2402003453031 l 28.447065554132408 -16.972606975896824 a54.125593220338985,54.125593220338985 0 0,0 0.4704811145679678,0.8042047334906757 l -28.735006343170703 16.480422830052255" fill="#7dff26" stroke="none" /><path d="M 118.21658344932153 89.55222093294921 l 11.098442439511581 -6.365303072279226 a33.79423728813559,33.79423728813559 0 0,0 0.2850662335211215,0.5071010208889521 l -11.206366314325136 6.17331854145548" fill="#ff7f0b" stroke="none" /><path d="M 118.3937258080291 89.86733742301442 l 22.43611448349099 -12.35951758618679 a46.61516949152542,46.61516949152542 0 0,0 0.3811165264406394,0.7061510419254684 l -22.645539109150093 11.971485560928862" fill="#d5ff1c" stroke="none" /><path d="M 118.73160827565052 90.50648371742162 l 22.848480147758984 -11.580021059744588 a46.61542372881355,46.61542372881355 0 0,0 0.3565857649508572,0.7188551429826094 l -23.044425925663248 11.185006328263029" fill="#d5ff1c" stroke="none" /><path d="M 118.89224826269711 90.83032412892265 l 22.979012087852944 -11.153256603091988 a46.542711864406776,46.542711864406776 0 0,0 0.3436221957600167,0.7237559788561447 l -23.167592477454715 10.756058208595302" fill="#d6ff1c" stroke="none" /><path d="M 119.196687751892 91.48605970444005 l 23.348610593145647 -10.355363338903508 a46.54194915254237,46.54194915254237 0 0,0 0.31850049882142434,0.7351430641192925 l -23.523401801809754 9.951921130197613" fill="#d6ff1c" stroke="none" /><path d="M 119.34039704204932 91.81776055985345 l 27.053843770332993 -11.445526533085381 a50.375338983050845,50.375338983050845 0 0,0 0.33098591882939693,0.8015086560129681 l -27.246851376048586 10.97814330661911" fill="#a8ff21" stroke="none" /><path d="M 119.47837535516314 92.15188598940014 l 26.456397209093307 -10.659658098828183 a49.523135593220346,49.523135593220346 0 0,0 0.31177514073842244,0.7934337262390468 l -26.63596589971343 10.202675367693352" fill="#b2ff20" stroke="none" /><path d="M 119.61058180528143 92.48833698450437 l 40.8645588557948 -15.65281430451743 a64.75983050847458,64.75983050847458 0 0,0 0.3897783536039832,1.0444122020534403 l -41.127941797900405 14.947078965434656" fill="#34ff5a" stroke="none" /><path d="M 119.85752413597 93.16781622104841 l 32.24227248207932 -11.093282805058966 a55.097288135593224,55.097288135593224 0 0,0 0.30083829349826974,0.8994682061390775 l -32.428448069349365 10.536641495997573" fill="#72ff27" stroke="none" /><path d="M 119.97218684219823 93.5106431181261 l 16.957257087532735 -5.509746821824435 a38.82991525423729,38.82991525423729 0 0,0 0.2010733499830279,0.6374574676940264 l -17.04958592128397 5.21703918770399" fill="#ffc512" stroke="none" /><path d="M 120.37134235888165 94.90015583598534 l 13.35038141127096 -3.342188429617928 a34.76237288135593,34.76237288135593 0 0,0 0.14031947644960818,0.5817148196700493 l -13.405933687981387 3.1118883782884725" fill="#ff8d0d" stroke="none" /><path d="M 120.45610955862082 95.25157060432595 l 15.887660974748206 -3.6879659929864106 a37.31008474576271,37.31008474576271 0 0,0 0.13983395671053242,0.6268482092498081 l -15.948789318460776 3.4139396141866385" fill="#ffb010" stroke="none" /><path d="M 120.53481517161879 95.60439243477599 l 17.475724364272917 -3.7407897554167353 a38.871610169491525,38.871610169491525 0 0,0 0.1344230333060115,0.6554944497687064 l -17.537526693493927 3.439419649484617" fill="#ffc512" stroke="none" /><path d="M 120.6074358757038 95.95851677861258 l 25.07046759943824 -4.916762801864423 a46.548050847457624,46.548050847457624 0 0,0 0.14743380502503356,0.7875972817851917 l -25.15138712837313 4.484487442616669" fill="#d6ff1c" stroke="none" /><path d="M 120.73433829027371 96.67025291283417 l 28.094275320186853 -4.511686367985469 a49.454237288135594,49.454237288135594 0 0,0 0.12774290082551315,0.8416661096548691 l -28.167774114451667 4.027421145938518" fill="#b3ff20" stroke="none" /><path d="M 120.83666639777658 97.38593545837742 l 53.33101880330677 -6.690644393923169 a74.74906779661016,74.74906779661016 0 0,0 0.14917652593651104,1.278053373654904 l -53.43828568224687 5.771647281943412" fill="#41ffce" stroke="none" /><path d="M 120.94382443527127 98.46500227214037 l 13.218697327893421 -0.9688140017736834 a34.25415254237288,34.25415254237288 0 0,0 0.03803745680632064,0.5884226210168982 l -13.233415375704158 0.7411323165037498" fill="#ff860c" stroke="none" /><line stroke="#e1ed5e" stroke-width="0.3" x1="184.98032266829074" x2="189.97916517819016" y1="98.17113171792111" y2="98.06355123074" /><path d="M 185.9800911702706 98.14961562048488 a86.0,86.0 0 0,1 -9.607161424134198,41.387399972396054" fill="none" id="id40" stroke="none" /><text fill="#e1ed5e" style="font-size:6.75px; font-family:Arial;" text-anchor="middle"><textPath startOffset="21.466115282336823" xlink:href="#id40">April</textPath></text><path d="M 120.99980553446 99.90962569577887 l 15.326044516148325 -0.06595683028283757 a36.326186440677965,36.326186440677965 0 0,0 -0.0026910831765610283,0.625312956729091 l -15.324909135682262 -0.19786560464993813" fill="#ffa20f" stroke="none" /><path d="M 120.99824983174949 100.27111621757518 l 25.60362869315354 0.33057797783659026 a46.60576271186441,46.60576271186441 0 0,0 -0.017261747661442776,0.8020855850922435 l -25.59414488280709 -0.7712533787189486" fill="#d5ff1c" stroke="none" /><path d="M 120.9904718944345 100.63252640178507 l 25.732133093929097 0.7754115123287463 a46.743813559322035,46.743813559322035 0 0,0 -0.031157794868167457,0.8040442389982063 l -25.714973166209727 -1.2182329983409588" fill="#d4ff1c" stroke="none" /><path d="M 120.9764740272857 100.99374915477107 l 25.62507399180707 1.2139740733919397 a46.65381355932203,46.65381355932203 0 0,0 -0.04490684843079825,0.8018419454463455 l -25.600380792488743 -1.6548877351737086" fill="#d5ff1c" stroke="none" /><path d="M 120.95626037817324 101.35467743843564 l 10.338590925067306 0.6683184699304162 a31.360169491525426,31.360169491525426 0 0,0 -0.039459218992178545,0.5383896926528255 l -10.32555514741079 -0.846181299080012" fill="#ff5c08" stroke="none" /><path d="M 120.92983693683757 101.71520430193887 l 25.404919868332595 2.0819382387008853 a46.490084745762715,46.490084745762715 0 0,0 -0.07222656114016619,0.7970140836394655 l -25.36531871091535 -2.518933710888921" fill="#d7ff1c" stroke="none" /><path d="M 120.89721153311464 102.0752229133903 l 23.078516107430804 2.2918400073279654 a44.192033898305084,44.192033898305084 0 0,0 -0.08168728799617626,0.7563228345925156 l -23.035646517933575 -2.6887591638052726" fill="#f3ff19" stroke="none" /><path d="M 120.8583938346157 102.4346265915055 l 46.162453812795675 5.388158765861555 a67.47584745762711,67.47584745762711 0 0,0 -0.14458625228014857,1.1524946903553746 l -46.06286605126868 -6.181971210504324" fill="#37ff7b" stroke="none" /><path d="M 120.81339534386255 102.79330883721812 l 4.732653648286034 0.6351564961335425 a25.77508474576271,25.77508474576271 0 0,0 -0.06280031767354628,0.43922527554094604 l -4.721019279595886 -0.7165272436548978" fill="#ff0901" stroke="none" /><path d="M 120.76222939487914 103.15116336523771 l 27.865375163279747 4.229235102988942 a49.184491525423724,49.184491525423724 0 0,0 -0.13424613175568403,0.8359507905905842 l -27.788447277162778 -4.7082651232727315" fill="#b6ff1f" stroke="none" /><path d="M 120.70491114924044 103.5080841355445 l 12.547777751921036 2.1260009159453572 a33.72661016949152,33.72661016949152 0 0,0 -0.10190825729016832,0.5715556266977326 l -12.509323052291679 -2.341675293376308" fill="#ff7e0b" stroke="none" /><path d="M 120.64145759157962 103.86396538481128 l 32.56252409216939 6.095522342644663 a54.128135593220335,54.128135593220335 0 0,0 -0.17931895338679424,0.9143434800523759 l -32.45277520580693 -6.655129549764983" fill="#7dff26" stroke="none" /><path d="M 120.5718875245553 104.21870165774334 l 39.95030670749231 8.19265733069362 a61.781694915254235,61.781694915254235 0 0,0 -0.2226081588093285,1.0399512078851767 l -39.80336450995854 -8.879122357994966" fill="#30ff35" stroke="none" /><path d="M 120.49622156327973 104.57218783832717 l 24.8785916483776 5.549783593928815 a46.490084745762715,46.490084745762715 0 0,0 -0.18095586747425157,0.7795531410240203 l -24.779375214972795 -5.977205392301401" fill="#d7ff1c" stroke="none" /><path d="M 120.41448212921028 104.9243191809786 l 27.341812874968582 6.595308797487673 a49.12601694915254,49.12601694915254 0 0,0 -0.20536706961355553,0.82033935739807 l -27.224234491059967 -7.064975994283139" fill="#b7ff1f" stroke="none" /><path d="M 120.23288151984713 105.62410040840565 l 27.017265532622023 7.5099443431709325 a49.041610169491534,49.041610169491534 0 0,0 -0.23308160923222865,0.811387659171824 l -26.883991286503694 -7.973889477847339" fill="#b8ff1f" stroke="none" /><path d="M 120.13307415673323 105.97154293290107 l 29.403062974274125 8.72105529154628 a51.669152542372885,51.669152542372885 0 0,0 -0.26024823934665425,0.8505063040472195 l -29.248587962421336 -9.225888568145557" fill="#99ff23" stroke="none" /><path d="M 119.9155931802556 106.66101706037122 l 36.303522391742206 12.142163169044004 a59.28025423728813,59.28025423728813 0 0,0 -0.33199530677721334,0.9649337650529167 l -36.08913625402176 -12.76526963718622" fill="#45ff2d" stroke="none" /><path d="M 119.79798401119884 107.00284435728193 l 31.319164343526985 11.078058916190244 a54.22067796610169,54.22067796610169 0 0,0 -0.3188065847934298,0.8772187993716274 l -31.123833497728327 -11.615525512568004" fill="#7cff26" stroke="none" /><path d="M 119.67450827220406 107.3425965602758 l 23.92644104662434 8.929433015451135 a46.53838983050848,46.53838983050848 0 0,0 -0.28655619159962464,0.7481077925862735 l -23.76919057543121 -9.339964374870553" fill="#d6ff1c" stroke="none" /><path d="M 119.54520255179757 107.68017299344265 l 9.665410274010595 3.7979664196507485 a31.384830508474575,31.384830508474575 0 0,0 -0.20190516922236892,0.5011120718875084 l -9.598602490530835 -3.9637778593810706" fill="#ff5c08" stroke="none" /><path d="M 119.41010516605496 108.01547362559984 l 40.018655082072144 16.525849375782705 a64.29661016949152,64.29661016949152 0 0,0 -0.4312435454777853,1.0193323542255115 l -39.72826055540205 -17.212256255674383" fill="#33ff54" stroke="none" /><path d="M 119.26925614724726 108.34839909993367 l 35.24384274767162 15.269383666109919 a59.40940677966102,59.40940677966102 0 0,0 -0.414618010208842,0.9348541570629325 l -34.97578365273151 -15.87378615966554" fill="#43ff2d" stroke="none" /><path d="M 119.12269723197855 108.67885076344098 l 11.743558593091329 5.329823048744642 a33.896440677966105,33.896440677966105 0 0,0 -0.24570946047472939,0.5292363185227922 l -11.650074515776769 -5.531179434546265" fill="#ff800b" stroke="none" /><path d="M 118.97047184881838 109.00673069616215 l 23.16877966233411 10.999987804223219 a46.64745762711864,46.64745762711864 0 0,0 -0.3506261558877993,0.7223937331657537 l -22.976000249831596 -11.397170493354247" fill="#d5ff1c" stroke="none" /><path d="M 118.81262510543309 109.33194174019688 l 25.954362217189335 12.87457729888155 a49.972118644067805,49.972118644067805 0 0,0 -0.3888814334481879,0.7672999613844252 l -25.728902113954877 -13.319431471968668" fill="#adff20" stroke="none" /><line stroke="#e1ed5e" stroke-width="0.3" x1="174.80103733775053" x2="179.2010983576182" y1="140.37084112569926" y2="142.7455964860345" /><path d="M 175.68104954172406 140.8457921977663 a86.0,86.0 0 0,1 -30.038265399797805,32.042727171017184" fill="none" id="id41" stroke="none" /><text fill="#e1ed5e" style="font-size:6.75px; font-family:Arial;" text-anchor="middle"><textPath startOffset="22.206326154141568" xlink:href="#id41">May</textPath></text><path d="M 118.12598468904814 110.60418214915192 l 6.733825256272773 3.9394665064028573 a28.801525423728812,28.801525423728812 0 0,0 -0.25402825321610933,0.4257659640680243 l -6.665016127358437 -4.054794564356985" fill="#ff3605" stroke="none" /><path d="M 117.94076556474637 110.91462005526583 l 15.239659504659372 9.271348687138877 a38.83830508474576,38.83830508474576 0 0,0 -0.3523843073336963,0.5681557050280309 l -15.077810557657711 -9.532300723532183" fill="#ffc512" stroke="none" /><path d="M 117.55443506779139 111.5257021239791 l 21.339689825569014 14.01098397059159 a46.528220338983054,46.528220338983054 0 0,0 -0.4453346570905391,0.6657148885506184 l -21.095352063067754 -14.376235773348016" fill="#d6ff1c" stroke="none" /><path d="M 117.35343817320211 111.8261652097733 l 21.154597457315244 14.416610816800267 a46.59991525423729,46.59991525423729 0 0,0 -0.45743163127760983,0.658964381718579 l -20.9033049188755 -14.778616460705866" fill="#d5ff1c" stroke="none" /><path d="M 117.14729908036423 112.12312394758627 l 27.09875278515141 19.15879213978292 a54.187372881355934,54.187372881355934 0 0,0 -0.5450222928866967,0.7569882958227876 l -26.764950699889113 -19.62241404105684" fill="#7cff26" stroke="none" /><path d="M 116.93607887273984 112.41649034213515 l 22.673021812924592 16.622463705003675 a49.11355932203389,49.11355932203389 0 0,0 -0.5057263740900982,0.6775031227165923 l -22.3835341721394 -17.010279707229582" fill="#b7ff1f" stroke="none" /><path d="M 116.498646956653 112.99209946851258 l 21.456430444680656 16.89617817199866 a48.31042372881356,48.31042372881356 0 0,0 -0.5201010221964237,0.6489059943780545 l -21.162411510429376 -17.263011999954962" fill="#c1ff1e" stroke="none" /><path d="M 116.27256486870786 113.27417163493432 l 29.64975581640603 24.18647280354141 a59.263474576271186,59.263474576271186 0 0,0 -0.651627301898491,0.78492706274829 l -29.229032514613998 -24.69326112340347" fill="#45ff2d" stroke="none" /><path d="M 116.0416608686014 113.55231037782055 l 25.41671044620424 21.472536514243448 a54.272796610169486,54.272796610169486 0 0,0 -0.6090376689394327,0.7084484020664786 l -25.04333026769403 -21.906862015471454" fill="#7bff26" stroke="none" /><path d="M 115.80600337817218 113.82643327865902 l 18.274686787152802 15.985934679724163 a45.279915254237295,45.279915254237295 0 0,0 -0.5182203295251975,0.5822260338375538 l -17.996807607979267 -16.298134883302584" fill="#e6ff1a" stroke="none" /><path d="M 115.32070863581623 114.36230785411682 l 13.862644585136438 12.995454318508925 a40.0014406779661,40.0014406779661 0 0,0 -0.47524273259788263,0.4982901051334735 l -13.63689530115959 -13.232151540224907" fill="#ffd413" stroke="none" /><path d="M 115.07121518719521 114.62390073753431 l 21.922961830168017 21.27228718421578 a51.5471186440678,51.5471186440678 0 0,0 -0.6233749538588385,0.6314755370996644 l -21.553546251253643 -21.646503215296107" fill="#9aff22" stroke="none" /><path d="M 114.55890576462653 115.13401014063108 l 23.307997342647493 24.2287074210263 a54.61983050847457,54.61983050847457 0 0,0 -0.6831748669630467,0.6459844783387375 l -22.887486641293638 -24.62632653611096" fill="#77ff27" stroke="none" /><path d="M 114.29624159901734 115.38237550388516 l 20.879089698012802 22.46534487331334 a51.66966101694915,51.66966101694915 0 0,0 -0.6566978954437211,0.5998779573310217 l -20.489292253102217 -22.821415597230946" fill="#99ff23" stroke="none" /><path d="M 114.0293411484842 115.62618273729858 l 20.95942804364707 23.34506298000144 a52.37338983050848,52.37338983050848 0 0,0 -0.6760098960839845,0.5965001349712465 l -20.554475794656497 -23.702386256744976" fill="#91ff24" stroke="none" /><path d="M 113.48314897796784 116.09983520530334 l 21.263546228401964 25.39018078914811 a54.11796610169491,54.11796610169491 0 0,0 -0.7193305200661364,0.5919600462419561 l -20.823345579791138 -25.752435954247243" fill="#7dff26" stroke="none" /><path d="M 113.20401910651253 116.32954008644616 l 20.855796135222402 25.792567874798685 a54.16957627118644,54.16957627118644 0 0,0 -0.730109175535014,0.5800428855286903 l -20.408729466970033 -26.1477446743325" fill="#7cff26" stroke="none" /><path d="M 112.34349029814194 116.9893568818739 l 30.09674684668383 41.42461822477341 a72.2036440677966,72.2036440677966 0 0,0 -1.0117885370894542,0.7218842565614997 l -29.37923098174549 -41.93654674317913" fill="#3effb2" stroke="none" /><path d="M 112.04921762599082 117.19931262002967 l 4.427576917482729 6.320018603427853 a28.716610169491524,28.716610169491524 0 0,0 -0.40728783980721656,0.28013629006820684 l -4.318132193052629 -6.395295682861153" fill="#ff3505" stroke="none" /><path d="M 111.7513745106137 117.40417183066458 l 14.261701426349527 21.122048488680036 a46.48601694915254,46.48601694915254 0 0,0 -0.6670196695991678,0.44206426553944167 l -13.896007058010396 -21.364410775310795" fill="#d7ff1c" stroke="none" /><path d="M 111.45004920935366 117.60387380957326 l 20.823564070570317 32.01518067402053 a59.19152542372881,59.19152542372881 0 0,0 -0.8588921410100926,0.5481856014678066 l -20.269390127513294 -32.36888070431214" fill="#46ff2d" stroke="none" /><line stroke="#e1ed5e" stroke-width="0.3" x1="143.8653032363475" x2="146.44561519142675" y1="172.8068346515853" y2="177.08958963109032" /><path d="M 144.38136562736335 173.6633856474863 a86.0,86.0 0 0,1 -40.68145358897372,12.25698825130547" fill="none" id="id42" stroke="none" /><text fill="#e1ed5e" style="font-size:6.75px; font-family:Arial;" text-anchor="middle"><textPath startOffset="21.466115282336833" xlink:href="#id42">June</textPath></text><path d="M 110.8373102113329 117.98757091392108 l 12.472746915742892 20.70203909118531 a45.169067796610165,45.169067796610165 0 0,0 -0.6694316730477299,0.3955120321238619 l -12.114547371666779 -20.913669695602923" fill="#e7ff1a" stroke="none" /><path d="M 110.5260780823613 118.17145234162733 l 11.489991576489388 19.83548219044172 a43.923050847457624,43.923050847457624 0 0,0 -0.6574888187848179,0.3733393107101308 l -11.14685399078337 -20.030324666946477" fill="#f7ff19" stroke="none" /><path d="M 110.21172684928248 118.3499491758327 l 14.914437232089469 26.800478433695886 a51.670932203389825,51.670932203389825 0 0,0 -0.7809131033732167,0.42581608809922517 l -14.450901316847604 -27.053235173554885" fill="#99ff23" stroke="none" /><path d="M 109.89434966115114 118.52300852407294 l 11.998276506774125 22.46172670466393 a46.46542372881356,46.46542372881356 0 0,0 -0.7087284732523917,0.37077324062939204 l -11.60985713099524 -22.66492936423804" fill="#d7ff1c" stroke="none" /><path d="M 109.2508944713604 118.85261126421891 l 16.81792455559121 34.273636446627506 a59.177542372881355,59.177542372881355 0 0,0 -0.9183433999143563,0.44086063959539834 l -16.22546848767662 -34.558051362722466" fill="#46ff2c" stroke="none" /><path d="M 108.92500713936063 119.00905698771935 l 13.07265028768384 27.842975408186604 a51.75915254237289,51.75915254237289 0 0,0 -0.809739910577411,0.3717118777114666 l -12.591442381339009 -28.063874356232144" fill="#98ff23" stroke="none" /><path d="M 108.2653958097858 119.30500536409082 l 10.07427668210418 23.52990345085438 a46.59584745762712,46.59584745762712 0 0,0 -0.7400497617153006,0.3093408604168084 l -9.667755460891419 -23.69982935429116" fill="#d5ff1c" stroke="none" /><path d="M 107.93186726928326 119.44442032107085 l 9.639043253705994 23.629443377584128 a46.51983050847457,46.51983050847457 0 0,0 -0.744049076852438,0.29607248310249784 l -9.23087310081169 -23.791862705092694" fill="#d6ff1c" stroke="none" /><path d="M 107.2578585660854 119.70592522655815 l 5.288659191696298 14.359321228345133 a36.302288135593216,36.302288135593216 0 0,0 -0.588236121758363,0.21092054482379094 l -5.0407035093082 -14.448229314208882" fill="#ffa20f" stroke="none" /><path d="M 106.91757812671514 119.82793768551818 l 8.38584664629831 24.036453466420184 a46.457288135593224,46.457288135593224 0 0,0 -0.7573207549747536,0.2569243181371935 l -7.970856158386328 -24.1772407714555" fill="#d7ff1c" stroke="none" /><path d="M 106.57524785965236 119.94407469862006 l 10.357209431227231 31.41553945565928 a54.078813559322036,54.078813559322036 0 0,0 -0.8865800567276765,0.2838549368887871 l -9.814908029408615 -31.589167239207775" fill="#7dff26" stroke="none" /><path d="M 105.88484417918355 120.15858648285463 l 7.133984288065211 24.4375271221269 a46.45754237288135,46.45754237288135 0 0,0 -0.7695776665707151,0.2174903356764213 l -6.71227545338989 -24.556706251141843" fill="#d7ff1c" stroke="none" /><path d="M 105.53697534728816 120.25689768951611 l 6.736742717333718 24.64621917676743 a46.55033898305084,46.55033898305084 0 0,0 -0.7747518269019423,0.20461899909458087 l -6.311500447620278 -24.758529525165596" fill="#d6ff1c" stroke="none" /><path d="M 105.18746579009965 120.34920634021253 l 6.93663403690178 27.210781340062397 a49.08101694915254,49.08101694915254 0 0,0 -0.8204633229267991,0.2016499230019357 l -6.46721742923177 -27.326152521378365" fill="#b7ff1f" stroke="none" /><path d="M 104.48393922423573 120.51570834832081 l 6.521743032208912 29.839427182311308 a51.54381355932203,51.54381355932203 0 0,0 -0.8684114927514446,0.18198407171285433 l -6.007140078028089 -29.947267234750704" fill="#9aff22" stroke="none" /><path d="M 104.13013068566511 120.58985236759428 l 5.027359075781021 25.06278591340676 a46.56203389830508,46.56203389830508 0 0,0 -0.7871919031099246,0.15086720176353693 l -4.5951995580993925 -25.145610313518763" fill="#d6ff1c" stroke="none" /><path d="M 103.7750983002368 120.6578951692458 l 7.7764739816415664 42.55401357073054 a64.25872881355932,64.25872881355932 0 0,0 -1.0898005885165605,0.18947580145565576 l -7.0428244216529565 -42.6815679507072" fill="#33ff54" stroke="none" /><path d="M 103.06178313531738 120.77559828337769 l 4.093188894884037 27.774157874600267 a49.074152542372886,49.074152542372886 0 0,0 -0.836764330340945,0.11596791157131221 l -3.6144959733562616 -27.840500351664183" fill="#b7ff1f" stroke="none" /><path d="M 102.70371172650421 120.8252237178851 l 1.8021253367362675 13.880793184163217 a34.99728813559322,34.99728813559322 0 0,0 -0.5980746180682711,0.07241850723708346 l -1.5629232956166161 -13.909757220125652" fill="#ff900d" stroke="none" /><path d="M 102.34483914955558 120.86867818915974 l 4.285094188221754 38.136625124664455 a59.37661016949152,59.37661016949152 0 0,0 -1.016661597190735,0.10538113142729462 l -3.627999994425416 -38.2047356245475" fill="#44ff2d" stroke="none" /><path d="M 101.62511606390274 120.93702456842531 l 2.0030440841389017 25.806023417515895 a46.88364406779661,46.88364406779661 0 0,0 -0.8051422838682595,0.055527325860730864 l -1.558539039491712 -25.83667908789291" fill="#d2ff1c" stroke="none" /><path d="M 101.26447882468166 120.96189622390904 l 1.6960396303305825 28.116094970255517 a49.16720338983051,49.16720338983051 0 0,0 -0.8452355745938108,0.0436890245817314 l -1.211815987323292 -28.141123801599452" fill="#b6ff1f" stroke="none" /><path d="M 100.90346689309514 120.98055641714683 l 1.117487918484884 25.950611470588868 a46.974661016949156,46.974661016949156 0 0,0 -0.8081423339240863,0.027834055995229173 l -0.6706252328861455 -25.96600232501019" fill="#d1ff1d" stroke="none" /><line stroke="#e1ed5e" stroke-width="0.3" x1="102.19456741930631" x2="102.32365962044197" y1="184.97166512339345" y2="189.96999836594603" /><path d="M 102.22038585953345 185.97133177190398 a86.0,86.0 0 0,1 -42.740103519485714,-10.115201625700543" fill="none" id="id43" stroke="none" /><text fill="#e1ed5e" style="font-size:6.75px; font-family:Arial;" text-anchor="middle"><textPath startOffset="22.20632615414155" xlink:href="#id43">July</textPath></text><path d="M 100.54218724476979 120.99299961872073 l 0.4619750397929558 17.887255607331298 a38.89322033898305,38.89322033898305 0 0,0 -0.6694084581140394,0.011524473678379603 l -0.15400689178624843 -17.89255755828884" fill="#ffc512" stroke="none" /><path d="M 100.18074693466247 120.99922214144158 l 0.3294780291185513 38.278836302841604 a59.28025423728813,59.28025423728813 0 0,0 -1.0204499275619872,0.0 l 0.3294780291185249 -38.278836302841604" fill="#45ff2d" stroke="none" /><path d="M 99.45781275523022 120.99299961872073 l -0.6618491512123116 25.6262003820292 a46.634745762711866,46.634745762711866 0 0,0 -0.8022945023283321,-0.027632644851109167 l 1.1028640052152867 -25.611010938751996" fill="#d5ff1c" stroke="none" /><path d="M 99.09653310690486 120.98055641714683 l -1.5326670507863933 35.592015350516945 a56.625,56.625 0 0,0 -0.9734428869564852,-0.050315878194777036 l 2.1450980061563674 -35.560359665559965" fill="#61ff29" stroke="none" /><path d="M 98.73552117531835 120.96189622390904 l -1.5313205969943096 25.385465389513858 a46.43161016949153,46.43161016949153 0 0,0 -0.7973794144816372,-0.054991952937606836 l 1.9680627722548767 -25.355345092059963" fill="#d7ff1c" stroke="none" /><path d="M 98.37488393609728 120.93702456842531 l -2.757149091564154 35.52146185193689 a56.62830508474576,56.62830508474576 0 0,0 -0.9711907549017492,-0.0837984248904972 l 3.368184164207445 -35.46873917476773" fill="#61ff29" stroke="none" /><path d="M 98.01472825383883 120.90594882070398 l -2.4234495815638937 25.52019038184508 a46.635000000000005,46.635000000000005 0 0,0 -0.7984964693951503,-0.08276742390788563 l 2.8623786475646376 -25.474693589481433" fill="#d5ff1c" stroke="none" /><path d="M 97.65516085044442 120.86867818915974 l -4.456216347949604 39.65958386708886 a60.90915254237289,60.90915254237289 0 0,0 -1.0408868825065418,-0.1260369056912335 l 5.138230653507535 -39.577001432672276" fill="#34ff2f" stroke="none" /><path d="M 96.93821686468263 120.77559828337769 l -3.7170640344231773 25.221978748917046 a46.49440677966101,46.49440677966101 0 0,0 -0.7907683164043777,-0.12350174805055679 l 4.150668214436072 -25.154258693519385" fill="#d7ff1c" stroke="none" /><path d="M 96.58105272829116 120.7198165907248 l -4.150999347343745 25.1562654554168 a46.496440677966106,46.496440677966106 0 0,0 -0.7885597700164974,-0.13710122383301773 l 4.583408088832292 -25.081085653062775" fill="#d7ff1c" stroke="none" /><path d="M 96.22490169976321 120.6578951692458 l -5.886228332737258 32.21031034670105 a53.74372881355933,53.74372881355933 0 0,0 -0.9086078210709474,-0.17413685141308266 l 6.4398037683799005 -32.1042162969395" fill="#81ff25" stroke="none" /><path d="M 95.51606077576429 120.51570834832081 l -8.172603513422358 37.39273476803509 a59.27542372881356,59.27542372881356 0 0,0 -0.9949234524098556,-0.2264413385758152 l 8.815047115225076 -37.24651669588159" fill="#45ff2d" stroke="none" /><path d="M 95.16358092515715 120.4354850818985 l -3.721876252934453 15.726169603279397 a37.16059322033898,37.16059322033898 0 0,0 -0.6211954374758913,-0.15267472492166842 l 3.9920249751535546 -15.659773620043698" fill="#ffae10" stroke="none" /><path d="M 94.81253420990036 120.34920634021253 l -9.460719237505813 37.112173011000436 a59.29906779661017,59.29906779661017 0 0,0 -0.9869329012992712,-0.26065794932669134 l 10.098142581616573 -36.94382371237017" fill="#45ff2d" stroke="none" /><path d="M 94.11515582081647 120.15858648285463 l -7.135195454542751 24.441675983751715 a46.46186440677966,46.46186440677966 0 0,0 -0.7657911431119259,-0.23072658953908778 l 7.554861572094923 -24.315234025106903" fill="#d7ff1c" stroke="none" /><path d="M 93.76903079525671 120.05430185196036 l -7.5453567038165 24.28464271719713 a46.42983050847457,46.42983050847457 0 0,0 -0.7611809331006307,-0.24370609747721242 l 7.962258982008072 -24.151163773060212" fill="#d7ff1c" stroke="none" /><path d="M 93.08242187328487 119.8279376855182 l -13.479730084304599 38.6371130521824 a61.921016949152545,61.921016949152545 0 0,0 -1.0033576597005605,-0.3597683590129787 l 14.142807304634886 -38.39935715212946" fill="#30ff37" stroke="none" /><path d="M 92.7421414339146 119.70592522655815 l -18.66139540101432 50.6678463140635 a74.99516949152542,74.99516949152542 0 0,0 -1.2075285763911738,-0.45658398347815043 l 19.53079419816578 -50.33911408047872" fill="#41ffd0" stroke="none" /><path d="M 92.06813273071674 119.44442032107085 l -8.725918243250609 21.390980994617273 a44.10228813559322,44.10228813559322 0 0,0 -0.7004462759374663,-0.29278660014973695 l 9.092835978685539 -21.237609351447563" fill="#f5ff19" stroke="none" /><path d="M 91.40352486487194 119.15986991738527 l -7.699361144028733 17.160377439324 a39.80847457627119,39.80847457627119 0 0,0 -0.6227789494278143,-0.2858872703037607 l 7.993608089223967 -17.025303098686166" fill="#ffd213" stroke="none" /><path d="M 90.10565033884886 118.52300852407294 l -13.272563331172737 24.847292863006402 a49.17,49.17 0 0,0 -0.743116016210426,-0.4052061025224912 l 13.698302159251803 -24.615146108724144" fill="#b6ff1f" stroke="none" /><line stroke="#e1ed5e" stroke-width="0.3" x1="58.666819895761336" x2="56.23545636021788" y1="174.27360380694188" y2="178.64263932499728" /><path d="M 58.180547188652646 175.14741091055294 a86.0,86.0 0 0,1 -31.652253787137756,-30.449443065178592" fill="none" id="id44" stroke="none" /><text fill="#e1ed5e" style="font-size:6.75px; font-family:Arial;" text-anchor="middle"><textPath startOffset="22.20632615414155" xlink:href="#id44">August</textPath></text><path d="M 89.7882731507175 118.34994917583269 l -14.87265074691929 26.725390263944906 a51.585,51.585 0 0,0 -0.7721813503985488,-0.43846472345161197 l 15.330480864239046 -26.465422374698658" fill="#9aff23" stroke="none" /><path d="M 89.1626897886671 117.98757091392108 l -13.216532770319718 21.936561361294498 a46.610338983050845,46.610338983050845 0 0,0 -0.683664471665982,-0.4199625571729555 l 13.592176441918008 -21.705810337293165" fill="#d5ff1c" stroke="none" /><path d="M 88.8546689885994 117.79835938074946 l -3.8976275011539667 6.224254347122625 a28.343898305084746,28.343898305084746 0 0,0 -0.41128102926146115,-0.2624990119630674 l 4.004190332462351 -6.1562409063357535" fill="#ff3004" stroke="none" /><path d="M 88.54995079064634 117.60387380957326 l -13.927335279818074 21.412576338034324 a46.54347457627119,46.54347457627119 0 0,0 -0.6678441189706592,-0.4426106656270127 l 14.293854097528694 -21.16966765131599" fill="#d6ff1c" stroke="none" /><path d="M 88.24862548938628 117.40417183066458 l -15.244634192618665 22.577804217227996 a48.24254237288136,48.24254237288136 0 0,0 -0.684224243526248,-0.47061567378710173 l 15.631015320767803 -22.31204775407579" fill="#c1ff1e" stroke="none" /><path d="M 87.65650970185807 116.9893568818739 l -13.301978757854794 18.30860306880294 a43.63067796610169,43.63067796610169 0 0,0 -0.6037967032274637,-0.4466743663071874 l 13.615160431500822 -18.07691875375599" fill="#fbff18" stroke="none" /><path d="M 87.36589467227662 116.77436683061367 l -11.046735532431443 14.66680776320315 a39.361525423728814,39.361525423728814 0 0,0 -0.5376995641305253,-0.4122850970896298 l 11.297563825055455 -14.474483324286153" fill="#ffcc13" stroke="none" /><path d="M 86.79598089348748 116.32954008644616 l -24.071278512068634 29.769186504809156 a59.2835593220339,59.2835593220339 0 0,0 -0.7879910615701257,-0.6484629975138606 l 24.58013970218345 -29.350428388438115" fill="#45ff2d" stroke="none" /><path d="M 86.51685102203217 116.09983520530335 l -24.563163340274137 29.330157409487125 a59.257118644067795,59.257118644067795 0 0,0 -0.7763656713120194,-0.6616356679856527 l 25.064394488163217 -28.90299735127852" fill="#45ff2d" stroke="none" /><path d="M 86.24171649860922 115.8653595955263 l -18.18541930264339 20.97050962808675 a48.757372881355934,48.757372881355934 0 0,0 -0.6293361319845946,-0.5553159648190342 l 18.543697787534573 -20.654370521495427" fill="#bbff1f" stroke="none" /><path d="M 85.70375840098266 115.38237550388516 l -21.884326637565984 23.54695306855021 a53.14627118644068,53.14627118644068 0 0,0 -0.6647438560202765,-0.6285568070866482 l 22.286406327977076 -23.166761624717633" fill="#88ff25" stroke="none" /><path d="M 85.44109423537348 115.13401014063109 l -17.749526977111625 18.450666939247366 a46.602203389830514,46.602203389830514 0 0,0 -0.5733181650074113,-0.561112491938101 l 18.06449509449483 -18.142404344386694" fill="#d5ff1c" stroke="none" /><path d="M 85.18274418774928 114.88116024355367 l -16.607883506171873 16.679510625528877 a44.537796610169494,44.537796610169494 0 0,0 -0.5386090946915445,-0.5456081692915158 l 16.892533225918953 -16.391161962256696" fill="#efff19" stroke="none" /><path d="M 84.43433777217949 114.09645910891817 l -24.660079408384885 22.332477469649294 a54.26949152542373,54.26949152542373 0 0,0 -0.6211043820104808,-0.6978173574711276 l 25.040842640043703 -21.904685942437304" fill="#7bff26" stroke="none" /><path d="M 84.19399662182784 113.82643327865904 l -19.191090542335193 16.78756650746628 a46.49745762711865,46.49745762711865 0 0,0 -0.5217844845593254,-0.6069532364933139 l 19.477217536465297 -16.454736171811437" fill="#d7ff1c" stroke="none" /><path d="M 83.95833913139862 113.55231037782056 l -19.637634145151306 16.590259275589638 a46.70745762711864,46.70745762711864 0 0,0 -0.5135685143288022,-0.6186263594199547 l 19.920298659373646 -16.249771659055924" fill="#d4ff1c" stroke="none" /><path d="M 83.50135304334701 112.99209946851258 l -21.835340048515636 17.194556049622985 a48.792711864406776,48.792711864406776 0 0,0 -0.5139340587547547,-0.6643290499488229 l 22.128080924488458 -16.81614900556091" fill="#bbff1f" stroke="none" /><path d="M 83.28015986056508 112.70617746262583 l -20.274324314355958 15.40739388204121 a46.46440677966102,46.46440677966102 0 0,0 -0.47844783170467625,-0.640959057395628 l 20.536533412755716 -15.056121945136274" fill="#d7ff1c" stroke="none" /><path d="M 83.06392112726016 112.41649034213515 l -20.65422480831204 15.142406030564668 a46.610338983050845,46.610338983050845 0 0,0 -0.4688116894020627,-0.6511384331503757 l 20.91181629008971 -14.784633991963155" fill="#d5ff1c" stroke="none" /><path d="M 82.85270091963577 112.12312394758628 l -20.923441577601825 14.792853059046266 a46.62457627118644,46.62457627118644 0 0,0 -0.45767370745201297,-0.659313110502709 l 21.174976192215972 -14.430498686356545" fill="#d5ff1c" stroke="none" /><path d="M 82.44556493220864 111.52570212397912 l -23.14677652510204 15.19746151490389 a48.69,48.69 0 0,0 -0.45396500962722125,-0.7045637761821277 l 23.404946398106308 -14.796776138800315" fill="#bcff1f" stroke="none" /><path d="M 82.24976979558568 111.22182372390057 l -10.973983121656492 6.937831381457992 a33.98313559322034,33.98313559322034 0 0,0 -0.30833280883175956,-0.49713066314042653 l 11.091780570156207 -6.747904386952301" fill="#ff820b" stroke="none" /><path d="M 82.05923443525364 110.91462005526583 l -20.115811888782318 12.237852564145149 a44.545932203389825,44.545932203389825 0 0,0 -0.39289326447227596,-0.6585117104338852 l 20.323486028952825 -11.889778759825152" fill="#efff19" stroke="none" /><line stroke="#e1ed5e" stroke-width="0.3" x1="26.63291911575756" x2="22.317208475507996" y1="142.92168965132927" y2="145.44649492493687" /><path d="M 25.769776987707644 143.4266507060508 a86.0,86.0 0 0,1 -11.730757126820373,-40.83630448921669" fill="none" id="id45" stroke="none" /><text fill="#e1ed5e" style="font-size:6.75px; font-family:Arial;" text-anchor="middle"><textPath startOffset="21.46611528233685" xlink:href="#id45">September</textPath></text><path d="M 81.87401531095188 110.60418214915194 l -26.47074037634152 15.486085715565997 a51.66788135593221,51.66788135593221 0 0,0 -0.44249358690001017,-0.7715248666556157 l 26.733385959393907 -15.028141003052074" fill="#99ff23" stroke="none" /><path d="M 81.69416730710424 110.29060199501025 l -22.316937607044906 12.5454398340864 a46.601440677966096,46.601440677966096 0 0,0 -0.38706621941823804,-0.7026376192275728 l 22.52958023591466 -12.159431696461004" fill="#d5ff1c" stroke="none" /><path d="M 81.51974371655577 109.97397251340807 l -29.713612067166416 16.036722948343975 a54.765,54.765 0 0,0 -0.4405909231935292,-0.8334319856575381 l 29.98525549858483 -15.522875947600312" fill="#76ff27" stroke="none" /><path d="M 81.35079622478065 109.6543875284942 l -9.733484551494934 5.038865626403308 a31.96042372881356,31.96042372881356 0 0,0 -0.2487149980932037,-0.49073828683588094 l 9.818778219374405 -4.870573127864743" fill="#ff6509" stroke="none" /><path d="M 81.18737489456691 109.33194174019688 l -3.7730017856731757 1.8715853131731408 a25.211694915254235,25.211694915254235 0 0,0 -0.18950399702838713,-0.390434363108312 l 3.804659039316282 -1.8063619940995441" fill="#ff0000" stroke="none" /><path d="M 80.87730276802145 108.67885076344099 l -14.025549230084211 6.365506244570771 a36.40245762711864,36.40245762711864 0 0,0 -0.2540526049021931,-0.5728215561255003 l 14.133042919717685 -6.123136351952574" fill="#ffa30f" stroke="none" /><path d="M 80.73074385275274 108.34839909993369 l -23.472100199896254 10.169279949623828 a46.58033898305085,46.58033898305085 0 0,0 -0.3124188114996411,-0.738465783360158 l 23.6436699925882 -9.76373964059751" fill="#d6ff1c" stroke="none" /><path d="M 80.58989483394504 108.01547362559985 l -26.844692420820653 11.085613511395586 a50.0435593220339,50.0435593220339 0 0,0 -0.3219406684601005,-0.7990303369559065 l 27.031535703538143 -10.621883806596875" fill="#acff21" stroke="none" /><path d="M 80.45479744820244 107.68017299344265 l -25.77505839663686 10.128158399875558 a48.69355932203389,48.69355932203389 0 0,0 -0.299826465109133,-0.7827522892442971 l 25.945579141339504 -9.682982543798103" fill="#bcff1f" stroke="none" /><path d="M 80.32549172779594 107.34259656027581 l -9.561191725841926 3.568270805399895 a31.205338983050847,31.205338983050847 0 0,0 -0.18348106150069918,-0.504861079269639 l 9.621197048347849 -3.403161929124139" fill="#ff5a08" stroke="none" /><path d="M 80.20201598880116 107.00284435728193 l -35.971211216085806 12.723557779755447 a59.15516949152543,59.15516949152543 0 0,0 -0.331294777586228,-0.9628976993134586 l 36.184896824615265 -12.102487377352693" fill="#46ff2c" stroke="none" /><path d="M 80.0844068197444 106.66101706037122 l -24.302569184066144 8.12829557627261 a46.62584745762712,46.62584745762712 0 0,0 -0.24802230780720286,-0.7633341735904449 l 24.438883742889598 -7.708762502704362" fill="#d5ff1c" stroke="none" /><path d="M 79.97269907076064 106.31721596034903 l -24.3477183052456 7.680006168550714 a46.53025423728813,46.53025423728813 0 0,0 -0.23436453175182234,-0.7659168500060141 l 24.476309609503552 -7.259762345992653" fill="#d6ff1c" stroke="none" /><path d="M 79.86692584326677 105.97154293290107 l -24.414155445944637 7.2413271952918095 a46.46542372881356,46.46542372881356 0 0,0 -0.2208376865877491,-0.7687649581946492 l 24.53518576941849 -6.820004761592564" fill="#d7ff1c" stroke="none" /><path d="M 79.76711848015287 105.62410040840567 l -24.519264010353226 6.815579016719119 a46.44889830508474,46.44889830508474 0 0,0 -0.20749811913358435,-0.7721776924910678 l 24.632950205828585 -6.392510391052512" fill="#d7ff1c" stroke="none" /><path d="M 79.67330655649465 105.27499134158121 l -36.935521456690125 9.58515739032212 a59.15898305084746,59.15898305084746 0 0,0 -0.24730901760356225,-0.9878765907377978 l 37.09504178858875 -8.947952960186932" fill="#46ff2c" stroke="none" /><path d="M 79.58551787078972 104.9243191809786 l -10.387165313879542 2.5055603697114863 a31.685084745762715,31.685084745762715 0 0,0 -0.12332956645528781,-0.5313005444547445 l 10.428755446265386 -2.326391167908168" fill="#ff6108" stroke="none" /><path d="M 79.50377843672027 104.57218783832718 l -35.79593135926885 7.985165534883799 a57.6757627118644,57.6757627118644 0 0,0 -0.20781390609020362,-0.9708373844417422 l 35.9280793040835 -7.367814331025893" fill="#56ff2b" stroke="none" /><path d="M 79.4281124754447 104.21870165774334 l -36.68022337580452 7.522057418270262 a58.44355932203389,58.44355932203389 0 0,0 -0.19361534948450054,-0.9872404957514851 l 36.80426865826469 -6.889553195450822" fill="#4eff2c" stroke="none" /><path d="M 79.35854240842038 103.8639653848113 l -37.607436269636814 7.039901679068057 a59.260677966101696,59.260677966101696 0 0,0 -0.17906194506384776,-1.004274481284428 l 37.72304465703985 -6.391508447050415" fill="#45ff2d" stroke="none" /><path d="M 79.29508885075956 103.50808413554451 l -25.212114628350513 4.271750731685258 a46.5714406779661,46.5714406779661 0 0,0 -0.12711396554896365,-0.791538784813165 l 25.281910348260766 -3.8371327171788794" fill="#d6ff1c" stroke="none" /><path d="M 79.23777060512086 103.15116336523772 l -33.0790575132626 5.020535714632563 a54.45788135593221,54.45788135593221 0 0,0 -0.13268519900960624,-0.9279999728368792 l 33.16057676328881 -4.450390269815283" fill="#79ff26" stroke="none" /><path d="M 79.18660465613746 102.79330883721812 l -21.328942642573715 2.8624990294814197 a42.52016949152542,42.52016949152542 0 0,0 -0.0911115930327075,-0.7262490419666835 l 21.37505574485327 -2.4949322332273276" fill="#fff517" stroke="none" /><path d="M 79.10278846688536 102.07522291339032 l -25.323321893548552 2.5147631660508902 a46.4478813559322,46.4478813559322 0 0,0 -0.07216099434818064,-0.7962905595535072 l 25.36285748417381 -2.0784912179488164" fill="#d7ff1c" stroke="none" /><path d="M 79.07016306316243 101.71520430193888 l -30.43593575672133 2.4942309919090873 a51.53796610169492,51.53796610169492 0 0,0 -0.06484811542131473,-0.8848010128562067 l 30.474360430806982 -1.9699568425561198" fill="#9aff22" stroke="none" /><path d="M 79.04373962182676 101.35467743843564 l -27.955296153629238 1.807116742238596 a49.01364406779662,49.01364406779662 0 0,0 -0.04717831442427894,-0.8424004966445521 l 27.98226081894105 -1.3256445292586065" fill="#b8ff1f" stroke="none" /><line stroke="#e1ed5e" stroke-width="0.3" x1="15.007084014347285" x2="10.007500721073583" y1="101.09737516637583" y2="101.16192664675087" /><path d="M 14.007167355692545 101.11028546245083 a86.0,86.0 0 0,1 10.666146001902534,-42.60595125391555" fill="none" id="id46" stroke="none" /><text fill="#e1ed5e" style="font-size:6.75px; font-family:Arial;" text-anchor="middle"><textPath startOffset="22.20632615414155" xlink:href="#id46">October</textPath></text><path d="M 79.00175016825051 100.2711162175752 l -45.32393419192235 0.5851941805722228 a66.32771186440678,66.32771186440678 0 0,0 -0.004913628625167656,-1.1417542462581276 l 45.32729211783702 0.19506954388957998" fill="#36ff6d" stroke="none" /><path d="M 79.00019446554 99.90962569577889 l -8.300516354655983 -0.03572192080527063 a29.300593220338982,29.300593220338982 0 0,0 0.0065116980955254285,-0.5043381936415092 l 8.298671649442742 0.17859637250725185" fill="#ff3e05" stroke="none" /><path d="M 79.00486145842228 99.54816195383935 l -31.60912153454625 -0.6802624182136305 a52.6164406779661,52.6164406779661 0 0,0 0.027281137274196232,-0.9053281311043341 l 31.59272870281641 1.224260696742959" fill="#8eff24" stroke="none" /><path d="M 79.01574976396665 99.18683210126434 l -33.95637839041998 -1.3158552987990917 a54.981864406779664,54.981864406779664 0 0,0 0.04478768155214385,-0.9453971702118016 l 33.92869710063434 1.9001635756339024" fill="#73ff27" stroke="none" /><path d="M 79.03285615573316 98.82574320788736 l -38.12872569684788 -2.135384554838452 a59.18847457627118,59.18847457627118 0 0,0 0.06572572602233143,-1.0167478906705185 l 38.086319379821134 2.7913915097619824" fill="#46ff2d" stroke="none" /><path d="M 79.05617556472873 98.46500227214037 l -38.670515160679074 -2.8342079112751617 a59.774237288135595,59.774237288135595 0 0,0 0.08404120048705088,-1.0255155144969106 l 38.61599947637252 3.4994373429798507" fill="#40ff2d" stroke="none" /><path d="M 79.12142395522702 97.74499172005258 l -42.16233801448267 -4.553779008717557 a63.40754237288135,63.40754237288135 0 0,0 0.1265422722741636,-1.0841369107816525 l 42.07770538920492 5.2788596578240705" fill="#32ff49" stroke="none" /><path d="M 79.16333360222342 97.38593545837743 l -32.91032895383449 -4.128766201321584 a54.16830508474577,54.16830508474577 0 0,0 0.12402994441573612,-0.9241671501576216 l 32.834383010360916 4.6946516935438645" fill="#7cff26" stroke="none" /><path d="M 79.26566170972629 96.67025291283419 l -43.231095335220694 -6.942522676740715 a64.785,64.785 0 0,0 0.18629740721011195,-1.0995378430456706 l 43.10518606649036 7.685646308102214" fill="#34ff5a" stroke="none" /><path d="M 79.32604984820605 96.31383870115002 l -33.491548955952766 -5.971536677486865 a55.019745762711864,55.019745762711864 0 0,0 0.17426659809858278,-0.930939135329869 l 33.38379663394432 6.547153890279307" fill="#73ff27" stroke="none" /><path d="M 79.3925641242962 95.95851677861259 l -38.11901616083123 -7.475814320569054 a59.845169491525425,59.845169491525425 0 0,0 0.20695230212195537,-1.0091729227607813 l 37.98468456279428 8.130862899493238" fill="#3fff2d" stroke="none" /><path d="M 79.46518482838121 95.60439243477599 l -41.7291807627328 -8.932396085297158 a63.674491525423726,63.674491525423726 0 0,0 0.23864475656390655,-1.0697976501416957 l 41.56924161916686 9.649371904988813" fill="#32ff4d" stroke="none" /><path d="M 79.54389044137918 95.25157060432595 l -37.16746327419196 -8.627597279338564 a59.15567796610169,59.15567796610169 0 0,0 0.23878386523140288,-0.9899132794518548 l 37.01344660869974 9.266095790449818" fill="#46ff2c" stroke="none" /><path d="M 79.71946130924805 94.55025226153421 l -31.001970688440405 -8.330790528969247 a53.101779661016955,53.101779661016955 0 0,0 0.24480737036459962,-0.880702363060481 l 30.853976547509447 8.86320419544867" fill="#88ff25" stroke="none" /><path d="M 79.81627453868168 94.20196356495316 l -24.4799755952275 -7.0321899047925305 a46.47,46.47 0 0,0 0.22746866481995132,-0.766911257042301 l 24.35530103329584 7.452530548581371" fill="#d7ff1c" stroke="none" /><path d="M 79.91906864156998 93.8553929516997 l -12.942719414771162 -3.9603703394359786 a34.53508474576272,34.53508474576272 0 0,0 0.17883338493819284,-0.5669507008833985 l 12.872630546064764 4.182571206745791" fill="#ff890c" stroke="none" /><path d="M 80.02781315780177 93.51064311812611 l -51.36599825903226 -16.689824551024746 a75.00940677966102,75.00940677966102 0 0,0 0.40956102732999505,-1.2245353418051674 l 51.0710999379305 17.571532995752236" fill="#41ffd1" stroke="none" /><path d="M 80.14247586403 93.16781622104843 l -28.928037279434257 -9.952986369506565 a51.59237288135593,51.59237288135593 0 0,0 0.2961572192647136,-0.837276339821402 l 28.752426979359733 10.449460335754578" fill="#9aff23" stroke="none" /><path d="M 80.2630227832202 92.82701384747504 l -38.181015163341755 -13.876080924041291 a61.62432203389831,61.62432203389831 0 0,0 0.3709062638944188,-0.9938443842444912 l 37.93650431094571 14.531248445315125" fill="#30ff33" stroke="none" /><path d="M 80.38941819471856 92.48833698450439 l -12.398825958825878 -4.749262582581634 a34.27728813559322,34.27728813559322 0 0,0 0.21579421828996218,-0.54917274774738 l 12.315238190654224 4.961984335224778" fill="#ff860c" stroke="none" /><path d="M 80.52162464483688 92.15188598940014 l -33.877280914318824 -13.649637515287834 a57.52372881355932,57.52372881355932 0 0,0 0.3779536697957439,-0.9152447904265593 l 33.63730555763688 14.230756876167703" fill="#57ff2a" stroke="none" /><path d="M 80.65960295795068 91.81776055985345 l -28.275379501184947 -11.962315191187608 a51.70169491525424,51.70169491525424 0 0,0 0.3538101845810223,-0.8166426871291667 l 28.065278606761243 12.447257022903374" fill="#98ff23" stroke="none" /><path d="M 80.803312248108 91.48605970444005 l -36.06211672849069 -15.993941909464176 a60.44974576271187,60.44974576271187 0 0,0 0.43005009319540977,-0.9475583750560489 l 35.781464318331935 16.612322293362297" fill="#39ff2e" stroke="none" /><path d="M 81.10775173730289 90.83032412892265 l -48.30949154118761 -23.44783811696541 a74.6992372881356,74.6992372881356 0 0,0 0.5714135481121928,-1.1519348448668358 l 47.89871798012201 24.27593255033121" fill="#41ffcd" stroke="none" /><path d="M 81.26839172434947 90.50648371742162 l -27.33182028831118 -13.852258552560247 a51.641694915254234,51.641694915254234 0 0,0 0.4086839309780266,-0.7894472731669686 l 27.08932692417304 14.320678547987551" fill="#99ff23" stroke="none" /><path d="M 81.43458229118936 90.18545643968196 l -13.528031005543518 -7.151546583637074 a36.30203389830508,36.30203389830508 0 0,0 0.29679834296359375,-0.5499222536552407 l 13.402924563361452 7.383349820624788" fill="#ffa20f" stroke="none" /><path d="M 81.6062741919709 89.86733742301443 l -35.672916535317476 -19.651354497823288 a61.72754237288136,61.72754237288136 0 0,0 0.5206934501501731,-0.9262555472806777 l 35.32936544387487 20.26249355503875" fill="#30ff34" stroke="none" /><line stroke="#e1ed5e" stroke-width="0.3" x1="26.266209847984243" x2="21.928928074336255" y1="57.711370442889674" y2="55.22380399835377" /><path d="M 25.398753493254645 57.213857153982495 a86.0,86.0 0 0,1 29.58750427330803,-30.492523968695096" fill="none" id="id47" stroke="none" /><text fill="#e1ed5e" style="font-size:6.75px; font-family:Arial;" text-anchor="middle"><textPath startOffset="21.46611528233685" xlink:href="#id47">November</textPath></text><path d="M 81.78341655067845 89.55222093294921 l -27.488074589872113 -15.765268558319733 a52.68813559322034,52.68813559322034 0 0,0 0.4579861629875285,-0.7828468109416399 l 27.21262875241426 16.236094781615265" fill="#8dff24" stroke="none" /><path d="M 81.96595687620814 89.24020034530311 l -21.958739966325556 -13.101423850736015 a46.57016949152543,46.57016949152543 0 0,0 0.4166571008852776,-0.6848747212472268 l 21.72996706715406 13.477466345190317" fill="#d6ff1c" stroke="none" /><path d="M 82.15384107792192 88.93136811851018 l -33.66355958412816 -20.878977402602043 a60.612711864406776,60.612711864406776 0 0,0 0.5575572975665863,-0.8819217470757128 l 33.29917469031561 21.455346797391968" fill="#37ff2e" stroke="none" /><path d="M 82.54541684631803 88.32363383020206 l -44.90751499884652 -30.041198021484362 a75.02923728813559,75.02923728813559 0 0,0 0.7273389081618605,-1.067280098820233 l 44.38375162501592 30.80975614357501" fill="#41ffd1" stroke="none" /><path d="M 82.7489923806493 88.02491185347247 l -25.08079303883567 -17.410270405768646 a51.53135593220339,51.53135593220339 0 0,0 0.5120925555926382,-0.7243186034836593 l 24.777387863439152 17.83941550958409" fill="#9aff22" stroke="none" /><path d="M 82.95767976084542 87.72973835380427 l -21.9705631112181 -15.818536097539942 a48.072711864406784,48.072711864406784 0 0,0 0.4892826592039603,-0.6673809972872957 l 21.695017839500508 16.19437953849874" fill="#c3ff1e" stroke="none" /><path d="M 83.39014120810768 87.1503855733568 l -24.813037721147232 -19.19570608427617 a52.371355932203386,52.371355932203386 0 0,0 0.5577447641903817,-0.7082792106541875 l 24.47893887636288 19.619977688883406" fill="#91ff24" stroke="none" /><path d="M 83.6137871275137 86.86637796730984 l -25.882082746182444 -20.744603701440525 a54.16957627118644,54.16957627118644 0 0,0 0.5894204695975699,-0.722559801865796 l 25.52116378450848 21.187047672914403" fill="#7cff26" stroke="none" /><path d="M 83.84228863543731 86.58626213691792 l -23.526292834196006 -19.530954467978432 a51.57686440677966,51.57686440677966 0 0,0 0.5729683359864479,-0.6782137862916573 l 23.186613884722433 19.933027203899204" fill="#9aff23" stroke="none" /><path d="M 84.07557802195018 86.31012108654704 l -46.56833085711782 -40.033780285043136 a82.41101694915254,82.41101694915254 0 0,0 0.9340234554629784,-1.0677502718742855 l 45.872315538077004 40.82944611312036" fill="#4be1ff" stroke="none" /><path d="M 84.31358615837235 86.03803664274999 l -11.561608652279563 -10.290609312220113 a36.47796610169492,36.47796610169492 0 0,0 0.4215052596175529,-0.46543663538213204 l 11.382759752045965 10.4880987348718" fill="#ffa50f" stroke="none" /><path d="M 84.5562425177563 85.77008943001954 l -30.26060311414887 -27.882183244789687 a62.14754237288136,62.14754237288136 0 0,0 0.7316620635143821,-0.7804860756950518 l 29.776173728664034 28.39893873736279" fill="#30ff39" stroke="none" /><path d="M 84.80347519578584 85.50635884689758 l -20.320108572647086 -19.380244209673222 a49.08025423728813,49.08025423728813 0 0,0 0.5883454256219939,-0.6063416781264428 l 19.98349888332197 19.727150083349787" fill="#b7ff1f" stroke="none" /><path d="M 85.05521093208273 85.24692304244772 l -31.20584133763961 -30.80553206118439 a64.84957627118644,64.84957627118644 0 0,0 0.7910542769046317,-0.787657238443382 l 30.670951260567666 31.338125150277882" fill="#34ff5b" stroke="none" /><path d="M 85.57189188830299 84.74124197986013 l -7.874847433409643 -8.328215348934206 a32.46177966101695,32.46177966101695 0 0,0 0.409315396772656,-0.3804140524967407 l 7.730324152842131 8.462533987505596" fill="#ff6c09" stroke="none" /><path d="M 86.65592168130627 83.78471172551755 l -5.789488313644397 -7.035197165770309 a30.111101694915256,30.111101694915256 0 0,0 0.4030537310437804,-0.32590808666256327 l 5.667531184036116 7.133811349697007" fill="#ff4a06" stroke="none" /><path d="M 86.93701828274178 83.55741782278169 l -16.209642095324657 -20.403333479640988 a47.0585593220339,47.0585593220339 0 0,0 0.6385789241846949,-0.4984209792972073 l 15.856030615980538 20.679332848161415" fill="#d0ff1d" stroke="none" /><path d="M 87.22198572758235 83.33499621200491 l -6.6580261049707445 -8.683354697718169 a31.942118644067797,31.942118644067797 0 0,0 0.43920998169430564,-0.33080385243430954 l 6.507569969518048 8.796675139658333" fill="#ff6409" stroke="none" /><path d="M 87.51073957382395 83.11751280151077 l -5.14977870284661 -6.961266725101028 a29.65906779661017,29.65906779661017 0 0,0 0.41304444236663657,-0.3000943533356216 l 5.029188944126191 7.048880313253318" fill="#ff4306" stroke="none" /><path d="M 87.80319425747018 82.90503203632743 l -25.876128793231562 -36.267823074503404 a65.55254237288136,65.55254237288136 0 0,0 0.9241936437015623,-0.6474567087378336 l 25.24800400994634 36.70786462600518" fill="#35ff64" stroke="none" /><path d="M 88.39885842347998 82.49532879139004 l -7.071640174065175 -10.670220282730165 a33.80084745762712,33.80084745762712 0 0,0 0.4877510160045887,-0.3172468284865596 l 6.886922132276299 10.79036603537626" fill="#ff7f0b" stroke="none" /><path d="M 88.70189139769569 82.29822771554957 l -13.728706542533704 -21.51001070448292 a46.51779661016949,46.51779661016949 0 0,0 0.6786743788190174,-0.4249858337547634 l 13.356413011342443 21.743140879560613" fill="#d6ff1c" stroke="none" /><path d="M 89.00827224532344 82.1063720568725 l -17.97001108948574 -29.25369875835275 a55.33220338983051,55.33220338983051 0 0,0 0.8158547204405671,-0.49154334040467446 l 17.463794302827523 29.558688708216042" fill="#6fff27" stroke="none" /><line stroke="#e1ed5e" stroke-width="0.3" x1="56.762969772571076" x2="54.21961505331055" y1="26.818313649435495" y2="22.513508569990535" /><path d="M 56.25429882871897 25.957352633546506 a86.0,86.0 0 0,1 42.265352541879196,-11.944610805530505" fill="none" id="id48" stroke="none" /><text fill="#e1ed5e" style="font-size:6.75px; font-family:Arial;" text-anchor="middle"><textPath startOffset="22.20632615414155" xlink:href="#id48">December</textPath></text><path d="M 89.3179101791058 81.91981866633112 l -16.19060817344855 -27.403732470565075 a52.829237288135594,52.829237288135594 0 0,0 0.7869122878616077,-0.4558303888030889 l 15.71649915312162 27.67836701675821" fill="#8bff24" stroke="none" /><path d="M 89.63071344664047 81.73862282372117 l -13.849525428889619 -24.390434796835457 a49.04822033898304,49.04822033898304 0 0,0 0.7377691085224424,-0.4105677101270763 l 13.427632231295132 24.625217904522717" fill="#b8ff1f" stroke="none" /><path d="M 89.94658935756843 81.56283822128135 l -30.16023192729471 -55.31148533615593 a84.0,84.0 0 0,0 1.2754198138867787,-0.6812850939930022 l 29.20366706687963 55.822449156650684" fill="#4dd2ff" stroke="none" /><path d="M 90.58718382345135 81.22770947309562 l -17.67284726300084 -35.24554363286247 a60.42813559322034,60.42813559322034 0 0,0 0.9338412514757132,-0.4582318464711035 l 17.063534744514698 35.544530639468405" fill="#39ff2e" stroke="none" /><path d="M 90.91171255644093 81.06846463323043 l -6.620476316784413 -13.790913009127012 a36.29771186440678,36.29771186440678 0 0,0 0.5655905810477433,-0.2655523615436256 l 6.382107524437061 13.902830353310645" fill="#ffa20f" stroke="none" /><path d="M 91.23893434514133 80.91482961587045 l -12.349072058884815 -26.90131013902464 a50.60033898305085,50.60033898305085 0 0,0 0.7947093622977581,-0.3565629256411172 l 11.884180578120281 27.10989339518229" fill="#a5ff21" stroke="none" /><path d="M 91.56875222667455 80.76684994638697 l -14.831953029038754 -33.834277661505425 a57.94245762711865,57.94245762711865 0 0,0 0.9169152277637316,-0.3925752486753668 l 14.247354043484714 34.084572438143574" fill="#53ff2b" stroke="none" /><path d="M 91.90106846888425 80.62456947434976 l -4.922012880514283 -11.775148147180584 a33.76245762711864,33.76245762711864 0 0,0 0.5381351985778772,-0.21951885927006248 l 4.7185938123480256 11.858127892634222" fill="#ff7f0b" stroke="none" /><path d="M 92.23578459929587 80.48803036053334 l -10.820646732051545 -27.192976961463007 a50.266779661016955,50.266779661016955 0 0,0 0.806702427953075,-0.312988009171619 l 10.350961139098793 27.37520767452518" fill="#a9ff21" stroke="none" /><path d="M 92.91201910852362 80.23233633223022 l -12.546069421539904 -34.98972196380084 a58.171016949152545,58.171016949152545 0 0,0 0.94546737746121,-0.3298550032576194 l 11.94192004001541 35.20049782023067" fill="#51ff2b" stroke="none" /><path d="M 93.25333710446033 80.11325718540243 l -8.179307776747486 -24.109666167721564 a46.4593220338983,46.4593220338983 0 0,0 0.759537301009953,-0.25040750640275544 l 7.763087653495123 24.246887398383553" fill="#d7ff1c" stroke="none" /><path d="M 93.59665428221793 80.00007090966166 l -10.141628250504684 -31.675916748864925 a54.25983050847458,54.25983050847458 0 0,0 0.8919660555124801,-0.2771381953160012 l 9.594876822281476 31.845795079063453" fill="#7bff26" stroke="none" /><path d="M 93.94186890950719 79.89281104454417 l -9.18276255354686 -30.47797068752947 a52.831271186440674,52.831271186440674 0 0,0 0.8729984719905554,-0.2548521931683732 l 8.656773863832884 30.631521209616544" fill="#8bff24" stroke="none" /><path d="M 94.63758080256005 79.69619591428918 l -10.115366343722926 -38.29995547460987 a60.613220338983055,60.613220338983055 0 0,0 1.0110605863296844,-0.25774185565846236 l 9.45459686870824 38.46840032643719" fill="#37ff2e" stroke="none" /><path d="M 95.33964822691252 79.52364482259891 l -4.901437525223111 -21.535622316299815 a43.08635593220339,43.08635593220339 0 0,0 0.7245838136747015,-0.1583659568668151 l 4.530010987394888 21.616801771262498" fill="#fffc17" stroke="none" /><path d="M 95.692805502759 79.44645832069477 l -5.221352205850351 -24.91581939334759 a46.457033898305085,46.457033898305085 0 0,0 0.7840920633372965,-0.15728149155030532 l 4.791693733045919 25.002004840975108" fill="#d7ff1c" stroke="none" /><path d="M 96.40284397218896 79.31037775812273 l -7.1906103817435705 -41.35795371026109 a62.978389830508476,62.978389830508476 0 0,0 1.0696453474734375,-0.176500647408115 l 6.477635828131247 41.47560062060883" fill="#31ff44" stroke="none" /><path d="M 97.11714578562143 79.19881850522333 l -7.423349602024814 -53.56304234904995 a75.075,75.075 0 0,0 1.2815848455844085,-0.1663864946882113 l 6.500250027932548 53.6828871669023" fill="#41ffd1" stroke="none" /><path d="M 97.83486435360386 79.11191278185805 l -2.624951742147733 -25.32415048667277 a46.45983050847458,46.45983050847458 0 0,0 0.7961774095069738,-0.07560663854972006 l 2.1886492055505227 25.36558266973767" fill="#d7ff1c" stroke="none" /><path d="M 98.55514903715128 79.0497635885617 l -2.3624537692545 -34.2554119764653 a55.33677966101695,55.33677966101695 0 0,0 0.9508385807949798,-0.057357179821080705 l 1.7724531396198973 34.29100242566669" fill="#6fff27" stroke="none" /><path d="M 98.91598698831166 79.02799685794201 l -1.9712107311697749 -38.13629283228253 a59.18720338983051,59.18720338983051 0 0,0 1.017904814736903,-0.04383312254223279 l 1.3144650840435477 38.164573681348955" fill="#46ff2d" stroke="none" /><path d="M 99.63851952072746 79.00311137660856 l -0.8860035340387593 -51.46423829464087 a72.47186440677964,72.47186440677964 0 0,0 1.2474840133112823,-0.010737488747328775 l 1.2606970798381854e-14 51.471864406779645" fill="#3effb5" stroke="none" /></svg>