<?xml version="1.0" encoding="utf-8" ?>
<svg baseProfile="full" height="200mm" version="1.1" viewBox="0,0,200,200" width="200mm" xmlns="http://www.w3.org/2000/svg" xmlns:ev="http://www.w3.org/2001/xml-events" xmlns:xlink="http://www.w3.org/1999/xlink"><defs /><rect fill="#1a1a1a" height="200" width="200" x="0" y="0" /><text alignment-baseline="middle" fill="#e1ed5e" style="dominant-baseline: central; font-size:9.0px; font-family:Arial;" text-anchor="middle" x="100.0" y="100.0">2024</text><line stroke="#e1ed5e" stroke-width="0.3" x1="100.0" x2="100.0" y1="15.0" y2="10.0" /><path d="M 100.0 14.0 a86.0,86.0 0 0,1 42.35913384403234,11.155469271406648" fill="none" id="id49" stroke="none" /><text fill="#e1ed5e" style="font-size:6.75px; font-family:Arial;" text-anchor="middle"><textPath startOffset="22.145653131862478" xlink:href="#id49">January</textPath></text><path d="M 100.0 79.0 l 0.0 -24.094747820505958 a45.09474782050596,45.09474782050596 0 0,0 0.7741113112921768,0.006644814582584346 l -0.413618386443322 24.09119740411781" fill="#ddff1b" stroke="none" /><path d="M 100.72087961077811 79.0123766808444 l 1.2220622110724468 -35.57900788854112 a56.59998930309675,56.59998930309675 0 0,0 0.970755147487794,0.04168840293544527 l -1.8326431191610772 35.552786917179844" fill="#5bff2a" stroke="none" /><path d="M 101.44090949804482 79.04949213459386 l 2.561222990748322 -37.23962017430109 a58.32759266192437,58.32759266192437 0 0,0 0.9983212029912472,0.07727637493607899 l -3.2001131885148024 37.19016603236995" fill="#49ff2c" stroke="none" /><path d="M 101.80034050326958 79.07731436759882 l 2.3763149329538877 -27.616381576418846 a48.71843076429374,48.71843076429374 0 0,0 0.8326221939286687,0.078850187439076 l -2.850036690267569 27.571519633474583" fill="#b2ff20" stroke="none" /><path d="M 102.15924093988457 79.11130261209362 l 4.086643820892404 -39.5345718627132 a60.745226506926244,60.745226506926244 0 0,0 1.0363254193599676,0.11612242480725472 l -4.7647051418531685 39.45859367739898" fill="#30ff2f" stroke="none" /><path d="M 102.87502721639298 79.19773525538626 l 4.1106525336317175 -29.742634014089955 a51.02535166069423,51.02535166069423 0 0,0 0.8666410435670953,0.1273663889809847 l -4.620618682806494 29.66768655181009" fill="#98ff23" stroke="none" /><path d="M 103.23170211078529 79.25015418208739 l 5.003077549346989 -32.12334683247886 a53.510616676472154,53.510616676472154 0 0,0 0.9064252465392705,0.14915192938277783 l -5.55378029893933 32.03272890460041" fill="#7cff26" stroke="none" /><path d="M 103.58742460773223 79.30868818359171 l 6.3762930314367114 -36.776763771392424 a58.325426539016945,58.325426539016945 0 0,0 0.9850477592480424,0.17950851540231597 l -7.006675524235807 36.66188708205874" fill="#49ff2c" stroke="none" /><path d="M 104.29559338865022 79.4440306129975 l 1.4281119165561182 -6.834032503054373 a27.981654810932234,27.981654810932234 0 0,0 0.4693424033143024,0.10229099232575624 l -1.5452167364895548 6.808510052594897" fill="#ff3d05" stroke="none" /><path d="M 104.64783097203109 79.52079915486377 l 1.4333525905081683 -6.315615985080789 a27.47622613253463,27.47622613253463 0 0,0 0.459072585070396,0.10833988008676991 l -1.5415573293184492 6.290079961347792" fill="#ff3605" stroke="none" /><path d="M 104.9986988182912 79.60360301121754 l 4.589610553231736 -18.727177265627102 a40.28138203989944,40.28138203989944 0 0,0 0.6701953174431681,0.1703610289156515 l -4.9104111639002985 18.645631004876183" fill="#ffe515" stroke="none" /><path d="M 105.3480935250658 79.69241777938227 l 6.155911898502533 -23.37500016329296 a45.17200620420388,45.17200620420388 0 0,0 0.7481744721388361,0.20391827936553703 l -6.556267771576063 23.26588138978328" fill="#dcff1b" stroke="none" /><path d="M 106.04205211174951 79.88797359093562 l 8.89459835663984 -29.60722511791828 a51.91442477402792,51.91442477402792 0 0,0 0.8512961171436961,0.2637337131880216 l -9.401535106655167 29.45017481692361" fill="#8eff24" stroke="none" /><path d="M 106.38641147887787 79.99465700312896 l 11.353192083780598 -35.56371250060742 a58.33192490773921,58.33192490773921 0 0,0 0.9513027595304757,0.3127121123314166 l -11.962017580958817 35.36357946687398" fill="#49ff2c" stroke="none" /><path d="M 106.72888874123014 80.10723608172694 l 12.011296990630875 -35.509265285192164 a58.48571963416591,58.48571963416591 0 0,0 0.9482880930108017,0.3298638240868845 l -12.619090855686695 35.29784302853669" fill="#47ff2c" stroke="none" /><path d="M 107.06938296918511 80.22567764915836 l 12.218842322295837 -34.17827664569653 a57.2967588383163,57.2967588383163 0 0,0 0.9233259412354118,0.3390580750185513 l -12.803757415185373 33.96348772166925" fill="#53ff2b" stroke="none" /><path d="M 107.74402155503746 80.48000691201159 l 2.600225393278516 -6.554266584006559 a28.051211424292667,28.051211424292667 0 0,0 0.44607509111172894,0.181414856181307 l -2.712354945580685 6.508664471245958" fill="#ff3e05" stroke="none" /><path d="M 109.06512990194946 81.05736502329252 l 10.479801053794802 -21.898753590707912 a45.27718350537519,45.27718350537519 0 0,0 0.6982167533569691,0.34153280215459236 l -10.854178056413836 21.7156270384561" fill="#dbff1b" stroke="none" /><path d="M 109.3889696526874 81.21577127319529 l 16.192868198210224 -32.396583568796665 a57.21805637268011,57.21805637268011 0 0,0 0.8748171584631176,0.44668787443030644 l -16.746612578386923 32.113837742693526" fill="#54ff2b" stroke="none" /><path d="M 109.71004243097381 81.37971332152246 l 11.167821171078831 -21.415769627960696 a45.15275177836017,45.15275177836017 0 0,0 0.6841957435184534,0.3642956959450627 l -11.533805730383843 21.22090346429306" fill="#dcff1b" stroke="none" /><path d="M 110.34350942703115 81.72400993836675 l 11.068935759985402 -19.557748882954726 a43.47280312349575,43.47280312349575 0 0,0 0.6463112656370198,0.37314798319582115 l -11.403039493482819 19.364854002482733" fill="#f1ff19" stroke="none" /><line stroke="#e1ed5e" stroke-width="0.3" x1="143.13028292997686" x2="145.6673583964461" y1="26.7553504044142" y2="22.446841604673864" /><path d="M 143.63769802327073 25.89364864446614 a86.0,86.0 0 0,1 29.32050498858742,28.57503671076993" fill="none" id="id50" stroke="none" /><text fill="#e1ed5e" style="font-size:6.75px; font-family:Arial;" text-anchor="middle"><textPath startOffset="20.669276256404974" xlink:href="#id50">February</textPath></text><path d="M 110.65571695917076 81.90426304109057 l 12.752152474724564 -21.65594278890078 a46.131598652190185,46.131598652190185 0 0,0 0.6789412395729144,0.4076847067972606 l -13.122026470854912 21.4338440815676" fill="#d1ff1d" stroke="none" /><path d="M 110.96478420261332 82.08984904055464 l 1.487269398122639 -2.429342789198828 a23.848451623255066,23.848451623255066 0 0,0 0.3473196180578384,0.21675312931597773 l -1.52875314497019 2.4034538630413054" fill="#ff0000" stroke="none" /><path d="M 111.27062007382361 82.28071324371311 l 16.608963192249018 -26.11204881367564 a51.946675937316144,51.946675937316144 0 0,0 0.748315039406063,0.48504876765719324 l -17.054763863912086 25.82308620431455" fill="#8dff24" stroke="none" /><path d="M 111.5731344415666 82.4767994020092 l 13.529210717989054 -20.484949392130062 a45.54939295074075,45.54939295074075 0 0,0 0.6487615479283265,0.4365157227541405 l -13.878868554014382 20.249683995318804" fill="#d8ff1c" stroke="none" /><path d="M 112.16784306229584 82.88440491214696 l 19.93387390453353 -28.039490034147583 a55.403086056586616,55.403086056586616 0 0,0 0.7704168196385015,0.5577223645673128 l -20.412271734546003 27.693166898207195" fill="#67ff28" stroke="none" /><path d="M 112.45986205192187 83.09580414077388 l 8.615820533171718 -11.68901526949184 a35.52120661068621,35.52120661068621 0 0,0 0.4877349407844998,0.36600539234172313 l -8.815208462866984 11.539390849886102" fill="#ffa60f" stroke="none" /><path d="M 113.03279911837588 83.53348406188908 l 22.768687123351228 -28.767492386029023 a57.68762368294379,57.68762368294379 0 0,0 0.7712264718581978,0.6212454534715013 l -23.259164365564686 28.372398638764114" fill="#4fff2b" stroke="none" /><path d="M 113.31354834802062 83.75963576809568 l 14.577775449917793 -17.78251573576749 a43.99411670321442,43.99411670321442 0 0,0 0.5799381261584157,0.4838050110555548 l -14.8808879102381 17.529648540800064" fill="#ebff1a" stroke="none" /><path d="M 113.59037401385872 83.9905735841838 l 8.37406243293905 -9.864624489721722 a33.9396962079478,33.9396962079478 0 0,0 0.4409259798163237,0.38086135970322815 l -8.542167892518234 9.719418997553774" fill="#ff910d" stroke="none" /><path d="M 113.86319453409587 84.22622945171908 l 19.112828567875603 -21.746890416694306 a49.95215810022998,49.95215810022998 0 0,0 0.6392329460561812,0.5716060420693831 l -19.483326540755158 21.41558884474154" fill="#a4ff21" stroke="none" /><path d="M 114.13192950727249 84.46653392183569 l 10.082195920256938 -11.082099457128146 a35.98210942932021,35.98210942932021 0 0,0 0.4533235676343423,0.41958952647445036 l -10.270949259205246 10.90739218452132" fill="#ffad10" stroke="none" /><path d="M 114.39649973595853 84.71141617570332 l 4.277403469865168 -4.542454256157219 a27.239396694656897,27.239396694656897 0 0,0 0.33767449657374593,0.3234845292115097 l -4.354750452304225 4.468357596640129" fill="#ff3204" stroke="none" /><path d="M 114.91283532996326 85.21462403516908 l 17.14932194627693 -17.002747425781116 a45.14938225383751,45.14938225383751 0 0,0 0.5409609759501346,0.5550736173857254 l -17.438669723377878 16.705851116327647" fill="#dcff1b" stroke="none" /><path d="M 115.16444852881244 85.47280134310134 l 13.932269738634822 -13.34679924892038 a40.293656736374814,40.293656736374814 0 0,0 0.47420677142041356,0.5035911581203145 l -14.159332343791496 13.105666630855572" fill="#ffe515" stroke="none" /><path d="M 115.41159269507618 85.73525988315684 l 17.765976395634354 -16.443922521172055 a45.20810825266086,45.20810825266086 0 0,0 0.5222662382230864,0.5740620833859891 l -18.045640334699318 16.136522862228396" fill="#dcff1b" stroke="none" /><path d="M 115.8921839302757 86.27271002978787 l 14.64312984215782 -12.648386797979855 a40.3494945713216,40.3494945713216 0 0,0 0.44827411634426634,0.5280657818843166 l -14.8580985220092 12.395154233645988" fill="#ffe615" stroke="none" /><path d="M 116.35404254752997 86.82634096563983 l 15.023891928114661 -12.102183851781119 a40.291971974113494,40.291971974113494 0 0,0 0.42926984315517475,0.5423684236871722 l -15.229428201911395 11.842495484179269" fill="#ffe515" stroke="none" /><path d="M 116.7966241395341 87.39550010848427 l 15.91405027965149 -11.94220001335381 a40.89656094560624,40.89656094560624 0 0,0 0.41655675201105524,0.5651392361436125 l -16.11670905124637 11.667254467941323" fill="#ffed16" stroke="none" /><line stroke="#e1ed5e" stroke-width="0.3" x1="172.87174338648825" x2="177.1583165268699" y1="56.24261187166439" y2="53.66864786411523" /><path d="M 173.72905801456457 55.72781907015455 a86.0,86.0 0 0,1 12.242430191666344,42.057860355516425" fill="none" id="id51" stroke="none" /><text fill="#e1ed5e" style="font-size:6.75px; font-family:Arial;" text-anchor="middle"><textPath startOffset="22.145653131862474" xlink:href="#id51">March</textPath></text><path d="M 120.05942366710727 93.78553927170692 l 11.50329681546366 -3.5637507583440313 a33.042680643953574,33.042680643953574 0 0,0 0.1632051634921799,0.5432569096627536 l -11.562778298959469 3.365756245090554" fill="#ff850c" stroke="none" /><path d="M 120.26092885502905 94.47779374421319 l 11.640447694898546 -3.172655782016256 a33.065063913996894,33.065063913996894 0 0,0 0.1445581278651825,0.5489107573608941 l -11.693195303568459 2.9723645202825635" fill="#ff850c" stroke="none" /><path d="M 120.43855184770803 95.1765574152323 l 4.526327417155491 -1.0682009458981163 a25.650665882227095,25.650665882227095 0 0,0 0.09745926339119337,0.42942349694250775 l -4.543997542104351 0.9903431150165822" fill="#ff1b02" stroke="none" /><path d="M 120.51834098615036 95.52812308129327 l 17.812197579397303 -3.8820855585018395 a39.23033106915548,39.23033106915548 0 0,0 0.13775878181702336,0.6592256402348591 l -17.876214072038692 3.5757434669815757" fill="#ffd714" stroke="none" /><path d="M 120.592083275326 95.88100663000786 l 29.81760531392942 -5.964356153526346 a51.40827405466117,51.40827405466117 0 0,0 0.1656661196501865,0.866835141848568 l -29.915597725861765 5.4516184466444635" fill="#93ff23" stroke="none" /><path d="M 120.65975698304385 96.23510406497455 l 17.95650941594274 -3.272274178385266 a39.25223297855271,39.25223297855271 0 0,0 0.1151121872295956,0.6639365060669523 l -18.01003642066457 2.963544639397721" fill="#ffd814" stroke="none" /><path d="M 120.7213421655516 96.59031103205396 l 36.61806418722334 -6.025488527199937 a58.110499010536444,58.110499010536444 0 0,0 0.15351827505739898,0.9856974524483034 l -36.716103954419 5.396002892820193" fill="#4bff2c" stroke="none" /><path d="M 120.77682067341334 96.94652285012252 l 23.84367936418629 -3.5041997643418616 a45.09980210728994,45.09980210728994 0 0,0 0.10599631125093044,0.7669365062083644 l -23.90032019199243 3.0943749499334112" fill="#ddff1b" stroke="none" /><path d="M 120.82617615685814 97.30363454192243 l 18.058666810667553 -2.338055965745836 a39.209391881050436,39.209391881050436 0 0,0 0.08069276743458485,0.668251870391226 l -18.096141664361802 2.027710418431197" fill="#ffd714" stroke="none" /><path d="M 120.86939407059847 97.66154086499901 l 42.95352116964168 -4.813031639529833 a64.22233513397872,64.22233513397872 0 0,0 0.11336039584082053,1.0966589974987988 l -43.029813957964166 4.074968119748103" fill="#34ff59" stroke="none" /><path d="M 120.9064616781168 98.02013634271609 l 44.294945694076794 -4.194777410510476 a65.49312723966412,65.49312723966412 0 0,0 0.096388347674949,1.1201787069540505 l -44.36042766444948 3.433777656180763" fill="#35ff68" stroke="none" /><path d="M 120.93736805541906 98.37931529534042 l 18.212913813960807 -1.409794715717845 a39.26739583890463,39.26739583890463 0 0,0 0.04625332516275559,0.6725131966569899 l -18.234431100288628 1.0969380949065208" fill="#ffd814" stroke="none" /><path d="M 120.96210409425399 98.7389718711861 l 36.27906786113632 -2.1824586336531957 a57.34465422260255,57.34465422260255 0 0,0 0.05067741121590198,0.9831282390092898 l -36.31118686180879 1.5593586012671752" fill="#53ff2b" stroke="none" /><path d="M 120.98066250479742 99.09900007780936 l 36.12338861973505 -1.5512937367064261 a57.15668289030326,57.15668289030326 0 0,0 0.03368246861854275,0.9806283230319721 l -36.14469577535044 0.9309591491103341" fill="#55ff2b" stroke="none" /><path d="M 120.99303781780057 99.45929381324524 l 12.040372307813257 -0.31011728050835363 a33.0443654062149,33.0443654062149 0 0,0 0.009737967409287378,0.5671877819292979 l -12.04392170682121 0.10338258260998937" fill="#ff850c" stroke="none" /><line stroke="#e1ed5e" stroke-width="0.3" x1="184.99686870605535" x2="189.99668451229388" y1="99.2704041080226" y2="99.22748670261217" /><path d="M 185.99683186730306 99.26182062694052 a86.0,86.0 0 0,1 -10.086455211305974,41.156179273409016" fill="none" id="id52" stroke="none" /><text fill="#e1ed5e" style="font-size:6.75px; font-family:Arial;" text-anchor="middle"><textPath startOffset="21.40746469413373" xlink:href="#id52">April</textPath></text><path d="M 120.99922638620191 99.81974689727618 l 14.42873517109976 -0.12385333798201713 a35.42926672728245,35.42926672728245 0 0,0 0.0,0.6082128814116863 l -14.42873517109976 -0.12385333798201537" fill="#ffa50f" stroke="none" /><path d="M 120.99922638620191 100.18025310272382 l 32.70364089146135 0.2807214243342367 a53.70484569717067,53.70484569717067 0 0,0 -0.015826481479995328,0.9218132028071587 l -32.69400297838268 -0.8420815431104665" fill="#7aff26" stroke="none" /><path d="M 120.99303781780057 100.54070618675476 l 35.299225513982094 0.9091828342669599 a56.310932235117924,56.310932235117924 0 0,0 -0.03318406723376142,0.9661179105175175 l -35.27841675975149 -1.5150070093485881" fill="#5eff2a" stroke="none" /><path d="M 120.96210409425399 101.26102812881392 l 24.03420976920479 1.4458383775075891 a45.07765951756966,45.07765951756966 0 0,0 -0.053097273162596735,0.7720226985345463 l -24.005848534877128 -1.858204500196479" fill="#ddff1b" stroke="none" /><path d="M 120.9064616781168 101.97986365728391 l 30.375142080870877 2.87655753597462 a51.511044552602016,51.511044552602016 0 0,0 -0.0909233896350126,0.8796013156688345 l -30.3212862987542 -3.3975633739263857" fill="#92ff23" stroke="none" /><path d="M 120.86939407059847 102.33845913500097 l 13.74204609141456 1.5398249277081848 a34.82804728031235,34.82804728031235 0 0,0 -0.07167597824309023,0.5935799210492511 l -13.713588026911806 -1.7754985256808444" fill="#ff9d0e" stroke="none" /><path d="M 120.82617615685814 102.69636545807757 l 30.16492894602743 3.9054539749798742 a51.41669786596779,51.41669786596779 0 0,0 -0.12084266572902533,0.8743573315086112 l -30.093441763743193 -4.422699614688571" fill="#93ff23" stroke="none" /><path d="M 120.77682067341334 103.0534771498775 l 30.489439434644034 4.480897635382262 a51.816949243194095,51.816949243194095 0 0,0 -0.1368917631409303,0.8789433188897102 l -30.408026179364835 -5.003629136203423" fill="#8fff24" stroke="none" /><path d="M 120.7213421655516 103.40968896794604 l 18.051121608448398 2.9703051914127965 a39.293870674439745,39.293870674439745 0 0,0 -0.11523429509151968,0.6646407917656376 l -17.997472495864642 -3.279739016099022" fill="#ffd814" stroke="none" /><path d="M 120.65975698304385 103.76489593502545 l 41.69733720999171 7.598643851044664 a63.38404556880782,63.38404556880782 0 0,0 -0.20425873208560952,1.0687679977964932 l -41.56075218562394 -8.313314413874473" fill="#33ff4f" stroke="none" /><path d="M 120.592083275326 104.11899336999214 l 23.61137650077475 4.722936575320332 a45.079103599507945,45.079103599507945 0 0,0 -0.15829696635301652,0.7575082881460501 l -23.526821823597366 -5.127561314751791" fill="#ddff1b" stroke="none" /><path d="M 120.51834098615036 104.47187691870673 l 35.28247245392373 7.689650654899741 a57.110712948601375,57.110712948601375 0 0,0 -0.2169911705712601,0.9561031350948882 l -35.145270421794805 -8.294188123933646" fill="#55ff2b" stroke="none" /><path d="M 120.43855184770803 104.8234425847677 l 8.90226916946526 2.100911284371579 a30.14681499705835,30.14681499705835 0 0,0 -0.12318917916920018,0.5026538894208177 l -8.864892463779764 -2.2534209984004967" fill="#ff5c08" stroke="none" /><path d="M 120.35273937422433 105.17358676015961 l 40.73455875565362 10.354565544434237 a63.03000481360645,63.03000481360645 0 0,0 -0.2755627365151218,1.0463565946428222 l -40.55080653833377 -11.052302643449861" fill="#32ff4a" stroke="none" /><path d="M 120.26092885502905 105.52220625578681 l 40.97203521072991 11.167110391232136 a63.46659891961277,63.46659891961277 0 0,0 -0.2955171307265517,1.0486860439015007 l -40.77429958792878 -11.868804359036645" fill="#33ff50" stroke="none" /><path d="M 120.16314734710363 105.8691983318838 l 8.247341808129438 2.4006810022990797 a29.589640049205755,29.589640049205755 0 0,0 -0.14614982646055244,0.48648523963222295 l -8.204915661665256 -2.541903845522026" fill="#ff5407" stroke="none" /><path d="M 120.05942366710727 106.21446072829308 l 35.832047692888146 11.100859969716648 a58.51219446970102,58.51219446970102 0 0,0 -0.3054762414848671,0.9568999755984336 l -35.63620673562602 -11.714328979006465" fill="#47ff2c" stroke="none" /><path d="M 119.71291397450082 107.23885506374661 l 28.3461909681165 10.409113959148923 a51.19695673102636,51.19695673102636 0 0,0 -0.3100324751555378,0.8223979744239216 l -28.16332780914652 -10.894180213767005" fill="#96ff23" stroke="none" /><path d="M 119.58574465831526 107.57618678355244 l 17.352551651522436 6.712339754075196 a39.605551692784935,39.605551692784935 0 0,0 -0.2507245009874516,0.6319895278546588 l -17.23476847556886 -7.009230299143419" fill="#ffdc14" stroke="none" /><path d="M 119.4528033332814 107.91128576633889 l 39.186892665907486 15.936968099833663 a63.3036583409103,63.3036583409103 0 0,0 -0.4180276837226952,1.0031142632995926 l -38.90753913764831 -16.607314872574534" fill="#33ff4e" stroke="none" /><path d="M 119.31412917781788 108.2440532568976 l 16.484797186729065 7.036379672381608 a38.923704337594266,38.923704337594266 0 0,0 -0.2675840044160895,0.6122845679779936 l -16.361579300296007 -7.318326310135447" fill="#ffd313" stroke="none" /><path d="M 119.16976305983485 108.57439118712176 l 16.920286665050778 7.5682290079194745 a39.53575439910146,39.53575439910146 0 0,0 -0.28242749302572745,0.6171550423085496 l -16.787874707169994 -7.857573032442713" fill="#ffdb14" stroke="none" /><path d="M 118.8641267826498 109.22738970284198 l 8.316609596820616 4.068070504426477 a30.25824998662887,30.25824998662887 0 0,0 -0.23223939804314,0.4646343670915036 l -8.245550285565743 -4.2102367276817265" fill="#ff5e08" stroke="none" /><path d="M 118.70294669586154 109.54985784667822 l 16.102048298578342 8.221820592890625 a39.07966518692838,39.07966518692838 0 0,0 -0.3102030882772163,0.5948553235818965 l -15.958537141326177 -8.497022159577025" fill="#ffd513" stroke="none" /><path d="M 118.5362547648365 109.86951160357373 l 26.8224686677461 14.28145378401891 a51.38757554687918,51.38757554687918 0 0,0 -0.4212671477327782,0.7750841035206023 l -26.573356170397982 -14.739792721014116" fill="#93ff23" stroke="none" /><line stroke="#e1ed5e" stroke-width="0.3" x1="174.33088141563837" x2="178.70328620479359" y1="141.23008692659167" y2="143.65538615756765" /><path d="M 175.20536237346943 141.71514677278685 a86.0,86.0 0 0,1 -30.301960400862466,31.631185727798858" fill="none" id="id53" stroke="none" /><text fill="#e1ed5e" style="font-size:6.75px; font-family:Arial;" text-anchor="middle"><textPath startOffset="22.145653131862474" xlink:href="#id53">May</textPath></text><path d="M 118.36410011445183 110.18625677009912 l 21.330749987386792 11.831807445839345 a45.39246938011445,45.39246938011445 0 0,0 -0.3838184781522402,0.6781704741187514 l -21.124498144213174 -12.196234690057219" fill="#d9ff1c" stroke="none" /><path d="M 118.18653347947321 110.5 l 20.876877038761418 12.053270578167615 a45.10654115633524,45.10654115633524 0 0,0 -0.39291296298130707,0.6672521101206891 l -20.666890365650342 -12.409873856581854" fill="#ddff1b" stroke="none" /><path d="M 117.62189284568427 111.42229804090321 l 36.87619294433561 23.90270274099477 a64.94533882441033,64.94533882441033 0 0,0 -0.614431030020154,0.9303268917366675 l -36.46043747539472 -24.532209511070498" fill="#35ff62" stroke="none" /><path d="M 117.423217284605 111.72311816256416 l 14.90682913431163 10.029979912211777 a38.96702679574263,38.96702679574263 0 0,0 -0.3781847612745129,0.5517828688880334 l -14.732454636221796 -10.284397516169856" fill="#ffd413" stroke="none" /><path d="M 117.21940702142032 112.02048342749411 l 24.229974821727332 16.914404220241792 a50.549767342354386,50.549767342354386 0 0,0 -0.5028134843162433,0.7072701347485671 l -23.93604623888113 -17.327851581699864" fill="#9dff22" stroke="none" /><path d="M 117.01052211995028 112.31430620078461 l 13.633736117624249 9.869773545411437 a37.8312563512863,37.8312563512863 0 0,0 -0.3853347300069817,0.5227805669321427 l -13.46229936803344 -10.102360421612458" fill="#ffc512" stroke="none" /><path d="M 116.79662413953412 112.60449989151573 l 14.185735291860436 10.645240225771062 a38.73573300529496,38.73573300529496 0 0,0 -0.4036780273304957,0.5284274960143861 l -14.000905287175636 -10.887188635026325" fill="#ffd113" stroke="none" /><path d="M 116.57777611688842 112.89097897827486 l 32.96682152515158 25.63519981599523 a62.7609242124405,62.7609242124405 0 0,0 -0.6686535995373214,0.8448219798256674 l -32.521901494972695 -26.19734173973558" fill="#32ff47" stroke="none" /><path d="M 116.35404254752997 113.17365903436017 l 13.897231236714179 11.194625750914602 a38.845242552281114,38.845242552281114 0 0,0 -0.4227716067986125,0.5157126185925994 l -13.703012810676938 -11.431540651205694" fill="#ffd213" stroke="none" /><path d="M 116.1254893667686 113.45245675266167 l 18.490242439579283 15.425217871357841 a45.07958496015403,45.07958496015403 0 0,0 -0.5008243926688977,0.5899698752589383 l -18.22272348340327 -15.740354529066336" fill="#ddff1b" stroke="none" /><path d="M 115.89218393027572 113.72728997021213 l 13.31806274094882 11.503825395463485 a38.598545221158474,38.598545221158474 0 0,0 -0.43742984332999657,0.4977148638207285 l -13.118621833660237 -11.730752537095507" fill="#ffcf13" stroke="none" /><path d="M 115.6541949942343 113.99807769240083 l 14.013709420204696 12.531145376367517 a39.79929935283735,39.79929935283735 0 0,0 -0.4597810251371726,0.5053798884063616 l -13.796530694225645 -12.76986284033155" fill="#ffdf14" stroke="none" /><path d="M 115.41159269507618 114.26474011684316 l 13.139990416019078 12.162178960400782 a38.90469059207359,38.90469059207359 0 0,0 -0.4578603485774666,0.48623182352889005 l -12.92927423370535 -12.385952243874168" fill="#ffd313" stroke="none" /><path d="M 115.16444852881244 114.52719865689866 l 12.950477742906774 12.406264726046349 a38.93405359148527,38.93405359148527 0 0,0 -0.4664915127771197,0.47866138776857664 l -12.735599428978846 -12.626748805882663" fill="#ffd413" stroke="none" /><path d="M 114.91283532996324 114.78537596483092 l 9.463079872027695 9.382199333485053 a34.32574744611435,34.32574744611435 0 0,0 -0.41846041398969036,0.4148838507460135 l -9.30062753790804 -9.54326319445973" fill="#ff960d" stroke="none" /><path d="M 114.65682725009322 115.03919595460226 l 3.085482807742786 3.165977176943599 a25.420816173717707,25.420816173717707 0 0,0 -0.31513037532279997,0.30188777102175773 l -3.030679946554674 -3.218477078270937" fill="#ff1802" stroke="none" /><path d="M 114.39649973595853 115.28858382429668 l 8.256985875731468 8.768632863017887 a33.0443654062149,33.0443654062149 0 0,0 -0.4163121577289098,0.38533231801424433 l -8.10524394668859 -8.909082927164512" fill="#ff850c" stroke="none" /><path d="M 114.13192950727249 115.5334660781643 l 12.19617078171967 13.405728143764657 a39.12346900572284,39.12346900572284 0 0,0 -0.5006592568490159,0.44769259469256956 l -11.964246498047276 -13.613116268340614" fill="#ffd614" stroke="none" /><path d="M 113.86319453409587 115.77377054828091 l 27.984843019270176 31.841614249151664 a63.39150665882227,63.39150665882227 0 0,0 -0.8235478012036332,0.7113609760025423 l -27.434115738303685 -32.31731935761893" fill="#33ff4f" stroke="none" /><path d="M 113.59037401385872 116.0094264158162 l 27.249229997033687 32.09952441929145 a63.105819115366096,63.105819115366096 0 0,0 -0.8318719235652492,0.693977145188343 l -26.694183739306542 -32.56256374839167" fill="#32ff4b" stroke="none" /><path d="M 113.31354834802062 116.24036423190432 l 12.045760902659783 14.693869687919241 a40.00026742258116,40.00026742258116 0 0,0 -0.5347640125939785,0.4307680345874697 l -11.791746119710552 -14.898486016300113" fill="#ffe115" stroke="none" /><path d="M 113.03279911837588 116.46651593811092 l 26.162637966126642 33.055638404249166 a63.156361983205855,63.156361983205855 0 0,0 -0.8558891692113317,0.6655445947780939 l -25.59133885228008 -33.499884050648056" fill="#32ff4c" stroke="none" /><path d="M 112.45986205192187 116.90419585922612 l 10.871522146556881 14.74930772808721 a39.32299299352837,39.32299299352837 0 0,0 -0.546812413478176,0.39585001838732353 l -10.616728722704737 -14.933758517847611" fill="#ffd914" stroke="none" /><path d="M 112.16784306229584 117.11559508785304 l 10.229461473749648 14.389018633385996 a38.654623736428306,38.654623736428306 0 0,0 -0.5441188821580745,0.3798372381483031 l -9.980947500417816 -14.562500687339421" fill="#ffd013" stroke="none" /><path d="M 111.8722381534696 117.32195027204791 l 10.18695345130779 14.863069526250325 a39.01901374552067,39.01901374552067 0 0,0 -0.5557491355275848,0.37393282067884304 l -9.930308027683202 -15.035752020986289" fill="#ffd513" stroke="none" /><path d="M 111.5731344415666 117.5232005979908 l 7.495845934369759 11.349666127425944 a34.60156709632561,34.60156709632561 0 0,0 -0.4984510091934095,0.3230899220449244 l -7.29990929291934 -11.476669891174764" fill="#ff9a0e" stroke="none" /><path d="M 111.27062007382361 117.71928675628689 l 11.064762623151804 17.395644651817094 a41.61643579183826,41.61643579183826 0 0,0 -0.6060856617649403,0.3782422788430526 l -10.76451283259715 -17.583022727501692" fill="#fff617" stroke="none" /><path d="M 110.96478420261333 117.91015095944535 l 9.230495296231869 15.07732036774249 a38.6784510884099,38.6784510884099 0 0,0 -0.5692496313582317,0.3418180477602359 l -8.9703129083162 -15.233552416038648" fill="#ffd013" stroke="none" /><line stroke="#e1ed5e" stroke-width="0.3" x1="143.1302829299769" x2="145.66735839644613" y1="173.24464959558577" y2="177.55315839532614" /><path d="M 143.63769802327073 174.10635135553383 a86.0,86.0 0 0,1 -40.68552437913181,11.842963189579606" fill="none" id="id54" stroke="none" /><text fill="#e1ed5e" style="font-size:6.75px; font-family:Arial;" text-anchor="middle"><textPath startOffset="21.407464694133747" xlink:href="#id54">June</textPath></text><path d="M 110.65571695917076 118.09573695890943 l 4.635369993302426 7.871871637302771 a30.13526234155212,30.13526234155212 0 0,0 -0.4480217088588312,0.2586654542124433 l -4.499555816583196 -7.950283988791386" fill="#ff5c08" stroke="none" /><path d="M 110.34350942703117 118.27599006163325 l 4.951692656198759 8.749166461476872 a31.053217093651387,31.053217093651387 0 0,0 -0.46617653167733875,0.2585802637899278 l -4.800771936365326 -8.832879640699943" fill="#ff6909" stroke="none" /><path d="M 110.02825361518725 118.45085714620011 l 13.314930046827545 24.49797159433679 a48.88257474461143,48.88257474461143 0 0,0 -0.7407134284231003,0.39438817978552865 l -12.892427802617892 -24.72293024184489" fill="#b0ff20" stroke="none" /><path d="M 109.71004243097381 118.62028667847754 l 8.268919567867803 15.856743569299697 a38.883270043322455,38.883270043322455 0 0,0 -0.5944933115081227,0.30355252078859657 l -7.995499034646098 -15.99635404176113" fill="#ffd313" stroke="none" /><path d="M 109.3889696526874 118.78422872680471 l 6.010586242523547 12.025198817149395 a34.44368080440712,34.44368080440712 0 0,0 -0.5311539526760023,0.25981401471782767 l -5.803272040585475 -12.126606581964445" fill="#ff980e" stroke="none" /><path d="M 109.06512990194946 118.94263497670748 l 7.815305739817056 16.330983169792713 a39.10469594052522,39.10469594052522 0 0,0 -0.6080059316764085,0.28457747604378675 l -7.533811094269141 -16.462736877407036" fill="#ffd614" stroke="none" /><path d="M 108.73861861582097 119.09545874513695 l 6.9114601890966725 15.102787833149192 a37.6091084131144,37.6091084131144 0 0,0 -0.5893644528240776,0.2636152233350111 l -6.651182333416968 -15.219206807394054" fill="#ffc212" stroke="none" /><path d="M 108.4095320186766 119.2426549942271 l 4.9660503663190205 11.363295088335994 a33.40105364496978,33.40105364496978 0 0,0 -0.527362754334419,0.2250998008975901 l -4.77025253681417 -11.446869538892988" fill="#ff8a0c" stroke="none" /><path d="M 108.07796709384702 119.3841803445677 l 9.264057250728252 22.23036494012204 a45.083435845322775,45.083435845322775 0 0,0 -0.7169243940358336,0.2915669097611811 l -8.881078395501977 -22.386119106462512" fill="#ddff1b" stroke="none" /><path d="M 107.74402155503746 119.51999308798841 l 4.457313700236898 11.2353422574118 a33.08720650371718,33.08720650371718 0 0,0 -0.5297541230073431,0.20492027519396225 l -4.2637873147360255 -11.310202420743801" fill="#ff850c" stroke="none" /><path d="M 107.407793817531 119.65005319985036 l 10.641002431103315 28.22652317564214 a51.16566828903032,51.16566828903032 0 0,0 -0.8245246291368706,0.30277686467519804 l -10.154888650312317 -28.40503088932606" fill="#96ff23" stroke="none" /><path d="M 107.06938296918513 119.77432235084164 l 11.051153686014676 30.91204370855234 a53.82807402257047,53.82807402257047 0 0,0 -0.8727689765056452,0.3035943551927231 l -10.51887893746401 -31.097196496313654" fill="#78ff26" stroke="none" /><path d="M 106.72888874123015 119.89276391827305 l 5.82407045138296 17.217829420013683 a39.17617799647002,39.17617799647002 0 0,0 -0.6389023899836249,0.21001990580157537 l -5.527645323751601 -17.315270247217278" fill="#ffd714" stroke="none" /><path d="M 106.38641147887787 120.00534299687104 l 5.691966877668741 17.830005174455135 a39.71650532170936,39.71650532170936 0 0,0 -0.6512738398635524,0.20176630038645346 l -5.385052404933565 -17.925088062648232" fill="#ffde14" stroke="none" /><path d="M 105.3480935250658 120.30758222061773 l 7.521365632003221 28.559850396661574 a50.53364176071027,50.53364176071027 0 0,0 -0.8407708069160086,0.21372065130938098 l -7.029989531861815 -28.684756279806226" fill="#9dff22" stroke="none" /><path d="M 104.9986988182912 120.39639698878246 l 10.112302131534449 41.26164352822431 a63.482724501256875,63.482724501256875 0 0,0 -1.0606688962133621,0.25031497145468273 l -9.402501081581208 -41.42915464332522" fill="#33ff50" stroke="none" /><path d="M 104.64783097203109 120.47920084513623 l 6.323680172327788 27.863301636572608 a49.571883189816546,49.571883189816546 0 0,0 -0.8314800161152125,0.18121719952608736 l -5.844437739593439 -27.967750294232413" fill="#a8ff21" stroke="none" /><path d="M 104.29559338865022 120.5559693870025 l 3.738110511313759 17.888212007874227 a39.27461624859603,39.27461624859603 0 0,0 -0.6611292796810292,0.13224437194156236 l -3.4304847461017713 -17.94974577647865" fill="#ffd814" stroke="none" /><path d="M 103.94208987418118 120.62667999033965 l 3.401659800850117 17.798921482659516 a39.12106220249238,39.12106220249238 0 0,0 -0.6607086642767918,0.12040312799484726 l -3.0956164030222677 -17.854692784585726" fill="#ffd614" stroke="none" /><path d="M 103.58742460773223 120.69131181640829 l 4.112892585349198 23.72207147362186 a45.07597475530834,45.07597475530834 0 0,0 -0.7635494424892839,0.12564177019696798 l -3.7050656398068416 -23.7891792423145" fill="#ddff1b" stroke="none" /><path d="M 103.2317021107853 120.74984581791261 l 2.5943570895631454 16.65763358119739 a37.85845322779055,37.85845322779055 0 0,0 -0.6430076098513605,0.09449997546501149 l -2.3080243741040993 -16.699714629961285" fill="#ffc612" stroke="none" /><path d="M 102.875027216393 120.80226474461374 l 1.8656296957298883 13.498767115908032 a34.62707921056854,34.62707921056854 0 0,0 -0.5895213705201483,0.07632534404284355 l -1.6336305033189646 -13.528804056151271" fill="#ff9a0e" stroke="none" /><path d="M 102.51750503828377 120.84855314841334 l 2.2087582311604477 18.291686679497907 a39.42456008985398,39.42456008985398 0 0,0 -0.67259068930365,0.0753651896264008 l -1.8944316402559982 -18.32690762963128" fill="#ffda14" stroke="none" /><path d="M 102.15924093988457 120.88869738790638 l 1.8751042404357463 18.139932568774057 a39.236588757554685,39.236588757554685 0 0,0 -0.6705728017318561,0.06350394151592044 l -1.563431875318875 -18.16944826579516" fill="#ffd814" stroke="none" /><path d="M 101.80034050326958 120.92268563240118 l 1.5517738661919642 18.03396452834714 a39.10060437503343,39.10060437503343 0 0,0 -0.6692366445435275,0.05180314883601927 l -1.241968226873201 -18.057945444178213" fill="#ffd614" stroke="none" /><path d="M 101.44090949804482 120.95050786540614 l 1.2288229098959509 17.866815420329505 a38.90902283788843,38.90902283788843 0 0,0 -0.6667443629152882,0.040109685200675434 l -0.9219341948481975 -17.88527708335487" fill="#ffd313" stroke="none" /><path d="M 101.08105385017728 120.97215588758144 l 0.6210449068238934 12.048105278902877 a33.06410119270471,33.06410119270471 0 0,0 -0.5670874999285536,0.02435317727426487 l -0.4141316462945103 -12.056991024602972" fill="#ff850c" stroke="none" /><path d="M 100.72087961077811 120.9876233191556 l 0.5787019856968114 16.848276894310033 a37.8582125474675,37.8582125474675 0 0,0 -0.6496950359612951,0.016733839499412498 l -0.28939363566477255 -16.85572845115949" fill="#ffc612" stroke="none" /><line stroke="#e1ed5e" stroke-width="0.3" x1="101.45913802915013" x2="101.54496967792366" y1="184.9874750549273" y2="189.98673829345242" /><path d="M 101.47630435890484 185.9873277026323 a86.0,86.0 0 0,1 -42.54439059252881,-10.42667462771756" fill="none" id="id55" stroke="none" /><text fill="#e1ed5e" style="font-size:6.75px; font-family:Arial;" text-anchor="middle"><textPath startOffset="22.145653131862474" xlink:href="#id55">July</textPath></text><path d="M 100.36049292484886 120.99690560180557 l 0.31872797998005853 18.564306944724002 a39.5670428410975,39.5670428410975 0 0,0 -0.6792209048289085,0.005830294567934328 l -2.2738069584981835e-15 -18.567042841097503" fill="#ffdc14" stroke="none" /><path d="M 100.0 121.0 l 2.261810699137653e-15 18.469085949617586 a39.469085949617586,39.469085949617586 0 0,0 -0.677539344528018,-0.005815860395166332 l 0.31704641967916364 -18.466364487416854" fill="#ffdb14" stroke="none" /><path d="M 99.63950707515114 120.99690560180557 l -0.6500118856466083 37.85993361366527 a58.86551318393325,58.86551318393325 0 0,0 -1.0102070100896494,-0.026019349128941795 l 1.2998322098070016 -37.843196547186274" fill="#43ff2d" stroke="none" /><path d="M 99.27912038922189 120.98762331915562 l -0.6254317331569914 18.20876250498643 a39.219500454618384,39.219500454618384 0 0,0 -0.6726597021836779,-0.028886901888333063 l 0.937917195941508 -18.19534303467227" fill="#ffd714" stroke="none" /><path d="M 98.91894614982273 120.97215588758144 l -1.5643517194131416 30.348005436693807 a51.388297587848314,51.388297587848314 0 0,0 -0.8805890057755142,-0.052974047892051436 l 2.0850850773211023 -30.316679410977063" fill="#93ff23" stroke="none" /><path d="M 98.55909050195518 120.95050786540614 l -0.8592347265406063 12.493084347799277 a33.52259720810825,33.52259720810825 0 0,0 -0.5737648005835816,-0.04441302430737866 l 1.073568521899424 -12.476493556496845" fill="#ff8b0c" stroke="none" /><path d="M 98.19965949673042 120.92268563240118 l -1.445221726136449 16.79566714749475 a37.85773118682141,37.85773118682141 0 0,0 -0.6470074405810918,-0.06127227731412944 l 1.7333287301025562 -16.768383114675437" fill="#ffc612" stroke="none" /><path d="M 97.84075906011543 120.88869738790638 l -1.8820828918433192 18.20744469062008 a39.3044606086538,39.3044606086538 0 0,0 -0.6705417687155358,-0.07513560380086325 l 2.1943605621596545 -18.172453326312244" fill="#ffd814" stroke="none" /><path d="M 97.48249496171623 120.84855314841334 l -2.1970438952600033 18.19467517369955 a39.32684387869712,39.32684387869712 0 0,0 -0.6695342324605946,-0.08668461093433698 l 2.509055949611392 -18.154278966564817" fill="#ffd914" stroke="none" /><path d="M 97.12497278360702 120.80226474461374 l -4.180540744031807 30.248310289771982 a51.5358346258758,51.5358346258758 0 0,0 -0.8753113510763841,-0.12864062560641434 l 4.6991772007158765 -30.172088590866686" fill="#92ff23" stroke="none" /><path d="M 96.76829788921471 120.74984581791261 l -4.971483765388133 31.92049207561169 a53.305316360913515,53.305316360913515 0 0,0 -0.9029476303071686,-0.14857968895517074 l 5.518708898748366 -31.83044638816085" fill="#7eff26" stroke="none" /><path d="M 96.41257539226777 120.69131181640829 l -5.112036894892749 29.484870338801198 a50.9247472856608,50.9247472856608 0 0,0 -0.8600590030911412,-0.1567314004359987 l 5.617430631534948 -29.392770764433834" fill="#99ff23" stroke="none" /><path d="M 96.05791012581884 120.62667999033965 l -6.769027856487045 35.41841406405142 a57.05944803979247,57.05944803979247 0 0,0 -0.9605102578919201,-0.1921289522370396 l 7.376034599909923 -35.29699571515152" fill="#56ff2b" stroke="none" /><path d="M 95.70440661134978 120.55596938700252 l -6.72755520922883 32.19378707856051 a53.88920682462427,53.88920682462427 0 0,0 -0.9038954277246282,-0.1969998014408027 l 7.279213053572596 -32.07355581898599" fill="#78ff26" stroke="none" /><path d="M 95.35216902796893 120.47920084513623 l -3.988169878800203 17.57261235272088 a39.01949510616676,39.01949510616676 0 0,0 -0.6519374385741769,-0.15385546036989342 l 4.289239471114268 -17.50156074870476" fill="#ffd513" stroke="none" /><path d="M 95.00130118170881 120.39639698878247 l -4.273427451533032 17.43704231294841 a38.95306733700593,38.95306733700593 0 0,0 -0.648095025723108,-0.16474322118293194 l 4.5721277704815195 -17.361113859930214" fill="#ffd413" stroke="none" /><path d="M 94.6519064749342 120.30758222061772 l -4.350671365259184 16.520207818131016 a38.08348932983901,38.08348932983901 0 0,0 -0.6307688526772901,-0.1719188557016899 l 4.633621618871169 -16.443088468285183" fill="#ffc812" stroke="none" /><path d="M 94.30408787586889 120.21278271476187 l -4.9281679804426926 17.488329594925123 a39.16943894742472,39.16943894742472 0 0,0 -0.6456242434419525,-0.18793180783741256 l 5.227652236266252 -17.40115409278519" fill="#ffd714" stroke="none" /><path d="M 93.95794788825049 120.11202640906438 l -4.815628037599051 16.029659539030195 a37.73739102529817,37.73739102529817 0 0,0 -0.61882019478797,-0.19171207818350233 l 5.090088865258655 -15.944630873040044" fill="#ffc412" stroke="none" /><path d="M 93.61358852112213 120.00534299687104 l -7.753781511206326 24.288610147890825 a46.4962293416056,46.4962293416056 0 0,0 -0.758281015934083,-0.24926203131229754 l 8.169585264788152 -24.15192719517651" fill="#ccff1d" stroke="none" /><path d="M 93.27111125876986 119.89276391827306 l -8.993685064092684 26.588231818882367 a49.068139273680266,49.068139273680266 0 0,0 -0.7955913428180527,-0.2767479679293998 l 9.44878217895576 -26.42992541838438" fill="#aeff20" stroke="none" /><path d="M 92.93061703081489 119.77432235084164 l -6.030627295009732 16.868737855781045 a38.91431780499545,38.91431780499545 0 0,0 -0.6270965381518923,-0.23027853500150725 l 6.319312984815744 -16.76272847177082" fill="#ffd313" stroke="none" /><path d="M 92.59220618246901 119.65005319985036 l -22.223381452592967 58.9501595995511 a84.0,84.0 0 0,0 -1.3449109500258871,-0.5202404474478377 l 23.232064665112382 -58.55997926396522" fill="#4dd2ff" stroke="none" /><path d="M 92.25597844496254 119.51999308798841 l -6.465106267624225 16.296291114407275 a38.531876771674604,38.531876771674604 0 0,0 -0.6127403976124005,-0.24919618540522898 l 6.743901126427065 -16.182907672422754" fill="#ffce13" stroke="none" /><path d="M 91.92203290615298 119.3841803445677 l -5.088361953922244 12.21021633628526 a34.228031234957484,34.228031234957484 0 0,0 -0.5404197430229911,-0.23067305295220114 l 5.297216772115666 -12.121068633673653" fill="#ff950d" stroke="none" /><path d="M 91.59046798132341 119.24265499422711 l -7.079404784218622 16.19906357745668 a38.6784510884099,38.6784510884099 0 0,0 -0.6061218976904558,-0.27111061527764646 l 7.356440084764713 -16.07514921126918" fill="#ffd013" stroke="none" /><path d="M 90.6110303473126 118.78422872680471 l -8.007981409355319 16.02132715279089 a38.91118896079585,38.91118896079585 0 0,0 -0.5949201688605004,-0.3037704771941997 l 8.281828799929402 -15.881498723923853" fill="#ffd313" stroke="none" /><path d="M 90.28995756902619 118.62028667847754 l -8.19736235911259 15.71952318633993 a38.728512595603576,38.728512595603576 0 0,0 -0.5868498026605747,-0.312464465470169 l 8.466000977559727 -15.57648825314719" fill="#ffd113" stroke="none" /><path d="M 89.97174638481275 118.45085714620012 l -8.45427776143549 15.554918855891945 a38.70396320265283,38.70396320265283 0 0,0 -0.5810309210013642,-0.32228805744907646 l 8.720052870592957 -15.40749788300972" fill="#ffd113" stroke="none" /><line stroke="#e1ed5e" stroke-width="0.3" x1="58.13341422392154" x2="55.67067388415222" y1="173.97424548756322" y2="178.32567169271397" /><path d="M 57.64086615596768 174.84453072859336 a86.0,86.0 0 0,1 -31.369924170532247,-30.572349798747897" fill="none" id="id56" stroke="none" /><text fill="#e1ed5e" style="font-size:6.75px; font-family:Arial;" text-anchor="middle"><textPath startOffset="22.145653131862474" xlink:href="#id56">August</textPath></text><path d="M 89.65649057296885 118.27599006163327 l -6.540454566143109 11.55635652412263 a34.27881478312029,34.27881478312029 0 0,0 -0.5096240080051635,-0.29423155820727936 l 6.737871042008671 -11.44237806863918" fill="#ff960d" stroke="none" /><path d="M 89.34428304082925 118.09573695890944 l -15.843620385211892 26.905931160348835 a52.224180349788725,52.224180349788725 0 0,0 -0.7686087362741417,-0.46152746220990354 l 16.30316187804346 -26.629989697603012" fill="#8aff24" stroke="none" /><path d="M 89.03521579738668 117.91015095944536 l -21.928395512869294 35.81838608737126 a62.997753650318224,62.997753650318224 0 0,0 -0.9174748986636256,-0.5725721929162128 l 22.540034540322633 -35.4366780976135" fill="#32ff4a" stroke="none" /><line stroke="#e1ed5e" stroke-width="0.3" x1="26.387840678322732" x2="22.057713659400548" y1="142.50000000000003" y2="145.00000000000006" /><path d="M 25.521815274538298 143.00000000000003 a86.0,86.0 0 0,1 -11.493303480769221,-40.785679425670985" fill="none" id="id57" stroke="none" /><text fill="#e1ed5e" style="font-size:6.75px; font-family:Arial;" text-anchor="middle"><textPath startOffset="21.40746469413373" xlink:href="#id57">September</textPath></text><line stroke="#e1ed5e" stroke-width="0.3" x1="15.003131293944662" x2="10.003315487706104" y1="100.72959589197737" y2="100.7725132973878" /><path d="M 14.003168132696942 100.73817937305945 a86.0,86.0 0 0,1 10.791469493833604,-42.45332614584628" fill="none" id="id58" stroke="none" /><text fill="#e1ed5e" style="font-size:6.75px; font-family:Arial;" text-anchor="middle"><textPath startOffset="22.145653131862435" xlink:href="#id58">October</textPath></text><line stroke="#e1ed5e" stroke-width="0.3" x1="26.387840678322718" x2="22.05771365940052" y1="57.49999999999999" y2="54.99999999999999" /><path d="M 25.521815274538284 56.99999999999999 a86.0,86.0 0 0,1 29.574782752854787,-30.34633250058573" fill="none" id="id59" stroke="none" /><text fill="#e1ed5e" style="font-size:6.75px; font-family:Arial;" text-anchor="middle"><textPath startOffset="21.40746469413373" xlink:href="#id59">November</textPath></text><line stroke="#e1ed5e" stroke-width="0.3" x1="56.869717070023135" x2="54.33264160355391" y1="26.7553504044142" y2="22.446841604673864" /><path d="M 56.362301976729285 25.89364864446614 a86.0,86.0 0 0,1 42.16139366436587,-11.88097634709845" fill="none" id="id60" stroke="none" /><text fill="#e1ed5e" style="font-size:6.75px; font-family:Arial;" text-anchor="middle"><textPath startOffset="22.145653131862474" xlink:href="#id60">December</textPath></text></svg>