<?xml version="1.0" encoding="utf-8" ?>
<svg baseProfile="full" height="200mm" version="1.1" viewBox="0,0,200,200" width="200mm" xmlns="http://www.w3.org/2000/svg" xmlns:ev="http://www.w3.org/2001/xml-events" xmlns:xlink="http://www.w3.org/1999/xlink"><defs /><rect fill="#1a1a1a" height="200" width="200" x="0" y="0" /><text alignment-baseline="middle" fill="#e1ed5e" style="dominant-baseline: central; font-size:9.0px; font-family:Arial;" text-anchor="middle" x="100.0" y="100.0">2024</text><line stroke="#e1ed5e" stroke-width="0.3" x1="100.0" x2="100.0" y1="15.0" y2="10.0" /><path d="M 100.0 14.0 a86.0,86.0 0 0,1 42.35913384403234,11.155469271406648" fill="none" id="id49" stroke="none" /><text fill="#e1ed5e" style="font-size:6.75px; font-family:Arial;" text-anchor="middle"><textPath startOffset="22.145653131862478" xlink:href="#id49">January</textPath></text><path d="M 100.0 79.0 l 0.0 -34.11693461138999 a55.11693461138999,55.11693461138999 0 0,0 0.9461554746077646,0.008121606806870107 l -0.5856625497589097 34.11190740277756" fill="#71ff27" stroke="none" /><path d="M 100.72087961077811 79.0123766808444 l 1.730377792571304 -50.37806142293117 a71.40777003635104,71.40777003635104 0 0,0 1.2247256790491967,0.05259499032863146 l -2.594929232221337 50.340933864176705" fill="#3dffa9" stroke="none" /><path d="M 101.44090949804482 79.04949213459386 l 3.6265611888323273 -52.72940376484716 a73.85396832265883,73.85396832265883 0 0,0 1.264066955907206,0.09784677690537813 l -4.5311971395147665 52.65937922094673" fill="#40ffc4" stroke="none" /><path d="M 101.80034050326958 79.07731436759882 l 3.3647408052413863 -39.10338848385972 a60.247884931625414,60.247884931625414 0 0,0 1.0296662955757077,0.09751046873103064 l -4.035506664202107 39.0398662596235" fill="#3aff2e" stroke="none" /><path d="M 102.15924093988457 79.11130261209362 l 5.7864793213884465 -55.97893836355419 a77.27721460100398,77.27721460100398 0 0,0 1.3183643626585924,0.14772547668080535 l -6.746579585647836 55.87135712636641" fill="#44ffe9" stroke="none" /><path d="M 102.87502721639298 79.19773525538626 l 5.820474434710767 -42.11405354347065 a63.514367318677515,63.514367318677515 0 0,0 1.0787609645611522,0.15854071261645786 l -6.5425605048796 42.00793175755531" fill="#32ff4b" stroke="none" /><path d="M 103.23170211078529 79.25015418208739 l 7.084102762906619 -45.48502153029255 a67.03337588713865,67.03337588713865 0 0,0 1.1354895166359549,0.1868443678580096 l -7.8638697825956445 45.35671116393887" fill="#37ff76" stroke="none" /><path d="M 103.58742460773223 79.30868818359171 l 9.028505881744477 -52.07402269382973 a73.85090120304656,73.85090120304656 0 0,0 1.2472547406034915,0.22729136197938962 l -9.921095355899022 51.91136315791898" fill="#40ffc4" stroke="none" /><path d="M 104.29559338865022 79.4440306129975 l 2.022133671530944 -9.676641638904853 a30.88566730136749,30.88566730136749 0 0,0 0.5180520386351959,0.11290703063300303 l -2.1879481267852743 9.64050315013813" fill="#ff5708" stroke="none" /><path d="M 104.64783097203109 79.52079915486377 l 2.029554198687885 -8.942590277299947 a30.170006058507877,30.170006058507877 0 0,0 0.5040802403525372,0.11896156418386347 l -2.182766592780307 8.906432569469855" fill="#ff4d07" stroke="none" /><path d="M 104.9986988182912 79.60360301121754 l 6.498654574134679 -26.516728333780623 a48.30145404189025,48.30145404189025 0 0,0 0.8036320177025397,0.20428011632142648 l -6.952891885062613 26.40126298562393" fill="#bfff1e" stroke="none" /><path d="M 105.3480935250658 79.69241777938227 l 8.716457432102661 -33.097808620084166 a55.22632854422711,55.22632854422711 0 0,0 0.9147021059892124,0.24930612648695202 l -9.283340939026566 32.94330199945307" fill="#70ff27" stroke="none" /><path d="M 106.04205211174951 79.88797359093562 l 12.594297844022261 -41.92232144936847 a64.77324952397439,64.77324952397439 0 0,0 1.062155962520181,0.32905863228900406 l -13.312094439414073 41.69994622927282" fill="#34ff5b" stroke="none" /><path d="M 106.38641147887787 79.99465700312896 l 16.075541227422548 -50.356403933345575 a73.86010256188332,73.86010256188332 0 0,0 1.204543129640513,0.39595725197947673 l -16.937607094710803 50.073025759964075" fill="#40ffc4" stroke="none" /><path d="M 106.72888874123014 80.10723608172694 l 17.00738422663989 -50.27930945192861 a74.07786805435347,74.07786805435347 0 0,0 1.2010993567484805,0.41780470496832217 l -17.867989355433387 49.9799463143917" fill="#40ffc7" stroke="none" /><path d="M 107.06938296918511 80.22567764915836 l 17.30125783602818 -48.39469738956331 a72.39436017829323,72.39436017829323 0 0,0 1.1666208020663364,0.42839931790063296 l -18.12946778974864 48.09056722265395" fill="#3effb4" stroke="none" /><path d="M 107.74402155503746 80.48000691201159 l 3.681786602549971 -9.280507359444721 a30.984155920027696,30.984155920027696 0 0,0 0.4927152687272893,0.20038301038447057 l -3.8405563324677 9.215937092480956" fill="#ff5908" stroke="none" /><path d="M 109.06512990194946 81.05736502329252 l 14.838864052704794 -31.00751872942553 a55.375254240955506,55.375254240955506 0 0,0 0.8539385014495569,0.4177041124629863 l -15.36896280341642 30.74822086686532" fill="#6eff28" stroke="none" /><path d="M 109.3889696526874 81.21577127319529 l 22.928275888367185 -45.87191081985177 a72.28292149904794,72.28292149904794 0 0,0 1.1051465918266004,0.5642957242678891 l -23.712349701907367 45.47155714391104" fill="#3effb3" stroke="none" /><path d="M 109.71004243097381 81.37971332152246 l 15.813065464878248 -30.323638059739785 a55.19906525878484,55.19906525878484 0 0,0 0.8364266630225193,0.44535008614033705 l -16.33128094368733 30.047717505876875" fill="#70ff27" stroke="none" /><path d="M 110.34350942703115 81.72400993836675 l 15.673048763752048 -27.692775403023102 a52.82034360394669,52.82034360394669 0 0,0 0.7852813868263828,0.4533824200738148 l -16.146122618438827 27.41964608567312" fill="#8aff24" stroke="none" /><line stroke="#e1ed5e" stroke-width="0.3" x1="143.13028292997686" x2="145.6673583964461" y1="26.7553504044142" y2="22.446841604673864" /><path d="M 143.63769802327073 25.89364864446614 a86.0,86.0 0 0,1 29.32050498858742,28.57503671076993" fill="none" id="id50" stroke="none" /><text fill="#e1ed5e" style="font-size:6.75px; font-family:Arial;" text-anchor="middle"><textPath startOffset="20.669276256404974" xlink:href="#id50">February</textPath></text><path d="M 110.65571695917076 81.90426304109057 l 18.05639782477363 -30.66371101207964 a56.585062532456284,56.585062532456284 0 0,0 0.8327899665205463,0.5000664468963478 l -18.58012054785161 30.34923056464737" fill="#61ff29" stroke="none" /><path d="M 110.96478420261332 82.08984904055464 l 2.105897649698081 -3.439825546429307 a25.033262290115978,25.033262290115978 0 0,0 0.3645747419872979,0.22752160283140846 l -2.1646365204750913 3.4031681467563533" fill="#ff0000" stroke="none" /><path d="M 111.27062007382361 82.28071324371311 l 23.517445188228745 -36.9733299797154 a64.81891552709018,64.81891552709018 0 0,0 0.9337453927840066,0.605242482410804 l -24.14867621326976 36.564173655600705" fill="#34ff5b" stroke="none" /><path d="M 111.5731344415666 82.4767994020092 l 19.156672684348386 -29.005644057172745 a55.76068893889562,55.76068893889562 0 0,0 0.7942013828520085,0.5343741344643977 l -19.651770355297394 28.672520248651228" fill="#6aff28" stroke="none" /><path d="M 112.16784306229584 82.88440491214696 l 28.225349259471226 -39.702488490773774 a69.71301605504587,69.71301605504587 0 0,0 0.9694059291513262,0.701775134252055 l -28.902736198996518 39.212112585148645" fill="#3aff96" stroke="none" /><path d="M 112.45986205192187 83.09580414077388 l 12.19956265753182 -16.55104973878984 a41.561288298424785,41.561288298424785 0 0,0 0.5706701551366061,0.42824152334161286 l -12.481885801579192 16.33918918818421" fill="#ffea16" stroke="none" /><path d="M 113.03279911837588 83.53348406188908 l 32.23930026416269 -40.73330270892215 a72.94780487277133,72.94780487277133 0 0,0 0.9752400010621617,0.7855843112382268 l -32.93379103558011 40.173870103890515" fill="#3fffba" stroke="none" /><path d="M 113.31354834802062 83.75963576809568 l 20.641386891009503 -25.179135764470235 a53.558497057296165,53.558497057296165 0 0,0 0.7060174575797296,0.588984873494024 l -21.070578682751126 24.82108870706434" fill="#82ff25" stroke="none" /><path d="M 113.59037401385872 83.9905735841838 l 11.857245511950733 -13.967805398458212 a39.32195019041025,39.32195019041025 0 0,0 0.5108492813184106,0.4412594421571522 l -12.095274273032004 13.762201823836339" fill="#ffcd13" stroke="none" /><path d="M 113.86319453409587 84.22622945171908 l 27.062790918026124 -30.79248821670562 a61.99477994633892,61.99477994633892 0 0,0 0.7933412155223869,0.7094106069048097 l -27.587397160371886 30.323382079917426" fill="#30ff38" stroke="none" /><path d="M 114.13192950727249 84.46653392183569 l 14.275875452736152 -15.69168788784701 a42.21390319369915,42.21390319369915 0 0,0 0.5318353343660539,0.49225884564870404 l -14.543140558416171 15.44431129606593" fill="#fff316" stroke="none" /><path d="M 114.39649973595853 84.71141617570332 l 6.05658525978539 -6.431883661411638 a29.83466764756794,29.83466764756794 0 0,0 0.3698468982726647,0.3543049622699046 l -6.166104643923367 6.326966568836154" fill="#ff4806" stroke="none" /><path d="M 114.91283532996326 85.21462403516908 l 24.282565637514917 -24.07502358857113 a55.19429418383243,55.19429418383243 0 0,0 0.6613149008484391,0.6785673469334735 l -24.692267339514167 23.654633549569915" fill="#70ff27" stroke="none" /><path d="M 115.16444852881244 85.47280134310134 l 19.727383710433475 -18.89838734312198 a48.3188343863597,48.3188343863597 0 0,0 0.5686532399644095,0.6038900347727479 l -20.048892784134146 18.556955848404737" fill="#bfff1e" stroke="none" /><path d="M 115.41159269507618 85.73525988315684 l 25.155716901984473 -23.283756011429784 a55.27744720443137,55.27744720443137 0 0,0 0.6385921801612753,0.7019246708817366 l -25.551706782987623 22.848493764990373" fill="#6fff27" stroke="none" /><path d="M 115.8921839302757 86.27271002978787 l 20.73392537878412 -17.909470916271484 a48.39789791414229,48.39789791414229 0 0,0 0.5376901284855806,0.633397619353421 l -21.038310070776816 17.55090651446851" fill="#beff1f" stroke="none" /><path d="M 116.35404254752997 86.82634096563983 l 21.27306508200319 -17.136075388796748 a48.3164488488835,48.3164488488835 0 0,0 0.5147624552231062,0.6503855462117129 l -21.564093967867855 16.768369898670358" fill="#bfff1e" stroke="none" /><path d="M 116.7966241395341 87.39550010848427 l 22.533483929272414 -16.9095464292424 a49.17251601177081,49.17251601177081 0 0,0 0.5008524698523699,0.6795025668567195 l -22.820438418708612 16.520237553116807" fill="#b5ff20" stroke="none" /><line stroke="#e1ed5e" stroke-width="0.3" x1="172.87174338648825" x2="177.1583165268699" y1="56.24261187166439" y2="53.66864786411523" /><path d="M 173.72905801456457 55.72781907015455 a86.0,86.0 0 0,1 12.242430191666344,42.057860355516425" fill="none" id="id51" stroke="none" /><text fill="#e1ed5e" style="font-size:6.75px; font-family:Arial;" text-anchor="middle"><textPath startOffset="22.145653131862474" xlink:href="#id51">March</textPath></text><path d="M 120.05942366710727 93.78553927170692 l 16.28808187544431 -5.0460894008710016 a38.05182187986844,38.05182187986844 0 0,0 0.1879464283784022,0.6256125338086819 l -16.372304623826338 4.7657392634715965" fill="#ffbc11" stroke="none" /><path d="M 120.26092885502905 94.47779374421319 l 16.482280529044342 -4.492318851636939 a38.083515449195076,38.083515449195076 0 0,0 0.16649844410341313,0.6322217117909105 l -16.556968453952486 4.2087166354732295" fill="#ffbc11" stroke="none" /><path d="M 120.43855184770803 95.1765574152323 l 6.409048879499452 -1.5125180846265311 a27.585105807512548,27.585105807512548 0 0,0 0.10480913458200186,0.46180838555145637 l -6.43406887563912 1.4022753651360487" fill="#ff2703" stroke="none" /><path d="M 120.51834098615036 95.52812308129327 l 25.221163741928546 -5.496835249817836 a46.81321944781028,46.81321944781028 0 0,0 0.16438637932203817,0.7866483335951625 l -25.31180783207495 5.063070464937269" fill="#d1ff1c" stroke="none" /><path d="M 120.592083275326 95.88100663000786 l 42.2202090821552 -8.445224262348264 a64.05656590791068,64.05656590791068 0 0,0 0.2064259675552714,1.080107889560267 l -42.358961341992625 7.7192138077546835" fill="#33ff52" stroke="none" /><path d="M 120.65975698304385 96.23510406497455 l 25.42550194574573 -4.633373422547225 a46.844231435000864,46.844231435000864 0 0,0 0.13737669249335915,0.7923522558663091 l -25.50129345573132 4.196228133760324" fill="#d1ff1c" stroke="none" /><path d="M 120.7213421655516 96.59031103205396 l 51.84931217283628 -8.531784587062928 a73.5465747792972,73.5465747792972 0 0,0 0.19429782033794793,1.247531386421365 l -51.98813148531249 7.640465018710122" fill="#3fffc1" stroke="none" /><path d="M 120.77682067341334 96.94652285012252 l 33.761434476213196 -4.961768229155472 a55.124091223818596,55.124091223818596 0 0,0 0.1295560081812444,0.9374027369462224 l -33.84163500094965 4.381477184009164" fill="#71ff27" stroke="none" /><path d="M 120.82617615685814 97.30363454192243 l 25.570151608894736 -3.310568058041038 a46.78357062489181,46.78357062489181 0 0,0 0.09628039617769084,0.797339797273755 l -25.62321409133209 2.87113458384387" fill="#d2ff1c" stroke="none" /><path d="M 120.86939407059847 97.66154086499901 l 60.819996290911526 -6.81500744276901 a82.20062316081012,82.20062316081012 0 0,0 0.14509430652797048,1.403655796713878 l -60.92802298992116 5.769947123772201" fill="#4be3ff" stroke="none" /><path d="M 120.9064616781168 98.02013634271609 l 62.7193850343504 -5.939590971851745 a84.0,84.0 0 0,0 0.12362550920903681,1.4367158104973519 l -62.812104166257186 4.862054113978731" fill="#4dd2ff" stroke="none" /><path d="M 120.93736805541906 98.37931529534042 l 25.788557502351747 -1.9961974489185113 a46.86570127228665,46.86570127228665 0 0,0 0.05520341936655688,0.8026456021045943 l -25.81902488288337 1.5532084226595826" fill="#d1ff1d" stroke="none" /><path d="M 120.96210409425399 98.7389718711861 l 51.36931065645729 -3.090250167841187 a72.46217760083087,72.46217760083087 0 0,0 0.06403727813271254,1.2423060880782846 l -51.41478952404657 2.207972286386172" fill="#3effb5" stroke="none" /><path d="M 120.98066250479742 99.09900007780936 l 51.14887678685199 -2.1965528492989477 a72.19601977670071,72.19601977670071 0 0,0 0.042545159158019694,1.238655888045246 l -51.17904663300686 1.3181906966895816" fill="#3effb2" stroke="none" /><path d="M 120.99303781780057 99.45929381324524 l 17.04855339356815 -0.43911026003605697 a38.05420741734464,38.05420741734464 0 0,0 0.011214336455275614,0.6531788773302241 l -17.05357916162209 0.14638446673676647" fill="#ffbc11" stroke="none" /><line stroke="#e1ed5e" stroke-width="0.3" x1="184.99686870605535" x2="189.99668451229388" y1="99.2704041080226" y2="99.22748670261217" /><path d="M 185.99683186730306 99.26182062694052 a86.0,86.0 0 0,1 -10.086455211305974,41.156179273409016" fill="none" id="id52" stroke="none" /><text fill="#e1ed5e" style="font-size:6.75px; font-family:Arial;" text-anchor="middle"><textPath startOffset="21.40746469413373" xlink:href="#id52">April</textPath></text><path d="M 120.99922638620191 99.81974689727618 l 20.430353453980924 -0.17537001278505726 a41.43110611043794,41.43110611043794 0 0,0 0.0,0.7112462310177657 l -20.430353453980924 -0.1753700127850548" fill="#ffe915" stroke="none" /><path d="M 120.99922638620191 100.18025310272382 l 46.30668833557176 0.3974872262359416 a67.30839427903756,67.30839427903756 0 0,0 -0.019835361999029674,1.1553103951928012 l -46.29304154197406 -1.1923445373978139" fill="#37ff7a" stroke="none" /><path d="M 120.99303781780057 100.54070618675476 l 49.981903843306036 1.2873565449846964 a70.99847996364895,70.99847996364895 0 0,0 -0.041839448204682265,1.21810988363682 l -49.95243970810451 -2.145172693185627" fill="#3cffa4" stroke="none" /><path d="M 120.96210409425399 101.26102812881392 l 34.0312158168573 2.047233436578412 a55.092738445559974,55.092738445559974 0 0,0 -0.06489410084343944,0.9435459839662123 l -33.991057754848796 -2.631122844698968" fill="#71ff27" stroke="none" /><path d="M 120.9064616781168 101.97986365728391 l 43.00965272202592 4.073058829743188 a64.2020836939588,64.2020836939588 0 0,0 -0.11332464953461388,1.0963131844126845 l -42.93339568000964 -4.810776536438803" fill="#33ff54" stroke="none" /><path d="M 120.86939407059847 102.33845913500097 l 19.458036723193764 2.1803136004145696 a40.579810022503025,40.579810022503025 0 0,0 -0.08351308234056057,0.6916081236333652 l -19.41774155459354 -2.5140154009713434" fill="#ffde14" stroke="none" /><path d="M 120.82617615685814 102.69636545807757 l 42.712001639336215 5.52992373627522 a64.06849359529167,64.06849359529167 0 0,0 -0.15057768928452567,1.0895051494707917 l -42.61077943349648 -6.262317193946097" fill="#33ff52" stroke="none" /><path d="M 120.77682067341334 103.0534771498775 l 43.171491948316344 6.344722624428716 a64.63522914142288,64.63522914142288 0 0,0 -0.17075552705082425,1.0963729754163587 l -43.05621492912725 -7.084883781776525" fill="#34ff59" stroke="none" /><path d="M 120.7213421655516 103.40968896794604 l 25.55946798719186 4.205800730774141 a46.90318828976977,46.90318828976977 0 0,0 -0.13754959100102712,0.7933494885125578 l -25.4835035786986 -4.643943252207287" fill="#d0ff1d" stroke="none" /><path d="M 120.65975698304385 103.76489593502545 l 59.04130384181349 10.759292329289366 a81.01364787086722,81.01364787086722 0 0,0 -0.26107113938900667,1.3660345194461125 l -58.84790641014232 -11.771229413768792" fill="#49efff" stroke="none" /><path d="M 120.592083275326 104.11899336999214 l 33.43250546396159 6.687437424716003 a55.09478319196815,55.09478319196815 0 0,0 -0.19346740162909803,0.9258115527829864 l -33.31278035150813 -7.260365428784398" fill="#71ff27" stroke="none" /><path d="M 120.51834098615036 104.47187691870673 l 49.958182364301166 10.888153324201829 a72.13092868270729,72.13092868270729 0 0,0 -0.27406022164946625,1.2075599040920597 l -49.76391128109403 -11.744147562232905" fill="#3effb1" stroke="none" /><path d="M 120.43855184770803 104.8234425847677 l 12.605159323940237 2.9747832783805173 a33.95142374935087,33.95142374935087 0 0,0 -0.13873598334405593,0.566090155814164 l -12.552235814079884 -3.1907292588027807" fill="#ff830c" stroke="none" /><path d="M 120.35273937422433 105.17358676015961 l 57.678058631006486 14.661536955708074 a80.51234420979748,80.51234420979748 0 0,0 -0.3519942915966559,1.3365796585801357 l -57.4178748586051 -15.649497118661014" fill="#48f4ff" stroke="none" /><path d="M 120.26092885502905 105.52220625578681 l 58.01431318531591 15.812059036849474 a81.13053920720097,81.13053920720097 0 0,0 -0.37776506964202583,1.3405549635416683 l -57.73432962359931 -16.80562192429415" fill="#49eeff" stroke="none" /><path d="M 120.16314734710363 105.8691983318838 l 11.677815567186393 3.3992419173002997 a33.16249242686516,33.16249242686516 0 0,0 -0.16379694058886743,0.545226743152569 l -11.617742306593897 -3.599206264043592" fill="#ff780b" stroke="none" /><path d="M 120.05942366710727 106.21446072829308 l 50.73635288641929 15.718251817298613 a74.1153550718366,74.1153550718366 0 0,0 -0.3869360961224039,1.2120718100298602 l -50.45905207451963 -16.586892661019856" fill="#40ffc7" stroke="none" /><path d="M 119.71291397450082 107.23885506374661 l 40.13676137826856 14.738774730174097 a63.75735135018175,63.75735135018175 0 0,0 -0.38609422728595544,1.0241608086296226 l -39.877836467168166 -15.425603818997878" fill="#33ff4e" stroke="none" /><path d="M 119.58574465831526 107.57618678355244 l 24.570328539895335 9.504330910005278 a47.34451272286654,47.34451272286654 0 0,0 -0.29971629783147896,0.7554808597120023 l -24.40355356709773 -9.924712786930844" fill="#cbff1d" stroke="none" /><path d="M 119.4528033332814 107.91128576633889 l 55.486642344873054 22.56593439434536 a80.89982365414575,80.89982365414575 0 0,0 -0.5342245105898054,1.2819443478111063 l -55.091091989746765 -23.51511125159774" fill="#49f0ff" stroke="none" /><path d="M 119.31412917781788 108.2440532568976 l 23.34163245414914 9.963154915414929 a46.37905162714212,46.37905162714212 0 0,0 -0.31883636376882096,0.7295599962033034 l -23.167162208363354 -10.362376981394076" fill="#d7ff1c" stroke="none" /><path d="M 119.16976305983485 108.57439118712176 l 23.95826335506297 10.716226461912465 a47.2456833131383,47.2456833131383 0 0,0 -0.33750411740519,0.7375074063258266 l -23.770774772802728 -11.12592285045298" fill="#ccff1d" stroke="none" /><path d="M 118.8641267826498 109.22738970284198 l 11.77589522483864 5.760180452103524 a34.10921001384801,34.10921001384801 0 0,0 -0.2617964490624415,0.5237682686136449 l -11.675278862564467 -5.9614805768809145" fill="#ff860c" stroke="none" /><path d="M 118.70294669586154 109.54985784667822 l 22.799679540306766 11.64167882742916 a46.59988423922451,46.59988423922451 0 0,0 -0.3698964137800077,0.7093251460934943 l -22.59647505755181 -12.031350216627157" fill="#d4ff1c" stroke="none" /><path d="M 118.5362547648365 109.86951160357373 l 37.97924827728429 20.221810517987393 a64.02725787606023,64.02725787606023 0 0,0 -0.5248852473686516,0.9657297361008198 l -37.6265176803003 -20.870795087562815" fill="#33ff52" stroke="none" /><line stroke="#e1ed5e" stroke-width="0.3" x1="174.33088141563837" x2="178.70328620479359" y1="141.23008692659167" y2="143.65538615756765" /><path d="M 175.20536237346943 141.71514677278685 a86.0,86.0 0 0,1 -30.301960400862466,31.631185727798858" fill="none" id="id53" stroke="none" /><text fill="#e1ed5e" style="font-size:6.75px; font-family:Arial;" text-anchor="middle"><textPath startOffset="22.145653131862474" xlink:href="#id53">May</textPath></text><path d="M 118.36410011445183 110.18625677009912 l 30.20325458281976 16.75323618123602 a55.5384931625411,55.5384931625411 0 0,0 -0.4696087306026482,0.8297536299354016 l -29.911212487195733 -17.269246581270544" fill="#6cff28" stroke="none" /><path d="M 118.18653347947321 110.5 l 29.560593625108787 17.066816686861685 a55.133633373723384,55.133633373723384 0 0,0 -0.48025671429147454,0.8155808950132828 l -29.263263200687547 -17.571748750168517" fill="#71ff27" stroke="none" /><path d="M 117.62189284568427 111.42229804090321 l 52.214809334015264 33.84500856887933 a83.22435952916737,83.22435952916737 0 0,0 -0.7873641107104997,1.1921696170818026 l -51.626120784384035 -34.73635806430019" fill="#4cd9ff" stroke="none" /><path d="M 117.423217284605 111.72311816256416 l 21.107310133607104 14.201940247212711 a46.44039401938723,46.44039401938723 0 0,0 -0.45071566321388257,0.6576076224298393 l -20.8604047335779 -14.562182604712595" fill="#d6ff1c" stroke="none" /><path d="M 117.21940702142032 112.02048342749411 l 34.30840915151519 23.94993411308882 a62.84096416825342,62.84096416825342 0 0,0 -0.6250727908841852,0.8792431603888051 l -33.892221262101046 -24.53535450018713" fill="#31ff43" stroke="none" /><path d="M 117.01052211995028 112.31430620078461 l 19.30467532173429 13.9750961988262 a44.83220096936125,44.83220096936125 0 0,0 -0.45664367833134845,0.6195248506142075 l -19.061929623819115 -14.304427358709285" fill="#eaff1a" stroke="none" /><path d="M 116.79662413953412 112.60449989151573 l 20.086278012629855 15.073117486462385 a46.11289380301194,46.11289380301194 0 0,0 -0.48055788701238633,0.6290657002146319 l -19.82456814826316 -15.415704099917894" fill="#daff1c" stroke="none" /><path d="M 116.57777611688842 112.89097897827486 l 46.679338696450515 36.29813610781591 a80.13133979574174,80.13133979574174 0 0,0 -0.8537176509511989,1.078644363221518 l -46.049354614857755 -37.0941004149521" fill="#48f8ff" stroke="none" /><path d="M 116.35404254752997 113.17365903436017 l 19.677770977907166 15.851019383481395 a46.26795373896486,46.26795373896486 0 0,0 -0.5035565711600216,0.6142571396620519 l -19.402767587508517 -16.18647880484194" fill="#d8ff1c" stroke="none" /><path d="M 116.1254893667686 113.45245675266167 l 26.18124069856432 21.841322158835066 a55.0954647741042,55.0954647741042 0 0,0 -0.6120986408524179,0.721050659824008 l -25.802447494204788 -22.28753960110863" fill="#71ff27" stroke="none" /><path d="M 115.89218393027572 113.72728997021213 l 18.857697912764415 16.2888303177781 a45.91864289423576,45.91864289423576 0 0,0 -0.5203870936602297,0.592104986444131 l -18.5752997551456 -16.610147582033523" fill="#dcff1b" stroke="none" /><path d="M 115.6541949942343 113.99807769240083 l 19.842698147903 17.743463040003505 a47.61884953262938,47.61884953262938 0 0,0 -0.5501163038038316,0.6046741840726372 l -19.53518414325729 -18.081474799633813" fill="#c8ff1d" stroke="none" /><path d="M 115.41159269507618 114.26474011684316 l 18.60555657843778 17.221025404170568 a46.35212913276787,46.35212913276787 0 0,0 -0.5455075385270062,0.5793101019357332 l -18.307193206174514 -17.5378769660508" fill="#d7ff1c" stroke="none" /><path d="M 115.16444852881244 114.52719865689866 l 18.33721629429089 17.566638405316557 a46.393705643067335,46.393705643067335 0 0,0 -0.5558699373009535,0.5703715251394738 l -18.032959555839128 -17.878832622523767" fill="#d7ff1c" stroke="none" /><path d="M 114.91283532996324 114.78537596483092 l 13.399238689751519 13.284715970304548 a39.868579063527775,39.868579063527775 0 0,0 -0.4860323034857348,0.4818782061953529 l -13.169214466135818 -13.512774186728562" fill="#ffd413" stroke="none" /><path d="M 114.65682725009322 115.03919595460226 l 4.368886363971007 4.482862287316096 a27.259650337545438,27.259650337545438 0 0,0 -0.3379255718359052,0.32372505363310616 l -4.29128830626979 -4.5571994712547825" fill="#ff2203" stroke="none" /><path d="M 114.39649973595853 115.28858382429668 l 11.691471075275432 12.41593712652456 a38.05420741734464,38.05420741734464 0 0,0 -0.47942906470821883,0.4437523848335845 l -11.476612239253246 -12.614807257490524" fill="#ffbc11" stroke="none" /><path d="M 114.13192950727249 115.5334660781643 l 17.269156090322497 18.981827654143316 a46.66190821360568,46.66190821360568 0 0,0 -0.597127935816825,0.5339554822809784 l -16.940763127682295 -19.27547866630768" fill="#d3ff1c" stroke="none" /><path d="M 113.86319453409587 115.77377054828091 l 39.62511110350378 45.086102554469456 a81.02421239397611,81.02421239397611 0 0,0 -1.0526222751014023,0.9092300506221627 l -38.84530934863952 -45.75967673755633" fill="#49efff" stroke="none" /><path d="M 113.59037401385872 116.0094264158162 l 38.583520564109534 45.45129020763854 a80.61969339622641,80.61969339622641 0 0,0 -1.0627428716225833,0.8865779012675784 l -37.797603358325055 -46.10693029281799" fill="#49f3ff" stroke="none" /><path d="M 113.31354834802062 116.24036423190432 l 17.05618336917096 20.805770413765607 a47.9034100744331,47.9034100744331 0 0,0 -0.6404212131311203,0.5158779962593955 l -16.696511385684584 -21.095496703818405" fill="#c4ff1e" stroke="none" /><path d="M 113.03279911837588 116.46651593811092 l 37.044961640651394 46.805098869544395 a80.69125952051238,80.69125952051238 0 0,0 -1.0935204768759803,0.8503281369182405 l -36.23603121914018 -47.43412805808343" fill="#49f2ff" stroke="none" /><path d="M 112.45986205192187 116.90419585922612 l 15.393521150891662 20.884267852522132 a46.94442400900121,46.94442400900121 0 0,0 -0.6527934889373609,0.4725721439922885 l -15.032746651580332 -21.1454407678875" fill="#d0ff1d" stroke="none" /><path d="M 112.16784306229584 117.11559508785304 l 14.484395969176045 20.37411686124855 a45.99804721308638,45.99804721308638 0 0,0 -0.6474880263147407,0.45199692882195874 l -14.132512851687546 -20.61975860587563" fill="#dbff1b" stroke="none" /><path d="M 111.8722381534696 117.32195027204791 l 14.424206776373035 21.04534875937031 a46.51400489008135,46.51400489008135 0 0,0 -0.662500548480832,0.4457599354779777 l -14.060809939795199 -21.28985836890541" fill="#d5ff1c" stroke="none" /><path d="M 111.5731344415666 117.5232005979908 l 10.613735719711572 16.070548652970622 a40.25912562748832,40.25912562748832 0 0,0 -0.579950663575488,0.3759170133644983 l -10.336299423879074 -16.250379508039014" fill="#ffd914" stroke="none" /><path d="M 111.27062007382361 117.71928675628689 l 15.667139814733913 24.63134603151689 a50.191822096243726,50.191822096243726 0 0,0 -0.7309742684969684,0.45618200616525517 l -15.242001417447229 -24.896663834523693" fill="#a9ff21" stroke="none" /><line stroke="#e1ed5e" stroke-width="0.3" x1="143.1302829299769" x2="145.66735839644613" y1="173.24464959558577" y2="177.55315839532614" /><path d="M 143.63769802327073 174.10635135553383 a86.0,86.0 0 0,1 -40.68552437913181,11.842963189579606" fill="none" id="id54" stroke="none" /><text fill="#e1ed5e" style="font-size:6.75px; font-family:Arial;" text-anchor="middle"><textPath startOffset="21.407464694133747" xlink:href="#id54">June</textPath></text><line stroke="#e1ed5e" stroke-width="0.3" x1="101.45913802915013" x2="101.54496967792366" y1="184.9874750549273" y2="189.98673829345242" /><path d="M 101.47630435890484 185.9873277026323 a86.0,86.0 0 0,1 -42.54439059252881,-10.42667462771756" fill="none" id="id55" stroke="none" /><text fill="#e1ed5e" style="font-size:6.75px; font-family:Arial;" text-anchor="middle"><textPath startOffset="22.145653131862474" xlink:href="#id55">July</textPath></text><line stroke="#e1ed5e" stroke-width="0.3" x1="58.13341422392154" x2="55.67067388415222" y1="173.97424548756322" y2="178.32567169271397" /><path d="M 57.64086615596768 174.84453072859336 a86.0,86.0 0 0,1 -31.369924170532247,-30.572349798747897" fill="none" id="id56" stroke="none" /><text fill="#e1ed5e" style="font-size:6.75px; font-family:Arial;" text-anchor="middle"><textPath startOffset="22.145653131862474" xlink:href="#id56">August</textPath></text><line stroke="#e1ed5e" stroke-width="0.3" x1="26.387840678322732" x2="22.057713659400548" y1="142.50000000000003" y2="145.00000000000006" /><path d="M 25.521815274538298 143.00000000000003 a86.0,86.0 0 0,1 -11.493303480769221,-40.785679425670985" fill="none" id="id57" stroke="none" /><text fill="#e1ed5e" style="font-size:6.75px; font-family:Arial;" text-anchor="middle"><textPath startOffset="21.40746469413373" xlink:href="#id57">September</textPath></text><line stroke="#e1ed5e" stroke-width="0.3" x1="15.003131293944662" x2="10.003315487706104" y1="100.72959589197737" y2="100.7725132973878" /><path d="M 14.003168132696942 100.73817937305945 a86.0,86.0 0 0,1 10.791469493833604,-42.45332614584628" fill="none" id="id58" stroke="none" /><text fill="#e1ed5e" style="font-size:6.75px; font-family:Arial;" text-anchor="middle"><textPath startOffset="22.145653131862435" xlink:href="#id58">October</textPath></text><line stroke="#e1ed5e" stroke-width="0.3" x1="26.387840678322718" x2="22.05771365940052" y1="57.49999999999999" y2="54.99999999999999" /><path d="M 25.521815274538284 56.99999999999999 a86.0,86.0 0 0,1 29.574782752854787,-30.34633250058573" fill="none" id="id59" stroke="none" /><text fill="#e1ed5e" style="font-size:6.75px; font-family:Arial;" text-anchor="middle"><textPath startOffset="21.40746469413373" xlink:href="#id59">November</textPath></text><line stroke="#e1ed5e" stroke-width="0.3" x1="56.869717070023135" x2="54.33264160355391" y1="26.7553504044142" y2="22.446841604673864" /><path d="M 56.362301976729285 25.89364864446614 a86.0,86.0 0 0,1 42.16139366436587,-11.88097634709845" fill="none" id="id60" stroke="none" /><text fill="#e1ed5e" style="font-size:6.75px; font-family:Arial;" text-anchor="middle"><textPath startOffset="22.145653131862474" xlink:href="#id60">December</textPath></text></svg>