<?xml version="1.0" encoding="utf-8" ?>
<svg baseProfile="full" height="200mm" version="1.1" viewBox="0,0,200,200" width="200mm" xmlns="http://www.w3.org/2000/svg" xmlns:ev="http://www.w3.org/2001/xml-events" xmlns:xlink="http://www.w3.org/1999/xlink"><defs /><rect fill="#1a1a1a" height="200" width="200" x="0" y="0" /><text alignment-baseline="middle" fill="#e1ed5e" style="dominant-baseline: central; font-size:9.0px; font-family:Arial;" text-anchor="middle" x="100.0" y="100.0">2023</text><line stroke="#e1ed5e" stroke-width="0.3" x1="100.0" x2="100.0" y1="15.0" y2="10.0" /><path d="M 100.0 14.0 a86.0,86.0 0 0,1 42.46469731375804,11.215312516191453" fill="none" id="id37" stroke="none" /><text fill="#e1ed5e" style="font-size:6.75px; font-family:Arial;" text-anchor="middle"><textPath startOffset="22.20632615414155" xlink:href="#id37">January</textPath></text><path d="M 100.0 79.0 l 0.0 -26.18849099565307 a47.18849099565307,47.18849099565307 0 0,0 0.8122723019645743,0.006991484146526942 l -0.450791822692046 26.184610888115103" fill="#cfff1d" stroke="none" /><path d="M 100.72285384407766 79.0124445844662 l 0.9002739883700731 -26.13882512334068 a47.15432415648934,47.15432415648934 0 0,0 0.8109626886476822,0.03492175927849958 l -1.3500775094070867 26.119455637537985" fill="#cfff1d" stroke="none" /><path d="M 101.08401301168833 79.027996857942 l 1.3516392420838308 -26.149669908262208 a47.18457876216104,47.18457876216104 0 0,0 0.8107612727097214,0.04890733406284688 l -1.801562563633164 26.122529304819057" fill="#cfff1d" stroke="none" /><path d="M 101.80526077348638 79.07773832637324 l 2.2479924769041335 -26.05334782259789 a47.15015110743117,47.15015110743117 0 0,0 0.808007363688694,0.07673003524397748 l -2.6961249676830716 26.010792242838733" fill="#cfff1d" stroke="none" /><path d="M 102.16513564639614 79.11191278185805 l 2.6977383993384283 -26.02635778081955 a47.165800041399294,47.165800041399294 0 0,0 0.8068345633558573,0.09065726416511327 l -3.145339666204011 25.976064563183833" fill="#cfff1d" stroke="none" /><path d="M 103.2404852339499 79.25152402106235 l 4.030731655771694 -25.808338226982784 a47.12120057959015,47.12120057959015 0 0,0 0.8003217151624626,0.13205994042287642 l -4.474382577073032 25.73513202362028" fill="#d0ff1d" stroke="none" /><path d="M 104.66035177308747 79.52364482259891 l 4.659387096669945 -20.472116643934434 a41.99565307389774,41.99565307389774 0 0,0 0.703479809616034,0.166490942415042 l -5.011090593248502 20.388879789378525" fill="#ffed16" stroke="none" /><path d="M 105.01212808612495 79.60689891045804 l 7.48986857366037 -30.474410139851233 a52.3813289174084,52.3813289174084 0 0,0 0.873748281839725,0.22273789185798148 l -8.01332574418512 30.340969251824383" fill="#91ff24" stroke="none" /><path d="M 105.71112130821622 79.79150937346287 l 7.107207335482796 -25.14846473552133 a47.1334589111985,47.1334589111985 0 0,0 0.7788462530817517,0.22736657864504925 l -7.5390438062879745 25.022399827957578" fill="#d0ff1d" stroke="none" /><path d="M 108.09893153111575 80.62456947434976 l 6.040451703248556 -14.45083859150919 a36.66249637756158,36.66249637756158 0 0,0 0.580168715534164,0.2483979662219968 l -6.288304176573035 14.3447210973244" fill="#ffa60f" stroke="none" /><path d="M 108.43124777332544 80.76684994638697 l 10.520438020581157 -23.998958222973215 a47.20361829848892,47.20361829848892 0 0,0 0.7413617803766831,0.3326274206778194 l -10.931981919424619 23.814310471778867" fill="#cfff1d" stroke="none" /><path d="M 109.08828744355905 81.06846463323043 l 12.61486654554535 -26.277645116002894 a50.148747671289584,50.148747671289584 0 0,0 0.7749861687036746,0.3802823472549156 l -13.065323981259457 26.056607608613145" fill="#abff21" stroke="none" /><path d="M 109.41281617654863 81.2277094730956 l 15.227251651136259 -30.36821144277638 a54.97200993583109,54.97200993583109 0 0,0 0.8422222701438276,0.4314189588581167 l -15.747734408868842 30.101599958605764" fill="#74ff27" stroke="none" /><path d="M 109.73455568895987 81.39251694778311 l 18.427266071892035 -35.223491660774464 a60.75246532808942,60.75246532808942 0 0,0 0.9224392621656353,0.4927351077542009 l -19.03085038058598 34.90107782651851" fill="#36ff2e" stroke="none" /><path d="M 110.36928655335952 81.73862282372117 l 12.456408652046278 -21.93701326377003 a46.22686400331194,46.22686400331194 0 0,0 0.6885673384817557,0.3988626463950331 l -12.832172722993361 21.719346459984948" fill="#dbff1b" stroke="none" /><line stroke="#e1ed5e" stroke-width="0.3" x1="143.23703022742887" x2="145.7803849466894" y1="26.81831364943548" y2="22.513508569990506" /><path d="M 143.74570117128098 25.957352633546492 a86.0,86.0 0 0,1 28.547481713284135,27.462654790039103" fill="none" id="id38" stroke="none" /><text fill="#e1ed5e" style="font-size:6.75px; font-family:Arial;" text-anchor="middle"><textPath startOffset="19.985693538727396" xlink:href="#id38">February</textPath></text><path d="M 110.68208982089419 81.91981866633111 l 13.087826464473759 -22.152058231005196 a46.72945559925481,46.72945559925481 0 0,0 0.6890100989775195,0.4151208752473387 l -13.467198629668916 21.923490746299244" fill="#d5ff1c" stroke="none" /><path d="M 111.2981086023043 82.29822771554956 l 13.6573576103781 -21.398221856082316 a46.385179051956115,46.385179051956115 0 0,0 0.6693447032210936,0.43536041400921305 l -14.023669339383474 21.159962517913574" fill="#d9ff1c" stroke="none" /><path d="M 111.60114157652 82.49532879139004 l 13.989521495620668 -21.108437693946193 a46.32336576278203,46.32336576278203 0 0,0 0.6608696629437247,0.4462221464782111 l -14.350795852970935 20.86450363516931" fill="#daff1c" stroke="none" /><path d="M 111.90073688211348 82.69761687909136 l 22.517149984293454 -32.737498499338095 a60.73368660732768,60.73368660732768 0 0,0 0.8562549229864375,0.5998612931992728 l -23.077336046863543 32.34505236337488" fill="#36ff2e" stroke="none" /><path d="M 112.48926042617603 83.11751280151076 l 16.011640333165232 -21.64390073770299 a47.92268681432415,47.92268681432415 0 0,0 0.6589457209461203,0.49630425563916075 l -16.381832207869735 21.36507989255798" fill="#c6ff1e" stroke="none" /><path d="M 112.77801427241765 83.33499621200491 l 23.850424172360487 -31.10556935561123 a60.19692817222107,60.19692817222107 0 0,0 0.8168649908804354,0.6375760822799663 l -24.382321718400352 30.69041488410804" fill="#3cff2e" stroke="none" /><path d="M 113.6212207817346 84.01681056812373 l 25.42868480410796 -29.83811016208883 a60.203709376940594,60.203709376940594 0 0,0 0.7829526845385919,0.6789688526879964 l -25.938531287293316 29.395976315981166" fill="#3cff2e" stroke="none" /><path d="M 113.89432698308785 84.25364557470407 l 26.07537502106589 -29.551060469066563 a60.41053612088594,60.41053612088594 0 0,0 0.7737985928549467,0.6947240168558151 l -26.580184601516827 29.097837443441453" fill="#3aff2e" stroke="none" /><path d="M 114.42810811169701 84.74124197986012 l 26.992538304979366 -28.546543119615773 a60.28743117367004,60.28743117367004 0 0,0 0.7478993343001953,0.7194785670369219 l -27.479920882891978 28.07768146581655" fill="#3bff2e" stroke="none" /><path d="M 114.68862486808459 84.99185889309783 l 27.41771238262268 -28.01411976698666 a60.19849306561789,60.19849306561789 0 0,0 0.73431899082319,0.7311655917107883 l -27.89586717361319 27.538018324625753" fill="#3cff2e" stroke="none" /><path d="M 115.19652480421416 85.50635884689758 l 28.37255037178107 -27.06023705978364 a60.207882425998754,60.207882425998754 0 0,0 0.7088264766984368,0.7561266638450556 l -28.834144170449967 26.567840979060527" fill="#3cff2e" stroke="none" /><path d="M 115.4437574822437 85.77008943001954 l 28.94136495826915 -26.666634438078777 a60.35367832746844,60.35367832746844 0 0,0 0.6973906599225886,0.7700761850416854 l -29.396099258807777 26.164505465767544" fill="#3aff2e" stroke="none" /><path d="M 115.68641384162765 86.03803664274999 l 25.364064224243595 -22.575723098038548 a54.9558393707307,54.9558393707307 0 0,0 0.6228541387687015,0.7120299518374003 l -25.748910226590144 22.1357775899982" fill="#74ff27" stroke="none" /><path d="M 116.15771136456269 86.58626213691792 l 30.13140585455295 -25.014358188471615 a60.16145725522666,60.16145725522666 0 0,0 0.6546182715095221,0.8024845979349791 l -30.55752261813888 24.491989420928533" fill="#3cff2e" stroke="none" /><path d="M 116.38621287248628 86.86637796730983 l 30.61613444973411 -24.53896706297467 a60.236572138273644,60.236572138273644 0 0,0 0.6415077884634389,0.8146497452126765 l -31.033996318791512 24.008324923808953" fill="#3bff2e" stroke="none" /><path d="M 116.82858285166822 87.43820079747576 l 29.30535200328838 -21.87516029539635 a57.5694721589733,57.5694721589733 0 0,0 0.5859404084870702,0.7992220586832882 l -29.677555024289077 21.367475793041567" fill="#57ff2a" stroke="none" /><path d="M 117.04232023915458 87.72973835380427 l 31.79417521544883 -22.89141638250906 a60.17762782032706,60.17762782032706 0 0,0 0.5980148331543346,0.8458495716884182 l -32.18350266840705 22.340740310488847" fill="#3cff2e" stroke="none" /><path d="M 117.2510076193507 88.02491185347247 l 23.673553113867726 -16.43341024103829 a49.81829434899606,49.81829434899606 0 0,0 0.48294218531281874,0.7086580650108973 l -23.952919764849277 16.023474152756986" fill="#afff20" stroke="none" /><path d="M 117.65298651832404 88.62581576622439 l 13.718683573892427 -8.839231495042116 a37.31975160422273,37.31975160422273 0 0,0 0.34329267261388363,0.5430065661615134 l -13.868803842752268 8.601777281166395" fill="#ffaf10" stroke="none" /><line stroke="#e1ed5e" stroke-width="0.3" x1="172.23445277983987" x2="176.4835382374775" y1="55.19839476539836" y2="52.563006222186495" /><path d="M 173.08426987136738 54.67131705675599 a86.0,86.0 0 0,1 12.851231095245387,41.99856678651699" fill="none" id="id39" stroke="none" /><text fill="#e1ed5e" style="font-size:6.75px; font-family:Arial;" text-anchor="middle"><textPath startOffset="22.20632615414155" xlink:href="#id39">March</textPath></text><path d="M 117.84615892207809 88.93136811851018 l 22.236587379724494 -13.791684870757184 a47.166321672531566,47.166321672531566 0 0,0 0.42199079501041753,0.6936419119885247 l -22.470693973021135 13.406875185561578" fill="#cfff1d" stroke="none" /><path d="M 118.03404312379186 89.2402003453031 l 29.183120862405335 -17.411765715699577 a54.982703374042636,54.982703374042636 0 0,0 0.4779314558285322,0.8169397817685832 l -29.478511992704195 16.906846521577098" fill="#74ff27" stroke="none" /><path d="M 118.21658344932153 89.55222093294921 l 11.385609755789567 -6.53000248938436 a34.125282550196644,34.125282550196644 0 0,0 0.2878587163097148,0.5120685361762567 l -11.496326113391715 6.33305044327331" fill="#ff820c" stroke="none" /><path d="M 118.3937258080291 89.86733742301442 l 23.01663907683323 -12.679314667178994 a47.2779507348375,47.2779507348375 0 0,0 0.3865352965104776,0.7161911998963317 l -23.231482472562174 12.281242483950205" fill="#ceff1d" stroke="none" /><path d="M 118.73160827565052 90.50648371742162 l 23.439674521277897 -11.87964901099031 a47.27821155040364,47.27821155040364 0 0,0 0.36165577576394625,0.7290759754055436 l -23.640690309995254 11.474413447085816" fill="#ceff1d" stroke="none" /><path d="M 118.89224826269711 90.83032412892265 l 23.573583917905026 -11.441842211741644 a47.20361829848892,47.20361829848892 0 0,0 0.3485016303905738,0.7340333125990728 l -23.767043742137353 11.034366483502032" fill="#cfff1d" stroke="none" /><path d="M 119.196687751892 91.48605970444005 l 23.952745621947805 -10.623303810309626 a47.202835851790525,47.202835851790525 0 0,0 0.32302314446063224,0.745581953808433 l -24.13205947625112 10.20942271191459" fill="#cfff1d" stroke="none" /><path d="M 119.34039704204932 91.81776055985345 l 27.75385007778313 -11.741674497613568 a51.13541295797971,51.13541295797971 0 0,0 0.33597990572951064,0.813601991411081 l -27.951851670398838 11.262197935749183" fill="#a0ff22" stroke="none" /><path d="M 119.47837535516314 92.15188598940014 l 27.140944849568704 -10.935472063297965 a50.26115918029394,50.26115918029394 0 0,0 0.31642140162178306,0.8052579533952989 l -27.32515980107219 10.466665105006882" fill="#aaff21" stroke="none" /><path d="M 119.61058180528143 92.48833698450437 l 41.92191134119624 -16.057823989482177 a65.89209687435314,65.89209687435314 0 0,0 0.3965932713773637,1.0626727935221523 l -42.19210920107523 15.33382805893069" fill="#35ff67" stroke="none" /><path d="M 119.85752413597 93.16781622104841 l 33.07652710022462 -11.380316618065045 a55.97954046781205,55.97954046781205 0 0,0 0.30565550492628774,0.9138710551626076 l -33.26751989892267 10.809272459980123" fill="#69ff28" stroke="none" /><path d="M 119.97218684219823 93.5106431181261 l 17.396018655725985 -5.652309097280459 a39.291256468640036,39.291256468640036 0 0,0 0.20346231794388572,0.6450311489743111 l -17.490736457438075 5.352027781879729" fill="#ffca12" stroke="none" /><path d="M 120.37134235888165 94.90015583598534 l 13.695816657888406 -3.4286660851141493 a35.11846822604016,35.11846822604016 0 0,0 0.1417568671738482,0.5876737321966862 l -13.752806325323073 3.192407121258057" fill="#ff900d" stroke="none" /><path d="M 120.45610955862082 95.25157060432595 l 16.298747214003757 -3.7833904908384723 a37.73210101428276,37.73210101428276 0 0,0 0.1414156257157221,0.6339385212659481 l -16.361457226721516 3.5022738000225604" fill="#ffb510" stroke="none" /><path d="M 120.53481517161879 95.60439243477599 l 17.9279010451949 -3.8375810448862215 a39.33403022148623,39.33403022148623 0 0,0 0.13602214138976765,0.6632922686967782 l -17.991302482499666 3.5284131200260314" fill="#ffca12" stroke="none" /><path d="M 120.6074358757038 95.95851677861258 l 25.719154920889242 -5.043981876638394 a47.20909542537777,47.20909542537777 0 0,0 0.14952756224235123,0.7987822165618362 l -25.80216820704145 4.600521582613996" fill="#cfff1d" stroke="none" /><path d="M 120.73433829027371 96.67025291283417 l 28.82120233633741 -4.628424268212789 a50.19047816187125,50.19047816187125 0 0,0 0.12964464979738266,0.8541962592627905 l -28.896602879574093 4.131628896557916" fill="#abff21" stroke="none" /><path d="M 120.83666639777658 97.38593545837742 l 54.71093545625923 -6.863761874618759 a76.13980128337818,76.13980128337818 0 0,0 0.15195200924586988,1.3018320196903976 l -54.82097781850869 5.920986116603509" fill="#43ffdd" stroke="none" /><path d="M 120.94382443527127 98.46500227214037 l 13.56072530677703 -0.9938816379197634 a34.597097909335545,34.597097909335545 0 0,0 0.03841827981943222,0.5943137844734792 l -13.575824177600877 0.760308789193249" fill="#ff890c" stroke="none" /><line stroke="#e1ed5e" stroke-width="0.3" x1="184.98032266829074" x2="189.97916517819016" y1="98.17113171792111" y2="98.06355123074" /><path d="M 185.9800911702706 98.14961562048488 a86.0,86.0 0 0,1 -9.607161424134198,41.387399972396054" fill="none" id="id40" stroke="none" /><text fill="#e1ed5e" style="font-size:6.75px; font-family:Arial;" text-anchor="middle"><textPath startOffset="21.466115282336823" xlink:href="#id40">April</textPath></text><path d="M 120.99980553446 99.90962569577887 l 15.722599176574436 -0.06766343425413848 a36.72274477333885,36.72274477333885 0 0,0 -0.002720460646703443,0.6321392461860558 l -15.72143441863823 -0.20298529013560204" fill="#ffa70f" stroke="none" /><path d="M 120.99824983174949 100.27111621757518 l 26.266111323384173 0.33913153760259607 a47.2683005588905,47.2683005588905 0 0,0 -0.017507137082537018,0.8134878672512778 l -26.25638212361663 -0.7912092206439887" fill="#ceff1d" stroke="none" /><path d="M 120.9904718944345 100.63252640178507 l 26.39794071900488 0.7954749441319118 a47.409923411302,47.409923411302 0 0,0 -0.03160180044981128,0.8155020501659823 l -26.380336785703864 -1.2497542413119003" fill="#ccff1d" stroke="none" /><path d="M 120.9764740272857 100.99374915477107 l 26.288111509707274 1.2453851185531886 a47.31759470089008,47.31759470089008 0 0,0 -0.045545774101423575,0.8132503925013489 l -26.26277938471832 -1.6977072273899607" fill="#cdff1d" stroke="none" /><path d="M 120.95626037817324 101.35467743843564 l 10.606097417643047 0.6856109163682761 a31.62823432001656,31.62823432001656 0 0,0 -0.03979651400502568,0.5429918151209894 l -10.592724344973684 -0.8680758679860358" fill="#ff5f08" stroke="none" /><path d="M 120.92983693683757 101.71520430193887 l 26.062260995126543 2.1358074748502562 a47.149629476298905,47.149629476298905 0 0,0 -0.07325122366907431,0.8083211492622153 l -26.021635175180393 -2.584110012661042" fill="#cfff1d" stroke="none" /><path d="M 120.89721153311464 102.0752229133903 l 23.675662560220882 2.3511403594115916 a44.792117574001246,44.792117574001246 0 0,0 -0.08279651976747694,0.7665929431745201 l -23.631683738952354 -2.7583296244709032" fill="#edff1a" stroke="none" /><path d="M 120.8583938346157 102.4346265915055 l 47.356886999837585 5.527575003852177 a68.67838956737735,68.67838956737735 0 0,0 -0.14716304180423773,1.173034238188193 l -47.2547224487865 -6.341926996327765" fill="#39ff89" stroke="none" /><path d="M 120.81339534386255 102.79330883721812 l 4.855108979694801 0.6515908910862839 a25.898637963154627,25.898637963154627 0 0,0 -0.06310135184582293,0.441330707840712 l -4.843173576832378 -0.7350670709074052" fill="#ff0901" stroke="none" /><path d="M 120.76222939487914 103.15116336523771 l 28.58637948855609 4.338664700975617 a49.91375284620162,49.91375284620162 0 0,0 -0.13623660697088205,0.8483454816556794 l -28.50746112722392 -4.830089412324501" fill="#aeff20" stroke="none" /><path d="M 120.70491114924044 103.5080841355445 l 12.872445981892087 2.1810102544866887 a34.055905609604636,34.055905609604636 0 0,0 -0.10290325572810449,0.5771361063456045 l -12.832996283824793 -2.4022651115655114" fill="#ff810b" stroke="none" /><path d="M 120.64145759157962 103.86396538481128 l 33.40506507985748 6.253241302038283 a54.98531152970399,54.98531152970399 0 0,0 -0.18215865754645216,0.9288230703835786 l -33.292476489335364 -6.827328099489807" fill="#74ff27" stroke="none" /><path d="M 120.5718875245553 104.21870165774334 l 40.98400332070625 8.404638735441438 a62.836903332643345,62.836903332643345 0 0,0 -0.2264102235354145,1.0577131885129283 l -40.833259058446394 -9.108865743370535" fill="#31ff42" stroke="none" /><path d="M 120.49622156327973 104.57218783832717 l 25.522314263994904 5.693381803252165 a47.149629476298905,47.149629476298905 0 0,0 -0.18352304904651415,0.7906124920479435 l -25.420530649017838 -6.131862952648674" fill="#cfff1d" stroke="none" /><path d="M 120.41448212921028 104.9243191809786 l 28.049270256332907 6.765959511560527 a49.853765265990475,49.853765265990475 0 0,0 -0.20840935857827855,0.8324917895238064 l -27.928649583459567 -7.247779140481729" fill="#afff20" stroke="none" /><path d="M 120.23288151984713 105.62410040840565 l 27.716325394260966 7.70426084966987 a49.76717449803354,49.76717449803354 0 0,0 -0.23653002172752796,0.8233920354571791 l -27.57960273564734 -8.18021036063163" fill="#b0ff20" stroke="none" /><path d="M 120.13307415673323 105.97154293290107 l 30.163854295281013 8.946708761106057 a52.46270337404265,52.46270337404265 0 0,0 -0.2642452123298044,0.8635686430194632 l -30.005382310445075 -9.464604376677578" fill="#90ff24" stroke="none" /><path d="M 119.9155931802556 106.66101706037122 l 37.24286006488809 12.45633630009979 a60.27073897743738,60.27073897743738 0 0,0 -0.3375424537892306,0.9810563708317983 l -37.02292678015563 -13.095565374020888" fill="#3bff2e" stroke="none" /><path d="M 119.79798401119884 107.00284435728193 l 32.12953394463253 11.36469881776834 a55.08024839577727,55.08024839577727 0 0,0 -0.3238606845087749,0.8911255111388019 l -31.929148999118528 -11.916072125913274" fill="#73ff27" stroke="none" /><path d="M 119.67450827220406 107.3425965602758 l 24.545527184241408 9.160478166958358 a47.19918443386463,47.19918443386463 0 0,0 -0.2906249783723718,0.7587301109318391 l -24.38420792627553 -9.58163184472334" fill="#cfff1d" stroke="none" /><path d="M 119.54520255179757 107.68017299344265 l 9.915498513350553 3.8962371301571337 a31.65353342993169,31.65353342993169 0 0,0 -0.20363379123333358,0.5054023699554634 l -9.846962107859826 -4.066338867955411" fill="#ff5f08" stroke="none" /><path d="M 119.41010516605496 108.01547362559984 l 41.05412017941412 16.95344845919667 a65.41689091285448,65.41689091285448 0 0,0 -0.4387573761202532,1.0370928303146152 l -40.756211822101555 -17.65761581517745" fill="#35ff62" stroke="none" /><path d="M 119.26925614724726 108.34839909993367 l 36.15576167614584 15.664472251964556 a60.40323328503416,60.40323328503416 0 0,0 -0.42155392137992753,0.950492805726657 l -35.880766670034646 -16.2845133941839" fill="#3aff2e" stroke="none" /><path d="M 119.12269723197855 108.67885076344098 l 12.047418006077548 5.467729875714852 a34.23013040778307,34.23013040778307 0 0,0 -0.24812831985463418,0.5344463264352747 l -11.951515069383083 -5.674296269428957" fill="#ff840c" stroke="none" /><path d="M 118.97047184881838 109.00673069616215 l 23.768261644903305 11.284607650120117 a47.311074311736704,47.311074311736704 0 0,0 -0.35561423838889933,0.7326706605392539 l -23.57049414989969 -11.692067266624646" fill="#cdff1d" stroke="none" /><path d="M 118.81262510543309 109.33194174019688 l 26.625919923078104 13.20770132338169 a50.72175947008901,50.72175947008901 0 0,0 -0.39471511444680246,0.7788103674361515 l -26.394626138845034 -13.664065902520536" fill="#a5ff21" stroke="none" /><line stroke="#e1ed5e" stroke-width="0.3" x1="174.80103733775053" x2="179.2010983576182" y1="140.37084112569926" y2="142.7455964860345" /><path d="M 175.68104954172406 140.8457921977663 a86.0,86.0 0 0,1 -30.038265399797805,32.042727171017184" fill="none" id="id41" stroke="none" /><text fill="#e1ed5e" style="font-size:6.75px; font-family:Arial;" text-anchor="middle"><textPath startOffset="22.206326154141568" xlink:href="#id41">May</textPath></text><path d="M 118.12598468904814 110.60418214915192 l 6.9080600227878 4.04139846941266 a29.003386462430136,29.003386462430136 0 0,0 -0.2558086591598667,0.42875002683852026 l -6.837470487929706 -4.1597105901372835" fill="#ff3805" stroke="none" /><path d="M 117.94076556474637 110.91462005526583 l 15.633978990911165 9.511240756253422 a39.2998633823225,39.2998633823225 0 0,0 -0.35657207764526894,0.574907724185382 l -15.467942273597934 -9.778944811804076" fill="#ffca12" stroke="none" /><path d="M 117.55443506779139 111.5257021239791 l 21.891844913169123 14.373512017853844 a47.18875181121921,47.18875181121921 0 0,0 -0.45165678921901303,0.6751656182845355 l -21.64118501853939 -14.748214550344187" fill="#cfff1d" stroke="none" /><path d="M 117.35343817320211 111.8261652097733 l 21.701963361302905 14.78963428028609 a47.26230180086938,47.26230180086938 0 0,0 -0.4639337151743119,0.6683311185201106 l -21.444168738966457 -15.161006660993221" fill="#ceff1d" stroke="none" /><path d="M 117.14729908036423 112.12312394758627 l 27.799921093605963 19.65451745906938 a55.046081556613544,55.046081556613544 0 0,0 -0.5536592750141626,0.7689843085860333 l -27.457482026216198 -20.130135373106544" fill="#73ff27" stroke="none" /><path d="M 116.93607887273984 112.41649034213515 l 23.25967627920809 17.052562641688723 a49.840985303249845,49.840985303249845 0 0,0 -0.5132167394592038,0.6875376911865237 l -22.962698273053796 -17.450413212384564" fill="#afff20" stroke="none" /><path d="M 116.498646956653 112.99209946851258 l 22.011606144449875 17.3333593501191 a49.0170689298282,49.0170689298282 0 0,0 -0.5277086327907955,0.658397658318137 l -21.709979599604225 -17.709684842015484" fill="#b9ff1f" stroke="none" /><path d="M 116.27256486870786 113.27417163493432 l 30.416930206190905 24.812287148489172 a60.25352515007244,60.25352515007244 0 0,0 -0.6625133322698435,0.7980399876049983 l -29.98532087402752 -25.332188393207943" fill="#3bff2e" stroke="none" /><path d="M 116.0416608686014 113.55231037782055 l 26.074356649014327 22.028128951478063 a55.13371558683502,55.13371558683502 0 0,0 -0.6186987168205704,0.7196863833650712 l -25.691315422622978 -22.47369243400466" fill="#72ff27" stroke="none" /><path d="M 115.80600337817218 113.82643327865902 l 18.74753626932918 16.39956370786854 a45.908147381494516,45.908147381494516 0 0,0 -0.5254103310562865,0.5903040767784153 l -18.462467088624553 -16.719841954387825" fill="#dfff1b" stroke="none" /><path d="M 115.32070863581623 114.36230785411682 l 14.221334416049718 13.331705982722053 a40.493094597391845,40.493094597391845 0 0,0 -0.4810838960210054,0.504414541629954 l -13.989743968649748 -13.574527640934514" fill="#ffda14" stroke="none" /><path d="M 115.07121518719521 114.62390073753431 l 22.49020882432471 21.822698258119104 a52.33751190229766,52.33751190229766 0 0,0 -0.6329334194693325,0.6411582122983895 l -22.111234779799844 -22.20659696439816" fill="#92ff23" stroke="none" /><path d="M 114.55890576462653 115.13401014063108 l 23.911081521457458 24.855614568123855 a55.48972883460981,55.48972883460981 0 0,0 -0.6940553963915775,0.6562726980418181 l -23.479690290675073 -25.263521902911595" fill="#6eff28" stroke="none" /><path d="M 114.29624159901734 115.38237550388516 l 21.41932695991543 23.046625790134733 a52.463225005174905,52.463225005174905 0 0,0 -0.6667837328715462,0.6090911306884427 l -21.01944367757702 -23.41190968740976" fill="#90ff24" stroke="none" /><path d="M 114.0293411484842 115.62618273729858 l 21.501744024904756 23.949106215873968 a53.18516249223764,53.18516249223764 0 0,0 -0.6864878574012733,0.6057457175820811 l -21.086313814596895 -24.315675075228338" fill="#88ff25" stroke="none" /><path d="M 113.48314897796784 116.09983520530334 l 21.813731133918473 26.047140548751408 a54.97487890705858,54.97487890705858 0 0,0 -0.730720518218973,0.6013332392946144 l -21.36214048715481 -26.4187689069032" fill="#74ff27" stroke="none" /><path d="M 113.20401910651253 116.32954008644616 l 21.395430686433908 26.459939223246177 a55.027824466984065,55.027824466984065 0 0,0 -0.7416768289259363,0.5892329289858891 l -20.936796364790624 -26.82430606623719" fill="#73ff27" stroke="none" /><path d="M 112.34349029814194 116.9893568818739 l 30.875486932760307 42.49646199999524 a73.52851583523079,73.52851583523079 0 0,0 -1.030353944482808,0.7351301817945187 l -30.139405660428615 -43.02163644363398" fill="#3fffc0" stroke="none" /><path d="M 112.04921762599082 117.19931262002967 l 4.542138522675306 6.483546304820624 a28.91627406334092,28.91627406334092 0 0,0 -0.4101196739106656,0.2820840513866011 l -4.4298619641417565 -6.560771145572319" fill="#ff3705" stroke="none" /><path d="M 111.7513745106137 117.40417183066458 l 14.630716677497052 21.668572202421498 a47.14545642724074,47.14545642724074 0 0,0 -0.6764818505228671,0.4483352830987141 l -14.25556012823422 -21.91720550661153" fill="#d0ff1d" stroke="none" /><path d="M 111.45004920935366 117.60387380957326 l 21.362364631286795 32.84355939152261 a60.17971434485614,60.17971434485614 0 0,0 -0.8732311480235738,0.5573374341704461 l -20.79385168121629 -33.206411254516865" fill="#3cff2e" stroke="none" /><line stroke="#e1ed5e" stroke-width="0.3" x1="143.8653032363475" x2="146.44561519142675" y1="172.8068346515853" y2="177.08958963109032" /><path d="M 144.38136562736335 173.6633856474863 a86.0,86.0 0 0,1 -40.68145358897372,12.25698825130547" fill="none" id="id42" stroke="none" /><text fill="#e1ed5e" style="font-size:6.75px; font-family:Arial;" text-anchor="middle"><textPath startOffset="21.466115282336833" xlink:href="#id42">June</textPath></text><path d="M 110.8373102113329 117.98757091392108 l 12.795473755831459 21.23769524651509 a45.79443179465949,45.79443179465949 0 0,0 -0.6786999286903533,0.400987880923738 l -12.428005956112722 -21.45480169973258" fill="#e0ff1b" stroke="none" /><path d="M 110.5260780823613 118.17145234162733 l 11.787290054456925 20.348716567134993 a44.51617470503001,44.51617470503001 0 0,0 -0.6663673528798815,0.37838077408481413 l -11.435273934655843 -20.548600507014438" fill="#f0ff19" stroke="none" /><path d="M 110.21172684928248 118.3499491758327 l 15.300341735093236 27.49392902450773 a52.46452908300559,52.46452908300559 0 0,0 -0.7929068912857055,0.43235605756359585 l -14.824812031938881 -27.753225733831094" fill="#90ff24" stroke="none" /><path d="M 109.89434966115114 118.52300852407294 l 12.308726633734748 23.04291400296304 a47.124330366383774,47.124330366383774 0 0,0 -0.7187786537476021,0.3760310200636217 l -11.91025707746065 -23.25137444197138" fill="#d0ff1d" stroke="none" /><path d="M 109.2508944713604 118.85261126421891 l 17.253080955808326 35.16045171382445 a60.16536948871869,60.16536948871869 0 0,0 -0.9336729400694636,0.44821975044447093 l -16.645295347738628 -35.45222574076848" fill="#3cff2e" stroke="none" /><path d="M 108.92500713936063 119.00905698771935 l 13.410899363643367 28.563400149652825 a52.55503208445457,52.55503208445457 0 0,0 -0.8221909534863541,0.377427540825872 l -12.917240414389592 -28.79001476081277" fill="#8fff24" stroke="none" /><path d="M 108.2653958097858 119.30500536409082 l 10.334944159906504 24.13872935260491 a47.25812875181123,47.25812875181123 0 0,0 -0.7505683194986985,0.3137376184233491 l -9.917904380910345 -24.313052014048232" fill="#ceff1d" stroke="none" /><path d="M 107.93186726928326 119.44442032107085 l 9.888449257993564 24.240844831154405 a47.180144897536735,47.180144897536735 0 0,0 -0.7546103000177844,0.30027501175879484 l -9.469717881933914 -24.407466687319268" fill="#cfff1d" stroke="none" /><path d="M 107.2578585660854 119.70592522655815 l 5.425500921972027 14.730862348929518 a36.69822811012213,36.69822811012213 0 0,0 -0.5946518659725036,0.2132210024377361 l -5.171129495369789 -14.822070892407215" fill="#ffa60f" stroke="none" /><path d="M 106.91757812671514 119.82793768551818 l 8.602826739609691 24.658386127008573 a47.11598426826744,47.11598426826744 0 0,0 -0.7680584513086384,0.26056712772721924 l -8.177098555363825 -24.802816241633916" fill="#d0ff1d" stroke="none" /><path d="M 106.57524785965236 119.94407469862006 l 10.625197669460185 32.22840272039896 a54.93471330987373,54.93471330987373 0 0,0 -0.9006118669589591,0.2883474794148814 l -10.068864457410285 -32.406523046473545" fill="#74ff27" stroke="none" /><path d="M 105.88484417918355 120.15858648285463 l 7.318572993510908 25.06983738713744 a47.116245083833576,47.116245083833576 0 0,0 -0.7804891971719189,0.22057404321665472 l -6.885952628234383 -25.192100223692613" fill="#d0ff1d" stroke="none" /><path d="M 105.53697534728816 120.25689768951611 l 6.911052971870401 25.283929256894925 a47.21144276547298,47.21144276547298 0 0,0 -0.7857547835805141,0.20752497995770872 l -6.474807745478389 -25.39914558615622" fill="#cfff1d" stroke="none" /><path d="M 105.18746579009965 120.34920634021253 l 7.116116391406587 27.914848338097546 a49.807600910784515,49.807600910784515 0 0,0 -0.8326092711691405,0.20463510157045064 l -6.634553835494235 -28.033204697982026" fill="#afff20" stroke="none" /><path d="M 104.48393922423573 120.51570834832081 l 6.690490264464368 30.611509235258712 a52.3341212999379,52.3341212999379 0 0,0 -0.881726617833747,0.184774385634387 l -6.162572185201244 -30.72213960161964" fill="#92ff23" stroke="none" /><path d="M 104.13013068566511 120.58985236759428 l 5.157439780494875 25.711274474610615 a47.22344028151521,47.22344028151521 0 0,0 -0.7983738405370004,0.15301024668467142 l -4.71409832538617 -25.796241919643755" fill="#cfff1d" stroke="none" /><path d="M 103.7750983002368 120.6578951692458 l 7.977686825298199 43.655079953744675 a65.3780293935003,65.3780293935003 0 0,0 -1.1087834481726515,0.1927762149305228 l -7.2250544056534975 -43.7859347471962" fill="#35ff61" stroke="none" /><path d="M 103.06178313531738 120.77559828337769 l 4.199098357078303 28.492801992655536 a49.80055889049886,49.80055889049886 0 0,0 -0.8491502991240069,0.11768449398344 l -3.708019466767466 -28.56086105213158" fill="#afff20" stroke="none" /><path d="M 102.70371172650421 120.8252237178851 l 1.8487545371279115 14.239952602093332 a35.359461809149245,35.359461809149245 0 0,0 -0.604263865665033,0.0731679389272727 l -1.6033632484114981 -14.269666069745957" fill="#ff940d" stroke="none" /><path d="M 102.34483914955558 120.86867818915974 l 4.395969115468229 39.12339352470235 a60.36958807700269,60.36958807700269 0 0,0 -1.0336636204208203,0.1071434606521718 l -3.721872898441806 -39.19326635381028" fill="#3aff2e" stroke="none" /><path d="M 101.62511606390274 120.93702456842531 l 2.054871968741957 26.473742922212534 a47.55337197267646,47.55337197267646 0 0,0 -0.8166436563751728,0.056320527847302376 l -1.598865551587854 -26.505191794576124" fill="#cbff1d" stroke="none" /><path d="M 101.26447882468166 120.96189622390904 l 1.7399239097326364 28.843586560253847 a49.89601738770441,49.89601738770441 0 0,0 -0.8577646483623703,0.044336634583385645 l -1.2431711929567866 -28.869263001599435" fill="#aeff20" stroke="none" /><path d="M 100.90346689309514 120.98055641714683 l 1.146402426829039 26.622072127559193 a47.64674394535294,47.64674394535294 0 0,0 -0.8197047093535714,0.02823228758344391 l -0.6879773658008151 -26.63786121356873" fill="#c9ff1d" stroke="none" /><line stroke="#e1ed5e" stroke-width="0.3" x1="102.19456741930631" x2="102.32365962044197" y1="184.97166512339345" y2="189.96999836594603" /><path d="M 102.22038585953345 185.97133177190398 a86.0,86.0 0 0,1 -42.740103519485714,-10.115201625700543" fill="none" id="id43" stroke="none" /><text fill="#e1ed5e" style="font-size:6.75px; font-family:Arial;" text-anchor="middle"><textPath startOffset="22.20632615414155" xlink:href="#id43">July</textPath></text><path d="M 100.54218724476979 120.99299961872073 l 0.4739284407397824 18.350080478148193 a39.35619954460774,39.35619954460774 0 0,0 -0.6773769984785267,0.0116616593272499 l -0.1579917523685877 -18.355519614754602" fill="#ffca12" stroke="none" /><path d="M 100.18074693466247 120.99922214144158 l 0.33800312819530953 39.26928435456075 a60.27073897743738,60.27073897743738 0 0,0 -1.037500125715503,0.0 l 0.3380031281952825 -39.26928435456075" fill="#3bff2e" stroke="none" /><path d="M 99.45781275523022 120.99299961872073 l -0.6789742068739839 26.289267044780935 a47.29803353342993,47.29803353342993 0 0,0 -0.8137055676875479,-0.02802566501456401 l 1.1314001262361748 -26.273684581340277" fill="#ceff1d" stroke="none" /><path d="M 99.09653310690486 120.98055641714683 l -1.5723241365550333 36.51294309193997 a57.54678120471952,57.54678120471952 0 0,0 -0.9892892685381964,-0.05113495511873116 l 2.200601473506719 -36.48046833005903" fill="#58ff2a" stroke="none" /><path d="M 98.73552117531835 120.96189622390904 l -1.5709428438633406 26.042303140225766 a47.08964189608777,47.08964189608777 0 0,0 -0.8086799261578058,-0.05577130238528569 l 2.0189855308000766 -26.011403493324195" fill="#d0ff1d" stroke="none" /><path d="M 98.37488393609728 120.93702456842531 l -2.828489111528037 36.44056405261834 a57.55017180707927,57.55017180707927 0 0,0 -0.9870010186319109,-0.08516260097125586 l 3.4553344479014894 -36.38647719936842" fill="#58ff2a" stroke="none" /><path d="M 98.01472825383883 120.90594882070398 l -2.486155273490096 26.180514082472403 a47.298294348996066,47.298294348996066 0 0,0 -0.8098535659072787,-0.08394463339773364 l 2.9364414360029683 -26.13384008061891" fill="#ceff1d" stroke="none" /><path d="M 97.65516085044442 120.86867818915974 l -4.5715189858079555 40.685758154686894 a61.94178430966674,61.94178430966674 0 0,0 -1.0585337026669106,-0.12817368985643174 l 5.271180111526256 -40.60103893610511" fill="#30ff36" stroke="none" /><path d="M 96.93821686468263 120.77559828337769 l -3.8132414312981306 25.87458635471598 a47.1540633409232,47.1540633409232 0 0,0 -0.8019876338338151,-0.12525397469611835 l 4.258064928740462 -25.805114072672755" fill="#cfff1d" stroke="none" /><path d="M 96.58105272829116 120.7198165907248 l -4.258404629566467 25.807172758651554 a47.15614986545229,47.15614986545229 0 0,0 -0.7997481559999517,-0.13904646814977473 l 4.7020017570384685 -25.730047711980774" fill="#cfff1d" stroke="none" /><path d="M 96.22490169976321 120.6578951692458 l -6.038531901686162 33.04373795865253 a54.59095839370731,54.59095839370731 0 0,0 -0.9229313419683454,-0.17688198828333598 l 6.606430858226202 -32.93489877202072" fill="#78ff26" stroke="none" /><path d="M 95.51606077576429 120.51570834832081 l -8.384066034469303 38.36025533230841 a60.26578348168081,60.26578348168081 0 0,0 -1.0115463980164257,-0.23022466687620596 l 9.043132581878591 -38.21025393185452" fill="#3bff2e" stroke="none" /><path d="M 95.16358092515715 120.4354850818985 l -3.818178163846646 16.133077324332994 a37.578741461395154,37.578741461395154 0 0,0 -0.6281854168336616,-0.1543926917824555 l 4.095316865423518 -16.06496337423651" fill="#ffb210" stroke="none" /><path d="M 94.81253420990036 120.34920634021253 l -9.705511186313146 38.07243416322049 a60.2900393293314,60.2900393293314 0 0,0 -1.0034259499463103,-0.2650139133773608 l 10.359427579070946 -37.89972890053955" fill="#3bff2e" stroke="none" /><path d="M 94.11515582081647 120.15858648285463 l -7.319815498388301 25.07409359873184 a47.12067894845788,47.12067894845788 0 0,0 -0.776649819306093,-0.23399821960131129 l 7.75034029213464 -24.9443800100248" fill="#d0ff1d" stroke="none" /><path d="M 93.76903079525671 120.05430185196036 l -7.740589489570395 24.912997165478984 a47.087816187124815,47.087816187124815 0 0,0 -0.7719680961670655,-0.24715980644370275 l 8.1682789308284 -24.776064512375576" fill="#d0ff1d" stroke="none" /><path d="M 93.08242187328487 119.8279376855182 l -13.828512170940508 39.636831357196435 a62.979830262885535,62.979830262885535 0 0,0 -1.0205144911104729,-0.3659201883457498 l 14.508746222680706 -39.392923627810724" fill="#31ff43" stroke="none" /><path d="M 92.7421414339146 119.70592522655815 l -19.14425079847381 51.978854550299886 a76.39227075139722,76.39227075139722 0 0,0 -1.2300238878471732,-0.46508978542352364 l 20.036144907081265 -51.64161651476973" fill="#43ffdf" stroke="none" /><path d="M 92.06813273071674 119.44442032107085 l -8.951697539546682 21.94446321865519 a44.700049679155455,44.700049679155455 0 0,0 -0.7099401109466499,-0.2967550239535485 l 9.328109109990795 -21.787123151681666" fill="#eeff19" stroke="none" /><path d="M 91.40352486487194 119.15986991738527 l -7.898578726931567 17.604394657273808 a40.295135582695096,40.295135582695096 0 0,0 -0.6303924597050663,-0.28938225945294915 l 8.200439182404054 -17.465825327486783" fill="#ffd714" stroke="none" /><path d="M 90.10565033884886 118.52300852407294 l -13.615985069197286 25.49020563631955 a49.898886358931904,49.898886358931904 0 0,0 -0.7541318211182885,-0.411212797675727 l 14.052739702184216 -25.252052186884058" fill="#aeff20" stroke="none" /><line stroke="#e1ed5e" stroke-width="0.3" x1="58.666819895761336" x2="56.23545636021788" y1="174.27360380694188" y2="178.64263932499728" /><path d="M 58.180547188652646 175.14741091055294 a86.0,86.0 0 0,1 -31.652253787137756,-30.449443065178592" fill="none" id="id44" stroke="none" /><text fill="#e1ed5e" style="font-size:6.75px; font-family:Arial;" text-anchor="middle"><textPath startOffset="22.20632615414155" xlink:href="#id44">August</textPath></text><path d="M 89.7882731507175 118.34994917583269 l -15.257474042999794 27.416897981393284 a52.376373421651834,52.376373421651834 0 0,0 -0.7840275032995981,-0.4451912782344272 l 15.7271503132206 -27.150203537364224" fill="#91ff24" stroke="none" /><path d="M 89.1626897886671 117.98757091392108 l -13.55850474222822 22.504160237337103 a47.272995239080934,47.272995239080934 0 0,0 -0.6933840864351367,-0.4259331384191088 l 13.943868028595665 -22.267438632089615" fill="#ceff1d" stroke="none" /><path d="M 88.8546689885994 117.79835938074946 l -3.9984768983065733 6.385304190507084 a28.53391844338646,28.53391844338646 0 0,0 -0.414038295648037,-0.264258829826524 l 4.107796996001533 -6.315530931856756" fill="#ff3104" stroke="none" /><path d="M 88.54995079064634 117.60387380957326 l -14.287698954000902 21.96661733208406 a47.20440074518733,47.20440074518733 0 0,0 -0.6773276321591973,-0.4488958210482073 l 14.663701284900062 -21.717423489944533" fill="#cfff1d" stroke="none" /><path d="M 88.24862548938628 117.40417183066458 l -15.639082396733205 23.161994970105972 a48.947431173670054,48.947431173670054 0 0,0 -0.6942216852605975,-0.47749200537352804 l 16.035460966616693 -22.889362175367346" fill="#baff1f" stroke="none" /><path d="M 87.65650970185807 116.9893568818739 l -13.646161607105846 18.782330119848346 a44.216236803974326,44.216236803974326 0 0,0 -0.6119001412746078,-0.45266909604862166 l 13.96744671879902 -18.54465107505996" fill="#f4ff19" stroke="none" /><path d="M 87.36589467227662 116.77436683061367 l -11.33256495523292 15.046304962623642 a39.836621817429105,39.836621817429105 0 0,0 -0.5441896358709521,-0.41726140734933265 l 11.589883319597359 -14.849004213446943" fill="#ffd113" stroke="none" /><path d="M 86.79598089348748 116.32954008644616 l -24.694112255394774 30.539451111122787 a60.27412957979715,60.27412957979715 0 0,0 -0.8011576210328356,-0.6592981795768663 l 25.2161400049723 -30.10985781268874" fill="#3bff2e" stroke="none" /><path d="M 86.51685102203217 116.09983520530335 l -25.198724387165935 30.089062331073936 a60.24700476091906,60.24700476091906 0 0,0 -0.7893348067883461,-0.6726882465979639 l 25.712924670531336 -29.65084969425302" fill="#3bff2e" stroke="none" /><path d="M 86.24171649860922 115.8653595955263 l -18.65595902792396 21.513112340467387 a49.47558269509419,49.47558269509419 0 0,0 -0.6386064301860847,-0.5634959251427593 l 19.023507811016632 -21.18879327355234" fill="#b3ff20" stroke="none" /><path d="M 85.70375840098266 115.38237550388516 l -22.45057396310847 24.15622012165905 a53.97804181328918,53.97804181328918 0 0,0 -0.6751474911478665,-0.6383940934619479 l 22.863057288647155 -23.76619139145117" fill="#7fff26" stroke="none" /><path d="M 85.44109423537348 115.13401014063109 l -18.208788180203932 18.92806983045124 a47.26464914096461,47.26464914096461 0 0,0 -0.5814678265004564,-0.5690886509854169 l 18.531905959080184 -18.611831076543254" fill="#ceff1d" stroke="none" /><path d="M 85.18274418774928 114.88116024355367 l -17.037605186625502 17.111085626189425 a45.146826743945354,45.146826743945354 0 0,0 -0.5459742809818332,-0.5530690641184715 l 17.329620092662868 -16.815276068090288" fill="#e8ff1a" stroke="none" /><path d="M 84.43433777217949 114.09645910891817 l -25.298148115908816 22.91032050084494 a55.130324984475266,55.130324984475266 0 0,0 -0.6309564631442734,-0.7088862750661388 l 25.688763428701428 -22.471460056037937" fill="#72ff27" stroke="none" /><path d="M 84.19399662182784 113.82643327865904 l -19.68765156858067 17.221937406541684 a47.15719312771683,47.15719312771683 0 0,0 -0.5291878946744698,-0.6155650750271279 l 19.981181972825915 -16.880495232353024" fill="#cfff1d" stroke="none" /><path d="M 83.95833913139862 113.55231037782056 l -20.145749290699623 17.01952493682928 a47.37262678534465,47.37262678534465 0 0,0 -0.5208823342993658,-0.6274363267283204 l 20.435727624892525 -16.670227352987197" fill="#cdff1d" stroke="none" /><path d="M 83.50135304334701 112.99209946851258 l -22.40031986761405 17.639457624080215 a49.511836058787,49.511836058787 0 0,0 -0.5215086001533478,-0.6741201657649601 l 22.70063528498547 -17.251259464202" fill="#b3ff20" stroke="none" /><path d="M 83.28015986056508 112.70617746262583 l -20.798913537973114 15.806053421526853 a47.12328710411923,47.12328710411923 0 0,0 -0.4852323767885036,-0.6500480642499267 l 21.0679071814567 -15.445692477767619" fill="#d0ff1d" stroke="none" /><path d="M 83.06392112726016 112.41649034213515 l -21.188643790104425 15.53420912595291 a47.272995239080934,47.272995239080934 0 0,0 -0.4754767556869331,-0.6603956272768897 l 21.452900338166966 -15.16717989322488" fill="#ceff1d" stroke="none" /><path d="M 82.85270091963577 112.12312394758628 l -21.46482642487987 15.175611625053467 a47.28760091078452,47.28760091078452 0 0,0 -0.4641820549632463,-0.6686888705081355 l 21.72286938700525 -14.803881492358318" fill="#ceff1d" stroke="none" /><path d="M 82.44556493220864 111.52570212397912 l -23.745689186173824 15.590689146732291 a49.40646657006831,49.40646657006831 0 0,0 -0.4606450415306643,-0.7149313340403243 l 24.010539091081533 -15.179636212770518" fill="#b4ff20" stroke="none" /><path d="M 82.24976979558568 111.22182372390057 l -11.257930107830584 7.1173447167265165 a34.31906851583523,34.31906851583523 0 0,0 -0.31138076599641784,-0.5020449405805447 l 11.378775513494958 -6.922503444780707" fill="#ff850c" stroke="none" /><path d="M 82.05923443525364 110.91462005526583 l -20.636299673112234 12.554501616208524 a45.15517284206169,45.15517284206169 0 0,0 -0.39826674150007846,-0.6675179670143034 l 20.849347290310543 -12.19742155530811" fill="#e8ff1a" stroke="none" /><line stroke="#e1ed5e" stroke-width="0.3" x1="26.63291911575756" x2="22.317208475507996" y1="142.92168965132927" y2="145.44649492493687" /><path d="M 25.769776987707644 143.4266507060508 a86.0,86.0 0 0,1 -11.730757126820373,-40.83630448921669" fill="none" id="id45" stroke="none" /><text fill="#e1ed5e" style="font-size:6.75px; font-family:Arial;" text-anchor="middle"><textPath startOffset="21.46611528233685" xlink:href="#id45">September</textPath></text><path d="M 81.87401531095188 110.60418214915194 l -27.15565913996037 15.886781371630113 a52.461399296211965,52.461399296211965 0 0,0 -0.4492894258322288,-0.7833739846569074 l 27.425100561944976 -15.416987541114898" fill="#90ff24" stroke="none" /><path d="M 81.69416730710424 110.29060199501025 l -22.89437855113115 12.870047571461853 a47.2638666942662,47.2638666942662 0 0,0 -0.3925682539056567,-0.7126254099961871 l 23.112523214488323 -12.474051643067844" fill="#ceff1d" stroke="none" /><path d="M 81.51974371655577 109.97397251340807 l -30.482438709351428 16.451666100598786 a55.63865452287311,55.63865452287311 0 0,0 -0.4476195774943576,-0.8467275507771733 l 30.761110795070675 -15.924523534735489" fill="#6dff28" stroke="none" /><path d="M 81.35079622478065 109.6543875284942 l -9.985334182821132 5.169244058053156 a32.24401987166218,32.24401987166218 0 0,0 -0.25092193423167064,-0.495092781209162 l 10.07283478683907 -4.99659706514131" fill="#ff6709" stroke="none" /><path d="M 81.18737489456691 109.33194174019688 l -3.8706265472565247 1.9200117599019029 a25.320670668598634,25.320670668598634 0 0,0 -0.19032311454140483,-0.39212198779972157 l 3.9031029184126487 -1.8531008161368965" fill="#ff0000" stroke="none" /><path d="M 80.87730276802145 108.67885076344099 l -14.388454147029055 6.530210918669581 a36.80098944317947,36.80098944317947 0 0,0 -0.2568339568384763,-0.5790927704863521 l 14.49872918859881 -6.281569811690533" fill="#ffa80f" stroke="none" /><path d="M 80.73074385275274 108.34839909993369 l -24.079430467954015 10.43240559518437 a47.24221900227697,47.24221900227697 0 0,0 -0.3168581044175657,-0.7489589604722031 l 24.25543955356389 -10.016372109046008" fill="#ceff1d" stroke="none" /><path d="M 80.58989483394504 108.01547362559985 l -27.539287029101047 11.3724488848016 a50.79504864417305,50.79504864417305 0 0,0 -0.32677515621412373,-0.811029139087937 l 27.730964799572558 -10.896720377870857" fill="#a4ff21" stroke="none" /><path d="M 80.45479744820244 107.68017299344265 l -26.44197669503877 10.390220043424398 a49.4101179879942,49.4101179879942 0 0,0 -0.3042386143717764,-0.7942710187019004 l 26.616909589004052 -9.93352545788934" fill="#b4ff20" stroke="none" /><path d="M 80.32549172779594 107.34259656027581 l -9.808583356090374 3.66059824292318 a31.469397640240118,31.469397640240118 0 0,0 -0.1850336728261474,-0.5091331988172418 l 9.870141289921746 -3.491217247099821" fill="#ff5c08" stroke="none" /><path d="M 80.20201598880116 107.00284435728193 l -36.901950483734474 13.052774240626785 a60.142417718898784,60.142417718898784 0 0,0 -0.33682379871356855,-0.9789676227869308 l 37.12116511339127 -12.415633914750558" fill="#3cff2e" stroke="none" /><path d="M 80.0844068197444 106.66101706037122 l -24.931387471792966 8.338611648935428 a47.288904988615194,47.288904988615194 0 0,0 -0.25154938705641244,-0.7741894073300497 l 25.071229109865627 -7.908223341627576" fill="#ceff1d" stroke="none" /><path d="M 79.97269907076064 106.31721596034903 l -24.977704806623308 7.878722949976679 a47.19083833574829,47.19083833574829 0 0,0 -0.23769177518635848,-0.7767904740630949 l 25.109623354315794 -7.447605503361537" fill="#cfff1d" stroke="none" /><path d="M 79.86692584326677 105.97154293290107 l -25.045860979114387 7.428693351245333 a47.124330366383774,47.124330366383774 0 0,0 -0.22396929297032656,-0.7796664908405622 l 25.170022908970818 -6.996469384900175" fill="#d0ff1d" stroke="none" /><path d="M 79.76711848015287 105.62410040840567 l -25.15368918139321 6.991929125824872 a47.10737735458497,47.10737735458497 0 0,0 -0.21043969943464416,-0.7831244070860433 l 25.27031695716963 -6.55791378556329" fill="#d0ff1d" stroke="none" /><path d="M 79.67330655649465 105.27499134158121 l -37.891211827645684 9.833169121597274 a60.146329952390815,60.146329952390815 0 0,0 -0.2514365360236259,-1.004363975082012 l 38.054859677964366 -9.179477307117871" fill="#3cff2e" stroke="none" /><path d="M 79.58551787078972 104.9243191809786 l -10.655928647399504 2.570390642163139 a31.96155661353757,31.96155661353757 0 0,0 -0.12440569283662299,-0.5359364687406925 l 10.698594906166681 -2.3865855160738723" fill="#ff6309" stroke="none" /><path d="M 79.50377843672027 104.57218783832718 l -36.7221353377223 8.191778180683938 a58.62473193955702,58.62473193955702 0 0,0 -0.21123317603469347,-0.9868110752888212 l 36.857702552481435 -7.558453285978954" fill="#4cff2c" stroke="none" /><path d="M 79.4281124754447 104.21870165774334 l -37.6293080212145 7.716687345259247 a59.41239494928586,59.41239494928586 0 0,0 -0.19682496660466636,-1.0036062642988728 l 37.756562920794835 -7.06781735389242" fill="#44ff2d" stroke="none" /><path d="M 79.35854240842038 103.8639653848113 l -38.58051214082386 7.222056038389836 a60.25065617884496,60.25065617884496 0 0,0 -0.18205326123552643,-1.0210513709557603 l 38.69911184439857 -6.556885916700861" fill="#3bff2e" stroke="none" /><path d="M 79.29508885075956 103.50808413554451 l -25.86446700436869 4.382280402863204 a47.233090457462225,47.233090457462225 0 0,0 -0.12891989910077112,-0.8027843347641683 l 25.936068657830752 -3.936416838405822" fill="#ceff1d" stroke="none" /><path d="M 79.23777060512086 103.15116336523772 l -33.93496357601521 5.150439867878075 a55.32358931898158,55.32358931898158 0 0,0 -0.13479447374636377,-0.9427522354330622 l 34.018592100778164 -4.565542160464612" fill="#70ff27" stroke="none" /><path d="M 79.18660465613746 102.79330883721812 l -21.880819651541163 2.9365649327488965 a43.076994411095015,43.076994411095015 0 0,0 -0.09230474927053496,-0.7357596711390623 l 21.928125910058547 -2.5594875073224257" fill="#fffb17" stroke="none" /><path d="M 79.10278846688536 102.07522291339032 l -25.978551708637266 2.579831556809814 a47.10633409232043,47.10633409232043 0 0,0 -0.07318396036518686,-0.8075789043087876 l 26.01911026527953 -2.13227126395246" fill="#d0ff1d" stroke="none" /><path d="M 79.07016306316243 101.71520430193888 l -31.223452206646847 2.5587681216935283 a52.32812254191679,52.32812254191679 0 0,0 -0.06584233696151474,-0.8983663758595437 l 31.262871102272697 -2.0209286093372243" fill="#92ff23" stroke="none" /><path d="M 79.04373962182676 101.35467743843564 l -28.678627144977533 1.8538750930520556 a49.738484785758644,49.738484785758644 0 0,0 -0.047876013278341505,-0.8548583783714199 l 28.706289509143406 -1.359944998345198" fill="#b0ff20" stroke="none" /><line stroke="#e1ed5e" stroke-width="0.3" x1="15.007084014347285" x2="10.007500721073583" y1="101.09737516637583" y2="101.16192664675087" /><path d="M 14.007167355692545 101.11028546245083 a86.0,86.0 0 0,1 10.666146001902534,-42.60595125391555" fill="none" id="id46" stroke="none" /><text fill="#e1ed5e" style="font-size:6.75px; font-family:Arial;" text-anchor="middle"><textPath startOffset="22.20632615414155" xlink:href="#id46">October</textPath></text><path d="M 79.00175016825051 100.2711162175752 l -46.49667105261172 0.600335822586615 a67.50054647071,67.50054647071 0 0,0 -0.005000513481167208,-1.1619432269159056 l 46.50011586338238 0.20011688253296597" fill="#37ff7b" stroke="none" /><path d="M 79.00019446554 99.90962569577889 l -8.515288564205147 -0.03664620979319423 a29.515367418753883,29.515367418753883 0 0,0 0.006559429031492128,-0.508035007233467 l 8.51339612805594 0.18321747508713318" fill="#ff4006" stroke="none" /><path d="M 79.00486145842228 99.54816195383935 l -32.42699365042666 -0.6978639090595639 a53.434502173463045,53.434502173463045 0 0,0 0.0277052945845316,-0.9194038472741056 l 32.41017666138649 1.255937903758664" fill="#85ff25" stroke="none" /><path d="M 79.01574976396665 99.18683210126434 l -34.83498474496407 -1.3499024758535083 a55.86113020078659,55.86113020078659 0 0,0 0.045503922749247,-0.9605158898566684 l 34.806587213981324 1.9493294723331858" fill="#6aff28" stroke="none" /><path d="M 79.03285615573316 98.82574320788736 l -39.11528970266572 -2.1906366909085837 a60.17658455806251,60.17658455806251 0 0,0 0.06682297082223684,-1.033721782073011 l 39.07178614083907 2.863617537234606" fill="#3cff2e" stroke="none" /><path d="M 79.05617556472873 98.46500227214037 l -39.67109773055796 -2.907541794303395 a60.777503622438424,60.777503622438424 0 0,0 0.08545176983880383,-1.0427280334294475 l 39.615171476899654 3.5899837449406213" fill="#36ff2f" stroke="none" /><path d="M 79.12142395522702 97.74499172005258 l -43.25326996476427 -4.671606037508635 a64.50481887807908,64.50481887807908 0 0,0 0.12873210422608228,-1.1028980536378552 l 43.1664475075346 5.4154478294713515" fill="#33ff56" stroke="none" /><path d="M 79.16333360222342 97.38593545837743 l -33.7618692393301 -4.235596210670621 a55.02652038915339,55.02652038915339 0 0,0 0.12599501229696075,-0.9388091883542238 l 33.6839582279753 4.816123741089504" fill="#73ff27" stroke="none" /><path d="M 79.26566170972629 96.67025291283419 l -44.349680911064745 -7.122157397211135 a65.91791761540054,65.91791761540054 0 0,0 0.18955525415511132,-1.118765840131199 l 44.220513795389415 7.884509025658161" fill="#35ff68" stroke="none" /><path d="M 79.32604984820605 96.31383870115002 l -34.35812805334339 -6.126047562331796 a55.89999172014076,55.89999172014076 0 0,0 0.1770546420338044,-0.9458329775155564 l 34.24758768739973 6.716558617309925" fill="#6aff28" stroke="none" /><path d="M 79.3925641242962 95.95851677861259 l -39.10532893667555 -7.669247727745856 a60.85027116539019,60.85027116539019 0 0,0 0.21042807313305426,-1.0261220166058491 l 38.9675215676275 8.341245400515108" fill="#35ff2f" stroke="none" /><path d="M 79.46518482838121 95.60439243477599 l -42.80890495965716 -9.16351790493329 a64.77867522252122,64.77867522252122 0 0,0 0.24278311155164056,-1.08834908410184 l 42.64482746110349 9.89904515858509" fill="#34ff5a" stroke="none" /><path d="M 79.54389044137918 95.25157060432595 l -38.1291550376517 -8.850832563941614 a60.14293935003105,60.14293935003105 0 0,0 0.242768978704085,-1.0064341475721004 l 37.9711532586868 9.505851943173111" fill="#3cff2e" stroke="none" /><path d="M 79.71946130924805 94.55025226153421 l -31.804133043243766 -8.546346069462137 a53.93239908921549,53.93239908921549 0 0,0 0.24863665366337212,-0.8944783324891558 l 31.652309619014034 9.092535705370235" fill="#80ff26" stroke="none" /><path d="M 79.81627453868168 94.20196356495316 l -25.113384195807807 -7.21414472534709 a47.12902504657421,47.12902504657421 0 0,0 0.23069456426964238,-0.7777873863061399 l 24.985483734426456 7.645361498399769" fill="#d0ff1d" stroke="none" /><path d="M 79.91906864156998 93.8553929516997 l -13.27760658654644 -4.062843179930595 a34.88529910991513,34.88529910991513 0 0,0 0.1806469035861538,-0.5727000505860949 l 13.205704199192082 4.290793396943104" fill="#ff8d0d" stroke="none" /><path d="M 80.02781315780177 93.51064311812611 l -52.69507086975034 -17.12166641997074 a76.40687642310081,76.40687642310081 0 0,0 0.41719139167230945,-1.2473491599775823 l 52.39254218430626 18.026188682870643" fill="#43ffdf" stroke="none" /><path d="M 80.14247586403 93.16781622104843 l -29.676537519535543 -10.210515513822095 a52.38393707306976,52.38393707306976 0 0,0 0.30070105853387435,-0.8501223853152962 l 29.49638338019186 10.719835525564003" fill="#91ff24" stroke="none" /><path d="M 80.2630227832202 92.82701384747504 l -39.16893213610469 -14.235118414313524 a62.67545849720555,62.67545849720555 0 0,0 0.37723287464778366,-1.0107965556705372 l 38.91809467295527 14.907238107013402" fill="#31ff40" stroke="none" /><path d="M 80.38941819471856 92.48833698450439 l -12.719640126669645 -4.87214766285957 a34.62083212585386,34.62083212585386 0 0,0 0.21795701502385925,-0.5546768295276311 l 12.633889561764095 5.090373497282965" fill="#ff890c" stroke="none" /><path d="M 80.52162464483688 92.15188598940014 l -34.75384065646121 -14.002815881963672 a58.46876423100807,58.46876423100807 0 0,0 0.38416292659252366,-0.9302809982737925 l 34.50765604298248 14.598971450690776" fill="#4eff2b" stroke="none" /><path d="M 80.65960295795068 91.81776055985345 l -29.006992508356987 -12.271834834925645 a52.49608776650797,52.49608776650797 0 0,0 0.3592464528076758,-0.8291903437146502 l 28.79145534570663 12.769324323226893" fill="#90ff24" stroke="none" /><path d="M 80.803312248108 91.48605970444005 l -36.99520813628646 -16.407778121155964 a61.470490581660115,61.470490581660115 0 0,0 0.4373118508583874,-0.9635586954839654 l 36.70729396846472 17.042158825481998" fill="#2fff30" stroke="none" /><path d="M 81.10775173730289 90.83032412892265 l -49.55947838503949 -24.054540614299434 a76.08868143241565,76.08868143241565 0 0,0 0.5820421333188168,-1.1733614240783292 l 49.138076238767255 24.904061626876725" fill="#43ffdc" stroke="none" /><path d="M 81.26839172434947 90.50648371742162 l -28.03901911589117 -14.210679649449098 a52.43453529290002,52.43453529290002 0 0,0 0.41495834011014576,-0.8015674345059074 l 27.79025134262091 14.691219806215342" fill="#91ff24" stroke="none" /><path d="M 81.43458229118936 90.18545643968196 l -13.878062857270479 -7.336589705755609 a36.697967294555994,36.697967294555994 0 0,0 0.300035417124794,-0.5559200604495823 l 13.749719340927214 7.574390749537664" fill="#ffa60f" stroke="none" /><path d="M 81.6062741919709 89.86733742301443 l -36.59593755931141 -20.159824651461854 a62.78134961705651,62.78134961705651 0 0,0 0.5295826835242832,-0.9420685015659049 l 36.24349723449469 20.78677666296254" fill="#31ff41" stroke="none" /><line stroke="#e1ed5e" stroke-width="0.3" x1="26.266209847984243" x2="21.928928074336255" y1="57.711370442889674" y2="55.22380399835377" /><path d="M 25.398753493254645 57.213857153982495 a86.0,86.0 0 0,1 29.58750427330803,-30.492523968695096" fill="none" id="id47" stroke="none" /><text fill="#e1ed5e" style="font-size:6.75px; font-family:Arial;" text-anchor="middle"><textPath startOffset="21.46611528233685" xlink:href="#id47">November</textPath></text><path d="M 81.78341655067845 89.55222093294921 l -28.199316428773795 -16.173187947636638 a53.50805216311323,53.50805216311323 0 0,0 0.4651132028720724,-0.7950292323682476 l 27.9167435514314 16.65619659235878" fill="#84ff25" stroke="none" /><path d="M 81.96595687620814 89.24020034530311 l -22.526912704017683 -13.44041742998296 a47.231786379631544,47.231786379631544 0 0,0 0.4225764990215716,-0.6946046553823515 l 22.292220406709895 13.826189858572386" fill="#ceff1d" stroke="none" /><path d="M 82.15384107792192 88.93136811851018 l -34.53458938086093 -21.41921175891031 a61.637673359552885,61.637673359552885 0 0,0 0.5669855964129057,-0.8968350516397245 l 34.16077618820206 22.01049445826425" fill="#30ff32" stroke="none" /><path d="M 82.54541684631803 88.32363383020206 l -46.06947719608432 -30.818500806142932 a76.42722003725936,76.42722003725936 0 0,0 0.7408910550732298,-1.0871662021655717 l 45.53216167534235 31.606945031578917" fill="#43ffe0" stroke="none" /><path d="M 82.7489923806493 88.02491185347247 l -25.729747526489252 -17.860753494305403 a52.32134133719727,52.32134133719727 0 0,0 0.5199430310479404,-0.7354225442778904 l 25.418491875637432 18.30100253891508" fill="#92ff23" stroke="none" /><path d="M 82.95767976084542 87.72973835380427 l -22.53904176758371 -16.22783376100351 a48.77320637549162,48.77320637549162 0 0,0 0.4964122719062371,-0.6771057810007814 l 22.25636688316384 16.61340198567579" fill="#bcff1f" stroke="none" /><path d="M 83.39014120810768 87.1503855733568 l -25.455064157732497 -19.692386535639145 a53.18307596770855,53.18307596770855 0 0,0 0.5663894248399458,-0.7192570518001002 l 25.11232065229858 20.127635981392295" fill="#88ff25" stroke="none" /><path d="M 83.6137871275137 86.86637796730984 l -26.551770252552306 -21.281361197337866 a55.027824466984065,55.027824466984065 0 0,0 0.5987590889743543,-0.7340078450109492 l 26.18151267150156 21.7352532119569" fill="#73ff27" stroke="none" /><path d="M 83.84228863543731 86.58626213691792 l -24.13502531282869 -20.036309323804826 a52.3680273235355,52.3680273235355 0 0,0 0.5817573793903388,-0.6886172414748691 l 23.78655731995123 20.44878551490881" fill="#91ff23" stroke="none" /><path d="M 84.07557802195018 86.31012108654704 l -47.77326593414944 -41.06963674035889 a84.0,84.0 0 0,0 0.9520325456886258,-1.0883377751882275 l 47.05924152488297 41.885890071750055" fill="#4dd2ff" stroke="none" /><path d="M 84.31358615837235 86.03803664274999 l -11.860760190581145 -10.556874301668985 a36.87845166632167,36.87845166632167 0 0,0 0.4261328962412746,-0.4705465873240614 l 11.677283653723824 10.759473676262603" fill="#ffa90f" stroke="none" /><path d="M 84.5562425177563 85.77008943001954 l -31.043582909070956 -28.60362247178176 a63.21221693231215,63.21221693231215 0 0,0 0.7441964607790488,-0.7938568967614227 l 30.546619126321453 29.133748785421233" fill="#32ff46" stroke="none" /><path d="M 84.80347519578584 85.50635884689758 l -20.84588244380852 -19.881699503858517 a49.806818464086106,49.806818464086106 0 0,0 0.5970550532696112,-0.6153177150151968 l 20.50056312683579 20.237581414423836" fill="#afff20" stroke="none" /><path d="M 85.05521093208273 85.24692304244772 l -32.01327875581493 -31.602611652914483 a65.98416476919893,65.98416476919893 0 0,0 0.8048943223680954,-0.8014378503532736 l 31.464548633279524 32.148985353917865" fill="#35ff69" stroke="none" /><path d="M 85.57189188830299 84.74124197986013 l -8.07860564685949 -8.54370425777643 a32.75834816808114,32.75834816808114 0 0,0 0.413054873086243,-0.3838894881873686 l 7.93034288997839 8.681498332038446" fill="#ff6f0a" stroke="none" /><path d="M 86.65592168130627 83.78471172551755 l -5.939288777152065 -7.217229797879868 a30.346847443593457,30.346847443593457 0 0,0 0.4062093181274142,-0.3284596852944898 l 5.81417606046015 7.318395580438492" fill="#ff4c07" stroke="none" /><path d="M 86.93701828274178 83.55741782278169 l -16.62905945444608 -20.931260758662955 a47.73281308217761,47.73281308217761 0 0,0 0.6477284656705187,-0.5055623415545151 l 16.266298433616136 21.214401489440693" fill="#c8ff1d" stroke="none" /><path d="M 87.22198572758235 83.33499621200491 l -6.830299601787413 -8.908032680995907 a32.22524115090043,32.22524115090043 0 0,0 0.44310296801837656,-0.3337359690235292 l 6.675950480010647 9.024285239525291" fill="#ff6709" stroke="none" /><path d="M 87.51073957382395 83.11751280151077 l -5.283026961562367 -7.141386439577871 a29.88311736700476,29.88311736700476 0 0,0 0.416164649330009,-0.30236131639069014 l 5.1593169958785765 7.231266990785229" fill="#ff4506" stroke="none" /><path d="M 87.80319425747018 82.90503203632743 l -26.545662243687765 -37.206237043518705 a66.70531980956324,66.70531980956324 0 0,0 0.9404460961773752,-0.6588425903229549 l 25.90128500792673 37.657664476605596" fill="#36ff71" stroke="none" /><path d="M 88.39885842347998 82.49532879139004 l -7.254615752984269 -10.946307539062449 a34.13206375491617,34.13206375491617 0 0,0 0.49253051408440846,-0.32035554698806273 l 7.065118213115573 11.069562010210047" fill="#ff820c" stroke="none" /><path d="M 88.70189139769569 82.29822771554957 l -14.083930785509633 -22.066572769906305 a47.17805837300766,47.17805837300766 0 0,0 0.6883073101787581,-0.43101797448850626 l 13.702004322958633 22.30573508571774" fill="#cfff1d" stroke="none" /><path d="M 89.00827224532344 82.1063720568725 l -18.43497722200193 -30.010625345973132 a56.22053405092113,56.22053405092113 0 0,0 0.8289528571270246,-0.49943482120221355 l 17.915662298657253 30.323506776633966" fill="#66ff29" stroke="none" /><line stroke="#e1ed5e" stroke-width="0.3" x1="56.762969772571076" x2="54.21961505331055" y1="26.818313649435495" y2="22.513508569990535" /><path d="M 56.25429882871897 25.957352633546506 a86.0,86.0 0 0,1 42.265352541879196,-11.944610805530505" fill="none" id="id48" stroke="none" /><text fill="#e1ed5e" style="font-size:6.75px; font-family:Arial;" text-anchor="middle"><textPath startOffset="22.20632615414155" xlink:href="#id48">December</textPath></text><path d="M 89.3179101791058 81.91981866633112 l -16.609533038213826 -28.11279199422904 a53.65280480231836,53.65280480231836 0 0,0 0.7991796502174069,-0.4629364368830189 l 16.123156655531098 28.394532588502106" fill="#83ff25" stroke="none" /></svg>