<?xml version="1.0" encoding="utf-8" ?>
<svg baseProfile="full" height="200mm" version="1.1" viewBox="0,0,200,200" width="200mm" xmlns="http://www.w3.org/2000/svg" xmlns:ev="http://www.w3.org/2001/xml-events" xmlns:xlink="http://www.w3.org/1999/xlink"><defs /><rect fill="#1a1a1a" height="200" width="200" x="0" y="0" /><text alignment-baseline="middle" fill="#e1ed5e" style="dominant-baseline: central; font-size:9.0px; font-family:Arial;" text-anchor="middle" x="100.0" y="100.0">2024</text><line stroke="#e1ed5e" stroke-width="0.3" x1="100.0" x2="100.0" y1="15.0" y2="10.0" /><path d="M 100.0 14.0 a86.0,86.0 0 0,1 42.35913384403234,11.155469271406648" fill="none" id="id49" stroke="none" /><text fill="#e1ed5e" style="font-size:6.75px; font-family:Arial;" text-anchor="middle"><textPath startOffset="22.145653131862478" xlink:href="#id49">January</textPath></text><path d="M 100.0 79.0 l 0.0 -10.338451476267597 a31.338451476267597,31.338451476267597 0 0,0 0.5379661920435056,0.004617792745930882 l -0.17747326719465079 10.336928081716101" fill="#ff800b" stroke="none" /><path d="M 100.72087961077811 79.0123766808444 l 0.5243562192172169 -15.266059199689122 a36.27506179801066,36.27506179801066 0 0,0 0.6221591805836262,0.026718192200451647 l -0.7863411604016793 15.25480843906284" fill="#ffc112" stroke="none" /><path d="M 101.44090949804482 79.04949213459386 l 1.0989564948763375 -15.978586247704634 a37.01633303390531,37.01633303390531 0 0,0 0.6335627520053008,0.049041763936095537 l -1.373088241656872 15.957366716773484" fill="#ffcb12" stroke="none" /><path d="M 101.80034050326958 79.07731436759882 l 1.0196170887402118 -11.849496122757147 a32.89328286768997,32.89328286768997 0 0,0 0.5621625515673431,0.05323737811162852 l -1.2228792036925678 11.830246989140335" fill="#ff950d" stroke="none" /><path d="M 102.15924093988457 79.11130261209362 l 1.7534762827908998 -16.963292410548746 a38.05367903064001,38.05367903064001 0 0,0 0.6492031908897579,0.07274457164747018 l -2.0444153752814542 16.930692078394305" fill="#ffd814" stroke="none" /><path d="M 102.87502721639298 79.19773525538626 l 1.7637778187734348 -12.76181767170694 a33.88312471723722,33.88312471723722 0 0,0 0.5754885681048727,0.0845770014741754 l -1.9825914924859895 12.729659596933882" fill="#ffa20f" stroke="none" /><path d="M 103.23170211078529 79.25015418208739 l 2.1466949918399894 -13.783321782693935 a34.94948955171034,34.94948955171034 0 0,0 0.5920152233502394,0.09741587971406838 l -2.382987718243299 13.7444399044842" fill="#ffb010" stroke="none" /><path d="M 103.58742460773223 79.30868818359171 l 2.735907285481912 -15.77998618359114 a37.0154036049386,37.0154036049386 0 0,0 0.6251465705838494,0.11392252988831815 l -3.006388589616815 15.730695479771455" fill="#ffcb12" stroke="none" /><path d="M 104.29559338865022 79.4440306129975 l 0.6127669756904269 -2.932311802820917 a23.995652829594853,23.995652829594853 0 0,0 0.40248432211155843,0.0877195847075001 l -0.6630137144211194 2.9213607599796982" fill="#ff1a02" stroke="none" /><path d="M 104.64783097203109 79.52079915486377 l 0.6150156173346488 -2.709872287973447 a23.778786070695613,23.778786070695613 0 0,0 0.397295783585952,0.09376072314595078 l -0.6614435546604858 2.698915421181269" fill="#ff1702" stroke="none" /><path d="M 104.9986988182912 79.60360301121754 l 1.9692866824349944 -8.035361685062947 a29.273157042350487,29.273157042350487 0 0,0 0.48704219624662043,0.1238042217221981 l -2.106934171907009 8.00037223150548" fill="#ff6409" stroke="none" /><path d="M 105.3480935250658 79.69241777938227 l 2.6413472732295387 -10.029625823279392 a31.371601109413625,31.371601109413625 0 0,0 0.5196012546815183,0.14161963252759507 l -2.8131299288457496 9.982805696607654" fill="#ff810b" stroke="none" /><path d="M 106.04205211174951 79.88797359093562 l 3.8164488873691593 -12.70371711332157 a34.2646036731295,34.2646036731295 0 0,0 0.5618732017039663,0.17406975415725534 l -4.033962721944756 12.636330771357667" fill="#ffa70f" stroke="none" /><path d="M 106.38641147887787 79.99465700312896 l 4.871369741376541 -15.259496332663439 a37.018191891838725,37.018191891838725 0 0,0 0.6037090007784508,0.19845113974030287 l -5.132601479802734 15.173624271521113" fill="#ffcb12" stroke="none" /><path d="M 106.72888874123014 80.10723608172694 l 5.153746037507551 -15.236134399233721 a37.08418134847521,37.08418134847521 0 0,0 0.6012833189329333,0.20915755075352604 l -5.414535128485502 15.145418415911605" fill="#ffcc13" stroke="none" /><path d="M 107.06938296918511 80.22567764915836 l 5.242798529632742 -14.665040583793234 a36.57402811563604,36.57402811563604 0 0,0 0.5893832324780137,0.2164296867743441 l -5.49377091376488 14.572880048010168" fill="#ffc512" stroke="none" /><path d="M 107.74402155503746 80.48000691201159 l 1.1156914467845322 -2.812271269492417 a24.025497826414796,24.025497826414796 0 0,0 0.3820575150861909,0.15537946532636243 l -1.163803423061163 2.792704547586761" fill="#ff1a02" stroke="none" /><path d="M 109.06512990194946 81.05736502329252 l 4.496619573805543 -9.396205474937416 a31.4167300492417,31.4167300492417 0 0,0 0.48447552514987424,0.23698125672896772 l -4.657255348217483 9.317630468111226" fill="#ff810b" stroke="none" /><path d="M 109.3889696526874 81.21577127319529 l 6.947953279109178 -13.900560807605054 a36.54025886317888,36.54025886317888 0 0,0 0.558670592024089,0.2852611849730681 l -7.185551092846846 13.779241670959152" fill="#ffc512" stroke="none" /><path d="M 109.71004243097381 81.37971332152246 l 4.7918317358180165 -9.188969180128472 a31.363339518598416,31.363339518598416 0 0,0 0.4752459718619713,0.2530417116806794 l -4.948866523466547 9.10535700072522" fill="#ff810b" stroke="none" /><path d="M 110.34350942703115 81.72400993836675 l 4.749402488086686 -8.391739117492383 a30.642515719971414,30.642515719971414 0 0,0 0.4555630576895835,0.2630194539899301 l -4.892758013636667 8.308972766226281" fill="#ff770a" stroke="none" /><line stroke="#e1ed5e" stroke-width="0.3" x1="143.13028292997686" x2="145.6673583964461" y1="26.7553504044142" y2="22.446841604673864" /><path d="M 143.63769802327073 25.89364864446614 a86.0,86.0 0 0,1 29.32050498858742,28.57503671076993" fill="none" id="id50" stroke="none" /><text fill="#e1ed5e" style="font-size:6.75px; font-family:Arial;" text-anchor="middle"><textPath startOffset="20.669276256404974" xlink:href="#id50">February</textPath></text><path d="M 110.65571695917076 81.90426304109057 l 5.471628529172846 -9.29202145478925 a31.78333814166661,31.78333814166661 0 0,0 0.46777089080227907,0.2808829797774276 l -5.630332176532559 9.196724474475902" fill="#ff860c" stroke="none" /><path d="M 110.96478420261332 82.08984904055464 l 0.6381499660910649 -1.0423700107779466 a22.22219909122501,22.22219909122501 0 0,0 0.323635505679679,0.20197249152262842 l -0.6559496005604564 1.0312617224137728" fill="#ff0000" stroke="none" /><path d="M 111.27062007382361 82.28071324371311 l 7.1264891964565615 -11.204024695222879 a34.27844183774498,34.27844183774498 0 0,0 0.4937962457028748,0.32007276058761436 l -7.317771074416444 11.08003809293137" fill="#ffa70f" stroke="none" /><path d="M 111.5731344415666 82.4767994020092 l 5.805044716055976 -8.789577581886762 a31.533528289391725,31.533528289391725 0 0,0 0.44913311241691867,0.3021968022080547 l -5.955074116569896 8.688631105621589" fill="#ff830c" stroke="none" /><path d="M 112.16784306229584 82.88440491214696 l 8.55312492296212 -12.031041341325661 a35.761500658960216,35.761500658960216 0 0,0 0.4972874899971545,0.35999779304026047 l -8.758393423333242 11.882442776912326" fill="#ffbb11" stroke="none" /><path d="M 112.45986205192187 83.09580414077388 l 3.696832321051258 -5.0154630407107 a27.230685253060393,27.230685253060393 0 0,0 0.3738993667919827,0.28058105539641204 l -3.782384676754007 4.951262958050274" fill="#ff4806" stroke="none" /><path d="M 113.03279911837588 83.53348406188908 l 9.769472117187012 -12.343408876591152 a36.74173840918479,36.74173840918479 0 0,0 0.491200702580343,0.3956765157254003 l -9.979923590122615 12.173884067072343" fill="#ffc712" stroke="none" /><path d="M 113.31354834802062 83.75963576809568 l 6.25495752201383 -7.6300311349901735 a30.8661982912932,30.8661982912932 0 0,0 0.40688361399420425,0.3394367821111626 l -6.385015470169926 7.521532168967141" fill="#ff7a0b" stroke="none" /><path d="M 113.59037401385872 83.9905735841838 l 3.5930999887243398 -4.232662751995862 a26.55209883747615,26.55209883747615 0 0,0 0.3449503532489618,0.29795989935371153 l -3.665229821736162 4.170358720177431" fill="#ff3e05" stroke="none" /><path d="M 113.86319453409587 84.22622945171908 l 8.20083497844443 -9.331044798956594 a33.42264429917449,33.42264429917449 0 0,0 0.42770635329669127,0.3824576584861507 l -8.359806358564496 9.188891610587056" fill="#ff9c0e" stroke="none" /><path d="M 114.13192950727249 84.46653392183569 l 4.326017191476491 -4.755050700102531 a27.428447083199465,27.428447083199465 0 0,0 0.3455595484430902,0.31984475913441773 l -4.407006511233546 4.680088194835739" fill="#ff4b06" stroke="none" /><path d="M 114.39649973595853 84.71141617570332 l 1.8353264598181245 -1.949053099052542 a23.67716850366854,23.67716850366854 0 0,0 0.293515162776579,0.2811808863583672 l -1.8685141084600156 1.9172600823885946" fill="#ff1502" stroke="none" /><path d="M 114.91283532996326 85.21462403516908 l 7.358343574012637 -7.295452126503337 a31.36189374020575,31.36189374020575 0 0,0 0.37576506694959527,0.38556806178589786 l -7.482495442113044 7.168061372649697" fill="#ff810b" stroke="none" /><path d="M 115.16444852881244 85.47280134310134 l 5.977987224442465 -5.726776533474035 a29.278423806495184,29.278423806495184 0 0,0 0.34457103053203286,0.36592249368471774 l -6.075414088710758 5.623312579844822" fill="#ff6409" stroke="none" /><path d="M 115.41159269507618 85.73525988315684 l 7.6229345193007445 -7.055674387260357 a31.387091592192142,31.387091592192142 0 0,0 0.36259907543582803,0.39855990191273205 l -7.742931295578449 6.923776909789954" fill="#ff810b" stroke="none" /><path d="M 115.8921839302757 86.27271002978787 l 6.282999451232925 -5.427105281952378 a29.302382419859292,29.302382419859292 0 0,0 0.3255431009879426,0.38348895439731484 l -6.3752371157279795 5.318449545105511" fill="#ff6509" stroke="none" /><path d="M 116.35404254752997 86.82634096563983 l 6.446374904630157 -5.192743308233595 a29.27770091729885,29.27770091729885 0 0,0 0.31192402518267454,0.39410581606434836 l -6.5345653604543905 5.081317548254568" fill="#ff6409" stroke="none" /><path d="M 116.7966241395341 87.39550010848427 l 6.828319508994341 -5.124098258993442 a29.53711486889642,29.53711486889642 0 0,0 0.30085377227511884,0.4081659227311544 l -6.915275300853286 5.006126026993413" fill="#ff6809" stroke="none" /><line stroke="#e1ed5e" stroke-width="0.3" x1="172.87174338648825" x2="177.1583165268699" y1="56.24261187166439" y2="53.66864786411523" /><path d="M 173.72905801456457 55.72781907015455 a86.0,86.0 0 0,1 12.242430191666344,42.057860355516425" fill="none" id="id51" stroke="none" /><text fill="#e1ed5e" style="font-size:6.75px; font-family:Arial;" text-anchor="middle"><textPath startOffset="22.145653131862474" xlink:href="#id51">March</textPath></text><path d="M 120.05942366710727 93.78553927170692 l 4.935775913892812 -1.529115995034222 a26.16721197537259,26.16721197537259 0 0,0 0.12924569149194273,0.43021687209365045 l -4.961297925388382 1.4441615193498478" fill="#ff3905" stroke="none" /><path d="M 120.26092885502905 94.47779374421319 l 4.994623913570079 -1.3613069577495216 a26.17681607469527,26.17681607469527 0 0,0 0.11444319403318358,0.4345594484326802 l -5.017256588407993 1.2753670049440429" fill="#ff3905" stroke="none" /><path d="M 120.43855184770803 95.1765574152323 l 1.9421334772442136 -0.45833821247434503 a22.99548399152859,22.99548399152859 0 0,0 0.08737094551183527,0.3849725069464861 l -1.949715284313715 0.42493137158883265" fill="#ff0b01" stroke="none" /><path d="M 120.51834098615036 95.52812308129327 l 7.642766869033917 -1.665705467111532 a28.822177453725256,28.822177453725256 0 0,0 0.10121015926019157,0.48432725055011305 l -7.670234739118475 1.5342617652760144" fill="#ff5e08" stroke="none" /><path d="M 120.592083275326 95.88100663000786 l 12.793985974578455 -2.5591555113904207 a34.04742710457469,34.04742710457469 0 0,0 0.10971979192474077,0.5741003145211953 l -12.836032058785353 2.339152631835911" fill="#ffa40f" stroke="none" /><path d="M 120.65975698304385 96.23510406497455 l 7.704687455656796 -1.4040507110635987 a28.831575013277558,28.831575013277558 0 0,0 0.0845522766275731,0.4876750626947021 l -7.727654549776603 1.2715826154483039" fill="#ff5e08" stroke="none" /><path d="M 120.7213421655516 96.59031103205396 l 15.711892175616514 -2.5853858784215134 a36.92318359746382,36.92318359746382 0 0,0 0.09754491102343686,0.6263083027681797 l -15.753958578778215 2.3152893937218924" fill="#ffca12" stroke="none" /><path d="M 120.77682067341334 96.94652285012252 l 10.230724303847337 -1.503564158325187 a31.34062014385659,31.34062014385659 0 0,0 0.07365864088854697,0.5329572324586239 l -10.255027461291096 1.3277186176664777" fill="#ff800b" stroke="none" /><path d="M 120.82617615685814 97.30363454192243 l 7.748520629432765 -1.0032011262674303 a28.813192973713715,28.813192973713715 0 0,0 0.05929743278674403,0.4910678073008585 l -7.764600148479172 0.8700396420431589" fill="#ff5e08" stroke="none" /><path d="M 120.86939407059847 97.66154086499901 l 18.43027773750937 -2.065151062368536 a39.545619061981604,39.545619061981604 0 0,0 0.06980292792662281,0.6752800075785004 l -18.46301305791766 1.7484665325071043" fill="#ffea16" stroke="none" /><path d="M 120.9064616781168 98.02013634271609 l 19.005849329221366 -1.7998736917843086 a40.09088405578541,40.09088405578541 0 0,0 0.05900304709567769,0.6857048449971798 l -19.033945999014787 1.473347799411467" fill="#fff116" stroke="none" /><path d="M 120.93736805541906 98.37931529534042 l 7.814704146719876 -0.6049075245993321 a28.838081016044534,28.838081016044534 0 0,0 0.03396856628275467,0.493895498675737 l -7.823936674167697 0.47066860176926084" fill="#ff5e08" stroke="none" /><path d="M 120.96210409425399 98.7389718711861 l 15.566437361397588 -0.9364382167877382 a36.594578822788876,36.594578822788876 0 0,0 0.032339867497958454,0.6273847897953595 l -15.580218818352119 0.669081633615648" fill="#ffc512" stroke="none" /><path d="M 120.98066250479742 99.09900007780936 l 15.499639306689605 -0.6656212026725602 a36.5139250424554,36.5139250424554 0 0,0 0.02151767863685766,0.6264637356653324 l -15.50878167232331 0.39945120244310783" fill="#ffc412" stroke="none" /><path d="M 120.99303781780057 99.45929381324524 l 5.166221526277401 -0.13306354066752607 a26.16793486456892,26.16793486456892 0 0,0 0.007711526420525561,0.4491577535549742 l -5.167744484296593 0.044358871143485454" fill="#ff3905" stroke="none" /><line stroke="#e1ed5e" stroke-width="0.3" x1="184.99686870605535" x2="189.99668451229388" y1="99.2704041080226" y2="99.22748670261217" /><path d="M 185.99683186730306 99.26182062694052 a86.0,86.0 0 0,1 -10.086455211305974,41.156179273409016" fill="none" id="id52" stroke="none" /><text fill="#e1ed5e" style="font-size:6.75px; font-family:Arial;" text-anchor="middle"><textPath startOffset="21.40746469413373" xlink:href="#id52">April</textPath></text><path d="M 120.99922638620191 99.81974689727618 l 6.191008079502617 -0.05314235842763705 a27.19123615691777,27.19123615691777 0 0,0 0.0,0.46679092230292707 l -6.191008079502617 -0.053142358427636295" fill="#ff4706" stroke="none" /><path d="M 120.99922638620191 100.18025310272382 l 14.032311397171288 0.12045051666231915 a35.03282834905877,35.03282834905877 0 0,0 -0.010323954977631446,0.6013186200354472 l -14.028176010594988 -0.36131605266683736" fill="#ffb110" stroke="none" /><path d="M 120.99303781780057 100.54070618675476 l 15.146011605713815 0.3901075323612591 a36.15103466589733,36.15103466589733 0 0,0 -0.021303827113255114,0.6202376818880226 l -15.137083091603714 -0.6500514788133924" fill="#ffc011" stroke="none" /><path d="M 120.96210409425399 101.26102812881392 l 10.312476118048147 0.620372955124533 a31.331119314419098,31.331119314419098 0 0,0 -0.03690513257635328,0.5365925280969375 l -10.300307024306727 -0.797308907375814" fill="#ff800b" stroke="none" /><path d="M 120.9064616781168 101.97986365728391 l 13.033211006282414 1.2342586328733363 a34.09152334555087,34.09152334555087 0 0,0 -0.0601757717654761,0.5821460047714481 l -13.010102842035272 -1.4578091599277159" fill="#ffa50f" stroke="none" /><path d="M 120.86939407059847 102.33845913500097 l 5.896367032312807 0.6607002246153427 a26.933267983712863,26.933267983712863 0 0,0 -0.05542855487930786,0.4590279482136739 l -5.8841563911738355 -0.7618218497524252" fill="#ff4406" stroke="none" /><path d="M 120.82617615685814 102.69636545807757 l 12.943013826779108 1.6757322680407276 a34.05104155055634,34.05104155055634 0 0,0 -0.08002883892982537,0.5790488121746845 l -12.912340471294073 -1.8976693884154971" fill="#ffa40f" stroke="none" /><path d="M 120.77682067341334 103.0534771498775 l 13.082253131755245 1.9226406982394775 a34.2227793696275,34.2227793696275 0 0,0 -0.09041089210991501,0.580502783743517 l -13.047320747507062 -2.146931663914445" fill="#ffa70f" stroke="none" /><path d="M 120.7213421655516 103.40968896794604 l 7.74528317255617 1.2744833986182014 a28.849440703415446,28.849440703415446 0 0,0 -0.08460467004603829,0.4879772540094066 l -7.722263685017897 -1.4072536855481959" fill="#ff5e08" stroke="none" /><path d="M 120.65975698304385 103.76489593502545 l 17.89128073248348 3.2603873393772167 a39.18593005186443,39.18593005186443 0 0,0 -0.12627891318960124,0.6607446341975787 l -17.83267552701172 -3.5670345386081097" fill="#ffe615" stroke="none" /><path d="M 120.592083275326 104.11899336999214 l 10.131048976300047 2.026493531834498 a31.33173893373024,31.33173893373024 0 0,0 -0.11002257870603112,0.5264978677301828 l -10.094768686769651 -2.20010785085009" fill="#ff800b" stroke="none" /><path d="M 120.51834098615036 104.47187691870673 l 15.138823288169158 3.2994360745071685 a36.49420049438409,36.49420049438409 0 0,0 -0.1386590864566084,0.6109575192462475 l -15.079953340154885 -3.558827927692433" fill="#ffc412" stroke="none" /><path d="M 120.43855184770803 104.8234425847677 l 3.8197402406038976 0.9014482961690743 a24.92466871676513,24.92466871676513 0 0,0 -0.10184987968321513,0.4155822654641916 l -3.8037028344043864 -0.9668863862413655" fill="#ff2703" stroke="none" /><path d="M 120.35273937422433 105.17358676015961 l 17.478176664878376 4.442884160333902 a39.034020050749774,39.034020050749774 0 0,0 -0.1706539831970431,0.6480009705902035 l -17.399333200876605 -4.742265635296909" fill="#ffe415" stroke="none" /><path d="M 120.26092885502905 105.52220625578681 l 17.58007185074427 4.791526758027418 a39.22135162248465,39.22135162248465 0 0,0 -0.1826249002152228,0.6480713441340978 l -17.49522845845447 -5.092606026064524" fill="#ffe615" stroke="none" /><path d="M 120.16314734710363 105.8691983318838 l 3.5387273494920835 1.0300719574721537 a24.68559893255001,24.68559893255001 0 0,0 -0.12192767448564563,0.40585757353573787 l -3.5205233550028083 -1.090667134598615" fill="#ff2403" stroke="none" /><path d="M 120.05942366710727 106.21446072829308 l 15.37463222806419 4.763100365137874 a37.095541035846125,37.095541035846125 0 0,0 -0.19366572308864266,0.6066551192229319 l -15.290601789198291 -5.026324518052189" fill="#ffcc13" stroke="none" /><path d="M 119.71291397450082 107.23885506374661 l 12.162639013448423 4.466289515842754 a33.95675614537777,33.95675614537777 0 0,0 -0.20563130756607056,0.5454614737879926 l -12.084177022067912 -4.674419269824905" fill="#ffa30f" stroke="none" /><path d="M 119.58574465831526 107.57618678355244 l 7.445544339169792 2.8800964989004463 a28.983175204736643,28.983175204736643 0 0,0 -0.1834791293050789,0.46248726328706186 l -7.395006534898588 -3.0074847794010724" fill="#ff6008" stroke="none" /><path d="M 119.4528033332814 107.91128576633889 l 16.814111994457214 6.838152970363608 a39.15143791021093,39.15143791021093 0 0,0 -0.258537742256225,0.6203964640545959 l -16.694248407664503 -7.125781943859482" fill="#ffe615" stroke="none" /><path d="M 119.31412917781788 108.2440532568976 l 7.073212680236809 3.0191338939684895 a28.69061161999305,28.69061161999305 0 0,0 -0.19723582010177773,0.4513141552101716 l -7.020342978118066 -3.1401101189545058" fill="#ff5c08" stroke="none" /><path d="M 119.16976305983485 108.57439118712176 l 7.260070283959995 3.2473370936493717 a28.953226938031513,28.953226938031513 0 0,0 -0.20683018253722874,0.45196127574881895 l -7.20325563656771 -3.3714873516128794" fill="#ff6008" stroke="none" /><path d="M 118.8641267826498 109.22738970284198 l 3.568448418896375 1.745506938912857 a24.97248267360815,24.97248267360815 0 0,0 -0.19166985355479393,0.3834681016543543 l -3.537958652129849 -1.8065068967309572" fill="#ff2803" stroke="none" /><path d="M 118.70294669586154 109.54985784667822 l 6.908984739889829 3.527776836653046 a28.757530505596243,28.757530505596243 0 0,0 -0.22826896626141152,0.4377358411976526 l -6.8474077046534685 -3.645858920955202" fill="#ff5d08" stroke="none" /><path d="M 118.5362547648365 109.86951160357373 l 11.50884802202416 6.127813333285067 a34.03854589444834,34.03854589444834 0 0,0 -0.27904256990766635,0.5134068994104475 l -11.401960102501155 -6.324475066170118" fill="#ffa40f" stroke="none" /><line stroke="#e1ed5e" stroke-width="0.3" x1="174.33088141563837" x2="178.70328620479359" y1="141.23008692659167" y2="143.65538615756765" /><path d="M 175.20536237346943 141.71514677278685 a86.0,86.0 0 0,1 -30.301960400862466,31.631185727798858" fill="none" id="id53" stroke="none" /><text fill="#e1ed5e" style="font-size:6.75px; font-family:Arial;" text-anchor="middle"><textPath startOffset="22.145653131862474" xlink:href="#id53">May</textPath></text><path d="M 118.36410011445183 110.18625677009912 l 9.152489386475896 5.076731579288349 a31.46619632424777,31.46619632424777 0 0,0 -0.26606412366063575,0.47010981273640984 l -9.063991897793882 -5.2330981621238815" fill="#ff820c" stroke="none" /><path d="M 118.18653347947321 110.5 l 8.957743897097478 5.171755850320953 a31.343511700641912,31.343511700641912 0 0,0 -0.2730263003287006,0.46365834720866056 l -8.867643886639012 -5.324765365823164" fill="#ff800b" stroke="none" /><path d="M 117.62189284568427 111.42229804090321 l 15.822648745882976 10.256049753262525 a39.85584179709271,39.85584179709271 0 0,0 -0.37706579672972124,0.5709256751571697 l -15.644258510232527 -10.526155306758756" fill="#ffee16" stroke="none" /><path d="M 117.423217284605 111.72311816256416 l 6.396146198257105 4.303612613122701 a28.70920019932727,28.70920019932727 0 0,0 -0.27862998325935945,0.406529472533338 l -6.321326478182425 -4.412776820726084" fill="#ff5c08" stroke="none" /><path d="M 117.21940702142032 112.02048342749411 l 10.39647398809561 7.257546274550449 a33.67906342410155,33.67906342410155 0 0,0 -0.33500227833079327,0.4712226579569536 l -10.270356611234854 -7.434946159216906" fill="#ff9f0e" stroke="none" /><path d="M 117.01052211995028 112.31430620078461 l 5.849893941298593 4.234872082543467 a28.221869611115117,28.221869611115117 0 0,0 -0.2874571863517171,0.38999088103723856 l -5.776334735363047 -4.334669272849584" fill="#ff5607" stroke="none" /><path d="M 116.79662413953412 112.60449989151573 l 6.086742930974416 4.5676053697346815 a28.609957839659568,28.609957839659568 0 0,0 -0.2981539381517244,0.39029307591060364 l -6.007437015468387 -4.671419358886163" fill="#ff5b08" stroke="none" /><path d="M 116.57777611688842 112.89097897827486 l 14.145235600867835 10.999420759927476 a38.91856431910722,38.91856431910722 0 0,0 -0.4146375861628485,0.523881044975488 l -13.954331584063425 -11.240621748817649" fill="#ffe315" stroke="none" /><path d="M 116.35404254752997 113.17365903436017 l 5.962953082786106 4.803332908191275 a28.65694563742107,28.65694563742107 0 0,0 -0.3118874322065867,0.38045195510492014 l -5.879618831340891 -4.9049871449946885" fill="#ff5c08" stroke="none" /><path d="M 116.1254893667686 113.45245675266167 l 7.933698898617486 6.618573793005982 a31.331945473500618,31.331945473500618 0 0,0 -0.34809110546982613,0.41005044698082016 l -7.818913229640545 -6.753791022436359" fill="#ff800b" stroke="none" /><path d="M 115.89218393027572 113.72728997021213 l 5.714446419231937 4.936002714302602 a28.551094005101206,28.551094005101206 0 0,0 -0.32356402309964016,0.3681564624589047 l -5.628871332173712 -5.0333714545728006" fill="#ff5a08" stroke="none" /><path d="M 115.6541949942343 113.99807769240083 l 6.012930947548636 5.376799930870169 a29.066307462314686,29.066307462314686 0 0,0 -0.33578823897116034,0.36909009607080817 l -5.919745007735596 -5.479227602498648" fill="#ff6109" stroke="none" /><path d="M 115.41159269507618 114.26474011684316 l 5.63804005448113 5.21848570337707 a28.68245329906303,28.68245329906303 0 0,0 -0.3375571908093139,0.35847403895629637 l -5.547627029935556 -5.314501202277864" fill="#ff5c08" stroke="none" /><path d="M 115.16444852881244 114.52719865689866 l 5.556724923494702 5.323216778504848 a28.695052225056223,28.695052225056223 0 0,0 -0.3438120895948117,0.3527814921162238 l -5.464526032749084 -5.4178209626888085" fill="#ff5c08" stroke="none" /><path d="M 114.91283532996324 114.78537596483092 l 4.060370035902227 4.025666227033729 a26.717743733321093,26.717743733321093 0 0,0 -0.32571229864891416,0.32292844957641886 l -3.990665817123348 -4.09477468683881" fill="#ff4106" stroke="none" /><path d="M 114.65682725009322 115.03919595460226 l 1.3239032226582914 1.3584413359556275 a22.89686125117203,22.89686125117203 0 0,0 -0.28384204623830833,0.2719142595294524 l -1.300388690554671 -1.38096772579066" fill="#ff0a01" stroke="none" /><path d="M 114.39649973595853 115.28858382429668 l 3.5428653768198726 3.762400255974631 a26.16793486456892,26.16793486456892 0 0,0 -0.3296788814933433,0.3051458508903201 l -3.4777567240125618 -3.8226638529973305" fill="#ff3905" stroke="none" /><path d="M 114.13192950727249 115.5334660781643 l 5.233070740660433 5.752061443050018 a28.776325624700846,28.776325624700846 0 0,0 -0.3682478616607488,0.3292895086260405 l -5.133557852176306 -5.841046481559446" fill="#ff5d08" stroke="none" /><path d="M 113.86319453409587 115.77377054828091 l 12.007593678961992 13.66243740308931 a39.18913141830532,39.18913141830532 0 0,0 -0.5091237724373276,0.4397689886826157 l -11.771290426761809 -13.866550524236644" fill="#ffe615" stroke="none" /><path d="M 113.59037401385872 116.0094264158162 l 11.691960596086146 13.773100183172735 a39.06655006458466,39.06655006458466 0 0,0 -0.5149820825536339,0.4296163692387032 l -11.453804179370618 -13.971778736323309" fill="#ffe515" stroke="none" /><path d="M 113.31354834802062 116.24036423190432 l 5.168533637064414 6.304770645404596 a29.152537816448433,29.152537816448433 0 0,0 -0.3897405968646317,0.3139474365448637 l -5.059542269844529 -6.392566375742863" fill="#ff6309" stroke="none" /><path d="M 113.03279911837588 116.46651593811092 l 11.22573123067768 14.18334469425468 a39.088236740474585,39.088236740474585 0 0,0 -0.529720164670613,0.4119136040316429 l -10.980601121371835 -14.373959349907118" fill="#ffe515" stroke="none" /><path d="M 112.45986205192187 116.90419585922612 l 4.664697261935761 6.328557716864547 a28.861936359523447,28.861936359523447 0 0,0 -0.4013444521123275,0.29054243252774276 l -4.555371799449466 -6.407700920765366" fill="#ff5f08" stroke="none" /><path d="M 112.16784306229584 117.11559508785304 l 4.389205143898815 6.1739667101129925 a28.5751558883505,28.5751558883505 0 0,0 -0.40223601671769,0.28079197889228186 l -4.282574036007367 -6.248403504810397" fill="#ff5b08" stroke="none" /><path d="M 111.8722381534696 117.32195027204791 l 4.370966018482728 6.3773700488683485 a28.731506494528336,28.731506494528336 0 0,0 -0.4092238210037372,0.2753440498501794 l -4.260845909381988 -6.451463772775649" fill="#ff5d08" stroke="none" /><path d="M 111.5731344415666 117.5232005979908 l 3.216279333710504 4.869856842011438 a26.836091021748967,26.836091021748967 0 0,0 -0.38658586229227276,0.25058028533996946 l -3.1322078391612216 -4.924350969055302" fill="#ff4206" stroke="none" /><path d="M 111.27062007382361 117.71928675628689 l 4.747611899823246 7.464034463898716 a29.845995095500058,29.845995095500058 0 0,0 -0.43466551962715033,0.27126343197017594 l -4.6187822514063805 -7.54443369271044" fill="#ff6c0a" stroke="none" /><path d="M 110.96478420261333 117.91015095944535 l 3.9605738326422366 6.46929970694226 a28.585379606984322,28.585379606984322 0 0,0 -0.42070497513761484,0.2526212497343914 l -3.8489361009471854 -6.536334957212574" fill="#ff5b08" stroke="none" /><line stroke="#e1ed5e" stroke-width="0.3" x1="143.1302829299769" x2="145.66735839644613" y1="173.24464959558577" y2="177.55315839532614" /><path d="M 143.63769802327073 174.10635135553383 a86.0,86.0 0 0,1 -40.68552437913181,11.842963189579606" fill="none" id="id54" stroke="none" /><text fill="#e1ed5e" style="font-size:6.75px; font-family:Arial;" text-anchor="middle"><textPath startOffset="21.407464694133747" xlink:href="#id54">June</textPath></text><path d="M 110.65571695917076 118.09573695890943 l 1.9889209095402622 3.3776225240423736 a24.919711762276002,24.919711762276002 0 0,0 -0.37048198623478046,0.21389787448255854 l -1.9306464554450833 -3.411267295801104" fill="#ff2703" stroke="none" /><path d="M 110.34350942703117 118.27599006163325 l 2.1246470240262703 3.7540477117086124 a25.3135831043911,25.3135831043911 0 0,0 -0.3800121043929994,0.21078630844789062 l -2.059890731477177 -3.789966935589647" fill="#ff2d04" stroke="none" /><path d="M 110.02825361518725 118.45085714620011 l 5.713102258819713 10.511464676110247 a32.96371292938962,32.96371292938962 0 0,0 -0.49949629177776966,0.2659536411311431 l -5.531817151255391 -10.60798878496396" fill="#ff960d" stroke="none" /><path d="M 109.71004243097381 118.62028667847754 l 3.5479858245624 6.803730638064872 a28.67326227928111,28.67326227928111 0 0,0 -0.43839066583542513,0.22384539763273073 l -3.4306679370133923 -6.863633987370439" fill="#ff5c08" stroke="none" /><path d="M 109.3889696526874 118.78422872680471 l 2.578991682136078 5.159710962310412 a26.76834597706425,26.76834597706425 0 0,0 -0.4127930708990083,0.20191777630127725 l -2.4900383619750004 -5.203222488708913" fill="#ff4106" stroke="none" /><path d="M 109.06512990194946 118.94263497670748 l 3.3533515173182504 7.007214946526857 a28.768270573656018,28.768270573656018 0 0,0 -0.4472935726046156,0.2093559771554591 l -3.2325692308421288 -7.06374715525285" fill="#ff5d08" stroke="none" /><path d="M 108.73861861582097 119.09545874513695 l 2.9655340793531817 6.48022715707754 a28.126551507084642,28.126551507084642 0 0,0 -0.44076529166059153,0.19714870865160747 l -2.8538553848369634 -6.530179616638998" fill="#ff5407" stroke="none" /><path d="M 108.4095320186766 119.2426549942271 l 2.130807557039293 4.875704687031031 a26.320980834420673,26.320980834420673 0 0,0 -0.4155768586573911,0.17738504923330958 l -2.046795623211471 -4.911564385923745" fill="#ff3b05" stroke="none" /><path d="M 108.07796709384702 119.3841803445677 l 3.9749744248623493 9.538491581039755 a31.33359779166366,31.33359779166366 0 0,0 -0.4982721522561492,0.20264294653937626 l -3.810647811415759 -9.605321784158424" fill="#ff800b" stroke="none" /><path d="M 107.74402155503746 119.51999308798841 l 1.9125214236599664 4.820803339085188 a26.186316904132763,26.186316904132763 0 0,0 -0.41926505172876216,0.16218072884782028 l -1.829484109437675 -4.8529239560710495" fill="#ff3905" stroke="none" /><path d="M 107.407793817531 119.65005319985036 l 4.565787038417612 12.11129256753479 a33.94333106030305,33.94333106030305 0 0,0 -0.5469900695143798,0.20086233012760668 l -4.357207817249105 -12.18788574667112" fill="#ffa30f" stroke="none" /><path d="M 107.06938296918513 119.77432235084164 l 4.741772646501986 13.263582017702168 a35.08570253027611,35.08570253027611 0 0,0 -0.5688799616811614,0.19788598105324162 l -4.513386912775803 -13.343026431324" fill="#ffb210" stroke="none" /><path d="M 106.72888874123015 119.89276391827305 l 2.4989624379775845 7.387738411355003 a28.79894172955748,28.79894172955748 0 0,0 -0.4696658439133939,0.1543884916433581 l -2.3717738564164565 -7.429547824400381" fill="#ff5e08" stroke="none" /><path d="M 106.38641147887787 120.00534299687104 l 2.4422801104902767 7.650407661076477 a29.030782621809287,29.030782621809287 0 0,0 -0.4760486633756044,0.14748109279705648 l -2.310590814243048 -7.6912053416801776" fill="#ff6108" stroke="none" /><path d="M 105.3480935250658 120.30758222061773 l 3.2272291953831784 12.254314911072072 a33.67214434179381,33.67214434179381 0 0,0 -0.5602318570844355,0.14240874730122582 l -3.0163920450733457 -12.307908890208568" fill="#ff9f0e" stroke="none" /><path d="M 104.9986988182912 120.39639698878246 l 4.33893501102561 17.704335510187562 a39.22827070479238,39.22827070479238 0 0,0 -0.655425659747595,0.15467867106888677 l -4.034377197538135 -17.776210324902674" fill="#ffe715" stroke="none" /><path d="M 104.64783097203109 120.47920084513623 l 2.7133324282982048 11.95544332251344 a33.25947788057411,33.25947788057411 0 0,0 -0.5578684815791776,0.12158483905359563 l -2.5077015300998915 -12.000259619700756" fill="#ff9a0e" stroke="none" /><path d="M 104.29559338865022 120.5559693870025 l 1.6039293883479881 7.675382752219715 a28.841179112600237,28.841179112600237 0 0,0 -0.48549800846358526,0.09711319885744953 l -1.4719348943534443 -7.701785347740026" fill="#ff5e08" stroke="none" /><path d="M 103.94208987418118 120.62667999033965 l 1.4595668338943644 7.6370704291732325 a28.775292925848944,28.775292925848944 0 0,0 -0.48598080631869506,0.08856189178369199 l -1.328251294024612 -7.661000494888288" fill="#ff5d08" stroke="none" /><path d="M 103.58742460773223 120.69131181640829 l 1.764738968736821 10.17854541054256 a31.330396425222766,31.330396425222766 0 0,0 -0.5307108022246353,0.08732826054691536 l -1.5897506634591134 -10.207339669585146" fill="#ff800b" stroke="none" /><path d="M 103.2317021107853 120.74984581791261 l 1.113173504963298 7.147372438656158 a28.2335391081416,28.2335391081416 0 0,0 -0.4795330752246517,0.07047484842965768 l -0.9903153241309608 -7.165428360384698" fill="#ff5607" stroke="none" /><path d="M 102.875027216393 120.80226474461374 l 0.8004948723959008 5.791982130582072 a26.847037629579116,26.847037629579116 0 0,0 -0.45706720805273526,0.05917650088672174 l -0.7009498424523901 -5.804870227669189" fill="#ff4206" stroke="none" /><path d="M 102.51750503828377 120.84855314841334 l 0.9477227139196273 7.848503606007379 a28.905516251073678,28.905516251073678 0 0,0 -0.49313374849782643,0.05525666509774989 l -0.8128530638210015 -7.8636160316121" fill="#ff5f08" stroke="none" /><path d="M 102.15924093988457 120.88869738790638 l 0.8045601617042157 7.7833897263465435 a28.8248624707402,28.8248624707402 0 0,0 -0.49263122505312124,0.046652689199284406 l -0.6708293732660793 -7.796054171051011" fill="#ff5e08" stroke="none" /><path d="M 101.80034050326958 120.92268563240118 l 0.6658272141828503 7.737921500152596 a28.766514985607785,28.766514985607785 0 0,0 -0.492360828480488,0.03811184203189813 l -0.5328973909271265 -7.748211109179548" fill="#ff5d08" stroke="none" /><path d="M 101.44090949804482 120.95050786540614 l 0.5272570653789256 7.666202013590006 a28.68431215699645,28.68431215699645 0 0,0 -0.4915338921376459,0.029569458364672542 l -0.3955788211088145 -7.67412344977937" fill="#ff5c08" stroke="none" /><path d="M 101.08105385017728 120.97215588758144 l 0.2664747803800474 5.1695395500630426 a26.17640299515451,26.17640299515451 0 0,0 -0.4489555256659973,0.01928008200882985 l -0.17769349411322055 -5.173352200497703" fill="#ff3905" stroke="none" /><path d="M 100.72087961077811 120.9876233191556 l 0.24830649579384373 7.229172698886005 a28.23343583825641,28.23343583825641 0 0,0 -0.48452163686407224,0.012479558649050586 l -0.12417154485902764 -7.232369974885101" fill="#ff5607" stroke="none" /><line stroke="#e1ed5e" stroke-width="0.3" x1="101.45913802915013" x2="101.54496967792366" y1="184.9874750549273" y2="189.98673829345242" /><path d="M 101.47630435890484 185.9873277026323 a86.0,86.0 0 0,1 -42.54439059252881,-10.42667462771756" fill="none" id="id55" stroke="none" /><text fill="#e1ed5e" style="font-size:6.75px; font-family:Arial;" text-anchor="middle"><textPath startOffset="22.145653131862474" xlink:href="#id55">July</textPath></text><path d="M 100.36049292484886 120.99690560180557 l 0.1367581756696481 7.965478118647371 a28.966652023106228,28.966652023106228 0 0,0 -0.49725110051849936,0.004268302653291632 l -9.756334900017828e-16 -7.966652023106228" fill="#ff6008" stroke="none" /><path d="M 100.0 121.0 l 9.704861962338846e-16 7.924621179833849 a28.92462117983385,28.92462117983385 0 0,0 -0.4965295852030172,-0.004262109312075792 l 0.1360366603541641 -7.923453468716208" fill="#ff5f08" stroke="none" /><path d="M 99.63950707515114 120.99690560180557 l -0.2789037838792183 16.24474717375862 a37.247141227305214,37.247141227305214 0 0,0 -0.6392082755832138,-0.01646373775116896 l 0.5577253735331761 -16.237565718657404" fill="#ffce13" stroke="none" /><path d="M 99.27912038922189 120.98762331915562 l -0.26835705744380445 7.812922924242916 a28.8175303088917,28.8175303088917 0 0,0 -0.49425390763654026,-0.021225389437590145 l 0.40243672568118344 -7.8071649663794975" fill="#ff5e08" stroke="none" /><path d="M 98.91894614982273 120.97215588758144 l -0.6712240552774928 13.021567353435604 a34.03885570410391,34.03885570410391 0 0,0 -0.583289260574785,-0.0350892334811695 l 0.8946576679847242 -13.008126142129742" fill="#ffa40f" stroke="none" /><path d="M 98.55909050195518 120.95050786540614 l -0.36867605310664686 5.360468898899183 a26.373132126441682,26.373132126441682 0 0,0 -0.4513962567205928,-0.034940925099623654 l 0.46064130460247577 -5.353350206804506" fill="#ff3c05" stroke="none" /><path d="M 98.19965949673042 120.92268563240118 l -0.6201083655000307 7.20659917710938 a28.23322929848603,28.23322929848603 0 0,0 -0.4825199201084579,-0.04569513810834067 l 0.7437278489935037 -7.1948922834958555" fill="#ff5607" stroke="none" /><path d="M 97.84075906011543 120.88869738790638 l -0.8075545258488184 7.812357483177383 a28.85398457836381,28.85398457836381 0 0,0 -0.49225460810437865,-0.055158155582952687 l 0.9415450355539964 -7.797343567087459" fill="#ff5e08" stroke="none" /><path d="M 97.48249496171623 120.84855314841334 l -0.9426963864317598 7.8068784040003925 a28.863588677686494,28.863588677686494 0 0,0 -0.4913987186711758,-0.06362140227706671 l 1.0765729269937296 -7.789545405522929" fill="#ff5f08" stroke="none" /><path d="M 97.12497278360702 120.80226474461374 l -1.7937650955595223 12.978790668385866 a34.10216014372545,34.10216014372545 0 0,0 -0.579208779419671,-0.08512374442493895 l 2.0162989805868783 -12.946085850662044" fill="#ffa50f" stroke="none" /><path d="M 96.76829788921471 120.74984581791261 l -2.133138892193562 13.696281898474167 a34.861400339643176,34.861400339643176 0 0,0 -0.5905230655183167,-0.09717034571065623 l 2.367939460764942 -13.657645554267843" fill="#ffaf10" stroke="none" /><path d="M 96.41257539226777 120.69131181640829 l -2.193446711974284 12.651217748886854 a33.83995790522775,33.83995790522775 0 0,0 -0.571517032718029,-0.1041494415952656 l 2.4102984782433703 -12.611700133360223" fill="#ffa20e" stroke="none" /><path d="M 96.05791012581884 120.62667999033965 l -2.9044199406908526 15.197152420741139 a36.47220400883859,36.47220400883859 0 0,0 -0.6139548713122057,-0.12280816907143709 l 3.1648712975340167 -15.145054855006839" fill="#ffc412" stroke="none" /><path d="M 95.70440661134978 120.55596938700252 l -2.886625068776629 13.813545924134075 a35.111933081114394,35.111933081114394 0 0,0 -0.5889401169677301,-0.12835675736874264 l 3.1233276023634957 -13.761957708631614" fill="#ffb210" stroke="none" /><path d="M 95.35216902796893 120.47920084513623 l -1.7112235860795206 7.53996686220767 a28.731713034298714,28.731713034298714 0 0,0 -0.4800492510337134,-0.11329031613761353 l 1.8404049908531217 -7.509480402423829" fill="#ff5d08" stroke="none" /><path d="M 95.00130118170881 120.39639698878247 l -1.8336204501556972 7.481797161148147 a28.70321054598624,28.70321054598624 0 0,0 -0.47755951581928957,-0.12139376143930485 l 1.9617852592003655 -7.449218167873579" fill="#ff5c08" stroke="none" /><path d="M 94.6519064749342 120.30758222061772 l -1.8667638746000559 7.0884064933126 a28.330096450794358,28.330096450794358 0 0,0 -0.46922545042382185,-0.1278894830659064 l 1.9881707259585728 -7.055316516102549" fill="#ff5708" stroke="none" /><path d="M 94.30408787586889 120.21278271476187 l -2.114553176163209 7.5038032464583475 a28.796050172772155,28.796050172772155 0 0,0 -0.4746411642981897,-0.1381611254327581 l 2.2430543528430054 -7.466398426723074" fill="#ff5e08" stroke="none" /><path d="M 93.95794788825049 120.11202640906438 l -2.0662651116066377 6.877924540231761 a28.181594355890972,28.181594355890972 0 0,0 -0.4621236189077598,-0.14316707842549192 l 2.1840293633860313 -6.84144087399962" fill="#ff5507" stroke="none" /><path d="M 93.61358852112213 120.00534299687104 l -3.326953015169766 10.421632934719678 a31.939792017729637,31.939792017729637 0 0,0 -0.520888215730119,-0.17122630266509853 l 3.5053639685476288 -10.362985710652557" fill="#ff880c" stroke="none" /><path d="M 93.27111125876986 119.89276391827306 l -3.858964506315484 11.408342869865212 a33.043334010871206,33.043334010871206 0 0,0 -0.5357649763376221,-0.18636687016224715 l 4.054235254698128 -11.340417567134374" fill="#ff970d" stroke="none" /><path d="M 92.93061703081489 119.77432235084164 l -2.587590794698088 7.237951983853076 a28.686584094470636,28.686584094470636 0 0,0 -0.4622786314073937,-0.16975511667903978 l 2.7114585777596005 -7.192466018165317" fill="#ff5c08" stroke="none" /><path d="M 92.59220618246901 119.65005319985036 l -9.535495141836812 25.294033748695682 a48.03171860759411,48.03171860759411 0 0,0 -0.7690283845704223,-0.2974766997631356 l 9.968295788900761 -25.126617160794506" fill="#afff20" stroke="none" /><path d="M 92.25597844496254 119.51999308798841 l -2.774014815787476 6.9923294563824365 a28.522488246903542,28.522488246903542 0 0,0 -0.4535694145619772,-0.1844627322855662 l 2.893638691539894 -6.943679467517579" fill="#ff5a08" stroke="none" /><path d="M 91.92203290615298 119.3841803445677 l -2.1832883890795847 5.239097335560504 a26.67581615993391,26.67581615993391 0 0,0 -0.4211792847540897,-0.17977639179314198 l 2.272902749004105 -5.200846294107959" fill="#ff4006" stroke="none" /><path d="M 91.59046798132341 119.24265499422711 l -3.037594889464338 6.950611560830728 a28.585379606984322,28.585379606984322 0 0,0 -0.4479554906163044,-0.20036479318885797 l 3.1564637829362776 -6.897443016732015" fill="#ff5b08" stroke="none" /><path d="M 90.6110303473126 118.78422872680471 l -3.4360238106752035 6.8743493224515895 a28.685241585963162,28.685241585963162 0 0,0 -0.43857381961058467,-0.22393891725534953 l 3.5535248519993705 -6.814352453523403" fill="#ff5c08" stroke="none" /><path d="M 90.28995756902619 118.62028667847754 l -3.5172824224764323 6.744852816169714 a28.606859743103865,28.606859743103865 0 0,0 -0.43347727216575294,-0.2308022317238114 l 3.632548510428747 -6.683480116723329" fill="#ff5b08" stroke="none" /><path d="M 89.97174638481275 118.45085714620012 l -3.6275183726597593 6.674225229784615 a28.596326214814475,28.596326214814475 0 0,0 -0.4292932398382982,-0.23812172354796377 l 3.74155580065416 -6.610970590803503" fill="#ff5b08" stroke="none" /><line stroke="#e1ed5e" stroke-width="0.3" x1="58.13341422392154" x2="55.67067388415222" y1="173.97424548756322" y2="178.32567169271397" /><path d="M 57.64086615596768 174.84453072859336 a86.0,86.0 0 0,1 -31.369924170532247,-30.572349798747897" fill="none" id="id56" stroke="none" /><text fill="#e1ed5e" style="font-size:6.75px; font-family:Arial;" text-anchor="middle"><textPath startOffset="22.145653131862474" xlink:href="#id56">August</textPath></text><path d="M 89.65649057296885 118.27599006163327 l -2.806344879329118 4.95854250300186 a26.69760610570902,26.69760610570902 0 0,0 -0.39691398649040655,-0.22915839694536544 l 2.8910513336799246 -4.909637208780323" fill="#ff4006" stroke="none" /><path d="M 89.34428304082925 118.09573695890944 l -6.798099809183964 11.544659682569014 a34.39751201536918,34.39751201536918 0 0,0 -0.5062449628510918,-0.30398555459285875 l 6.995277528592483 -11.426260127440237" fill="#ffa90f" stroke="none" /><path d="M 89.03521579738668 117.91015095944536 l -9.408924079681144 15.368770376063235 a39.020181886134296,39.020181886134296 0 0,0 -0.5682748248537981,-0.35464552013309036 l 9.671363033324656 -15.204989059088597" fill="#ffe415" stroke="none" /><path d="M 88.72937992617639 117.7192867562869 l -28.278771537605092 44.45892583622113 a73.69046409158562,73.69046409158562 0 0,0 -1.0615440073025504,-0.6880800003226726 l 29.037801177164653 -43.96693199419456" fill="#40ffc8" stroke="none" /><path d="M 88.4268655584334 117.5232005979908 l -4.983118678906166 7.545076803086678 a30.042104607476084,30.042104607476084 0 0,0 -0.4278907143559117,-0.2879039687745059 l 5.111905681359084 -7.458423160255051" fill="#ff6f0a" stroke="none" /><path d="M 88.1277618465304 117.32195027204791 l -8.411016741938802 12.27192479276941 a35.877679279799096,35.877679279799096 0 0,0 -0.5050294339238999,-0.35254976744130706 l 8.620441267036467 -12.125730209522974" fill="#ffbc11" stroke="none" /><path d="M 87.83215693770417 117.11559508785305 l -11.944552255803265 16.80150860504746 a41.614631211765555,41.614631211765555 0 0,0 -0.5786791695295381,-0.4189190922743617 l 12.231212435706755 -16.593988741400032" fill="#faff18" stroke="none" /><path d="M 87.54013794807813 116.9041958592261 l -4.587922460028426 6.224397953049608 a28.732539193380234,28.732539193380234 0 0,0 -0.3945210379721643,-0.2960559418970682 l 4.694096486911357 -6.144722983888524" fill="#ff5d08" stroke="none" /><path d="M 87.2517909369889 116.68781488649013 l -12.227771220475892 16.006545044332345 a41.142687836446726,41.142687836446726 0 0,0 -0.5575618956776138,-0.43356350246188785 l 12.500743060788734 -15.794280490249664" fill="#fffe18" stroke="none" /><path d="M 86.96720088162412 116.46651593811092 l -13.762872746642612 17.388940117802164 a43.17638168549566,43.17638168549566 0 0,0 -0.577225518907147,-0.4649720183810373 l 14.059349035905022 -17.150119805627714" fill="#e7ff1a" stroke="none" /><path d="M 86.40962598614128 116.0094264158162 l -9.715665378807211 11.445029386541794 a36.012756289627774,36.012756289627774 0 0,0 -0.46785804314807106,-0.4041246345604172 l 9.910702901718144 -11.276560619516655" fill="#ffbe11" stroke="none" /><path d="M 86.13680546590413 115.77377054828092 l -10.520313322750537 11.970185374010013 a36.93619560299778,36.93619560299778 0 0,0 -0.4726689302199206,-0.42266347202391075 l 10.724247279793829 -11.78782637210272" fill="#ffca12" stroke="none" /><path d="M 85.86807049272751 115.53346607816431 l -5.130356586071567 5.639160594285357 a28.623692734389856,28.623692734389856 0 0,0 -0.360617949170298,-0.3337825900386517 l 5.226404306555832 -5.550260258114328" fill="#ff5b08" stroke="none" /><path d="M 85.60350026404147 115.28858382429668 l -8.192986803306288 8.700668065921713 a32.95101073351124,32.95101073351124 0 0,0 -0.4084787958323963,-0.39131344624325015 l 8.341138085004 -8.558742489372879" fill="#ff960d" stroke="none" /><path d="M 85.34317274990678 115.03919595460226 l -4.837493940109642 4.9636949425086 a27.931061614419754,27.931061614419754 0 0,0 -0.34050368822091953,-0.33759341777498597 l 4.921989548460524 -4.879921514504955" fill="#ff5207" stroke="none" /><path d="M 84.83555147118756 114.52719865689866 l -7.462509905442129 7.14891568061009 a31.3342174109748,31.3342174109748 0 0,0 -0.368765192264874,-0.39161585502220875 l 7.584130931443256 -7.0197583656433915" fill="#ff800b" stroke="none" /><path d="M 84.58840730492382 114.26474011684316 l -17.081157483048674 15.810064359435469 a44.2749667241481,44.2749667241481 0 0,0 -0.5114861296394092,-0.5622128556554589 l 17.350041313529964 -15.514513928222335" fill="#daff1b" stroke="none" /><path d="M 84.3458050057657 113.99807769240083 l -5.766205939074666 5.156176906910843 a28.735327480280368,28.735327480280368 0 0,0 -0.3256519054206354,-0.37053208927292725 l 5.853868908453895 -5.0564325398266154" fill="#ff5d08" stroke="none" /><path d="M 84.1078160697243 113.72728997021213 l -5.335020306467011 4.608263474998182 a28.049718712503193,28.049718712503193 0 0,0 -0.31162627941539434,-0.3670949735781998 l 5.413341149389517 -4.516001718970427" fill="#ff5307" stroke="none" /><path d="M 83.8745106332314 113.45245675266167 l -5.907611352043075 4.92833950135295 a28.693399906893184,28.693399906893184 0 0,0 -0.31228418169421135,-0.38093592496925854 l 5.991342352975916 -4.826201294685196" fill="#ff5c08" stroke="none" /><path d="M 83.64595745247003 113.17365903436017 l -18.10053222042512 14.580507487327353 a44.2426432500836,44.2426432500836 0 0,0 -0.47136021391396304,-0.595548232156972 l 18.348158864980643 -14.2676393112557" fill="#dbff1b" stroke="none" /><path d="M 83.4222238831116 112.89097897827486 l -49.733328350665225 38.67293693482457 a84.0,84.0 0 0,0 -0.8753920905828196,-1.1459163470365188 l 50.38987241860234 -37.813499674547174" fill="#4dd2ff" stroke="none" /><path d="M 82.98947788004972 112.3143062007846 l -6.110969257188214 4.4238704776933 a28.544174922793466,28.544174922793466 0 0,0 -0.2839260555376801,-0.39937755414781934 l 6.186010411255854 -4.318315696835977" fill="#ff5a08" stroke="none" /><path d="M 82.78059297857968 112.02048342749411 l -14.774516098381982 10.313759683415434 a39.018323028200875,39.018323028200875 0 0,0 -0.3786826040667755,-0.5525092364001563 l 14.949388439264084 -10.058615711945226" fill="#ffe415" stroke="none" /><path d="M 82.576782715395 111.72311816256416 l -15.191350594678987 10.221418648536275 a39.30995718397776,39.30995718397776 0 0,0 -0.37190132378709484,-0.5631060048843091 l 15.364576357386808 -9.959132765312905" fill="#ffe815" stroke="none" /><path d="M 82.37810715431573 111.42229804090323 l -6.523761927878952 4.228623663795593 a28.774363496882234,28.774363496882234 0 0,0 -0.2651109653034526,-0.4167984712179412 l 6.595390584808294 -4.11601151789898" fill="#ff5d08" stroke="none" /><path d="M 82.18462484594161 111.11811171558189 l -15.285340268758432 9.539182826583653 a39.01770340888973,39.01770340888973 0 0,0 -0.3497324635681243,-0.5712616958235208 l 15.446840696781962 -9.275384014635575" fill="#ffe415" stroke="none" /><path d="M 81.99639281039703 110.81064883170644 l -36.64631746762799 22.005060705087107 a63.74547087789237,63.74547087789237 0 0,0 -0.5552724992249354,-0.9429740978473445 l 37.01866367698269 -21.372735438946204" fill="#34ff5a" stroke="none" /><line stroke="#e1ed5e" stroke-width="0.3" x1="26.387840678322732" x2="22.057713659400548" y1="142.50000000000003" y2="145.00000000000006" /><path d="M 25.521815274538298 143.00000000000003 a86.0,86.0 0 0,1 -11.493303480769221,-40.785679425670985" fill="none" id="id57" stroke="none" /><text fill="#e1ed5e" style="font-size:6.75px; font-family:Arial;" text-anchor="middle"><textPath startOffset="21.40746469413373" xlink:href="#id57">September</textPath></text><path d="M 81.81346652052679 110.50000000000001 l -11.561177651535449 6.674849029263085 a34.34969805852616,34.34969805852616 0 0,0 -0.29044572841829447,-0.513189772142949 l 11.674056744975122 -6.4754024870210145" fill="#ffa80f" stroke="none" /><path d="M 81.63589988554817 110.18625677009913 l -6.702535913632771 3.717783686734838 a28.66458760892514,28.66458760892514 0 0,0 -0.234987717058822,-0.4323509321700611 l 6.765368980306923 -3.60217792109019" fill="#ff5c08" stroke="none" /><path d="M 81.4637452351635 109.86951160357371 l -9.650397453160428 5.1382930830097076 a31.93307947519228,31.93307947519228 0 0,0 -0.25347555625220075,-0.486072801118462 l 9.737181078387579 -4.971874038786742" fill="#ff880c" stroke="none" /><path d="M 81.29705330413844 109.54985784667822 l -8.28003914047474 4.227846982741079 a30.29697468412529,30.29697468412529 0 0,0 -0.23253661947662482,-0.46522900905922165 l 8.3513956731631 -4.085086117518105" fill="#ff720a" stroke="none" /><path d="M 81.1358732173502 109.22738970284198 l -10.723620254441029 5.245460033910845 a32.937792188206906,32.937792188206906 0 0,0 -0.2440858886424273,-0.5100456299610735 l 10.812085401043367 -5.0606019018846675" fill="#ff960d" stroke="none" /><path d="M 80.9802524753101 108.90220220490708 l -3.492756839488248 1.6347865605121121 a24.856407322654462,24.856407322654462 0 0,0 -0.17756415458517677,-0.3880097229964581 l 3.520305458928481 -1.5745878553009651" fill="#ff2603" stroke="none" /><path d="M 80.83023694016515 108.57439118712176 l -9.43722408986614 4.22115029875276 a31.338244936497215,31.338244936497215 0 0,0 -0.2154371793277863,-0.4929624271038076 l 9.508295151210895 -4.0585258018731025" fill="#ff800b" stroke="none" /><path d="M 80.68587082218212 108.24405325689762 l -13.453645442255148 5.742561236089874 a35.6279726974094,35.6279726974094 0 0,0 -0.2352704297471619,-0.5645633842005461 l 13.550241716538794 -5.510765342448047" fill="#ffb911" stroke="none" /><path d="M 80.5471966667186 107.91128576633889 l -7.098838933842421 2.8870359943831527 a28.66345164018805,28.66345164018805 0 0,0 -0.1814551067186197,-0.4573854041797704 l 7.147352715527165 -2.7647495729898166" fill="#ff5c08" stroke="none" /><path d="M 80.41425534168474 107.57618678355246 l -7.229124255731487 2.796380561393604 a28.751127772714455,28.751127772714455 0 0,0 -0.17410767897237506,-0.4618413037108405 l 7.276062618518298 -2.6718709774886187" fill="#ff5d08" stroke="none" /><path d="M 80.28708602549918 107.23885506374661 l -16.92920307746038 6.2166378639397415 a39.034536400175725,39.034536400175725 0 0,0 -0.22558212856851592,-0.6309933619874363 l 17.033425376072838 -5.925109545571384" fill="#ffe415" stroke="none" /><path d="M 80.16572619554312 106.89939002012753 l -7.256774689952294 2.5242829340653983 a28.68327945814455,28.68327945814455 0 0,0 -0.15777794926331162,-0.4664424716926686 l 7.299038060787972 -2.399338787898568" fill="#ff5c08" stroke="none" /><path d="M 80.05021161711548 106.5578916946017 l -16.119493893709006 5.298797816694058 a37.9680682958174,37.9680682958174 0 0,0 -0.19822095042859716,-0.6209243039858955 l 16.20807955991486 -5.021304479016771" fill="#ffd714" stroke="none" /><path d="M 79.94057633289273 106.21446072829308 l -17.422195995045424 5.39744085416429 a39.23911404273734,39.23911404273734 0 0,0 -0.1938107289671414,-0.645132883208209 l 17.512283044016193 -5.097570367365358" fill="#ffe715" stroke="none" /><path d="M 79.83685265289637 105.86919833188381 l -15.295980157528842 4.452436897853249 a36.93082556896789,36.93082556896789 0 0,0 -0.17195961014592953,-0.610223992197738 l 15.370158259749346 -4.189204981752515" fill="#ffca12" stroke="none" /><path d="M 79.73907114497094 105.5222062557868 l -54.85995908913166 14.952325801144834 a77.8611216748736,77.8611216748736 0 0,0 -0.34040333362362063,-1.2925669032029656 l 55.10855190356001 -14.008378393569066" fill="#45fff2" stroke="none" /><path d="M 79.64726062577567 105.17358676015961 l -10.020501009759451 2.547172171816464 a31.339174365463926,31.339174365463926 0 0,0 -0.12806152710655364,-0.5225347316980167 l 10.062750063382298 -2.374781615510348" fill="#ff800b" stroke="none" /><path d="M 79.56144815229197 104.8234425847677 l -7.258652258608904 1.7130221687462976 a28.45804783854491,28.45804783854491 0 0,0 -0.10812586279943867,-0.47642250205490927 l 7.286988982966009 -1.5881653327523622" fill="#ff5908" stroke="none" /><path d="M 79.48165901384964 104.47187691870673 l -21.196330268373547 4.6196415271782865 a42.69390478188744,42.69390478188744 0 0,0 -0.14992125106966153,-0.7174274584721563 l 21.272509230267577 -4.255097617420721" fill="#edff1a" stroke="none" /><path d="M 79.407916724674 104.11899336999214 l -20.774594592836124 4.1555007450217225 a42.186126756407646,42.186126756407646 0 0,0 -0.1359472196124291,-0.7113332988392098 l 20.84286810473071 -3.7982648811491977" fill="#f3ff19" stroke="none" /><path d="M 79.34024301695615 103.76489593502545 l -13.216410109236056 2.408470183687569 a34.434069554726484,34.434069554726484 0 0,0 -0.10098230752442515,-0.5824391147969405 l 13.255807234252716 -2.181238035970036" fill="#ffa90f" stroke="none" /><path d="M 79.2786578344484 103.40968896794605 l -20.55201907392127 3.3818269176532674 a41.828399874109095,41.828399874109095 0 0,0 -0.11050367672664052,-0.7095128745740338 l 20.607044242786177 -3.0285258611477834" fill="#f8ff18" stroke="none" /><path d="M 79.22317932658666 103.0534771498775 l -7.63779375833703 1.1224926606024193 a28.71983699750185,28.71983699750185 0 0,0 -0.06749911616510462,-0.4883899799236028 l 7.655937391057347 -0.9912143724787308" fill="#ff5d08" stroke="none" /><path d="M 79.17382384314188 102.69636545807758 l -7.580662302333971 0.9814685051837114 a28.643933631887116,28.643933631887116 0 0,0 -0.05894909775651825,-0.48818309355423334 l 7.596393486350151 -0.8511917347060789" fill="#ff5c08" stroke="none" /><path d="M 79.13060592940153 102.33845913500099 l -32.01314530275517 3.5871397042048763 a53.2134916367785,53.2134916367785 0 0,0 -0.09392842012725003,-0.9086722597373248 l 32.07000611536409 -3.0370629221846204" fill="#76ff27" stroke="none" /><path d="M 79.0935383218832 101.97986365728391 l -23.025202364565775 2.1805106031370167 a44.12822021729295,44.12822021729295 0 0,0 -0.06494492493870659,-0.7547584723249247 l 23.059240912202224 -1.7849310834364303" fill="#dcff1b" stroke="none" /><path d="M 79.06263194458094 101.62068470465958 l -23.044929210119268 1.7838232671816796 a44.11386570325152,44.11386570325152 0 0,0 -0.05196201405688995,-0.7555162802926949 l 23.072155185341224 -1.3879635627346414" fill="#dcff1b" stroke="none" /><path d="M 79.03789590574601 101.26102812881392 l -22.42932630617142 1.3492925736487102 a43.469874699205974,43.469874699205974 0 0,0 -0.038415799092343286,-0.7452562395282548 l 22.449183694720336 -0.9640645407437247" fill="#e4ff1a" stroke="none" /><path d="M 79.01933749520258 100.90099992219065 l -21.89358744593334 0.9402048472372858 a42.9137663674572,42.9137663674572 0 0,0 -0.0252891090924483,-0.736264818388276 l 21.90650124202263 -0.5642337642848899" fill="#eaff1a" stroke="none" /><path d="M 79.00696218219943 100.54070618675478 l -18.306261258260704 0.4715043532336067 a39.31233239133713,39.31233239133713 0 0,0 -0.011585098000941282,-0.6747738786146279 l 18.311657787860312 -0.15718355864992636" fill="#ffe815" stroke="none" /><line stroke="#e1ed5e" stroke-width="0.3" x1="15.003131293944662" x2="10.003315487706104" y1="100.72959589197737" y2="100.7725132973878" /><path d="M 14.003168132696942 100.73817937305945 a86.0,86.0 0 0,1 10.791469493833604,-42.45332614584628" fill="none" id="id58" stroke="none" /><text fill="#e1ed5e" style="font-size:6.75px; font-family:Arial;" text-anchor="middle"><textPath startOffset="22.145653131862435" xlink:href="#id58">October</textPath></text><path d="M 79.00077361379809 100.18025310272382 l -15.49548849682555 0.1330101322975105 a36.4960593523175,36.4960593523175 0 0,0 0.0,-0.6265264700426504 l 15.49548849682555 0.13301013229750477" fill="#ffc412" stroke="none" /><path d="M 79.00077361379809 99.81974689727619 l -2.2180521507145157 -0.019039310059166068 a23.218133863998478,23.218133863998478 0 0,0 0.006842238550889676,-0.39852609317722065 l 2.21739848056496 0.05711231920543911" fill="#ff0f01" stroke="none" /><path d="M 79.00696218219943 99.45929381324524 l -15.48916689922832 -0.39894599546657067 a36.494303764269276,36.494303764269276 0 0,0 0.021506115805469076,-0.6261270964456951 l 15.480036096426 0.6647793564764043" fill="#ffc412" stroke="none" /><path d="M 79.01933749520258 99.09900007780938 l -10.323256874397646 -0.44332506842714203 a31.33277163258214,31.33277163258214 0 0,0 0.027689830448618388,-0.5371753133055038 l 10.314125454492459 0.6204721751093578" fill="#ff800b" stroke="none" /><path d="M 79.03789590574601 98.7389718711861 l -21.81010355486079 -1.3120416705955928 a42.84953249886895,42.84953249886895 0 0,0 0.05047274761670882,-0.7338626731014847 l 21.784366846079017 1.6862477678514025" fill="#ebff1a" stroke="none" /><path d="M 79.06263194458094 98.37931529534042 l -19.1762393247604 -1.484362202750073 a40.233603037118144,40.233603037118144 0 0,0 0.05921309122354292,-0.6881458761511775 l 19.147932610839113 1.813329126276931" fill="#fff316" stroke="none" /><path d="M 79.0935383218832 98.0201363427161 l -12.788934684195745 -1.2111254111985899 a33.846154098339156,33.846154098339156 0 0,0 0.05974266457725544,-0.5779560856085753 l 12.766259627136826 1.4304860190900779" fill="#ffa20e" stroke="none" /><path d="M 79.13060592940154 97.66154086499901 l -20.982113401840106 -2.351089571176644 a42.113424757233815,42.113424757233815 0 0,0 0.08666925516514665,-0.7177457622391944 l 20.93866206041529 2.710929010339275" fill="#f4ff19" stroke="none" /><path d="M 79.17382384314186 97.30363454192245 l -7.489512875172335 -0.9696673869625222 a28.552023434067912,28.552023434067912 0 0,0 0.06710471047216456,-0.48553625680244406 l 7.471763648144963 1.0980919519650332" fill="#ff5a08" stroke="none" /><path d="M 79.22317932658666 96.9465228501225 l -19.73101829522508 -2.8997802144665927 a40.942963878489046,40.942963878489046 0 0,0 0.1081645020673992,-0.6944936952510264 l 19.678332301019417 3.238062091649069" fill="#fffc17" stroke="none" /><path d="M 79.2786578344484 96.59031103205396 l -19.0591906131081 -3.136182562514307 a40.31549605607391,40.31549605607391 0 0,0 0.11823034202401997,-0.681921194303801 l 19.002545453591846 3.4628967897387004" fill="#fff417" stroke="none" /><path d="M 79.34024301695615 96.23510406497455 l -22.707675560933314 -4.138094919674065 a44.08164549907221,44.08164549907221 0 0,0 0.1420556377726516,-0.7432951238253431 l 22.6332936308785 4.527292608532722" fill="#ddff1b" stroke="none" /><path d="M 79.48165901384962 95.52812308129327 l -20.596875809743544 -4.488993217981507 a42.08037839397298,42.08037839397298 0 0,0 0.1598836732086995,-0.7044769646750323 l 20.516781274977184 4.841904516595548" fill="#f5ff19" stroke="none" /><path d="M 79.56144815229197 95.17655741523228 l -7.310012306576186 -1.7251430002204202 a28.51081874987706,28.51081874987706 0 0,0 0.11650399418916445,-0.4753760533772915 l 7.279320785870724 1.8503748782058294" fill="#ff5a08" stroke="none" /><path d="M 79.64726062577567 94.8264132398404 l -22.55028087862196 -5.732193217158268 a44.26742802252923,44.26742802252923 0 0,0 0.1935340738184689,-0.7348804014251525 l 22.448557323998767 6.118454122956205" fill="#daff1b" stroke="none" /><path d="M 79.73907114497095 94.47779374421319 l -16.667909590800235 -4.542912877874279 a38.275915823569136,38.275915823569136 0 0,0 0.1782227031645217,-0.6324494998158936 l 16.58746839556113 4.828370301593186" fill="#ffdb14" stroke="none" /><path d="M 79.83685265289637 94.1308016681162 l -17.207977677219944 -5.008991510084898 a38.92217876508887,38.92217876508887 0 0,0 0.19224531499959996,-0.6399221292335638 l 17.119456042216715 5.3036512429091855" fill="#ffe315" stroke="none" /><path d="M 79.94057633289273 93.78553927170692 l -12.71409157386315 -3.9388580695493394 a34.31024896238353,34.31024896238353 0 0,0 0.17912447127352313,-0.5611048550209667 l 12.644602386812371 4.156531958261698" fill="#ffa80f" stroke="none" /><path d="M 80.05021161711548 93.44210830539832 l -19.631861644412385 -6.453382860838468 a41.6653367253939,41.6653367253939 0 0,0 0.2291882765180636,-0.6775544154377254 l 19.51818794632196 6.7894389507503545" fill="#faff18" stroke="none" /><path d="M 80.16572619554312 93.10060997987247 l -7.345923776869181 -2.555293614196253 a28.777668133208316,28.777668133208316 0 0,0 0.16630728148466642,-0.46519106514737746 l 7.300976325340572 2.6810196357245517" fill="#ff5d08" stroke="none" /><path d="M 80.28708602549916 92.7611449362534 l -20.35730974810619 -7.475486117626 a42.68646935015376,42.68646935015376 0 0,0 0.2584956722683377,-0.6856904818251089 l 20.225983392023416 7.823844879645253" fill="#edff1a" stroke="none" /><path d="M 80.41425534168474 92.42381321644754 l -19.390449692055775 -7.5006424951895765 a41.7906030961295,41.7906030961295 0 0,0 0.26455705474114033,-0.666856599406852 l 19.258833962348504 7.832400111810011" fill="#f8ff18" stroke="none" /><path d="M 80.5471966667186 92.08871423366112 l -6.8012364122385 -2.7660036396703624 a28.3421790273616,28.3421790273616 0 0,0 0.1871584638388238,-0.449112180566741 l 6.752752103863197 2.882348329678367" fill="#ff5708" stroke="none" /><path d="M 80.68587082218212 91.75594674310238 l -21.872811539145903 -9.336202608290526 a44.78202186043157,44.78202186043157 0 0,0 0.3078574595914936,-0.7044381148869928 l 21.709320197537433 9.710302792953385" fill="#d4ff1c" stroke="none" /><path d="M 80.83023694016515 91.42560881287825 l -11.788022291116704 -5.272632433226145 a33.91348606348311,33.91348606348311 0 0,0 0.242264274306873,-0.5293911611009027 l 11.695773551954785 5.474212576541719" fill="#ffa30f" stroke="none" /><path d="M 80.9802524753101 91.09779779509293 l -24.377184882730962 -11.409753401340854 a47.91523017709966,47.91523017709966 0 0,0 0.35507636548486676,-0.7419730387745936 l 24.17772925928619 11.826538942180534" fill="#b0ff20" stroke="none" /><path d="M 81.1358732173502 90.77261029715801 l -6.912123642092902 -3.38106604428045 a28.694742415400654,28.694742415400654 0 0,0 0.22023909870861563,-0.4406257297406181 l 6.853064630172542 3.4992236301848383" fill="#ff5c08" stroke="none" /><path d="M 81.29705330413844 90.45014215332179 l -19.24176025303334 -9.824979888168723 a42.60498941073875,42.60498941073875 0 0,0 0.3381860931513466,-0.6485164251255339 l 19.070266090907054 10.153842556398745" fill="#eeff19" stroke="none" /><path d="M 81.46374523516351 90.13048839642627 l -6.9035586537617695 -3.675756138640589 a28.821144754873355,28.821144754873355 0 0,0 0.2362711475695521,-0.4347122997540216 l 6.839442156576867 3.7937232718692306" fill="#ff5e08" stroke="none" /><path d="M 81.63589988554816 89.8137432299009 l -20.090268691660032 -11.143733381876125 a43.97393500881892,43.97393500881892 0 0,0 0.3718239841088092,-0.6569773524342324 l 19.896011342529857 11.486967504409462" fill="#deff1b" stroke="none" /><line stroke="#e1ed5e" stroke-width="0.3" x1="26.387840678322718" x2="22.05771365940052" y1="57.49999999999999" y2="54.99999999999999" /><path d="M 25.521815274538284 56.99999999999999 a86.0,86.0 0 0,1 29.574782752854787,-30.34633250058573" fill="none" id="id59" stroke="none" /><text fill="#e1ed5e" style="font-size:6.75px; font-family:Arial;" text-anchor="middle"><textPath startOffset="21.40746469413373" xlink:href="#id59">November</textPath></text><path d="M 81.81346652052679 89.5 l -14.62045825744613 -8.441125510612212 a37.88225102122442,37.88225102122442 0 0,0 0.3299837919640457,-0.5603846201025227 l 14.473400755352303 8.690861299008308" fill="#ffd614" stroke="none" /><path d="M 81.99639281039701 89.18935116829357 l -13.732630224207048 -8.246049879121701 a37.018191891838725,37.018191891838725 0 0,0 0.3318099815229366,-0.5419866683295139 l 13.589052278228717 8.480573663575758" fill="#ffcb12" stroke="none" /><path d="M 82.18462484594161 88.88188828441811 l -15.781558385603814 -9.848859631628407 a39.602624038606535,39.602624038606535 0 0,0 0.3648765293648388,-0.5736465085421816 l 15.610164164613085 10.118319814849261" fill="#ffeb16" stroke="none" /><path d="M 82.37810715431573 88.57770195909679 l -3.239696603089114 -2.099932197218435 a24.86074465783245,24.86074465783245 0 0,0 0.23520106636873098,-0.3561243920262236 l 3.2031710977996544 2.1552364675837192" fill="#ff2603" stroke="none" /><path d="M 82.576782715395 88.27688183743585 l -16.35566494663832 -11.004821306233078 a40.71329165382623,40.71329165382623 0 0,0 0.3951326993848205,-0.5765104170862373 l 16.164342510438185 11.28396645838935" fill="#fff917" stroke="none" /><path d="M 82.78059297857968 87.97951657250589 l -13.461916377838298 -9.397463136844394 a37.4175365378689,37.4175365378689 0 0,0 0.372188496807805,-0.5235297312025949 l 13.298612782500522 9.627170094756508" fill="#ffd013" stroke="none" /><path d="M 82.98947788004972 87.6856937992154 l -4.182809682931327 -3.028031641357616 a26.163804069161316,26.163804069161316 0 0,0 0.2664945166856319,-0.3615509936379168 l 4.130213146661876 3.099388944264396" fill="#ff3905" stroke="none" /><path d="M 83.2033758604659 87.39550010848427 l -12.806774748524775 -9.610442526275666 a37.01168588907176,37.01168588907176 0 0,0 0.3857111557908029,-0.5049082844245965 l 12.639911615379665 9.828871723941146" fill="#ffcb12" stroke="none" /><path d="M 83.42222388311158 87.10902102172516 l -17.231292436538297 -13.399157221192722 a42.82784582297903,42.82784582297903 0 0,0 0.4562869911384754,-0.5765037075834774 l 16.99873901475826 13.692980872690883" fill="#ecff1a" stroke="none" /><path d="M 83.64595745247003 86.82634096563983 l -10.460601624897011 -8.426320201880628 a34.43231396667825,34.43231396667825 0 0,0 0.37474356562183153,-0.4571262176071911 l 10.31441124003655 8.604648701186314" fill="#ffa90f" stroke="none" /><path d="M 84.10781606972428 86.27271002978789 l -10.711695426137677 -9.25250738553689 a35.15448027381272,35.15448027381272 0 0,0 0.39839892178349223,-0.4533048399082537 l 10.551285440395592 9.435024503256443" fill="#ffb310" stroke="none" /><path d="M 84.34580500576568 86.00192230759919 l -8.042850369841972 -7.191966395389174 a31.789431064892824,31.789431064892824 0 0,0 0.36724709834628627,-0.40366889330509664 l 7.918205570653821 7.328972864251928" fill="#ff860c" stroke="none" /><path d="M 84.83555147118756 85.47280134310135 l -9.319598784978716 -8.927964818156132 a33.905947361864236,33.905947361864236 0 0,0 0.4062468512252938,-0.4168450577513976 l 9.16496513260262 9.086632567975261" fill="#ffa20f" stroke="none" /><path d="M 86.40962598614128 83.9905735841838 l -6.698458524819352 -7.8907672992028175 a31.35053405283484,31.35053405283484 0 0,0 0.4132682125502738,-0.3447630413027551 l 6.562015978107169 8.004592524417454" fill="#ff800b" stroke="none" /><line stroke="#e1ed5e" stroke-width="0.3" x1="56.869717070023135" x2="54.33264160355391" y1="26.7553504044142" y2="22.446841604673864" /><path d="M 56.362301976729285 25.89364864446614 a86.0,86.0 0 0,1 42.16139366436587,-11.88097634709845" fill="none" id="id60" stroke="none" /><text fill="#e1ed5e" style="font-size:6.75px; font-family:Arial;" text-anchor="middle"><textPath startOffset="22.145653131862474" xlink:href="#id60">December</textPath></text></svg>