<?xml version="1.0" encoding="utf-8" ?>
<svg baseProfile="full" height="200mm" version="1.1" viewBox="0,0,200,200" width="200mm" xmlns="http://www.w3.org/2000/svg" xmlns:ev="http://www.w3.org/2001/xml-events" xmlns:xlink="http://www.w3.org/1999/xlink"><defs /><rect fill="#1a1a1a" height="200" width="200" x="0" y="0" /><text alignment-baseline="middle" fill="#e1ed5e" style="dominant-baseline: central; font-size:9.0px; font-family:Arial;" text-anchor="middle" x="100.0" y="100.0">2023</text><line stroke="#e1ed5e" stroke-width="0.3" x1="100.0" x2="100.0" y1="15.0" y2="10.0" /><path d="M 100.0 14.0 a86.0,86.0 0 0,1 42.46469731375804,11.215312516191453" fill="none" id="id37" stroke="none" /><text fill="#e1ed5e" style="font-size:6.75px; font-family:Arial;" text-anchor="middle"><textPath startOffset="22.20632615414155" xlink:href="#id37">January</textPath></text><path d="M 100.0 79.0 l 0.0 -29.777439899829126 a50.777439899829126,50.777439899829126 0 0,0 0.8740501576772494,0.007523225654611054 l -0.512569678404721 29.773028050783076" fill="#a8ff21" stroke="none" /><path d="M 100.72285384407766 79.0124445844662 l 1.0236502204926219 -29.720967668263725 a50.73859073513559,50.73859073513559 0 0,0 0.8726051045542831,0.03757621137570411 l -1.5350961574362365 29.698943730363826" fill="#a8ff21" stroke="none" /><path d="M 101.08401301168833 79.027996857942 l 1.53687191461633 -29.733298654851726 a50.772991522192456,50.772991522192456 0 0,0 0.8724201064357943,0.052626763296174654 l -2.0484540698917364 29.702438622175247" fill="#a8ff21" stroke="none" /><path d="M 101.80526077348638 79.07773832637324 l 2.5560640698004273 -29.623776303320604 a50.73384579898981,50.73384579898981 0 0,0 0.8694207766254575,0.08256197880149477 l -3.0656099735161293 29.575388780003934" fill="#a8ff21" stroke="none" /><path d="M 102.16513564639614 79.11191278185805 l 3.067444514657039 -29.593087465728484 a50.75163930953647,50.75163930953647 0 0,0 0.8681751757833427,0.09754959669206736 l -3.5763863939501066 29.535901915565816" fill="#a8ff21" stroke="none" /><path d="M 103.2404852339499 79.25152402106235 l 4.583115142144036 -29.34518986206589 a50.70092780447851,50.70092780447851 0 0,0 0.8611209604532822,0.14209233684389766 l -5.0875653087361945 29.261951262282366" fill="#a9ff21" stroke="none" /><path d="M 104.66035177308747 79.52364482259891 l 5.297923399410767 -23.27767655983827 a44.87295998343038,44.87295998343038 0 0,0 0.751678305621398,0.17789796918856182 l -5.697825391994688 23.183032678508837" fill="#f1ff19" stroke="none" /><path d="M 105.01212808612495 79.60689891045804 l 8.516302498941627 -34.650714184822164 a56.68191981622787,56.68191981622787 0 0,0 0.9454844135187029,0.2410250290945536 l -9.111495801145356 34.49898615955874" fill="#64ff29" stroke="none" /><path d="M 105.71112130821622 79.79150937346287 l 8.081200223529185 -28.59488533948972 a50.71486605440671,50.71486605440671 0 0,0 0.8380264108440585,0.24464288952264374 l -8.572216852096672 28.451544121048375" fill="#a9ff21" stroke="none" /><path d="M 108.09893153111575 80.62456947434976 l 6.8682532182232325 -16.43122460672597 a38.808931589129955,38.808931589129955 0 0,0 0.6141351576129712,0.26294062408386515 l -7.150072133626519 16.310564454679312" fill="#ffbd11" stroke="none" /><path d="M 108.43124777332544 80.76684994638697 l 11.962190220495389 -27.287847026455758 a50.79464029335756,50.79464029335756 0 0,0 0.7977609835617674,0.35793209914965407 l -12.430133322523936 27.077894596789573" fill="#a8ff21" stroke="none" /><path d="M 109.08828744355905 81.06846463323043 l 14.343645476430565 -29.87881196670307 a54.14337897823825,54.14337897823825 0 0,0 0.8367181990276992,0.41057398643565024 l -14.855834942468695 29.627482820132585" fill="#81ff25" stroke="none" /><path d="M 109.41281617654863 81.2277094730956 l 17.314039627428194 -34.52996170159923 a59.6276354872268,59.6276354872268 0 0,0 0.9135507794236079,0.4679561917255512 l -17.905850894440558 34.22681298456117" fill="#44ff2d" stroke="none" /><path d="M 109.73455568895987 81.39251694778311 l 20.952593567342415 -40.05062399986853 a66.20026172465248,66.20026172465248 0 0,0 1.0051562558108424,0.5369196610885711 l -21.638894869681568 39.684025612278205" fill="#35ff69" stroke="none" /><path d="M 110.36928655335952 81.73862282372117 l 14.163472040660425 -24.943326981004493 a49.6840286767371,49.6840286767371 0 0,0 0.7400631673509379,0.42869235430182484 l -14.59073194047669 24.695830469312618" fill="#b5ff20" stroke="none" /><line stroke="#e1ed5e" stroke-width="0.3" x1="143.23703022742887" x2="145.7803849466894" y1="26.81831364943548" y2="22.513508569990506" /><path d="M 143.74570117128098 25.957352633546492 a86.0,86.0 0 0,1 28.547481713284135,27.462654790039103" fill="none" id="id38" stroke="none" /><text fill="#e1ed5e" style="font-size:6.75px; font-family:Arial;" text-anchor="middle"><textPath startOffset="19.985693538727396" xlink:href="#id38">February</textPath></text><path d="M 110.68208982089419 81.91981866633111 l 14.88142123308857 -25.187842351846925 a50.25549692379388,50.25549692379388 0 0,0 0.7410003918423529,0.4464444449750435 l -15.31278369114856 24.927951297413266" fill="#aeff20" stroke="none" /><path d="M 111.2981086023043 82.29822771554956 l 15.529002625657634 -24.330697992047924 a49.864039691767445,49.864039691767445 0 0,0 0.7195451549622378,0.4680121842380648 l -15.945514806404152 24.05978688365033" fill="#b3ff20" stroke="none" /><path d="M 111.60114157652 82.49532879139004 l 15.906687240297932 -24.00120094415145 a49.793755325108144,49.793755325108144 0 0,0 0.7103797782510314,0.47965159734209706 l -16.317471712955506 23.723837434510685" fill="#b4ff20" stroke="none" /><path d="M 111.90073688211348 82.69761687909136 l 25.602967367765892 -37.22394292197271 a66.1789095119965,66.1789095119965 0 0,0 0.9330244915625469,0.6536432820067634 l -26.239922998912093 36.77771479720201" fill="#35ff69" stroke="none" /><path d="M 112.48926042617603 83.11751280151076 l 18.20592327361082 -24.610045440258325 a51.61225210297641,51.61225210297641 0 0,0 0.709677919425068,0.5345146957447292 l -18.626847346794275 24.29301415500775" fill="#9eff22" stroke="none" /><path d="M 112.77801427241765 83.33499621200491 l 27.118957426595536 -35.36836934172434 a65.56859210024619,65.56859210024619 0 0,0 0.8897578167905105,0.6944700891096258 l -27.723747798545478 34.89632086339149" fill="#35ff61" stroke="none" /><path d="M 113.6212207817346 84.01681056812373 l 28.91350760193506 -33.927213760562225 a65.57630262148308,65.57630262148308 0 0,0 0.852823567035404,0.7395601934701226 l -29.493224967617227 33.424488573672434" fill="#35ff61" stroke="none" /><path d="M 113.89432698308785 84.25364557470407 l 29.648822174755182 -33.600825921581595 a65.81147351920805,65.81147351920805 0 0,0 0.8429792031802108,0.7568350518686608 l -30.222812365531382 33.085491860943634" fill="#35ff64" stroke="none" /><path d="M 114.42810811169701 84.74124197986012 l 30.691676250218958 -32.458646518935915 a65.67149790290767,65.67149790290767 0 0,0 0.8146916962275897,0.7837327662915564 l -31.245851190058964 31.925530665882057" fill="#35ff63" stroke="none" /><path d="M 114.68862486808459 84.99185889309783 l 31.17511745139739 -31.8532582822937 a65.57037145130086,65.57037145130086 0 0,0 0.7998467493120915,0.7964119531800855 l -31.718800000876804 31.3119104784635" fill="#35ff61" stroke="none" /><path d="M 115.19652480421416 85.50635884689758 l 32.26080928606465 -30.768652644269768 a65.58104755762884,65.58104755762884 0 0,0 0.7720846674121433,0.8236060911486416 l -32.785661275447254 30.20877713624307" fill="#35ff61" stroke="none" /><path d="M 115.4437574822437 85.77008943001954 l 32.90757591977816 -30.321109545502562 a65.74682376422186,65.74682376422186 0 0,0 0.7597088045564375,0.8388894368334964 l -33.42462836495063 29.750167321399516" fill="#35ff63" stroke="none" /><path d="M 115.68641384162765 86.03803664274999 l 28.840031225097512 -25.669567515692705 a59.609248859661925,59.609248859661925 0 0,0 0.675594582600591,0.7723213962448182 l -29.27761767127595 25.169330563244937" fill="#44ff2d" stroke="none" /><path d="M 116.15771136456269 86.58626213691792 l 34.260703569374755 -28.44240043130584 a65.5282601430071,65.5282601430071 0 0,0 0.7130145835374514,0.874071571623563 l -34.745216644988616 27.848444690074174" fill="#35ff61" stroke="none" /><path d="M 116.38621287248628 86.86637796730983 l 34.81186081677521 -27.90186028828091 a65.61366899363105,65.61366899363105 0 0,0 0.6987728251278063,0.8873705264209004 l -35.28698772249698 27.298497367906972" fill="#35ff62" stroke="none" /><path d="M 116.82858285166822 87.43820079747576 l 33.32144483491251 -24.872997497389758 a62.58106167946262,62.58106167946262 0 0,0 0.6369482204519976,0.8687966568797172 l -33.744655667878135 24.295738396838548" fill="#31ff3c" stroke="none" /><path d="M 117.04232023915458 87.72973835380427 l 36.151343802123286 -26.028524349313265 a65.54664677057198,65.54664677057198 0 0,0 0.6513694283424261,0.9213158627993094 l -36.594025850269595 25.402381986182164" fill="#35ff61" stroke="none" /><path d="M 117.2510076193507 88.02491185347247 l 26.91784743079007 -18.68549378744192 a53.767639347194695,53.767639347194695 0 0,0 0.5212274242779046,0.7648369290418034 l -27.235499320736707 18.21937883512971" fill="#85ff25" stroke="none" /><path d="M 117.65298651832404 88.62581576622439 l 15.59873288209547 -10.050586139078515 a39.556259032089514,39.556259032089514 0 0,0 0.36386560194030276,0.5755479997562442 l -15.769426080281729 9.780590491608065" fill="#ffc712" stroke="none" /><line stroke="#e1ed5e" stroke-width="0.3" x1="172.23445277983987" x2="176.4835382374775" y1="55.19839476539836" y2="52.563006222186495" /><path d="M 173.08426987136738 54.67131705675599 a86.0,86.0 0 0,1 12.851231095245387,41.99856678651699" fill="none" id="id39" stroke="none" /><text fill="#e1ed5e" style="font-size:6.75px; font-family:Arial;" text-anchor="middle"><textPath startOffset="22.20632615414155" xlink:href="#id39">March</textPath></text><path d="M 117.84615892207809 88.93136811851018 l 25.283955627185716 -15.681738494383737 a50.7522324265547,50.7522324265547 0 0,0 0.454073460697869,0.7463773788097455 l -25.550144886169807 15.244193342366911" fill="#a8ff21" stroke="none" /><path d="M 118.03404312379186 89.2402003453031 l 33.182462773970684 -19.797926013958175 a59.63979438610035,59.63979438610035 0 0,0 0.5184127372267383,0.8861354138782803 l -33.518335185667745 19.223811187726" fill="#44ff2d" stroke="none" /><path d="M 118.21658344932153 89.55222093294921 l 12.94592767037272 -7.424893504007268 a35.92401041249876,35.92401041249876 0 0,0 0.30303161612882035,0.539059431916787 l -13.071816927793973 7.200950562155687" fill="#ff950d" stroke="none" /><path d="M 118.3937258080291 89.86733742301442 l 26.170907935101077 -14.416925760847153 a50.879159468454176,50.879159468454176 0 0,0 0.4159780761574162,0.7707441989988412 l -26.415194110476957 13.964300578515854" fill="#a7ff21" stroke="none" /><path d="M 118.73160827565052 90.50648371742162 l 26.65191741840958 -13.507671538407665 a50.87945602696328,50.87945602696328 0 0,0 0.3892035789099535,0.7846106655581607 l -26.88048101027294 13.046901284350556" fill="#a7ff21" stroke="none" /><path d="M 118.89224826269711 90.83032412892265 l 26.804178158089034 -13.009866389782358 a50.79464029335756,50.79464029335756 0 0,0 0.3750139416304983,0.7898750015526914 l -27.024150293561288 12.546548972589127" fill="#a8ff21" stroke="none" /><path d="M 119.196687751892 91.48605970444005 l 27.235301312772688 -12.07915304480994 a50.79375061783023,50.79375061783023 0 0,0 0.34759684979601324,0.8023014537899552 l -27.439188872411382 11.608552446433382" fill="#a8ff21" stroke="none" /><path d="M 119.34039704204932 91.81776055985345 l 31.557320458717246 -13.35078858625643 a55.265259818204925,55.265259818204925 0 0,0 0.36311463445294917,0.8793108893222632 l -31.782456780056393 12.805603126480865" fill="#74ff27" stroke="none" /><path d="M 119.47837535516314 92.15188598940014 l 30.8604208702501 -12.434101766121833 a54.27119569566507,54.27119569566507 0 0,0 0.34166676793330564,0.8695046570143874 l -31.069881188065107 11.901048104211661" fill="#7fff26" stroke="none" /><path d="M 119.61058180528143 92.48833698450437 l 47.6670150890191 -18.258436075916244 a72.0442437051926,72.0442437051926 0 0,0 0.4336219918670006,1.1618913549128016 l -47.97424166938772 17.43522158397411" fill="#3dffae" stroke="none" /><path d="M 119.85752413597 93.16781622104841 l 37.60943301336046 -12.939909145269475 a60.77324100792235,60.77324100792235 0 0,0 0.33182972762994367,0.9921286495285906 l -37.82660003476217 12.29060739281857" fill="#38ff2e" stroke="none" /><path d="M 119.97218684219823 93.5106431181261 l 19.780020929925634 -6.426918392031967 a41.797944802459085,41.797944802459085 0 0,0 0.21644272795364924,0.6861825959221661 l -19.887719141647487 6.085485629683381" fill="#ffe515" stroke="none" /><path d="M 120.37134235888165 94.90015583598534 l 15.572732215729573 -3.8985407102309035 a37.053305215193205,37.053305215193205 0 0,0 0.14956690115110016,0.6200513651643066 l -15.637531917141493 3.629904113407191" fill="#ffa50f" stroke="none" /><path d="M 120.45610955862082 95.25157060432595 l 18.532376137596593 -4.3018776063587465 a40.02511803499391,40.02511803499391 0 0,0 0.15000959286952364,0.672463590908824 l -18.603680117468155 3.9822358458999583" fill="#ffcd13" stroke="none" /><path d="M 120.53481517161879 95.60439243477599 l 20.384794068202947 -4.363494595537816 a41.846580397953275,41.846580397953275 0 0,0 0.14471086343090742,0.7056615631062018 l -20.456884227548848 4.011957376268202" fill="#ffe615" stroke="none" /><path d="M 120.6074358757038 95.95851677861258 l 29.24378460974687 -5.735224194947228 a50.80086802204889,50.80086802204889 0 0,0 0.1609039505351124,0.8595553377221441 l -29.338174284191844 5.230990779762521" fill="#a8ff21" stroke="none" /><path d="M 120.73433829027371 96.67025291283417 l 32.77094585379337 -5.262717332605898 a54.190828339696004,54.190828339696004 0 0,0 0.13997776509862275,0.9222785785150315 l -32.85667951233129 4.697839641698785" fill="#80ff25" stroke="none" /><path d="M 120.83666639777658 97.38593545837742 l 62.20868520765882 -7.804392270716312 a83.69632408667039,83.69632408667039 0 0,0 0.1670325427318845,1.431032821071974 l -62.33380810339429 6.732415711319485" fill="#4dd5ff" stroke="none" /><path d="M 120.94382443527127 98.46500227214037 l 15.419127542998588 -1.1300861414890948 a36.46048475548045,36.46048475548045 0 0,0 0.04048747410430105,0.6263233042133315 l -15.436295608107304 0.864503773022728" fill="#ff9c0e" stroke="none" /><line stroke="#e1ed5e" stroke-width="0.3" x1="184.98032266829074" x2="189.97916517819016" y1="98.17113171792111" y2="98.06355123074" /><path d="M 185.9800911702706 98.14961562048488 a86.0,86.0 0 0,1 -9.607161424134198,41.387399972396054" fill="none" id="id40" stroke="none" /><text fill="#e1ed5e" style="font-size:6.75px; font-family:Arial;" text-anchor="middle"><textPath startOffset="21.466115282336823" xlink:href="#id40">April</textPath></text><path d="M 120.99980553446 99.90962569577887 l 17.877271054955372 -0.07693623306715472 a38.87743660473458,38.87743660473458 0 0,0 -0.0028800825477695406,0.6692297544927939 l -17.8759466751181 -0.23080299962932382" fill="#ffbe11" stroke="none" /><path d="M 120.99824983174949 100.27111621757518 l 29.865697548748326 0.3856071348583678 a50.86818680361708,50.86818680361708 0 0,0 -0.01884045563266022,0.8754419411008618 l -29.854635030430657 -0.8996388917493444" fill="#a7ff21" stroke="none" /><path d="M 120.9904718944345 100.63252640178507 l 30.01559323788054 0.9044892027050998 a51.0292180740643,51.0292180740643 0 0,0 -0.0340142959670349,0.8777578397826734 l -29.995576809062303 -1.4210242895017793" fill="#a5ff21" stroke="none" /><path d="M 120.9764740272857 100.99374915477107 l 29.890712706213098 1.4160564091308137 a50.924236361839036,50.924236361839036 0 0,0 -0.049017364054225514,0.8752379631908471 l -29.861908991271342 -1.9303660886570841" fill="#a6ff21" stroke="none" /><path d="M 120.95626037817324 101.35467743843564 l 12.05958863678021 0.7795690809452076 a33.08475924627066,33.08475924627066 0 0,0 -0.04162919976420687,0.5679973562294018 l -12.044382878351666 -0.9870395736713797" fill="#ff6c0a" stroke="none" /><path d="M 120.92983693683757 101.71520430193887 l 29.633910963593042 2.428504900512054 a50.73325268197159,50.73325268197159 0 0,0 -0.07881870718697494,0.8697578659513296 l -29.58771766012899 -2.9382441550119545" fill="#a8ff21" stroke="none" /><path d="M 120.89721153311464 102.0752229133903 l 26.920245961962152 2.6733476457296512 a48.052660318117844,48.052660318117844 0 0,0 -0.08882350858576508,0.8223953743596325 l -26.870240151875336 -3.1363393419740753" fill="#c9ff1d" stroke="none" /><path d="M 120.8583938346157 102.4346265915055 l 53.84681601985891 6.285090366463909 a75.21237825802473,75.21237825802473 0 0,0 -0.16116397655077558,1.2846354637606772 l -53.73065053406129 -7.211043584511981" fill="#41ffd2" stroke="none" /><path d="M 120.81339534386255 102.79330883721812 l 5.520467592958283 0.7408868499455923 a26.569961918121606,26.569961918121606 0 0,0 -0.06473701504730739,0.4527705324622812 l -5.506896526894375 -0.8358028543882828" fill="#ff0a01" stroke="none" /><path d="M 120.76222939487914 103.15116336523771 l 32.50394218267403 4.933248250166685 a53.8761797615293,53.8761797615293 0 0,0 -0.1470518145546056,0.9156917896034477 l -32.414208613758134 -5.492019269463337" fill="#84ff25" stroke="none" /><path d="M 120.70491114924044 103.5080841355445 l 14.636524366875989 2.479902403871547 a35.84512584907526,35.84512584907526 0 0,0 -0.10830955999634924,0.6074575317759006 l -14.591668364540451 -2.7314786863806657" fill="#ff940d" stroke="none" /><path d="M 120.64145759157962 103.86396538481128 l 37.98299481747329 7.110204138202607 a59.64275997119145,59.64275997119145 0 0,0 -0.1975881337481984,1.007497637121982 l -37.85497675074943 -7.762965502392534" fill="#44ff2d" stroke="none" /><path d="M 120.5718875245553 104.21870165774334 l 46.60057335641435 9.556435491679316 a68.57035732946709,68.57035732946709 0 0,0 -0.24706866677821698,1.15422255779342 l -46.429170650911686 -10.357171868888907" fill="#39ff86" stroke="none" /><path d="M 120.49622156327973 104.57218783832717 l 29.019968322222436 6.473619824115197 a50.73325268197159,50.73325268197159 0 0,0 -0.19747177917745815,0.8507032563798655 l -28.904235977114425 -6.972191737843628" fill="#a8ff21" stroke="none" /><path d="M 120.41448212921028 104.9243191809786 l 31.89322589952416 7.693186780162803 a53.807971304433785,53.807971304433785 0 0,0 -0.22493957529834865,0.8985217883318436 l -31.756075009930754 -8.241036407892043" fill="#84ff25" stroke="none" /><path d="M 120.23288151984713 105.62410040840565 l 31.514653280660788 8.760075731806403 a53.70951387940896,53.70951387940896 0 0,0 -0.2552669025920597,0.8886175757944543 l -31.35919374118263 -9.30125078310544" fill="#86ff25" stroke="none" /><path d="M 120.13307415673323 105.97154293290107 l 34.297598841186456 10.172792410197696 a56.774446071070486,56.774446071070486 0 0,0 -0.28596268571969713,0.9345426026222333 l -34.11740938296063 -10.761661985371987" fill="#63ff29" stroke="none" /><path d="M 119.9155931802556 106.66101706037122 l 42.346732672150885 14.163389773387424 a65.65251815832458,65.65251815832458 0 0,0 -0.36768276700404795,1.0686582294019389 l -42.09665907420361 -14.890220705878663" fill="#35ff62" stroke="none" /><path d="M 119.79798401119884 107.00284435728193 l 36.53266109164593 12.922151035045413 a59.75070726850783,59.75070726850783 0 0,0 -0.35132203502092263,0.9666873535674909 l -36.304814795619784 -13.549086185619036" fill="#43ff2d" stroke="none" /><path d="M 119.67450827220406 107.3425965602758 l 27.909319428129333 10.415857412921437 a50.78959879870268,50.78959879870268 0 0,0 -0.31273265056300065,0.8164462668781758 l -27.725892497972826 -10.894727246632755" fill="#a8ff21" stroke="none" /><path d="M 119.54520255179757 107.68017299344265 l 11.274347999170695 4.430189085655772 a33.113525421654415,33.113525421654415 0 0,0 -0.21302622462794704,0.5287136193730376 l -11.196419160285355 -4.623602072871623" fill="#ff6d0a" stroke="none" /><path d="M 119.41010516605496 108.01547362559984 l 46.68029923853886 19.276799593851145 a71.50391410159247,71.50391410159247 0 0,0 -0.4795836258151774,1.1335940247142178 l -46.34156463153137 -20.077468144231524" fill="#3cffa8" stroke="none" /><path d="M 119.26925614724726 108.34839909993367 l 41.110655078319816 17.81117824325347 a65.80316988095294,65.80316988095294 0 0,0 -0.4592400570950589,1.035465092915008 l -40.797973936493484 -18.516191672661165" fill="#35ff64" stroke="none" /><path d="M 119.12269723197855 108.67885076344098 l 13.698432096894756 6.217043883499213 a36.043226933161364,36.043226933161364 0 0,0 -0.26127114429663806,0.5627548010427994 l -13.589386335758286 -6.451918751820843" fill="#ff960d" stroke="none" /><path d="M 118.97047184881838 109.00673069616215 l 27.02553510135425 12.831083934938425 a50.91682239911127,50.91682239911127 0 0,0 -0.3827168856774611,0.7885101414926488 l -26.800664959062075 -13.294383032396349" fill="#a6ff21" stroke="none" /><path d="M 118.81262510543309 109.33194174019688 l 30.27481539194922 15.017724100146618 a54.794918022754985,54.794918022754985 0 0,0 -0.4264123043919505,0.8413519303111178 l -30.011824417771 -15.53663024216043" fill="#79ff26" stroke="none" /><line stroke="#e1ed5e" stroke-width="0.3" x1="174.80103733775053" x2="179.2010983576182" y1="140.37084112569926" y2="142.7455964860345" /><path d="M 175.68104954172406 140.8457921977663 a86.0,86.0 0 0,1 -30.038265399797805,32.042727171017184" fill="none" id="id41" stroke="none" /><text fill="#e1ed5e" style="font-size:6.75px; font-family:Arial;" text-anchor="middle"><textPath startOffset="22.206326154141568" xlink:href="#id41">May</textPath></text><path d="M 118.12598468904814 110.60418214915192 l 7.854761169214371 4.5952437677364495 a30.100194410578194,30.100194410578194 0 0,0 -0.26548245952573374,0.4449638726876708 l -7.77449783399041 -4.729769734310224" fill="#ff4006" stroke="none" /><path d="M 117.94076556474637 110.91462005526583 l 17.776506094769708 10.814689553481804 a41.807731233259744,41.807731233259744 0 0,0 -0.37932624453305275,0.6115946862929539 l -17.587715210568692 -11.119080571140032" fill="#ffe515" stroke="none" /><path d="M 117.55443506779139 111.5257021239791 l 24.891968624938222 16.34330096881709 a50.77773645833824,50.77773645833824 0 0,0 -0.486007968685657,0.7265159707579338 l -24.606957550841845 -16.76935385378083" fill="#a8ff21" stroke="none" /><path d="M 117.35343817320211 111.8261652097733 l 24.676065138948097 16.816449867034017 a50.861365957907516,50.861365957907516 0 0,0 -0.49926265900274586,0.7192250970621098 l -24.382941572783214 -17.238716226283145" fill="#a7ff21" stroke="none" /><path d="M 117.14729908036423 112.12312394758627 l 31.60970518393933 22.348031144472042 a59.71185810381431,59.71185810381431 0 0,0 -0.6005881460155335,0.8341644058918884 l -31.220337245548194 -22.888829155815063" fill="#43ff2d" stroke="none" /><path d="M 116.93607887273984 112.41649034213515 l 26.447251680463925 19.389496679485738 a53.79343993748735,53.79343993748735 0 0,0 -0.5539154910569482,0.7420603198466346 l -26.109574922711882 -19.84186987884169" fill="#85ff25" stroke="none" /><path d="M 116.498646956653 112.99209946851258 l 25.02814229250021 19.708774606218633 a52.856611607205906,52.856611607205906 0 0,0 -0.5690444339934645,0.7099704259884558 l -24.68517994645189 -20.13667286578534" fill="#8fff24" stroke="none" /><path d="M 116.27256486870786 113.27417163493432 l 34.58535702963896 28.212636973397096 a65.63294529672325,65.63294529672325 0 0,0 -0.7216623622753165,0.8692888046072036 l -34.0945986674701 -28.80378703511807" fill="#35ff62" stroke="none" /><path d="M 116.0416608686014 113.55231037782055 l 29.647664241960733 25.046929434277114 a59.81150176287558,59.81150176287558 0 0,0 -0.6711918287734382,0.7807477317497541 l -29.212129903616514 -25.553554265188396" fill="#42ff2d" stroke="none" /><path d="M 115.80600337817218 113.82643327865902 l 21.316754547731623 18.64700882443099 a49.32163417860354,49.32163417860354 0 0,0 -0.5644770617004481,0.6341959628006989 l -20.992618636382836 -19.011178956972557" fill="#b9ff1f" stroke="none" /><path d="M 115.32070863581623 114.36230785411682 l 16.17026849464457 15.15872272780406 a43.16448641244227,43.16448641244227 0 0,0 -0.5128217415712405,0.5376915458031413 l -15.906940201694365 -15.434821390189708" fill="#fff717" stroke="none" /><path d="M 115.07121518719521 114.62390073753431 l 25.572334110892328 24.813345906074126 a56.63209798669723,56.63209798669723 0 0,0 -0.684869152690252,0.693768835852206 l -25.141424333146542 -25.249855235907" fill="#65ff29" stroke="none" /><path d="M 114.55890576462653 115.13401014063108 l 27.187927439702353 28.261902111827585 a60.216304127812,60.216304127812 0 0,0 -0.753174537133386,0.7121735356439094 l -26.697417068178158 -28.725710284217417" fill="#3eff2d" stroke="none" /><path d="M 114.29624159901734 115.38237550388516 l 24.354695402249007 26.205004117018436 a56.7750391880887,56.7750391880887 0 0,0 -0.7215849303970157,0.6591507253041067 l -23.90001092238513 -26.620347608909125" fill="#63ff29" stroke="none" /><path d="M 114.0293411484842 115.62618273729858 l 24.448407147604904 27.23116315163722 a57.595913141307776,57.595913141307776 0 0,0 -0.7434196522990205,0.6559814072330541 l -23.976045142399293 -27.647967700642564" fill="#5aff2a" stroke="none" /><path d="M 113.48314897796784 116.09983520530334 l 24.803149900431688 29.616718366155148 a59.630897630827015,59.630897630827015 0 0,0 -0.7926078471646394,0.6522622977489944 l -24.289671924722356 -30.039275782761322" fill="#44ff2d" stroke="none" /><path d="M 113.20401910651253 116.32954008644616 l 24.327524312187194 30.086088202032197 a59.69109900817654,59.69109900817654 0 0,0 -0.8045294440824345,0.6391668477476745 l -23.806037375387408 -30.500388963785" fill="#44ff2d" stroke="none" /><path d="M 112.34349029814194 116.9893568818739 l 35.10675573750454 48.32030388349887 a80.7271802934517,80.7271802934517 0 0,0 -1.131228717151376,0.8071016537022118 l -34.26979969250428 -48.91744979904531" fill="#49f2ff" stroke="none" /><path d="M 112.04921762599082 117.19931262002967 l 5.164606731182516 7.37207082537139 a30.00114386853514,30.00114386853514 0 0,0 -0.42550638831817095,0.292667173859636 l -5.0369434582414625 -7.45987878859612" fill="#ff3f05" stroke="none" /><path d="M 111.7513745106137 117.40417183066458 l 16.63575372204189 24.63809795607598 a50.72850774582582,50.72850774582582 0 0,0 -0.7278944228087156,0.4824087325678952 l -16.20918460049321 -24.920804709735194" fill="#a8ff21" stroke="none" /><path d="M 111.45004920935366 117.60387380957326 l 24.28992678623462 37.34453871511217 a65.54901923864486,65.54901923864486 0 0,0 -0.951141858094807,0.6070637355555708 l -23.64350312609288 -37.757116879491555" fill="#35ff61" stroke="none" /><line stroke="#e1ed5e" stroke-width="0.3" x1="143.8653032363475" x2="146.44561519142675" y1="172.8068346515853" y2="177.08958963109032" /><path d="M 144.38136562736335 173.6633856474863 a86.0,86.0 0 0,1 -40.68145358897372,12.25698825130547" fill="none" id="id42" stroke="none" /><text fill="#e1ed5e" style="font-size:6.75px; font-family:Arial;" text-anchor="middle"><textPath startOffset="21.466115282336833" xlink:href="#id42">June</textPath></text><path d="M 110.8373102113329 117.98757091392108 l 14.549003637412921 24.148172337190417 a49.19233466863117,49.19233466863117 0 0,0 -0.7290588118096384,0.4307407967176944 l -14.1311769545749 -24.395031706201863" fill="#bbff1f" stroke="none" /><path d="M 110.5260780823613 118.17145234162733 l 13.402655435042247 23.137365368516114 a47.738901415478466,47.738901415478466 0 0,0 -0.7146086917039509,0.40577346529072555 l -13.002397976417097 -23.364641999601467" fill="#cdff1d" stroke="none" /><path d="M 110.21172684928248 118.3499491758327 l 17.397146194456575 31.261779049176187 a56.77652198063426,56.77652198063426 0 0,0 -0.8580748999091219,0.46789085187217283 l -16.856448482678804 -31.55661055280813" fill="#63ff29" stroke="none" /><path d="M 109.89434966115114 118.52300852407294 l 13.99555123814885 26.2007836554636 a50.70448650658783,50.70448650658783 0 0,0 -0.773386110037268,0.40459906028660425 l -13.542474225585087 -26.43781213469492" fill="#a9ff21" stroke="none" /><path d="M 109.2508944713604 118.85261126421891 l 19.61749462134892 39.97894487059362 a65.53270852064377,65.53270852064377 0 0,0 -1.0169656923100483,0.4882053332121695 l -18.926416261038643 -40.31070448030535" fill="#35ff61" stroke="none" /><path d="M 108.92500713936063 119.00905698771935 l 15.248769005813747 32.477813686639514 a56.87942778329575,56.87942778329575 0 0,0 -0.8898434480594515,0.4084834829390609 l -14.687457561986875 -32.73548423991265" fill="#62ff29" stroke="none" /><path d="M 108.2653958097858 119.30500536409082 l 11.751275727982488 27.4467728085113 a50.856621021761754,50.856621021761754 0 0,0 -0.8077206944894731,0.33762731580468774 l -11.277083573995554 -27.644985167335964" fill="#a7ff21" stroke="none" /><path d="M 107.93186726928326 119.44442032107085 l 11.243591833194523 27.562882496765376 a50.767950027537566,50.767950027537566 0 0,0 -0.811994496514744,0.3231093678197808 l -10.767476260637913 -27.752338708991225" fill="#a8ff21" stroke="none" /><path d="M 107.2578585660854 119.70592522655815 l 6.169027748002198 16.749623654937345 a38.84956010487815,38.84956010487815 0 0,0 -0.6295116848490221,0.22572049323390703 l -5.879796502523441 -16.85333168921121" fill="#ffbd11" stroke="none" /><path d="M 106.91757812671514 119.82793768551818 l 9.78178377096608 28.037644896976147 a50.69499663429629,50.69499663429629 0 0,0 -0.8264015112650014,0.2803602613484227 l -9.297712526763851 -28.20186814522269" fill="#a9ff21" stroke="none" /><path d="M 106.57524785965236 119.94407469862006 l 12.081306444066277 36.645079139285386 a59.585227620423936,59.585227620423936 0 0,0 -0.9768534294099858,0.31275762008251223 l -11.448731669565351 -36.8476096060276" fill="#45ff2d" stroke="none" /><path d="M 105.88484417918355 120.15858648285463 l 8.32153206165856 28.50548266480438 a50.695293192805394,50.695293192805394 0 0,0 -0.8397767821702735,0.23732930694486953 l -7.829624111383681 -28.644500765087766" fill="#a9ff21" stroke="none" /><path d="M 105.53697534728816 120.25689768951611 l 7.858164280964688 28.748914322848517 a50.803537048630886,50.803537048630886 0 0,0 -0.8455391303560317,0.2233145693125952 l -7.36213470779716 -28.879920241464696" fill="#a8ff21" stroke="none" /><path d="M 105.18746579009965 120.34920634021253 l 8.091330203044956 31.74038240074687 a53.75548044832115,53.75548044832115 0 0,0 -0.8986040399254132,0.22085501008599592 l -7.543772878376331 -31.874958669146896" fill="#85ff25" stroke="none" /><path d="M 104.48393922423573 120.51570834832081 l 7.607375002383616 34.806601749114996 a56.62824272607879,56.62824272607879 0 0,0 -0.9540740857493519,0.19993550095735665 l -7.007109455204886 -34.932393230798894" fill="#65ff29" stroke="none" /><path d="M 104.13013068566511 120.58985236759428 l 5.864230708297223 29.234824203609517 a50.81717874004999,50.81717874004999 0 0,0 -0.8591306756579057,0.16465443873807922 l -5.360132418067613 -29.331435840696066" fill="#a7ff21" stroke="none" /><path d="M 103.7750983002368 120.6578951692458 l 9.0709728185334 49.637702296808115 a71.45972688373493,71.45972688373493 0 0,0 -1.2119264394270761,0.21070894605435886 l -8.215197407634275 -49.78648982138348" fill="#3cffa8" stroke="none" /><path d="M 103.06178313531738 120.77559828337769 l 4.774555318293254 32.3975405476727 a53.74747336857515,53.74747336857515 0 0,0 -0.9164492147254293,0.1270115104566816 l -4.216177512380995 -32.474926623621975" fill="#85ff25" stroke="none" /><path d="M 102.70371172650421 120.8252237178851 l 2.1021133721679703 16.191438172425922 a37.32732527761172,37.32732527761172 0 0,0 -0.6378930196655176,0.07723996114454576 l -1.8230929294510725 -16.225223662295818" fill="#ffa80f" stroke="none" /><path d="M 102.34483914955558 120.86867818915974 l 4.998405832511995 44.48498004533981 a65.76491383327763,65.76491383327763 0 0,0 -1.1260437762613296,0.11671904152470894 l -4.231929459645063 -44.564428455320275" fill="#35ff64" stroke="none" /><path d="M 101.62511606390274 120.93702456842531 l 2.336477751284474 30.101783601069673 a51.19232525407532,51.19232525407532 0 0,0 -0.8791361356636556,0.06063037510141124 l -1.817978854841888 -30.13754232068737" fill="#a3ff22" stroke="none" /><path d="M 101.26447882468166 120.96189622390904 l 1.9783682710446782 32.79639767850853 a53.856013782909756,53.856013782909756 0 0,0 -0.9258411220627865,0.047855410676505436 l -1.413539080568412 -32.82559289594724" fill="#84ff25" stroke="none" /><path d="M 100.90346689309514 120.98055641714683 l 1.3035088341510863 30.27044028305767 a51.29849320033705,51.29849320033705 0 0,0 -0.8825286468113338,0.030396071015688156 l -0.7822598356651002 -30.288393152499452" fill="#a2ff22" stroke="none" /><line stroke="#e1ed5e" stroke-width="0.3" x1="102.19456741930631" x2="102.32365962044197" y1="184.97166512339345" y2="189.96999836594603" /><path d="M 102.22038585953345 185.97133177190398 a86.0,86.0 0 0,1 -42.740103519485714,-10.115201625700543" fill="none" id="id43" stroke="none" /><text fill="#e1ed5e" style="font-size:6.75px; font-family:Arial;" text-anchor="middle"><textPath startOffset="22.20632615414155" xlink:href="#id43">July</textPath></text><path d="M 100.54218724476979 120.99299961872073 l 0.5388770075866937 20.864830229652537 a41.8717878712277,41.8717878712277 0 0,0 -0.7206739044249983,0.012407054828139112 l -0.17964341326902733 -20.871014761759834" fill="#ffe615" stroke="none" /><path d="M 100.18074693466247 120.99922214144158 l 0.38432408486081526 44.650864189591026 a65.65251815832458,65.65251815832458 0 0,0 -1.1301420390465107,0.0 l 0.3843240848607845 -44.650864189591026" fill="#35ff62" stroke="none" /><path d="M 99.45781275523022 120.99299961872073 l -0.7720228569901233 29.892026599259243 a50.90199447365572,50.90199447365572 0 0,0 -0.8757073648810286,-0.030161132273788492 l 1.286450573545795 -29.874308668559358" fill="#a6ff21" stroke="none" /><path d="M 99.09653310690486 120.98055641714683 l -1.7878001251423636 41.51678570050461 a62.55526108916997,62.55526108916997 0 0,0 -1.0753902684142747,-0.05558539333165831 l 2.5021784619701273 -41.47986050041075" fill="#31ff3b" stroke="none" /><path d="M 98.73552117531835 120.96189622390904 l -1.7862295359809728 29.61121802473926 a50.665044224876084,50.665044224876084 0 0,0 -0.870081032108225,-0.06000588214420448 l 2.2956733288681277 -29.576083798078766" fill="#a9ff21" stroke="none" /><path d="M 98.37488393609728 120.93702456842531 l -3.2161136943639637 41.43448762178886 a62.559116349788404,62.559116349788404 0 0,0 -1.072905772878301,-0.09257482463598893 l 3.9288637849838057 -41.37298854487421" fill="#31ff3b" stroke="none" /><path d="M 98.01472825383883 120.90594882070398 l -2.8268654062688365 29.76836980667779 a50.90229103216483,50.90229103216483 0 0,0 -0.871562124441043,-0.09034097780083095 l 3.3388601273154728 -29.7152994604212" fill="#a6ff21" stroke="none" /><path d="M 97.65516085044442 120.86867818915974 l -5.198013580599951 46.26145578343047 a67.55256852619836,67.55256852619836 0 0,0 -1.1544173498330674,-0.13978386421669559 l 5.993558353484407 -46.165126390488425" fill="#37ff79" stroke="none" /><path d="M 96.93821686468263 120.77559828337769 l -4.335819408719119 29.42051683078581 a50.73829417662648,50.73829417662648 0 0,0 -0.8629475724558001,-0.13477466340441485 l 4.841602844783436 -29.34152386003429" fill="#a8ff21" stroke="none" /><path d="M 96.58105272829116 120.7198165907248 l -4.841989099223676 29.34386467447894 a50.740666644699374,50.740666644699374 0 0,0 -0.8605400292239777,-0.14961591454435968 l 5.346378099919703 -29.256170181413577" fill="#a8ff21" stroke="none" /><path d="M 96.22490169976321 120.6578951692458 l -6.866070321329582 37.57215035004504 a59.19436350541573,59.19436350541573 0 0,0 -1.0007579085351404,-0.19179763499465138 l 7.511795844436417 -37.44839551670192" fill="#49ff2c" stroke="none" /><path d="M 95.51606077576429 120.51570834832081 l -9.533043446414986 43.61725911926405 a65.64688354665148,65.64688354665148 0 0,0 -1.1018668431118026,-0.2507813061217902 l 10.28243043891965 -43.446701079564576" fill="#35ff62" stroke="none" /><path d="M 95.16358092515715 120.4354850818985 l -4.341432685818184 18.344002352192106 a39.85074163163667,39.85074163163667 0 0,0 -0.6661653309682403,-0.1637272306300149 l 4.6565513015296345 -18.266553863248063" fill="#ffcb12" stroke="none" /><path d="M 94.81253420990036 120.34920634021253 l -11.035583382621391 43.28999407883706 a65.67446348799879,65.67446348799879 0 0,0 -1.0930406024896893,-0.2886819576089696 l 11.77911442792257 -43.09362077192451" fill="#35ff63" stroke="none" /><path d="M 94.11515582081647 120.15858648285463 l -8.322944843109694 28.510322160328357 a50.700334687460284,50.700334687460284 0 0,0 -0.8356502209326324,-0.25177455662371306 l 8.812470038482571 -28.36283223459892" fill="#a9ff21" stroke="none" /><path d="M 93.76903079525671 120.05430185196036 l -8.80138295685652 28.327148591448044 a50.6629683153123,50.6629683153123 0 0,0 -0.830579932633144,-0.26592546557935026 l 9.287684234580604 -28.171450279208987" fill="#a9ff21" stroke="none" /><path d="M 93.08242187328487 119.8279376855182 l -15.723612717608889 45.06878092954993 a68.73287139245988,68.73287139245988 0 0,0 -1.1137357941241306,-0.39934603095135096 l 16.497068072362744 -44.79144735755862" fill="#39ff88" stroke="none" /><path d="M 92.7421414339146 119.70592522655815 l -21.767836019014336 59.10219178685886 a83.98339272348977,83.98339272348977 0 0,0 -1.352251716256955,-0.5113058915085721 l 22.781957956031572 -58.71873764524365" fill="#4dd2ff" stroke="none" /><path d="M 92.06813273071674 119.44442032107085 l -10.178464865713135 24.951797899924028 a47.94797516440168,47.94797516440168 0 0,0 -0.7615246750778485,-0.31831737594402165 l 10.606461000288446 -24.772895480960035" fill="#caff1d" stroke="none" /><path d="M 91.40352486487194 119.15986991738527 l -8.981023510454015 20.01695340013504 a42.939398504027075,42.939398504027075 0 0,0 -0.6717603167175946,-0.3083722136421423 l 9.32425182293903 -19.85939411615882" fill="#fff417" stroke="none" /><path d="M 90.10565033884886 118.52300852407294 l -15.48196026805408 28.98345943245756 a53.85927592650998,53.85927592650998 0 0,0 -0.8139859784927027,-0.44385005659679766 l 15.978569058415422 -28.712668724100997" fill="#84ff25" stroke="none" /><line stroke="#e1ed5e" stroke-width="0.3" x1="58.666819895761336" x2="56.23545636021788" y1="174.27360380694188" y2="178.64263932499728" /><path d="M 58.180547188652646 175.14741091055294 a86.0,86.0 0 0,1 -31.652253787137756,-30.449443065178592" fill="none" id="id44" stroke="none" /><text fill="#e1ed5e" style="font-size:6.75px; font-family:Arial;" text-anchor="middle"><textPath startOffset="22.20632615414155" xlink:href="#id44">August</textPath></text><path d="M 89.7882731507175 118.34994917583269 l -17.348403786000556 31.174191442194854 a56.676285204554766,56.676285204554766 0 0,0 -0.8483933400179585,-0.4817398801682619 l 17.882445892939725 -30.870948396231956" fill="#64ff29" stroke="none" /><path d="M 89.1626897886671 117.98757091392108 l -15.416602665661943 25.58819746714921 a50.87352485678107,50.87352485678107 0 0,0 -0.7461954204118707,-0.4583741731426743 l 15.854777286006122 -25.31903482717816" fill="#a7ff21" stroke="none" /><path d="M 88.8546689885994 117.79835938074946 l -4.546440096527218 7.260365318739137 a29.566389094178508,29.566389094178508 0 0,0 -0.42901984784559855,-0.27382076526661686 l 4.67074174641974 -7.181030124648716" fill="#ff3805" stroke="none" /><path d="M 88.54995079064634 117.60387380957326 l -16.24572782678591 24.976988079124187 a50.79552996888489,50.79552996888489 0 0,0 -0.72885611288274,-0.4830460883095978 l 16.673258638408612 -24.693643969723272" fill="#a8ff21" stroke="none" /><path d="M 88.24862548938628 117.40417183066458 l -17.78230888654474 26.336183833461675 a52.777430485273285,52.777430485273285 0 0,0 -0.7485425865396494,-0.5148544165976825 l 18.23300835770728 -26.02618862749889" fill="#90ff24" stroke="none" /><path d="M 87.65650970185807 116.9893568818739 l -15.51627228870874 21.356316651286594 a47.397859130000896,47.397859130000896 0 0,0 -0.6559300111029491,-0.4852413411421052 l 15.881587270230252 -21.08606536140472" fill="#d1ff1c" stroke="none" /><path d="M 87.36589467227662 116.77436683061367 l -12.885613452159987 17.108295465110785 a42.418048645010046,42.418048645010046 0 0,0 -0.5794533118866269,-0.44430009039786583 l 13.1781954925401 -16.883956032885553" fill="#ffed16" stroke="none" /><path d="M 86.79598089348748 116.32954008644616 l -28.07826704053723 34.72466856475901 a65.65637341894303,65.65637341894303 0 0,0 -0.8726978606024515,-0.7181709263079461 l 28.67183502968437 -34.23620251959388" fill="#35ff62" stroke="none" /><path d="M 86.51685102203217 116.09983520530335 l -28.652032723677753 34.21255716316323 a65.62553133399548,65.62553133399548 0 0,0 -0.8598023470455375,-0.7327422131657807 l 29.236700547300348 -33.714290559774504" fill="#35ff62" stroke="none" /><path d="M 86.24171649860922 115.8653595955263 l -21.212627288066727 24.461333411034314 a53.37796146622293,53.37796146622293 0 0,0 -0.6889764115084388,-0.60794157724243 l 21.630546052481755 -24.092568692019594" fill="#89ff24" stroke="none" /><path d="M 85.70375840098266 115.38237550388516 l -25.527267570097727 27.4666605647168 a58.497451009005026,58.497451009005026 0 0,0 -0.7316754361687794,-0.69184479377565 l 25.99627884065732 -27.02318113419522" fill="#50ff2b" stroke="none" /><path d="M 85.44109423537348 115.13401014063109 l -20.704174813842503 21.52202896644886 a50.86403498448952,50.86403498448952 0 0,0 -0.6257488505048636,-0.6124269528938567 l 21.07157361672316 -21.162451910632434" fill="#a7ff21" stroke="none" /><path d="M 85.18274418774928 114.88116024355367 l -19.372489410175206 19.456039828307002 a48.455979890508715,48.455979890508715 0 0,0 -0.5859928745388211,-0.5936076881102438 l 19.70452290976956 -19.119691646216094" fill="#c4ff1e" stroke="none" /><path d="M 84.43433777217949 114.09645910891817 l -28.7650817767045 26.050019144400903 a59.807646502257136,59.807646502257136 0 0,0 -0.6844875504846675,-0.7690290191722327 l 29.209228176837502 -25.551015955487806" fill="#42ff2d" stroke="none" /><path d="M 84.19399662182784 113.82643327865904 l -22.385706051161804 19.582083067215898 a50.74185287873581,50.74185287873581 0 0,0 -0.569414176625316,-0.6623573288113292 l 22.719462737357897 -19.193848639243036" fill="#a8ff21" stroke="none" /><path d="M 83.95833913139862 113.55231037782056 l -22.906582851238223 19.351931389028806 a50.98681020726145,50.98681020726145 0 0,0 -0.560621829977416,-0.6753051092774739 l 23.236300681109174 -18.954765022637574" fill="#a5ff21" stroke="none" /><path d="M 83.50135304334701 112.99209946851258 l -25.47012650349127 20.05682150047579 a53.41918309898934,53.41918309898934 0 0,0 -0.5626647205369628,-0.7273199992616411 l 25.8115980412463 -19.615423507100896" fill="#89ff24" stroke="none" /><path d="M 83.28015986056508 112.70617746262583 l -23.649258674794904 17.97216211850954 a50.70330027255139,50.70330027255139 0 0,0 -0.5220960678721552,-0.6994330026347777 l 23.955116009362143 -17.562416236365454" fill="#a9ff21" stroke="none" /><path d="M 83.06392112726016 112.41649034213515 l -24.0923987229142 17.663063469988398 a50.87352485678107,50.87352485678107 0 0,0 -0.5116912610873329,-0.7106944078678935 l 24.392869776377143 -17.245735456669365" fill="#a7ff21" stroke="none" /><path d="M 82.85270091963577 112.12312394758628 l -24.406430249578616 17.255322698172467 a50.89013213329128,50.89013213329128 0 0,0 -0.49954503201694317,-0.7196318764494444 l 24.699836188757693 -16.832649559536012" fill="#a7ff21" stroke="none" /><path d="M 82.44556493220864 111.52570212397912 l -26.99986924556592 17.727283681247545 a53.299373461308534,53.299373461308534 0 0,0 -0.49694086232260815,-0.7712632539338884 l 27.301014971265573 -17.25989882739221" fill="#8aff24" stroke="none" /><path d="M 82.24976979558568 111.22182372390057 l -12.800750422696979 8.092726861729785 a36.14435338476819,36.14435338476819 0 0,0 -0.3279417807683593,-0.5287465695348151 l 12.938156843133292 -7.871183960829705" fill="#ff980e" stroke="none" /><path d="M 82.05923443525364 110.91462005526583 l -23.464359720953784 14.275007957159854 a48.46546976280026,48.46546976280026 0 0,0 -0.42746342230188983,-0.7164532834280813 l 23.706604018953904 -13.868992579845662" fill="#c4ff1e" stroke="none" /><line stroke="#e1ed5e" stroke-width="0.3" x1="26.63291911575756" x2="22.317208475507996" y1="142.92168965132927" y2="145.44649492493687" /><path d="M 25.769776987707644 143.4266507060508 a86.0,86.0 0 0,1 -11.730757126820373,-40.83630448921669" fill="none" id="id45" stroke="none" /><text fill="#e1ed5e" style="font-size:6.75px; font-family:Arial;" text-anchor="middle"><textPath startOffset="21.46611528233685" xlink:href="#id45">September</textPath></text><path d="M 81.87401531095188 110.60418214915194 l -30.877151650877334 18.06395326763819 a56.772963278524934,56.772963278524934 0 0,0 -0.4862144818170047,-0.8477559321885966 l 31.183518128846718 -17.529777489591286" fill="#63ff29" stroke="none" /><path d="M 81.69416730710424 110.29060199501025 l -26.03189246235697 14.633797271127959 a50.86314530896218,50.86314530896218 0 0,0 -0.42246344911325884,-0.7668938729444248 l 26.27993232092175 -14.183532879785712" fill="#a7ff21" stroke="none" /><path d="M 81.51974371655577 109.97397251340807 l -34.6598430134291 18.706251484438383 a60.38563903651435,60.38563903651435 0 0,0 -0.4858096311645955,-0.9189687400237652 l 34.976705152818575 -18.10686772932849" fill="#3cff2e" stroke="none" /><path d="M 81.35079622478065 109.6543875284942 l -11.353754157046298 5.877652679254272 a33.78493388628158,33.78493388628158 0 0,0 -0.2629132779466271,-0.5187528399778445 l 11.453246104779192 -5.681345627573743" fill="#ff760a" stroke="none" /><path d="M 81.18737489456691 109.33194174019688 l -4.401068752099746 2.1831358972509713 a25.912788261931773,25.912788261931773 0 0,0 -0.1947737732942032,-0.4012916630720641 l 4.4379957820086675 -2.1070552782136227" fill="#ff0000" stroke="none" /><path d="M 80.87730276802145 108.67885076344099 l -16.360290811934213 7.4251304970633045 a38.96640415746786,38.96640415746786 0 0,0 -0.27194637739243027,-0.6131672892730089 l 16.48567827405792 -7.1424148712976" fill="#ffbf11" stroke="none" /><path d="M 80.73074385275274 108.34839909993369 l -27.379347427869398 11.86209356899591 a50.83853095270598,50.83853095270598 0 0,0 -0.3409789143958661,-0.805973430088824 l 27.57947732345757 -11.389045613240928" fill="#a7ff21" stroke="none" /><path d="M 80.58989483394504 108.01547362559985 l -31.31335304998356 12.93096319437681 a54.878250963815155,54.878250963815155 0 0,0 -0.35304324949230553,-0.8762243923737332 l 31.531298913733252 -12.39003943416027" fill="#78ff26" stroke="none" /><path d="M 80.45479744820244 107.68017299344265 l -30.06566403539221 11.814126783418912 a53.30352528043608,53.30352528043608 0 0,0 -0.3282119398377327,-0.8568578066375339 l 30.26457025482345 -11.29484540994822" fill="#8aff24" stroke="none" /><path d="M 80.32549172779594 107.34259656027581 l -11.152780869922044 4.162257542603662 a32.9041551142221,32.9041551142221 0 0,0 -0.19346975565368088,-0.5323456756052093 l 11.22277488658095 -3.969664069992335" fill="#ff6909" stroke="none" /><path d="M 80.20201598880116 107.00284435728193 l -41.95910382535087 14.841565347954454 a65.50661137184201,65.50661137184201 0 0,0 -0.3668656252936762,-1.0662832330960323 l 42.20836028158778 -14.117109411769125" fill="#34ff60" stroke="none" /><path d="M 80.0844068197444 106.66101706037122 l -28.348059160182032 9.481359856335537 a50.89161492583683,50.89161492583683 0 0,0 -0.27071370216728957,-0.8331711044480353 l 28.50706511336557 -8.991989851909699" fill="#a7ff21" stroke="none" /><path d="M 79.97269907076064 106.31721596034903 l -28.40072396070298 8.958446638612232 a50.78010892641112,50.78010892641112 0 0,0 -0.2557702863636554,-0.8358720946061577 l 28.550721019572766 -8.468247571454027" fill="#a8ff21" stroke="none" /><path d="M 79.86692584326677 105.97154293290107 l -28.478220458324483 8.446743641612853 a50.70448650658783,50.70448650658783 0 0,0 -0.2409848141079356,-0.8388997521472392 l 28.619397909318522 -7.9552864139610175" fill="#a9ff21" stroke="none" /><path d="M 79.76711848015287 105.62410040840567 l -28.60082575900399 7.950123944242283 a50.68521020349562,50.68521020349562 0 0,0 -0.2264227176291154,-0.8426031636163814 l 28.73343655297488 -7.456629847450363" fill="#a9ff21" stroke="none" /><path d="M 79.67330655649465 105.27499134158121 l -43.08393649396204 11.18073594205257 a65.51105974947868,65.51105974947868 0 0,0 -0.273863325454506,-1.0939478507483926 l 43.270011133711606 -10.437460251906785" fill="#34ff61" stroke="none" /><path d="M 79.58551787078972 104.9243191809786 l -12.116248886866925 2.922644641067733 a33.46376102091443,33.46376102091443 0 0,0 -0.1302528041754616,-0.5611256713552879 l 12.164762256972942 -2.713650312363871" fill="#ff720a" stroke="none" /><path d="M 79.50377843672027 104.57218783832718 l -41.754646275492604 9.314403891714745 a63.78093740732546,63.78093740732546 0 0,0 -0.22981171142769316,-1.0736038075320096 l 41.908792025644736 -8.594286264766572" fill="#32ff4b" stroke="none" /><path d="M 79.4281124754447 104.21870165774334 l -42.78614060885986 8.77420519140908 a64.67654410484049,64.67654410484049 0 0,0 -0.21426435753695322,-1.0925293429464833 l 42.93083489937248 -8.036412121394642" fill="#33ff56" stroke="none" /><path d="M 79.35854240842038 103.8639653848113 l -43.867700577658326 8.211788135179203 a65.62968315312304,65.62968315312304 0 0,0 -0.1983065182960699,-1.112208268072228 l 44.00255353829358 -7.455461116373762" fill="#35ff62" stroke="none" /><path d="M 79.29508885075956 103.50808413554451 l -29.409010694489456 4.982841177909719 a50.828151404887095,50.828151404887095 0 0,0 -0.13873240321842012,-0.8638868072715364 l 29.490424852069168 -4.475875140944968" fill="#a7ff21" stroke="none" /><path d="M 79.23777060512086 103.15116336523772 l -38.58551218378376 5.856271506780593 a60.027396357508344,60.027396357508344 0 0,0 -0.14625517617307915,-1.0229083615124557 l 38.680601410973445 -5.191217673287737" fill="#40ff2d" stroke="none" /><path d="M 79.18660465613746 102.79330883721812 l -24.879432428577726 3.339000548423748 a46.10249156220432,46.10249156220432 0 0,0 -0.09878774001233874,-0.7874354860227257 l 24.933221677836915 -2.9102473081136138" fill="#e1ff1b" stroke="none" /><path d="M 79.10278846688536 102.07522291339032 l -29.538729906849234 2.933379366811857 a50.684023969459176,50.684023969459176 0 0,0 -0.07874222591933315,-0.8689139015359943 l 29.58484672904564 -2.424484076727296" fill="#a9ff21" stroke="none" /><path d="M 79.07016306316243 101.71520430193888 l -35.50240721021077 2.909429335732814 a56.62142188036924,56.62142188036924 0 0,0 -0.07124441997132647,-0.9720735065534862 l 35.54722818884643 -2.297882692682567" fill="#65ff29" stroke="none" /><path d="M 79.04373962182676 101.35467743843564 l -32.60883173302826 2.107935664346249 a53.67689244340676,53.67689244340676 0 0,0 -0.05166694615708234,-0.9225480315260057 l 32.640285030072874 -1.5463159164848055" fill="#86ff25" stroke="none" /><line stroke="#e1ed5e" stroke-width="0.3" x1="15.007084014347285" x2="10.007500721073583" y1="101.09737516637583" y2="101.16192664675087" /><path d="M 14.007167355692545 101.11028546245083 a86.0,86.0 0 0,1 10.666146001902534,-42.60595125391555" fill="none" id="id46" stroke="none" /><text fill="#e1ed5e" style="font-size:6.75px; font-family:Arial;" text-anchor="middle"><textPath startOffset="22.20632615414155" xlink:href="#id46">October</textPath></text><path d="M 79.00175016825051 100.2711162175752 l -52.86871351392817 0.6826076340081851 a73.87312003087975,73.87312003087975 0 0,0 -0.005472600622138517,-1.271639652699297 l 52.87263041183981 0.22754149689478728" fill="#40ffc3" stroke="none" /><path d="M 79.00019446554 99.90962569577889 l -9.682249102951713 -0.041668315667920675 a30.682338763962964,30.682338763962964 0 0,0 0.006818774124916923,-0.5281215705275374 l 9.68009732170908 0.20832614425593007" fill="#ff4906" stroke="none" /><path d="M 79.00486145842228 99.54816195383935 l -36.87088556259296 -0.7935012602952294 a57.87942307601782,57.87942307601782 0 0,0 0.030009944913460474,-0.9958839717706617 l 36.85176392322385 1.4280553794908855" fill="#57ff2a" stroke="none" /><path d="M 79.01574976396665 99.18683210126434 l -39.608874937727755 -1.5348971367624986 a60.638603444785986,60.638603444785986 0 0,0 0.04939560508095323,-1.0426631530382837 l 39.5765857244133 2.2164713964237914" fill="#3aff2e" stroke="none" /><path d="M 79.03285615573316 98.82574320788736 l -44.475765651364426 -2.49084807584822 a65.54546053653553,65.54546053653553 0 0,0 0.07278482866931274,-1.1259490841865292 l 44.426300231690696 3.2560562242877613" fill="#35ff61" stroke="none" /><path d="M 79.05617556472873 98.46500227214037 l -45.10774326890454 -3.3059999925341867 a66.22873134152714,66.22873134152714 0 0,0 0.0931160704208781,-1.13625191349225 l 45.044152714664165 4.081965823234215" fill="#35ff69" stroke="none" /><path d="M 79.12142395522702 97.74499172005258 l -49.18082706867827 -5.311816860340762 a70.46684899523152,70.46684899523152 0 0,0 0.1406305126828361,-1.2048363510597286 l 49.082106202991845 6.1575969497253515" fill="#3bff9c" stroke="none" /><path d="M 79.16333360222342 97.38593545837743 l -38.38869648300525 -4.816054946584109 a59.68961621563099,59.68961621563099 0 0,0 0.13667216963571122,-1.0183664123457363 l 38.3001083143117 5.476139700994505" fill="#44ff2d" stroke="none" /><path d="M 79.26566170972629 96.67025291283419 l -50.42749344072684 -8.09819908630017 a72.07360299759458,72.07360299759458 0 0,0 0.20725670088358145,-1.2232407807440786 l 50.28062487832304 8.965025655360076" fill="#3dffaf" stroke="none" /><path d="M 79.32604984820605 96.31383870115002 l -39.06666838302695 -6.965579389095333 a60.68279066264351,60.68279066264351 0 0,0 0.19220342343119723,-1.0267583734850827 l 38.940979235685894 7.637015840042988" fill="#39ff2e" stroke="none" /><path d="M 79.3925641242962 95.95851677861259 l -44.46443983229842 -8.720264307239377 a66.31147116556909,66.31147116556909 0 0,0 0.22931360595029346,-1.118214581683172 l 44.307746930433126 9.484354545085951" fill="#36ff6a" stroke="none" /><path d="M 79.46518482838121 95.60439243477599 l -48.67556495810611 -10.41931372565342 a70.778235429798,70.778235429798 0 0,0 0.2652687812579216,-1.1891479323983458 l 48.48900178984615 11.255639827601726" fill="#3bffa0" stroke="none" /><path d="M 79.54389044137918 95.25157060432595 l -43.354488151050745 -10.063777053056183 a65.50720448886022,65.50720448886022 0 0,0 0.2644220136791841,-1.0961999566711114 l 43.17483333711075 10.808562241386692" fill="#34ff60" stroke="none" /><path d="M 79.71946130924805 94.55025226153421 l -36.162666280335024 -9.717562821347407 a58.44555326991061,58.44555326991061 0 0,0 0.26944298848075426,-0.9693297890159965 l 35.99003652128791 10.338603913782347" fill="#51ff2b" stroke="none" /><path d="M 79.81627453868168 94.20196356495316 l -28.554997257998256 -8.202792632204321 a50.70982455975184,50.70982455975184 0 0,0 0.24822242491630572,-0.8368826188404096 l 28.409568935970242 8.69310463779127" fill="#a9ff21" stroke="none" /><path d="M 79.91906864156998 93.8553929516997 l -15.097209389043774 -4.619627325335205 a36.78818190804803,36.78818190804803 0 0,0 0.19050062117323804,-0.6039390281083024 l 15.015453284102332 4.878816519869922" fill="#ffa10e" stroke="none" /><path d="M 80.02781315780177 93.51064311812611 l -59.91656052659468 -19.468070645621676 a84.0,84.0 0 0,0 0.4586508249129104,-1.3713075883107113 l 59.572572407909995 20.496551336854708" fill="#4dd2ff" stroke="none" /><path d="M 80.14247586403 93.16781622104843 l -33.743498721238815 -11.609795009173201 a56.68488540131898,56.68488540131898 0 0,0 0.3253899190370479,-0.9199211185954786 l 33.538655721391955 12.18891375419529" fill="#64ff29" stroke="none" /><path d="M 80.2630227832202 92.82701384747504 l -44.5367594038519 -16.18594149313647 a68.38678761232742,68.38678761232742 0 0,0 0.41160838863390103,-1.1029058427230356 l 44.25154642671638 16.950170472888846" fill="#38ff84" stroke="none" /><line stroke="#e1ed5e" stroke-width="0.3" x1="26.266209847984243" x2="21.928928074336255" y1="57.711370442889674" y2="55.22380399835377" /><path d="M 25.398753493254645 57.213857153982495 a86.0,86.0 0 0,1 29.58750427330803,-30.492523968695096" fill="none" id="id47" stroke="none" /><text fill="#e1ed5e" style="font-size:6.75px; font-family:Arial;" text-anchor="middle"><textPath startOffset="21.46611528233685" xlink:href="#id47">November</textPath></text><line stroke="#e1ed5e" stroke-width="0.3" x1="56.762969772571076" x2="54.21961505331055" y1="26.818313649435495" y2="22.513508569990535" /><path d="M 56.25429882871897 25.957352633546506 a86.0,86.0 0 0,1 42.265352541879196,-11.944610805530505" fill="none" id="id48" stroke="none" /><text fill="#e1ed5e" style="font-size:6.75px; font-family:Arial;" text-anchor="middle"><textPath startOffset="22.20632615414155" xlink:href="#id48">December</textPath></text></svg>