<?xml version="1.0" encoding="utf-8" ?>
<svg baseProfile="full" height="200mm" version="1.1" viewBox="0,0,200,200" width="200mm" xmlns="http://www.w3.org/2000/svg" xmlns:ev="http://www.w3.org/2001/xml-events" xmlns:xlink="http://www.w3.org/1999/xlink"><defs /><rect fill="#1a1a1a" height="200" width="200" x="0" y="0" /><text alignment-baseline="middle" fill="#e1ed5e" style="dominant-baseline: central; font-size:9.0px; font-family:Arial;" text-anchor="middle" x="100.0" y="100.0">2023</text><line stroke="#e1ed5e" stroke-width="0.3" x1="100.0" x2="100.0" y1="15.0" y2="10.0" /><path d="M 100.0 14.0 a86.0,86.0 0 0,1 42.46469731375804,11.215312516191453" fill="none" id="id37" stroke="none" /><text fill="#e1ed5e" style="font-size:6.75px; font-family:Arial;" text-anchor="middle"><textPath startOffset="22.20632615414155" xlink:href="#id37">January</textPath></text><path d="M 100.0 79.0 l 0.0 -29.766510599251816 a50.766510599251816,50.766510599251816 0 0,0 0.873862027733878,0.007521606360793714 l -0.5123815484613496 29.76210036949958" fill="#a8ff21" stroke="none" /><path d="M 100.72285384407766 79.0124445844662 l 1.023274507167923 -29.710059094854206 a50.72767569348046,50.72767569348046 0 0,0 0.8724173870610162,0.03756812786556981 l -1.5345327266182707 29.68804324046444" fill="#a8ff21" stroke="none" /><path d="M 101.08401301168833 79.027996857942 l 1.5363078320370298 -29.722385555564255 a50.76206385431617,50.76206385431617 0 0,0 0.8722323389459161,0.052615436648414435 l -2.047702219822558 29.691536849535538" fill="#a8ff21" stroke="none" /><path d="M 101.80526077348638 79.07773832637324 l 2.555125910153135 -29.612903402341107 a50.72293249888243,50.72293249888243 0 0,0 0.8692337565069256,0.08254421898774657 l -3.064484793750305 29.56453363883818" fill="#a9ff21" stroke="none" /><path d="M 102.16513564639614 79.11191278185805 l 3.066318661554231 -29.582225828562514 a50.74071947862504,50.74071947862504 0 0,0 0.8679883773616556,0.09752860771287677 l -3.575073742425612 29.525061267379034" fill="#a8ff21" stroke="none" /><path d="M 103.2404852339499 79.25152402106235 l 4.581432988032152 -29.33441921148009 a50.69002658635861,50.69002658635861 0 0,0 0.8609358106380024,0.14206178553795165 l -5.085698004809029 29.251211163002512" fill="#a9ff21" stroke="none" /><path d="M 104.66035177308747 79.52364482259891 l 5.29597888714032 -23.269132886348554 a44.86419782133026,44.86419782133026 0 0,0 0.7515315284272164,0.17786323176887994 l -5.695734102530061 23.174523742438808" fill="#f1ff19" stroke="none" /><path d="M 105.01212808612495 79.60689891045804 l 8.513176735607663 -34.63799623217686 a56.668823377173375,56.668823377173375 0 0,0 0.9452659579858139,0.24096933991510486 l -9.108151582278502 34.48632389609289" fill="#64ff29" stroke="none" /><path d="M 105.71112130821622 79.79150937346287 l 8.078234157051831 -28.58439007536023 a50.70395972049032,50.70395972049032 0 0,0 0.8378461915794031,0.2445902785773532 l -8.569070566354661 28.441101467864172" fill="#a9ff21" stroke="none" /><path d="M 108.09893153111575 80.62456947434976 l 6.865732343221367 -16.425193806456225 a38.80239512505,38.80239512505 0 0,0 0.6140317207948575,0.2628963378364961 l -7.14744782180654 16.304577940656937" fill="#ffbd11" stroke="none" /><path d="M 108.43124777332544 80.76684994638697 l 11.957799702945103 -27.27783148840873 a50.78370467966967,50.78370467966967 0 0,0 0.7975892330408243,0.3578550396973144 l -12.425571054452709 27.067956118194886" fill="#a8ff21" stroke="none" /><path d="M 109.08828744355905 81.06846463323043 l 14.338380886414981 -29.86784545924052 a54.131214267228195,54.131214267228195 0 0,0 0.8365302086347811,0.41048174036627866 l -14.850382362060195 29.61660855873941" fill="#81ff25" stroke="none" /><path d="M 109.41281617654863 81.2277094730956 l 17.30768480498771 -34.51728806908987 a59.61345787356186,59.61345787356186 0 0,0 0.9133335652089549,0.4678449261681601 l -17.899278857785422 34.21425061760921" fill="#44ff2d" stroke="none" /><path d="M 109.73455568895987 81.39251694778311 l 20.944903275841806 -40.03592410258133 a66.1836717408183,66.1836717408183 0 0,0 1.0049043606430546,0.536785107413621 l -21.630952683013174 39.66946026866596" fill="#35ff69" stroke="none" /><path d="M 110.36928655335952 81.73862282372117 l 14.158273580226236 -24.934171958984784 a49.67350069406865,49.67350069406865 0 0,0 0.7399063489043074,0.4286015149356061 l -14.585376661595872 24.68676628665913" fill="#b5ff1f" stroke="none" /><line stroke="#e1ed5e" stroke-width="0.3" x1="143.23703022742887" x2="145.7803849466894" y1="26.81831364943548" y2="22.513508569990506" /><path d="M 143.74570117128098 25.957352633546492 a86.0,86.0 0 0,1 28.547481713284135,27.462654790039103" fill="none" id="id38" stroke="none" /><text fill="#e1ed5e" style="font-size:6.75px; font-family:Arial;" text-anchor="middle"><textPath startOffset="19.985693538727396" xlink:href="#id38">February</textPath></text><path d="M 110.68208982089419 81.91981866633111 l 14.87595926166923 -25.178597584637814 a50.244759193468695,50.244759193468695 0 0,0 0.7408420676218099,0.4463490564036682 l -15.307163395508677 24.918801918775532" fill="#aeff20" stroke="none" /><path d="M 111.2981086023043 82.29822771554956 l 15.523302970551866 -24.321767825032037 a49.85344563913135,49.85344563913135 0 0,0 0.7193922812822705,0.46791275094415596 l -15.939662277618417 24.05095614992835" fill="#b3ff20" stroke="none" /><path d="M 111.60114157652 82.49532879139004 l 15.900848962506986 -23.99239171339765 a49.783187069148056,49.783187069148056 0 0,0 0.7102290068284622,0.47954979580454926 l -16.31148266374199 23.715130005294434" fill="#b4ff20" stroke="none" /><path d="M 111.90073688211348 82.69761687909136 l 25.59357023601197 -37.21028050968222 a66.16232736512717,66.16232736512717 0 0,0 0.9327907078803156,0.6534795015972295 l -26.230292083475938 36.76421616532105" fill="#35ff69" stroke="none" /><path d="M 112.48926042617603 83.11751280151076 l 18.19924110051555 -24.601012743534138 a51.60101639884243,51.60101639884243 0 0,0 0.7095234264353575,0.5343983348278548 l -18.62001068070929 24.284097819200436" fill="#9eff22" stroke="none" /><path d="M 112.77801427241765 83.33499621200491 l 27.109003876590716 -35.355387986014605 a65.55223395995577,65.55223395995577 0 0,0 0.889535838817134,0.6942968317804492 l -27.71357227056728 34.88351276501093" fill="#35ff61" stroke="none" /><path d="M 113.6212207817346 84.01681056812373 l 28.902895392947688 -33.914761356386876 a65.55994165117757,65.55994165117757 0 0,0 0.8526107916806139,0.7393756767791718 l -29.482399983275066 33.412220686188036" fill="#35ff61" stroke="none" /><path d="M 113.89432698308785 84.25364557470407 l 29.63794008111647 -33.588493312486314 a65.79502623344234,65.79502623344234 0 0,0 0.842768529887123,0.7566459073060192 l -30.21171959859958 33.07334839641099" fill="#35ff64" stroke="none" /><path d="M 114.42810811169701 84.74124197986012 l 30.68041139480867 -32.44673312727661 a65.6551019928005,65.6551019928005 0 0,0 0.814488295783821,0.7835370952258047 l -31.23438293420491 31.9138129452885" fill="#35ff62" stroke="none" /><path d="M 114.68862486808459 84.99185889309783 l 31.163675157153648 -31.841567088043796 a65.55401265793003,65.55401265793003 0 0,0 0.7996471999209456,0.7962132607174417 l -31.707158157241917 31.300417976676236" fill="#35ff61" stroke="none" /><path d="M 115.19652480421416 85.50635884689758 l 32.248968507181694 -30.757359535989167 a65.56468484577559,65.56468484577559 0 0,0 0.7718920294563669,0.8234005984087124 l -32.77362785860852 30.1976895207024" fill="#35ff61" stroke="none" /><path d="M 115.4437574822437 85.77008943001954 l 32.89549775625209 -30.309980700270234 a65.73040020704421,65.73040020704421 0 0,0 0.7595190292901107,0.8386798822445025 l -33.41236042615824 29.739248030756183" fill="#35ff63" stroke="none" /><path d="M 115.68641384162765 86.03803664274999 l 28.82944598435894 -25.660145939492324 a59.59507799449451,59.59507799449451 0 0,0 0.675433973971544,0.7721377928178088 l -29.26687182190833 25.160092590471567" fill="#45ff2d" stroke="none" /><path d="M 116.15771136456269 86.58626213691792 l 34.248128763462645 -28.43196113415673 a65.51191680587252,65.51191680587252 0 0,0 0.7128367512907963,0.8738535703162853 l -34.73246400682985 27.838223394232344" fill="#34ff61" stroke="none" /><path d="M 116.38621287248628 86.86637796730983 l 34.79908371801179 -27.89161938715635 a65.59729430863703,65.59729430863703 0 0,0 0.6985984379144504,0.8871490723692373 l -35.274036236520196 27.288477920834072" fill="#35ff62" stroke="none" /><path d="M 116.82858285166822 87.43820079747576 l 33.30921476787196 -24.863868288605453 a62.565800061172155,62.565800061172155 0 0,0 0.6367928881461776,0.8685847837891448 l -33.73227026853176 24.286821061144817" fill="#31ff3b" stroke="none" /><path d="M 117.04232023915458 87.72973835380427 l 36.13807506901472 -26.018971024139763 a65.53029668493988,65.53029668493988 0 0,0 0.6512069494597335,0.9210860479423618 l -36.580594638278335 25.393058475865608" fill="#35ff61" stroke="none" /><path d="M 117.2510076193507 88.02491185347247 l 26.90796769477331 -18.678635596182854 a53.75561254499682,53.75561254499682 0 0,0 0.5211108355786794,0.7646658495119804 l -27.225502996020722 18.212691723400468" fill="#85ff25" stroke="none" /><path d="M 117.65298651832404 88.62581576622439 l 15.593007633690402 -10.046897243147178 a39.54944827423947,39.54944827423947 0 0,0 0.36380295191814654,0.5754489024666285 l -15.763638181854503 9.777000692966345" fill="#ffc712" stroke="none" /><line stroke="#e1ed5e" stroke-width="0.3" x1="172.23445277983987" x2="176.4835382374775" y1="55.19839476539836" y2="52.563006222186495" /><path d="M 173.08426987136738 54.67131705675599 a86.0,86.0 0 0,1 12.851231095245387,41.99856678651699" fill="none" id="id39" stroke="none" /><text fill="#e1ed5e" style="font-size:6.75px; font-family:Arial;" text-anchor="middle"><textPath startOffset="22.20632615414155" xlink:href="#id39">March</textPath></text><path d="M 117.84615892207809 88.93136811851018 l 25.27467558324096 -15.675982780186802 a50.7413123779498,50.7413123779498 0 0,0 0.4539757604781163,0.7462167853370151 l -25.540767142005297 15.238598221642706" fill="#a8ff21" stroke="none" /><path d="M 118.03404312379186 89.2402003453031 l 33.17028371792113 -19.790659523455908 a59.62561230971931,59.62561230971931 0 0,0 0.5182894609962962,0.8859246948398777 l -33.50603285338775 19.216755416262135" fill="#44ff2d" stroke="none" /><path d="M 118.21658344932153 89.55222093294921 l 12.941176088798295 -7.422168323698526 a35.91853280944874,35.91853280944874 0 0,0 0.3029854106276611,0.538977237485973 l -13.06701914071839 7.198307576277759" fill="#ff950d" stroke="none" /><path d="M 118.3937258080291 89.86733742301442 l 26.16130235046499 -14.411634274555144 a50.86819283344705,50.86819283344705 0 0,0 0.4158884150902947,0.7705780706586212 l -26.405498864773747 13.959175220564063" fill="#a7ff21" stroke="none" /><path d="M 118.73160827565052 90.50648371742162 l 26.64213528746054 -13.502713778343692 a50.868489283109426,50.868489283109426 0 0,0 0.38911968854849505,0.7844415477085198 l -26.870614988962444 13.042112642136221" fill="#a7ff21" stroke="none" /><path d="M 118.89224826269711 90.83032412892265 l 26.794340142436813 -13.005091340593346 a50.78370467966967,50.78370467966967 0 0,0 0.3749332046163259,0.7897049488103387 l -27.014231540894897 12.541943976142466" fill="#a8ff21" stroke="none" /><path d="M 119.196687751892 91.48605970444005 l 27.225305060732143 -12.074719598053264 a50.78281533068254,50.78281533068254 0 0,0 0.3475220163506008,0.80212872788038 l -27.429117786925424 11.60429172558628" fill="#a8ff21" stroke="none" /><path d="M 119.34039704204932 91.81776055985345 l 31.54573788338948 -13.345888407399748 a55.25268333999953,55.25268333999953 0 0,0 0.36303200201258284,0.8791107883135698 l -31.770791572288264 12.800903048632875" fill="#74ff27" stroke="none" /><path d="M 119.47837535516314 92.15188598940014 l 30.84909408000998 -12.429538041501182 a54.25898407171259,54.25898407171259 0 0,0 0.3415898891022134,0.8693090087748326 l -31.058477518993893 11.896680027830564" fill="#7fff26" stroke="none" /><path d="M 119.61058180528143 92.48833698450437 l 47.6495197255062 -18.251734628894052 a72.025508787615,72.025508787615 0 0,0 0.433509229599543,1.1615892080978876 l -47.956633543607374 17.42882228376683" fill="#3dffae" stroke="none" /><path d="M 119.85752413597 93.16781622104841 l 37.595629113517894 -12.935159772691863 a60.75864291932334,60.75864291932334 0 0,0 0.33175002018496647,0.9918903344134637 l -37.81271642747463 12.286096335356087" fill="#38ff2e" stroke="none" /><path d="M 119.97218684219823 93.5106431181261 l 19.772761011178563 -6.424559501437993 a41.7903112721455,41.7903112721455 0 0,0 0.21640319916502584,0.6860572788600143 l -19.880419694111794 6.08325205615156" fill="#ffe515" stroke="none" /><path d="M 120.37134235888165 94.90015583598534 l 15.56701651042488 -3.8971098174685195 a37.04741312377949,37.04741312377949 0 0,0 0.14954311752777885,0.6199527666910117 l -15.631792428213478 3.628571819118102" fill="#ffa50f" stroke="none" /><path d="M 120.45610955862082 95.25157060432595 l 18.52557414555493 -4.300298675679518 a40.018135190457144,40.018135190457144 0 0,0 0.1499834219619172,0.6723462718616235 l -18.596851954518886 3.9807742342679306" fill="#ffcd13" stroke="none" /><path d="M 120.53481517161879 95.60439243477599 l 20.377312177807816 -4.361893049395416 a41.83892901677528,41.83892901677528 0 0,0 0.14468440396955654,0.7055325373757684 l -20.449375877692372 4.010484855856236" fill="#ffe615" stroke="none" /><path d="M 120.6074358757038 95.95851677861258 l 29.233051178226454 -5.733119178890921 a50.78993012257958,50.78993012257958 0 0,0 0.1608693064177244,0.8593702674617653 l -29.327406208554038 5.229070833966593" fill="#a8ff21" stroke="none" /><path d="M 120.73433829027371 96.67025291283417 l 32.75891783799874 -5.260785742120788 a54.17864621320848,54.17864621320848 0 0,0 0.1399462980239882,0.9220712498093366 l -32.84462002946203 4.696115379919369" fill="#80ff25" stroke="none" /><path d="M 120.83666639777658 97.38593545837742 l 62.185852572568606 -7.801527801868862 a83.67331247206079,83.67331247206079 0 0,0 0.166986618510689,1.43063937039022 l -62.31092954408288 6.729944693153789" fill="#4dd5ff" stroke="none" /><path d="M 120.94382443527127 98.46500227214037 l 15.413468215664738 -1.1296713626780173 a36.45481024868833,36.45481024868833 0 0,0 0.040481172859313734,0.6262258267423747 l -15.430629979528467 0.8641864716826073" fill="#ff9c0e" stroke="none" /><line stroke="#e1ed5e" stroke-width="0.3" x1="184.98032266829074" x2="189.97916517819016" y1="98.17113171792111" y2="98.06355123074" /><path d="M 185.9800911702706 98.14961562048488 a86.0,86.0 0 0,1 -9.607161424134198,41.387399972396054" fill="none" id="id40" stroke="none" /><text fill="#e1ed5e" style="font-size:6.75px; font-family:Arial;" text-anchor="middle"><textPath startOffset="21.466115282336823" xlink:href="#id40">April</textPath></text><path d="M 120.99980553446 99.90962569577887 l 17.870709508042047 -0.07690799493723809 a38.87087499705903,38.87087499705903 0 0,0 -0.002879596456776871,0.6691168040650579 l -17.869385614295766 -0.2307182873315045" fill="#ffbe11" stroke="none" /><path d="M 120.99824983174949 100.27111621757518 l 29.854735854708828 0.38546560434749105 a50.85722419593911,50.85722419593911 0 0,0 -0.018836395324311264,0.8752532745265611 l -29.84367739669951 -0.899308694664167" fill="#a7ff21" stroke="none" /><path d="M 120.9904718944345 100.63252640178507 l 30.004576527189283 0.9041572253961525 a51.0181963626097,51.0181963626097 0 0,0 -0.03400694927881138,0.8775682544038996 l -29.98456744505927 -1.4205027268140582" fill="#a5ff21" stroke="none" /><path d="M 120.9764740272857 100.99374915477107 l 29.879741830787435 1.4155366698187075 a50.913253182128315,50.913253182128315 0 0,0 -0.049006792142758285,0.8750491946097914 l -29.850948687757146 -1.9296575807639222" fill="#a6ff21" stroke="none" /><path d="M 120.95626037817324 101.35467743843564 l 12.055162370805254 0.7792829534327325 a33.08032374185352,33.08032374185352 0 0,0 -0.04162361875036114,0.5679212077296131 l -12.039962193390556 -0.9866772976591157" fill="#ff6c0a" stroke="none" /><path d="M 120.92983693683757 101.71520430193887 l 29.623034342859643 2.4276135592785426 a50.722339599557685,50.722339599557685 0 0,0 -0.07880175272413611,0.8695707748666958 l -29.576857993858432 -2.9371657226938086" fill="#a9ff21" stroke="none" /><path d="M 120.89721153311464 102.0752229133903 l 26.910365345605506 2.672366439149566 a48.04273110133403,48.04273110133403 0 0,0 -0.08880515480750581,0.8222254411675893 l -26.86037788929695 -3.135188202201946" fill="#c9ff1d" stroke="none" /><path d="M 120.8583938346157 102.4346265915055 l 53.827052465994264 6.282783531423635 a75.19248053078607,75.19248053078607 0 0,0 -0.1611213399938633,1.284295608451604 l -53.71092961675355 -7.208396894162633" fill="#41ffd1" stroke="none" /><path d="M 120.81339534386255 102.79330883721812 l 5.5184413996436925 0.7406149200851322 a26.56791755876056,26.56791755876056 0 0,0 -0.0647320340193659,0.4527356951644598 l -5.504875314607726 -0.8354960872300013" fill="#ff0a01" stroke="none" /><path d="M 120.76222939487914 103.15116336523771 l 32.49201216601521 4.931437585679411 a53.86411312142672,53.86411312142672 0 0,0 -0.147018879381204,0.9154867022472367 l -32.40231153227272 -5.4900035176198525" fill="#84ff25" stroke="none" /><path d="M 120.70491114924044 103.5080841355445 l 14.63115228066741 2.478992198062536 a35.83967719925653,35.83967719925653 0 0,0 -0.10829309636704228,0.6073651949995049 l -14.586312741961178 -2.730476143795259" fill="#ff940d" stroke="none" /><path d="M 120.64145759157962 103.86396538481128 l 37.969053808152715 7.107594459249217 a59.62857680634308,59.62857680634308 0 0,0 -0.19754114690395466,1.0072580522154726 l -37.84108272827309 -7.7601162385326345" fill="#44ff2d" stroke="none" /><path d="M 120.5718875245553 104.21870165774334 l 46.58346941211959 9.552927965300704 a68.55289744253346,68.55289744253346 0 0,0 -0.24700575634352198,1.153928661186487 l -46.412129617051626 -10.35337044590336" fill="#39ff85" stroke="none" /><path d="M 120.49622156327973 104.57218783832717 l 29.009317038646543 6.471243792558457 a50.722339599557685,50.722339599557685 0 0,0 -0.19742930159743594,0.8505202640768715 l -28.893627171118553 -6.969632713983894" fill="#a9ff21" stroke="none" /><path d="M 120.41448212921028 104.9243191809786 l 31.881520035843185 7.69036312739075 a53.79592969908006,53.79592969908006 0 0,0 -0.22488923640750194,0.8983207094858191 l -31.74441948514062 -8.238011676273965" fill="#85ff25" stroke="none" /><path d="M 120.23288151984713 105.62410040840565 l 31.503086365591773 8.756860495672102 a53.69750841117098,53.69750841117098 0 0,0 -0.25520984382407014,0.8884189467376756 l -31.347683884881604 -9.29783691791436" fill="#86ff25" stroke="none" /><path d="M 120.13307415673323 105.97154293290107 l 34.28501049349518 10.169058660542401 a56.761315671834936,56.761315671834936 0 0,0 -0.2858965502575339,0.9343264681053118 l -34.104887170731516 -10.75771210119977" fill="#63ff29" stroke="none" /><path d="M 119.9155931802556 106.66101706037122 l 42.33119002740379 14.15819134314803 a65.63612921440838,65.63612921440838 0 0,0 -0.36759098176234783,1.0683914585258392 l -42.08120821469821 -14.88475550476317" fill="#35ff62" stroke="none" /><path d="M 119.79798401119884 107.00284435728193 l 36.519252402540936 12.91740818027877 a59.73648448344822,59.73648448344822 0 0,0 -0.3512384079306465,0.9664572477314571 l -36.29148973360506 -13.544113225016359" fill="#43ff2d" stroke="none" /><path d="M 119.67450827220406 107.3425965602758 l 27.89907578925493 10.412034450409577 a50.77866503540927,50.77866503540927 0 0,0 -0.31266532684207643,0.8162705058870482 l -27.715716182819346 -10.890728523129768" fill="#a8ff21" stroke="none" /><path d="M 119.54520255179757 107.68017299344265 l 11.270209942356185 4.428563060440228 a33.10907935910406,33.10907935910406 0 0,0 -0.21299762217902315,0.5286426304404783 l -11.19230970591977 -4.62190505872352" fill="#ff6c0a" stroke="none" /><path d="M 119.41010516605496 108.01547362559984 l 46.66316603222117 19.269724373898107 a71.48537750276452,71.48537750276452 0 0,0 -0.47945929906484647,1.133300153001964 l -46.32455575196401 -20.070099052566235" fill="#3cffa8" stroke="none" /><path d="M 119.26925614724726 108.34839909993367 l 41.09556611473557 17.804640954577504 a65.7867256428958,65.7867256428958 0 0,0 -0.45912529282400777,1.0352063297806704 l -40.78299973718028 -18.509395620850864" fill="#35ff64" stroke="none" /><path d="M 119.12269723197855 108.67885076344098 l 13.69340432142687 6.214762023757957 a36.03770557372421,36.03770557372421 0 0,0 -0.2612311209130244,0.5626685942351431 l -13.584398583674014 -6.449550685271931" fill="#ff960d" stroke="none" /><path d="M 118.97047184881838 109.00673069616215 l 27.015615840417823 12.826374504795023 a50.905841940568905,50.905841940568905 0 0,0 -0.3826343509335664,0.788340095474242 l -26.790828232869544 -13.289503556234541" fill="#a6ff21" stroke="none" /><path d="M 118.81262510543309 109.33194174019688 l 30.263703538195028 15.012212101088615 a54.78251417546997,54.78251417546997 0 0,0 -0.42631577804799403,0.8411614746770352 l -30.000809090360764 -15.530927787468345" fill="#79ff26" stroke="none" /><line stroke="#e1ed5e" stroke-width="0.3" x1="174.80103733775053" x2="179.2010983576182" y1="140.37084112569926" y2="142.7455964860345" /><path d="M 175.68104954172406 140.8457921977663 a86.0,86.0 0 0,1 -30.038265399797805,32.042727171017184" fill="none" id="id41" stroke="none" /><text fill="#e1ed5e" style="font-size:6.75px; font-family:Arial;" text-anchor="middle"><textPath startOffset="22.206326154141568" xlink:href="#id41">May</textPath></text><path d="M 118.12598468904814 110.60418214915192 l 7.851878213323264 4.593557162019755 a30.096854339693667,30.096854339693667 0 0,0 -0.2654530002398129,0.4449144972299725 l -7.771644337385224 -4.728033753135831" fill="#ff4006" stroke="none" /><path d="M 117.94076556474637 110.91462005526583 l 17.769981531913476 10.81072020644667 a41.80009411100393,41.80009411100393 0 0,0 -0.3792569520644379,0.6114829647703445 l -17.581259940181074 -11.114999502582288" fill="#ffe515" stroke="none" /><path d="M 117.55443506779139 111.5257021239791 l 24.882832453125665 16.337302439416494 a50.766807048914195,50.766807048914195 0 0,0 -0.4859033602402319,0.7263595953254836 l -24.597925987474714 -16.76319894894778" fill="#a8ff21" stroke="none" /><path d="M 117.35343817320211 111.8261652097733 l 24.667008210821436 16.81027767641393 a50.850405853704444,50.850405853704444 0 0,0 -0.49915507300570633,0.7190701114092316 l -24.373992230653595 -17.23238905001018" fill="#a7ff21" stroke="none" /><path d="M 117.14729908036423 112.12312394758627 l 31.598103381693154 22.339828681449347 a59.69764957767688,59.69764957767688 0 0,0 -0.6004452351659723,0.8339659152211841 l -31.20887835415158 -22.880428202121664" fill="#43ff2d" stroke="none" /><path d="M 116.93607887273984 112.41649034213515 l 26.437544668577342 19.382380095992804 a53.7814036656236,53.7814036656236 0 0,0 -0.5537915525721133,0.7418942839924606 l -26.099991849310136 -19.834587259494583" fill="#85ff25" stroke="none" /><path d="M 116.498646956653 112.99209946851258 l 25.018956140469452 19.701540837217454 a52.844919182175374,52.844919182175374 0 0,0 -0.568918555523748,0.709813373242785 l -24.676119672890852 -20.12928204403849" fill="#90ff24" stroke="none" /><path d="M 116.27256486870786 113.27417163493432 l 34.57266306522088 28.202282006999795 a65.61656353669153,65.61656353669153 0 0,0 -0.7214822378029304,0.8690718330766566 l -34.082084827524405 -28.79321509719022" fill="#35ff62" stroke="none" /><path d="M 116.0416608686014 113.55231037782055 l 29.63678257332147 25.037736386746943 a59.79725666423546,59.79725666423546 0 0,0 -0.6710319733355121,0.7805617837610894 l -29.20140809041518 -25.544175269669562" fill="#42ff2d" stroke="none" /><path d="M 115.80600337817218 113.82643327865902 l 21.308930597164732 18.640164758420095 a49.31123920664424,49.31123920664424 0 0,0 -0.5643580931519446,0.6340623003752784 l -20.98491365436445 -19.00420122853624" fill="#b9ff1f" stroke="none" /><path d="M 115.32070863581623 114.36230785411682 l 16.16433347385742 15.153158977608694 a43.156351316377666,43.156351316377666 0 0,0 -0.5127250914201918,0.5375902085061689 l -15.901101831058261 -15.42915630269737" fill="#fff717" stroke="none" /><path d="M 115.07121518719521 114.62390073753431 l 25.562948222551984 24.804238591387293 a56.619019833894086,56.619019833894086 0 0,0 -0.6847109946182846,0.6936086225603115 l -25.132196602878164 -25.24058770792827" fill="#65ff29" stroke="none" /><path d="M 114.55890576462653 115.13401014063108 l 27.177948575432556 28.251529063502893 a60.20191045337976,60.20191045337976 0 0,0 -0.752994503681729,0.7120033027782463 l -26.68761823736002 -28.715167003027062" fill="#3eff2d" stroke="none" /><path d="M 114.29624159901734 115.38237550388516 l 24.345756427393702 26.1953860179613 a56.76190857115968,56.76190857115968 0 0,0 -0.7214180462268188,0.6589982805714174 l -23.89123883170002 -26.6105770651193" fill="#63ff29" stroke="none" /><path d="M 114.0293411484842 115.62618273729858 l 24.439433777454504 27.221168418438026 a57.5824812366186,57.5824812366186 0 0,0 -0.7432462798951619,0.6558284262443126 l -23.967245144652754 -27.637819986454627" fill="#5aff2a" stroke="none" /><path d="M 113.48314897796784 116.09983520530334 l 24.794046328014527 29.605848055670904 a59.61671881984801,59.61671881984801 0 0,0 -0.7924193838462604,0.6521072052684859 l -24.280756815623576 -30.02825037979657" fill="#44ff2d" stroke="none" /><path d="M 113.20401910651253 116.32954008644616 l 24.318595310016285 30.075045617368723 a59.6768981013105,59.6768981013105 0 0,0 -0.8043380412117178,0.6390147857312676 l -23.797299776087215 -30.489194317105117" fill="#44ff2d" stroke="none" /><path d="M 112.34349029814194 116.9893568818739 l 35.093870402598654 48.3025687414952 a80.70525845234454,80.70525845234454 0 0,0 -1.130921526734182,0.8068824814959552 l -34.257221548015586 -48.89949548483537" fill="#49f3ff" stroke="none" /><path d="M 112.04921762599082 117.19931262002967 l 5.162711150517471 7.369365032724382 a29.997840152459826,29.997840152459826 0 0,0 -0.4254595316949236,0.29263494544690494 l -5.035094734199664 -7.457140767536381" fill="#ff3f05" stroke="none" /><path d="M 111.7513745106137 117.40417183066458 l 16.62964785285468 24.62905496315513 a50.71759640495965,50.71759640495965 0 0,0 -0.7277378579004466,0.4823049698839179 l -16.203235296214274 -24.91165795413037" fill="#a9ff21" stroke="none" /><path d="M 111.45004920935366 117.60387380957326 l 24.281011583593276 37.33083204019616 a65.5326682822389,65.5326682822389 0 0,0 -0.9509045993342912,0.6069123057890999 l -23.634825182212055 -37.743258774809064" fill="#35ff61" stroke="none" /><line stroke="#e1ed5e" stroke-width="0.3" x1="143.8653032363475" x2="146.44561519142675" y1="172.8068346515853" y2="177.08958963109032" /><path d="M 144.38136562736335 173.6633856474863 a86.0,86.0 0 0,1 -40.68145358897372,12.25698825130547" fill="none" id="id42" stroke="none" /><text fill="#e1ed5e" style="font-size:6.75px; font-family:Arial;" text-anchor="middle"><textPath startOffset="21.466115282336833" xlink:href="#id42">June</textPath></text><path d="M 110.8373102113329 117.98757091392108 l 14.543663674192828 24.139309163097764 a49.18198715384796,49.18198715384796 0 0,0 -0.7289054556641363,0.43065019120381115 l -14.125990347500311 -24.386077926595323" fill="#bbff1f" stroke="none" /><path d="M 110.5260780823613 118.17145234162733 l 13.397736219344848 23.128873193852 a47.729087358539395,47.729087358539395 0 0,0 -0.7144617840420318,0.4056900472862334 l -12.997625668381616 -23.356066406932865" fill="#cdff1d" stroke="none" /><path d="M 110.21172684928248 118.3499491758327 l 17.39076086917051 31.25030494727357 a56.76339081947157,56.76339081947157 0 0,0 -0.8578764460516594,0.46778263900586553 l -16.850261611250204 -31.545028238039205" fill="#63ff29" stroke="none" /><path d="M 109.89434966115114 118.52300852407294 l 13.990414410176356 26.191167105454777 a50.69358398230713,50.69358398230713 0 0,0 -0.7732198158604807,0.40451206303285736 l -13.537503691789379 -26.42810858743235" fill="#a9ff21" stroke="none" /><path d="M 109.2508944713604 118.85261126421891 l 19.610294355106706 39.96427128190621 a65.51636355080818,65.51636355080818 0 0,0 -1.0167120438047466,0.4880835665154304 l -18.919469643301724 -40.295909124921195" fill="#34ff61" stroke="none" /><path d="M 108.92500713936063 119.00905698771935 l 15.243172205670446 32.46589325999877 a56.86625885231631,56.86625885231631 0 0,0 -0.8896374282838192,0.4083889093647 l -14.682066781619207 -32.72346923969754" fill="#62ff29" stroke="none" /><path d="M 108.2653958097858 119.30500536409082 l 11.746962622993276 27.43669893947117 a50.845662659106424,50.845662659106424 0 0,0 -0.8075466503607717,0.3375545653447751 l -11.272944513135043 -27.63483854783592" fill="#a7ff21" stroke="none" /><path d="M 107.93186726928326 119.44442032107085 l 11.239465064905282 27.552766011647876 a50.75702421005576,50.75702421005576 0 0,0 -0.8118197464281177,0.3230398311538814 l -10.763524242435297 -27.742152687207824" fill="#a8ff21" stroke="none" /><path d="M 107.2578585660854 119.70592522655815 l 6.166763511763135 16.743475991736695 a38.84300872879561,38.84300872879561 0 0,0 -0.6294055274617912,0.22568242897174498 l -5.877638423671609 -16.8471459617484" fill="#ffbd11" stroke="none" /><path d="M 106.91757812671514 119.82793768551818 l 9.778193534351555 28.0273541584308 a50.684097593111076,50.684097593111076 0 0,0 -0.8262238411850175,0.2802999860108548 l -9.294299960229312 -28.191517131339776" fill="#a9ff21" stroke="none" /><path d="M 106.57524785965236 119.94407469862006 l 12.076872206941193 36.631629189056625 a59.571065571841984,59.571065571841984 0 0,0 -0.9766212536463404,0.31268328473486195 l -11.444529608203911 -36.834085320451194" fill="#45ff2d" stroke="none" /><path d="M 105.88484417918355 120.15858648285463 l 8.31847778548601 28.495020214399208 a50.68439404277345,50.68439404277345 0 0,0 -0.8395962357612132,0.23727828272623977 l -7.826750381620191 -28.633987290463967" fill="#a9ff21" stroke="none" /><path d="M 105.53697534728816 120.25689768951611 l 7.855280076019553 28.738362525012207 a50.792598169540966,50.792598169540966 0 0,0 -0.8453570711757052,0.2232664858283608 l -7.35943256203235 -28.86932036014415" fill="#a8ff21" stroke="none" /><path d="M 105.18746579009965 120.34920634021253 l 8.088360418531686 31.728732635660837 a53.74345810883938,53.74345810883938 0 0,0 -0.8984030683642332,0.22080561616587166 l -7.541004065424241 -31.863259510140736" fill="#85ff25" stroke="none" /><path d="M 104.48393922423573 120.51570834832081 l 7.604582845358531 34.79382658060251 a56.61516598828318,56.61516598828318 0 0,0 -0.9538537685356027,0.19988933134311135 l -7.004537615393551 -34.91957189267217" fill="#65ff29" stroke="none" /><path d="M 104.13013068566511 120.58985236759428 l 5.862078342604225 29.22409406085309 a50.8062348540103,50.8062348540103 0 0,0 -0.8589456549928329,0.16461897908726514 l -5.358165073039688 -29.320670238288823" fill="#a8ff21" stroke="none" /><path d="M 103.7750983002368 120.6578951692458 l 9.067643472934993 49.61948362622415 a71.44120650307036,71.44120650307036 0 0,0 -1.2116123416831517,0.2106543361354502 l -8.212182159779791 -49.76821654088061" fill="#3cffa7" stroke="none" /><path d="M 103.06178313531738 120.77559828337769 l 4.7728028993354075 32.38564958391617 a53.7354539679552,53.7354539679552 0 0,0 -0.9162442716914734,0.12698310721962047 l -4.214630036457104 -32.463007256628394" fill="#85ff25" stroke="none" /><path d="M 102.70371172650421 120.8252237178851 l 2.101341827368642 16.185495381670208 a37.321332611815635,37.321332611815635 0 0,0 -0.6377906099789922,0.07722756075770315 l -1.8224237943382695 -16.21926847115326" fill="#ffa80f" stroke="none" /><path d="M 102.34483914955558 120.86867818915974 l 4.996571253047317 44.46865259342564 a65.74848363644918,65.74848363644918 0 0,0 -1.1257624542036693,0.11668988134317596 l -4.230376202238045 -44.54807184322458" fill="#35ff63" stroke="none" /><path d="M 101.62511606390274 120.93702456842531 l 2.3356201870438316 30.090735255678133 a51.18124367691692,51.18124367691692 0 0,0 -0.8789458295021022,0.06061725047430172 l -1.8173115967627989 -30.12648085066872" fill="#a3ff21" stroke="none" /><path d="M 101.26447882468166 120.96189622390904 l 1.9776421447705732 32.784360321056475 a53.843954544385106,53.843954544385106 0 0,0 -0.9256338111583462,0.04784469507073541 l -1.4130202651987473 -32.81354482288941" fill="#84ff25" stroke="none" /><path d="M 100.90346689309514 120.98055641714683 l 1.3030304035035374 30.25933003511244 a51.28737265604781,51.28737265604781 0 0,0 -0.8823373312718098,0.030389481721678508 l -0.7819727205570752 -30.277276315260213" fill="#a2ff22" stroke="none" /><line stroke="#e1ed5e" stroke-width="0.3" x1="102.19456741930631" x2="102.32365962044197" y1="184.97166512339345" y2="189.96999836594603" /><path d="M 102.22038585953345 185.97133177190398 a86.0,86.0 0 0,1 -42.740103519485714,-10.115201625700543" fill="none" id="id43" stroke="none" /><text fill="#e1ed5e" style="font-size:6.75px; font-family:Arial;" text-anchor="middle"><textPath startOffset="22.20632615414155" xlink:href="#id43">July</textPath></text><path d="M 100.54218724476979 120.99299961872073 l 0.5386792219875984 20.85717215018562 a41.864127238077316,41.864127238077316 0 0,0 -0.7205420538715939,0.012404784901289859 l -0.17957747822333658 -20.863354412366068" fill="#ffe615" stroke="none" /><path d="M 100.18074693466247 120.99922214144158 l 0.38418302527151965 44.6344758527358 a65.63612921440838,65.63612921440838 0 0,0 -1.1298599198679196,0.0 l 0.3841830252714889 -44.6344758527358" fill="#35ff62" stroke="none" /><path d="M 99.45781275523022 120.99299961872073 l -0.7717394991902258 29.881055241591586 a50.891019457450064,50.891019457450064 0 0,0 -0.8755185529764979,-0.03015462921003021 l 1.2859784038413666 -29.86334381395546" fill="#a7ff21" stroke="none" /><path d="M 99.09653310690486 120.98055641714683 l -1.7871439436504164 41.501547673614084 a62.54000894054537,62.54000894054537 0 0,0 -1.0751280680506645,-0.05557184056781894 l 2.50126008011457 -41.46463602628407" fill="#31ff3b" stroke="none" /><path d="M 98.73552117531835 120.96189622390904 l -1.7855739309469443 29.600349733061353 a50.65415617721102,50.65415617721102 0 0,0 -0.8698940494677281,-0.05999298672656564 l 2.2948307411936026 -29.5652284018185" fill="#a9ff21" stroke="none" /><path d="M 98.37488393609728 120.93702456842531 l -3.214933274778709 41.4192798010021 a62.54386278615627,62.54386278615627 0 0,0 -1.0726441701346434,-0.09255225245049924 l 3.927421762654894 -41.357803296272934" fill="#31ff3b" stroke="none" /><path d="M 98.01472825383883 120.90594882070398 l -2.8258278536175463 29.757443835123215 a50.89131590711244,50.89131590711244 0 0,0 -0.8713742055259469,-0.09032149923692716 l 3.3376346557490866 -29.704392967430525" fill="#a7ff21" stroke="none" /><path d="M 97.65516085044442 120.86867818915974 l -5.196105738521571 46.24447630644717 a67.53548220125639,67.53548220125639 0 0,0 -1.1541253587158051,-0.1397485081587727 l 5.991358520288766 -46.148182269563044" fill="#37ff79" stroke="none" /><path d="M 96.93821686468263 120.77559828337769 l -4.33422802028122 29.409718532723073 a50.72737924381808,50.72737924381808 0 0,0 -0.8627619332867389,-0.13474567038406982 l 4.839825817176475 -29.3307545549919" fill="#a8ff21" stroke="none" /><path d="M 96.58105272829116 120.7198165907248 l -4.840211929848621 29.3330945102806 a50.729750841117095,50.729750841117095 0 0,0 -0.8603549018585949,-0.14958372777891205 l 5.344415803179267 -29.24543220398068" fill="#a8ff21" stroke="none" /><path d="M 96.22490169976321 120.6578951692458 l -6.863550247522727 37.55836013416709 a59.180344916829405,59.180344916829405 0 0,0 -1.0005209060138955,-0.19175221289738406 l 7.509038768108318 -37.43465072292123" fill="#49ff2c" stroke="none" /><path d="M 95.51606077576429 120.51570834832081 l -9.52954450568694 43.60125014949108 a65.63049667082323,65.63049667082323 0 0,0 -1.101591793419238,-0.2507187057072474 l 10.27865644849904 -43.430754710206145" fill="#35ff62" stroke="none" /><path d="M 95.16358092515715 120.4354850818985 l -4.339839237122827 18.33726949953008 a39.8438227889796,39.8438227889796 0 0,0 -0.6660496720640429,-0.16369880448533036 l 4.65484219393008 -18.25984943673072" fill="#ffcb12" stroke="none" /><path d="M 94.81253420990036 120.34920634021253 l -11.03153296028017 43.27410522610596 a65.65806648942427,65.65806648942427 0 0,0 -1.0927677021224986,-0.28860988214164174 l 11.774791105214158 -43.07780399466074" fill="#35ff62" stroke="none" /><path d="M 94.11515582081647 120.15858648285463 l -8.319890048399849 28.499857933669034 a50.689433687033855,50.689433687033855 0 0,0 -0.8354705490730503,-0.25172042296629166 l 8.809235571913144 -28.352422141597017" fill="#a9ff21" stroke="none" /><path d="M 93.76903079525671 120.05430185196036 l -8.798152559610985 28.31675159551772 a50.652081029574376,50.652081029574376 0 0,0 -0.8304014440574553,-0.2658683191738982 l 9.284275348759381 -28.161110429684115" fill="#a9ff21" stroke="none" /><path d="M 93.08242187328487 119.8279376855182 l -15.717841634193725 45.052239203495276 a68.71535185751594,68.71535185751594 0 0,0 -1.1134519105504026,-0.39924424040190587 l 16.491013105373852 -44.775007422053406" fill="#39ff87" stroke="none" /><path d="M 92.7421414339146 119.70592522655815 l -21.75984650669999 59.080499337105316 a83.9602757452415,83.9602757452415 0 0,0 -1.351879500125918,-0.5111651512170822 l 22.773596227586193 -58.697185935781604" fill="#4dd2ff" stroke="none" /><path d="M 92.06813273071674 119.44442032107085 l -10.174729034079952 24.94263976879825 a47.93808437051502,47.93808437051502 0 0,0 -0.7613675864088281,-0.3182517128676308 l 10.602568079986241 -24.763803012910646" fill="#caff1d" stroke="none" /><path d="M 91.40352486487194 119.15986991738527 l -8.977727179212385 20.009606519372692 a42.9313460226337,42.9313460226337 0 0,0 -0.6716343406294416,-0.3083143841988082 l 9.320829515609246 -19.85210506483981" fill="#fff417" stroke="none" /><path d="M 90.10565033884886 118.52300852407294 l -15.476277879041971 28.972821548845904 a53.84721549067125,53.84721549067125 0 0,0 -0.8138037067206011,-0.44375066749366704 l 15.972704397631214 -28.70213022959247" fill="#84ff25" stroke="none" /><line stroke="#e1ed5e" stroke-width="0.3" x1="58.666819895761336" x2="56.23545636021788" y1="174.27360380694188" y2="178.64263932499728" /><path d="M 58.180547188652646 175.14741091055294 a86.0,86.0 0 0,1 -31.652253787137756,-30.449443065178592" fill="none" id="id44" stroke="none" /><text fill="#e1ed5e" style="font-size:6.75px; font-family:Arial;" text-anchor="middle"><textPath startOffset="22.20632615414155" xlink:href="#id44">August</textPath></text><path d="M 89.7882731507175 118.34994917583269 l -17.342036350782767 31.162749487826964 a56.66319083358822,56.66319083358822 0 0,0 -0.848197328986543,-0.4816285799890505 l 17.875882446690518 -30.85961774204328" fill="#64ff29" stroke="none" /><path d="M 89.1626897886671 117.98757091392108 l -15.410944265041179 25.578805756434967 a50.86256028986189,50.86256028986189 0 0,0 -0.7460345959035449,-0.45827538159422954 l 15.848958060877033 -25.30974190801236" fill="#a7ff21" stroke="none" /><path d="M 88.8546689885994 117.79835938074946 l -4.544771403364247 7.257700525689887 a29.563244947415477,29.563244947415477 0 0,0 -0.428974225048659,-0.2737916466390421 l 4.669027430459829 -7.178394450227041" fill="#ff3805" stroke="none" /><path d="M 88.54995079064634 117.60387380957326 l -16.23976510994009 24.9678207023735 a50.7845940286568,50.7845940286568 0 0,0 -0.7286991950025594,-0.48294209169508456 l 16.66713900368261 -24.6845805895871" fill="#a8ff21" stroke="none" /><path d="M 88.24862548938628 117.40417183066458 l -17.775782193872928 26.326517587130777 a52.76576712232078,52.76576712232078 0 0,0 -0.7483771649988139,-0.5147406381535017 l 18.226316243494633 -26.016636159612176" fill="#90ff24" stroke="none" /><path d="M 87.65650970185807 116.9893568818739 l -15.510577306055657 21.348478180125493 a47.388170246806105,47.388170246806105 0 0,0 -0.6557959284802699,-0.48514215002330985 l 15.87575820495449 -21.078326081362416" fill="#d1ff1c" stroke="none" /><path d="M 87.36589467227662 116.77436683061367 l -12.880884007888907 17.102016157550008 a42.41018751617533,42.41018751617533 0 0,0 -0.5793459246473748,-0.44421775044203415 l 13.17335866102977 -16.877759065280607" fill="#ffed16" stroke="none" /><path d="M 86.79598089348748 116.32954008644616 l -28.0679613923281 34.71192346842203 a65.63998306001929,65.63998306001929 0 0,0 -0.8724800016129519,-0.7179916431913524 l 28.661311522485743 -34.2236367063735" fill="#35ff62" stroke="none" /><path d="M 86.51685102203217 116.09983520530335 l -28.641516484577238 34.20000002856697 a65.6091522951321,65.6091522951321 0 0,0 -0.8595877547097375,-0.7325593329217306 l 29.225969715864032 -33.70191630542229" fill="#35ff62" stroke="none" /><path d="M 86.24171649860922 115.8653595955263 l -21.204841555631518 24.45235529651976 a53.366077688633744,53.366077688633744 0 0,0 -0.6888230215659671,-0.6078062284525416 l 21.62260693010407 -24.083725926294928" fill="#8aff24" stroke="none" /><path d="M 85.70375840098266 115.38237550388516 l -25.51789822266123 27.45657939621553 a58.48368821024399,58.48368821024399 0 0,0 -0.7315032935948264,-0.6916820222273797 l 25.986737350646873 -27.01326273724222" fill="#50ff2b" stroke="none" /><path d="M 85.44109423537348 115.13401014063109 l -20.696575700201212 21.514129673413628 a50.85307390066584,50.85307390066584 0 0,0 -0.625614003051156,-0.6122949762787769 l 21.06383965562816 -21.15468459421228" fill="#a7ff21" stroke="none" /><path d="M 85.18274418774928 114.88116024355367 l -19.36537906890992 19.448898821288175 a48.445902642166445,48.445902642166445 0 0,0 -0.58587100731548,-0.5934842372564072 l 19.69729070128093 -19.1126740900511" fill="#c4ff1e" stroke="none" /><path d="M 84.43433777217949 114.09645910891817 l -28.754524044880476 26.040457929930103 a59.79340281862457,59.79340281862457 0 0,0 -0.6843245341365962,-0.7688458685770502 l 29.198507428665412 -25.541637891612186" fill="#42ff2d" stroke="none" /><path d="M 84.19399662182784 113.82643327865904 l -22.377489760208267 19.574895798179625 a50.730936639766604,50.730936639766604 0 0,0 -0.5692916769357728,-0.6622148339974014 l 22.711123946714817 -19.186803865020696" fill="#a8ff21" stroke="none" /><path d="M 83.95833913139862 113.55231037782056 l -22.898175381354232 19.34482859323395 a50.97580406088982,50.97580406088982 0 0,0 -0.5605008126810843,-0.6751593361481488 l 23.227772193928853 -18.94780799997204" fill="#a6ff21" stroke="none" /><path d="M 83.50135304334701 112.99209946851258 l -25.460778128707027 20.049459986808344 a53.40728419170411,53.40728419170411 0 0,0 -0.5625393892429605,-0.7271579916693147 l 25.802124335168056 -19.608224001025775" fill="#89ff24" stroke="none" /><path d="M 83.28015986056508 112.70617746262583 l -23.640578618438255 17.965565743452515 a50.69239818365762,50.69239818365762 0 0,0 -0.521983808162976,-0.6992826124091125 l 23.946323693296314 -17.555970251534095" fill="#a9ff21" stroke="none" /><path d="M 83.06392112726016 112.41649034213515 l -24.08355601957379 17.65658054430946 a50.86256028986189,50.86256028986189 0 0,0 -0.51158097832061,-0.7105412347505188 l 24.383916790270007 -17.239405704107803" fill="#a7ff21" stroke="none" /><path d="M 82.85270091963577 112.12312394758628 l -24.39747228633147 17.248989426777708 a50.87916147095499,50.87916147095499 0 0,0 -0.499437342379713,-0.7194767414951416 l 24.690770535873316 -16.82647142309555" fill="#a7ff21" stroke="none" /><path d="M 82.44556493220864 111.52570212397912 l -26.98995940484336 17.72077718463725 a53.2875185281039,53.2875185281039 0 0,0 -0.49683033192896736,-0.7710917083083998 l 27.290994600149375 -17.2535638764074" fill="#8aff24" stroke="none" /><path d="M 82.24976979558568 111.22182372390057 l -12.79605212595101 8.089756564596808 a36.13879490859469,36.13879490859469 0 0,0 -0.3278913480892824,-0.5286652559980286 l 12.933408113708248 -7.868294977233516" fill="#ff980e" stroke="none" /><path d="M 82.05923443525364 110.91462005526583 l -23.455747528599197 14.26976855937307 a48.455389031362486,48.455389031362486 0 0,0 -0.42737451067097426,-0.7163042624204795 l 23.697902914968402 -13.863902203066479" fill="#c4ff1e" stroke="none" /><line stroke="#e1ed5e" stroke-width="0.3" x1="26.63291911575756" x2="22.317208475507996" y1="142.92168965132927" y2="145.44649492493687" /><path d="M 25.769776987707644 143.4266507060508 a86.0,86.0 0 0,1 -11.730757126820373,-40.83630448921669" fill="none" id="id45" stroke="none" /><text fill="#e1ed5e" style="font-size:6.75px; font-family:Arial;" text-anchor="middle"><textPath startOffset="21.46611528233685" xlink:href="#id45">September</textPath></text><path d="M 81.87401531095188 110.60418214915194 l -30.865818719890022 18.057323202208096 a56.75983342352305,56.75983342352305 0 0,0 -0.48610203523543816,-0.8475598720954847 l 31.172072751277838 -17.523343484254305" fill="#63ff29" stroke="none" /><path d="M 81.69416730710424 110.29060199501025 l -26.022337900975124 14.628426185853284 a50.852184551678704,50.852184551678704 0 0,0 -0.4223724103208534,-0.766728611092204 l 26.270286720747496 -14.178327056363257" fill="#a7ff21" stroke="none" /><path d="M 81.51974371655577 109.97397251340807 l -34.64712171020322 18.699385674421272 a60.3711832105969,60.3711832105969 0 0,0 -0.48569333232981976,-0.9187487464567297 l 34.963867550757925 -18.100221912878418" fill="#3cff2e" stroke="none" /><path d="M 81.35079622478065 109.6543875284942 l -11.349586955558173 5.875495387256147 a33.78024139472508,33.78024139472508 0 0,0 -0.26287676112699954,-0.5186807888283677 l 11.44904238647144 -5.679260386725095" fill="#ff760a" stroke="none" /><path d="M 81.18737489456691 109.33194174019688 l -4.39945341500512 2.182334614518055 a25.910985106933627,25.910985106933627 0 0,0 -0.19476021985876146,-0.40126373898065915 l 4.436366891478601 -2.106281919572111" fill="#ff0000" stroke="none" /><path d="M 80.87730276802145 108.67885076344099 l -16.35428604670197 7.42240522977031 a38.95980989577207,38.95980989577207 0 0,0 -0.271900356066662,-0.6130635233326767 l 16.47962748749991 -7.139793369944938" fill="#ffbf11" stroke="none" /><path d="M 80.73074385275274 108.34839909993369 l -27.36929830616329 11.85773979021144 a50.827579229701435,50.827579229701435 0 0,0 -0.340905460136845,-0.8057998059185354 l 27.56935474749244 -11.384865458626747" fill="#a7ff21" stroke="none" /><path d="M 80.58989483394504 108.01547362559985 l -31.301860018725066 12.926217105257635 a54.86581653059784,54.86581653059784 0 0,0 -0.3529632561865508,-0.8760258555490531 l 31.519725889169006 -12.385491881865775" fill="#78ff26" stroke="none" /><path d="M 80.45479744820244 107.68017299344265 l -30.054628947070164 11.809790610023592 a53.29166882337717,53.29166882337717 0 0,0 -0.32813893470813893,-0.8566672132811557 l 30.25346216137181 -11.29069982990928" fill="#8aff24" stroke="none" /><path d="M 80.32549172779594 107.34259656027581 l -11.14868743224539 4.160729857083472 a32.89978589746606,32.89978589746606 0 0,0 -0.19344406554569135,-0.5322749874614845 l 11.218655758796306 -3.96820707261587" fill="#ff6909" stroke="none" /><path d="M 80.20201598880116 107.00284435728193 l -41.94370345314949 14.836118004956829 a65.49027598051903,65.49027598051903 0 0,0 -0.36677413996988034,-1.066017333921751 l 42.192868424062596 -14.11192796794578" fill="#34ff60" stroke="none" /><path d="M 80.0844068197444 106.66101706037122 l -28.337654489384704 9.477879885186233 a50.88064371926687,50.88064371926687 0 0,0 -0.2706553417487388,-0.832991489548639 l 28.49660208214969 -8.988689495659791" fill="#a7ff21" stroke="none" /><path d="M 79.97269907076064 106.31721596034903 l -28.390299960190386 8.955158593825692 a50.769178646213206,50.769178646213206 0 0,0 -0.2557152325058485,-0.8356921754134498 l 28.540241965202366 -8.465139445860196" fill="#a8ff21" stroke="none" /><path d="M 79.86692584326677 105.97154293290107 l -28.467768014046445 8.443643408669082 a50.69358398230713,50.69358398230713 0 0,0 -0.24093299733651935,-0.8387193711682175 l 28.608893648269067 -7.95236656199627" fill="#a9ff21" stroke="none" /><path d="M 79.76711848015287 105.62410040840567 l -28.590328314544994 7.9472059870738425 a50.674314754252634,50.674314754252634 0 0,0 -0.22637404510280087,-0.8424220350393408 l 28.72289043598957 -7.453893018858963" fill="#a9ff21" stroke="none" /><path d="M 79.67330655649465 105.27499134158121 l -43.068123271147044 11.176632243944294 a65.49472272545468,65.49472272545468 0 0,0 -0.2737950299370109,-1.0936750441049492 l 43.254129615379114 -10.433629360441953" fill="#34ff60" stroke="none" /><path d="M 79.58551787078972 104.9243191809786 l -12.111801824715196 2.9215719342846675 a33.45918641037103,33.45918641037103 0 0,0 -0.13023499817179943,-0.5610489635575376 l 12.16029738881755 -2.7126543133785557" fill="#ff720a" stroke="none" /><path d="M 79.50377843672027 104.57218783832718 l -41.7393209459418 9.310985198899868 a63.76523539514857,63.76523539514857 0 0,0 -0.22975513486363008,-1.0733395006600148 l 41.89341011952987 -8.59113187882369" fill="#32ff4b" stroke="none" /><path d="M 79.4281124754447 104.21870165774334 l -42.77043668693673 8.77098476929803 a64.66051337552642,64.66051337552642 0 0,0 -0.21421124996967567,-1.0922585486050904 l 42.915077869882076 -8.033462493624985" fill="#33ff56" stroke="none" /><path d="M 79.35854240842038 103.8639653848113 l -43.85159968762678 8.208774138639932 a65.6133025904054,65.6133025904054 0 0,0 -0.19825702282078797,-1.1119306711615782 l 43.98640315278676 -7.45272471674514" fill="#35ff62" stroke="none" /><path d="M 79.29508885075956 103.50808413554451 l -29.39821661955748 4.981012311185596 a50.81720349151825,50.81720349151825 0 0,0 -0.13870252154281504,-0.8637007340490193 l 29.479600895461584 -4.474232347443364" fill="#a7ff21" stroke="none" /><path d="M 79.23777060512086 103.15116336523772 l -38.5713500307577 5.854122062376533 a60.01307201844576,60.01307201844576 0 0,0 -0.14622027529680787,-1.0226642648651016 l 38.6664043570711 -5.189312325531031" fill="#40ff2d" stroke="none" /><path d="M 79.18660465613746 102.79330883721812 l -24.870300857961876 3.337775025318194 a46.093278121544365,46.093278121544365 0 0,0 -0.0987679975873701,-0.7872781194709804 l 24.924070364796094 -2.909179151559805" fill="#e1ff1b" stroke="none" /><path d="M 79.10278846688536 102.07522291339032 l -29.527888220696568 2.9323027200311063 a50.67312895560313,50.67312895560313 0 0,0 -0.07872529952763695,-0.8687271202140803 l 29.57398811650128 -2.4235942112684596" fill="#a9ff21" stroke="none" /><path d="M 79.07016306316243 101.71520430193888 l -35.4893766581914 2.9083614794017913 a56.608347646048514,56.608347646048514 0 0,0 -0.07122796919687016,-0.9718490488062311 l 35.53418118605261 -2.2970392940988" fill="#65ff29" stroke="none" /><path d="M 79.04373962182676 101.35467743843564 l -32.596863218451986 2.107161982574049 a53.664898948309535,53.664898948309535 0 0,0 -0.05165540176177151,-0.9223418985926447 l 32.62830497110129 -1.5457483676459667" fill="#86ff25" stroke="none" /><line stroke="#e1ed5e" stroke-width="0.3" x1="15.007084014347285" x2="10.007500721073583" y1="101.09737516637583" y2="101.16192664675087" /><path d="M 14.007167355692545 101.11028546245083 a86.0,86.0 0 0,1 10.666146001902534,-42.60595125391555" fill="none" id="id46" stroke="none" /><text fill="#e1ed5e" style="font-size:6.75px; font-family:Arial;" text-anchor="middle"><textPath startOffset="22.20632615414155" xlink:href="#id46">October</textPath></text><path d="M 79.00175016825051 100.2711162175752 l -52.84930895587776 0.6823570945382532 a73.85371385549257,73.85371385549257 0 0,0 -0.005471162991678984,-1.2713055980104029 l 52.85322441615894 0.22745798167582496" fill="#40ffc3" stroke="none" /><path d="M 79.00019446554 99.90962569577889 l -9.678695398836565 -0.04165302202454445 a30.678785026939273,30.678785026939273 0 0,0 0.0068179843503743,-0.5280604016188493 l 9.676544407368475 0.20824968170386565" fill="#ff4906" stroke="none" /><path d="M 79.00486145842228 99.54816195383935 l -36.85735273397436 -0.7932100192143503 a57.86588711385078,57.86588711385078 0 0,0 0.030002926642417067,-0.9956510695223628 l 36.8382381128763 1.4275312361617076" fill="#57ff2a" stroke="none" /><path d="M 79.01574976396665 99.18683210126434 l -39.59433717688667 -1.5343337789916707 a60.62405477260429,60.62405477260429 0 0,0 0.04938375387685692,-1.0424129928507508 l 39.56205981477631 2.215657878465431" fill="#3aff2e" stroke="none" /><path d="M 79.03285615573316 98.82574320788736 l -44.45944158143615 -2.489933852617313 a65.52911088629037,65.52911088629037 0 0,0 0.07276667323212219,-1.125668227608978 l 44.40999431719962 3.2548611444793027" fill="#35ff61" stroke="none" /><path d="M 79.05617556472873 98.46500227214037 l -45.091187242388884 -3.304786581718867 a66.21213090840646,66.21213090840646 0 0,0 0.09309273059436822,-1.1359671084912166 l 45.02762002797502 4.080467607417862" fill="#35ff69" stroke="none" /><path d="M 79.12142395522702 97.74499172005258 l -49.16277608634123 -5.309867248712846 a70.44869303343293,70.44869303343293 0 0,0 0.14059427887569995,-1.2045259219277993 l 49.064091454461945 6.1553369089655074" fill="#3bff9c" stroke="none" /><path d="M 79.16333360222342 97.38593545837743 l -38.37460656781962 -4.814287295896706 a59.67541585299862,59.67541585299862 0 0,0 0.13663965486189247,-1.0181241395139644 l 38.28605091389989 5.47412977747533" fill="#44ff2d" stroke="none" /><path d="M 79.26566170972629 96.67025291283419 l -50.408984890796816 -8.095226780680653 a72.05485730419028,72.05485730419028 0 0,0 0.20720279528695296,-1.2229226268613564 l 50.26217023398964 8.961735195857838" fill="#3dffae" stroke="none" /><path d="M 79.32604984820605 96.31383870115002 l -39.05232962983835 -6.963022792185235 a60.66822577229843,60.66822577229843 0 0,0 0.19215729137702411,-1.0265119342070368 l 38.926686614551464 7.634212803854845" fill="#39ff2e" stroke="none" /><path d="M 79.3925641242962 95.95851677861259 l -44.448119919318536 -8.717063683208298 a66.29484036420959,66.29484036420959 0 0,0 0.22925609449771134,-1.117934135415605 l 44.29148452890583 9.480873474787307" fill="#36ff6a" stroke="none" /><path d="M 79.46518482838121 95.60439243477599 l -48.65769942359451 -10.415489494561024 a70.75996517892854,70.75996517892854 0 0,0 0.26520030643438314,-1.1888409731909864 l 48.47120473015809 11.251508637301969" fill="#3bff9f" stroke="none" /><path d="M 79.54389044137918 95.25157060432595 l -43.338575626872306 -10.060083315625233 a65.49086887984377,65.49086887984377 0 0,0 0.2643560744490718,-1.0959265959921485 l 43.15898675216242 10.80459514327678" fill="#34ff60" stroke="none" /><path d="M 79.71946130924805 94.55025226153421 l -36.149393391504276 -9.713996155935247 a58.43180951932805,58.43180951932805 0 0,0 0.2693796276770196,-0.9691018464933043 l 35.9768269932609 10.334809305847495" fill="#51ff2b" stroke="none" /><path d="M 79.81627453868168 94.20196356495316 l -28.544516634107595 -8.199781937310728 a50.69892007622992,50.69892007622992 0 0,0 0.24816904793530115,-0.8367026581955808 l 28.399141689060585 8.689913982252849" fill="#a9ff21" stroke="none" /><path d="M 79.91906864156998 93.8553929516997 l -15.091668216268463 -4.617931770050279 a36.78238712561466,36.78238712561466 0 0,0 0.19047061399169588,-0.6038438971426119 l 15.009942118508564 4.877025833619306" fill="#ffa10e" stroke="none" /><path d="M 80.02781315780177 93.51064311812611 l -59.89456917670845 -19.46092522289689 a83.97687692633463,83.97687692633463 0 0,0 0.458524569950873,-1.3709301020442541 l 59.55070731298581 20.489028427863467" fill="#4dd2ff" stroke="none" /><path d="M 80.14247586403 93.16781622104843 l -33.731113746529935 -11.605533832264674 a56.67178787379714,56.67178787379714 0 0,0 0.32531473491363044,-0.9197085629541746 l 33.5263459308065 12.18444002164546" fill="#64ff29" stroke="none" /><path d="M 80.2630227832202 92.82701384747504 l -44.520412947208854 -16.18000071984299 a68.36939510152226,68.36939510152226 0 0,0 0.4115037060834149,-1.1026253455326223 l 44.23530465262381 16.94394920240495" fill="#38ff83" stroke="none" /><path d="M 80.38941819471856 92.48833698450439 l -14.457469226158402 -5.53780800397021 a36.48178716796461,36.48178716796461 0 0,0 0.2296727416880131,-0.5844920759925077 l 14.360002934588698 5.785849084858481" fill="#ff9d0e" stroke="none" /><path d="M 80.52162464483688 92.15188598940014 l -39.50210672455217 -15.915959703024845 a63.58795849704727,63.58795849704727 0 0,0 0.41779805941775827,-1.0117311403249016 l 39.22228697824821 16.59356541380306" fill="#32ff48" stroke="none" /><path d="M 80.65960295795068 91.81776055985345 l -32.970091713025575 -13.948482245376983 a56.79926122861916,56.79926122861916 0 0,0 0.3886943577440478,-0.8971601683991515 l 32.72510664543885 14.513941558362735" fill="#63ff29" stroke="none" /><path d="M 80.803312248108 91.48605970444005 l -42.049702493094564 -18.649501471261896 a66.99979766134155,66.99979766134155 0 0,0 0.4766483111680323,-1.050231371530863 l 41.72245186496318 19.37055485163483" fill="#36ff73" stroke="none" /><path d="M 81.10775173730289 90.83032412892265 l -56.33057433078271 -27.34100786007589 a83.61520833823495,83.61520833823495 0 0,0 0.6396164754453216,-1.2894277845713844 l 55.851597842383974 28.306595233146236" fill="#4cd6ff" stroke="none" /><path d="M 81.26839172434947 90.50648371742162 l -31.869868326675814 -16.152222992844877 a56.729299108298235,56.729299108298235 0 0,0 0.44894639882083437,-0.8672215457531505 l 31.587112494694864 16.698417260858363" fill="#64ff29" stroke="none" /><path d="M 81.43458229118936 90.18545643968196 l -15.774162215249202 -8.33895604275118 a38.84271227913324,38.84271227913324 0 0,0 0.31757043346259,-0.588409782616074 l 15.62828368256814 8.609246808699726" fill="#ffbd11" stroke="none" /><path d="M 81.6062741919709 89.86733742301443 l -41.59588131403275 -22.914173797428937 a68.48975366444722,68.48975366444722 0 0,0 0.5777350719724081,-1.02772622762723 l 41.19528860076792 23.626783534990953" fill="#38ff85" stroke="none" /><line stroke="#e1ed5e" stroke-width="0.3" x1="26.266209847984243" x2="21.928928074336255" y1="57.711370442889674" y2="55.22380399835377" /><path d="M 25.398753493254645 57.213857153982495 a86.0,86.0 0 0,1 29.58750427330803,-30.492523968695096" fill="none" id="id47" stroke="none" /><text fill="#e1ed5e" style="font-size:6.75px; font-family:Arial;" text-anchor="middle"><textPath startOffset="21.46611528233685" xlink:href="#id47">November</textPath></text><path d="M 81.78341655067845 89.55222093294921 l -32.05206636411693 -18.38286026281265 a57.94948591864104,57.94948591864104 0 0,0 0.5037199058983836,-0.861020602386869 l 31.730886783748225 18.931860277553408" fill="#56ff2a" stroke="none" /><path d="M 81.96595687620814 89.24020034530311 l -25.60466679366385 -15.276723197009083 a50.81572124320637,50.81572124320637 0 0,0 0.4546414866804741,-0.7473110641727616 l 25.33790950869716 15.715202034388918" fill="#a7ff21" stroke="none" /><path d="M 82.15384107792192 88.93136811851018 l -39.252900100919746 -24.345625486976388 a67.18982189492507,67.18982189492507 0 0,0 0.6180580668213488,-0.9776194347455839 l 38.82801443785243 25.01769256943619" fill="#37ff75" stroke="none" /><path d="M 82.54541684631803 88.32363383020206 l -52.36374946104589 -35.02909850939381 a84.0,84.0 0 0,0 0.8143021373250385,-1.194887906918337 l 51.75302285805211 35.92526443958256" fill="#4dd2ff" stroke="none" /><path d="M 82.7489923806493 88.02491185347247 l -29.24509100545128 -20.300990549135214 a56.60063995482672,56.60063995482672 0 0,0 0.562468536647463,-0.7955718561393683 l 28.89130984899994 20.80138890560637" fill="#65ff29" stroke="none" /><path d="M 82.95767976084542 87.72973835380427 l -25.618452998422917 -18.444972095948042 a52.5677387478531,52.5677387478531 0 0,0 0.5350329117158079,-0.7297842902982885 l 25.297157474193476 18.88321882991783" fill="#93ff23" stroke="none" /><path d="M 83.39014120810768 87.1503855733568 l -28.932878842906543 -22.38287164521862 a57.58010963931957,57.58010963931957 0 0,0 0.6132169790374085,-0.778723290218295 l 28.543307783275164 22.877587329389964" fill="#5aff2a" stroke="none" /><path d="M 83.6137871275137 86.86637796730984 l -30.17942312073976 -24.18894100283256 a59.6768981013105,59.6768981013105 0 0,0 0.6493457716358532,-0.7960211365172596 l 29.758578857027512 24.704846308957904" fill="#44ff2d" stroke="none" /><path d="M 83.84228863543731 86.58626213691792 l -27.43248883285307 -22.77378310785147 a56.65370444439216,56.65370444439216 0 0,0 0.6293670454054301,-0.7449720691750512 l 27.036411173960516 23.24261412665564" fill="#64ff29" stroke="none" /><line stroke="#e1ed5e" stroke-width="0.3" x1="56.762969772571076" x2="54.21961505331055" y1="26.818313649435495" y2="22.513508569990535" /><path d="M 56.25429882871897 25.957352633546506 a86.0,86.0 0 0,1 42.265352541879196,-11.944610805530505" fill="none" id="id48" stroke="none" /><text fill="#e1ed5e" style="font-size:6.75px; font-family:Arial;" text-anchor="middle"><textPath startOffset="22.20632615414155" xlink:href="#id48">December</textPath></text></svg>