<?xml version="1.0" encoding="utf-8" ?>
<svg baseProfile="full" height="200mm" version="1.1" viewBox="0,0,200,200" width="200mm" xmlns="http://www.w3.org/2000/svg" xmlns:ev="http://www.w3.org/2001/xml-events" xmlns:xlink="http://www.w3.org/1999/xlink"><defs /><rect fill="#1a1a1a" height="200" width="200" x="0" y="0" /><text alignment-baseline="middle" fill="#e1ed5e" style="dominant-baseline: central; font-size:9.0px; font-family:Arial;" text-anchor="middle" x="100.0" y="100.0">2024</text><line stroke="#e1ed5e" stroke-width="0.3" x1="100.0" x2="100.0" y1="15.0" y2="10.0" /><path d="M 100.0 14.0 a86.0,86.0 0 0,1 42.35913384403234,11.155469271406648" fill="none" id="id49" stroke="none" /><text fill="#e1ed5e" style="font-size:6.75px; font-family:Arial;" text-anchor="middle"><textPath startOffset="22.145653131862478" xlink:href="#id49">January</textPath></text><path d="M 100.0 79.0 l 0.0 -35.12001625980043 a56.12001625980043,56.12001625980043 0 0,0 0.9633747049552736,0.008269413189808776 l -0.6028817801064188 35.114841244805056" fill="#66ff29" stroke="none" /><path d="M 100.72087961077811 79.0123766808444 l 1.7812531196871746 -51.85924106205869 a72.88982314682822,72.88982314682822 0 0,0 1.2501446005642103,0.05368658818937385 l -2.671223480852221 51.82102190544349" fill="#3effb9" stroke="none" /><path d="M 101.44090949804482 79.04949213459386 l 3.733186740535345 -54.27971588551711 a75.40794280114042,75.40794280114042 0 0,0 1.2906644134735998,0.09990558833509502 l -4.664420148784178 54.20763253018696" fill="#42ffd5" stroke="none" /><path d="M 101.80034050326958 79.07731436759882 l 3.4636685017604223 -40.25307827356693 a61.40182310228083,61.40182310228083 0 0,0 1.0493876723983233,0.09937810362037051 l -4.154155737543759 40.187688414441375" fill="#2fff30" stroke="none" /><path d="M 102.15924093988457 79.11130261209362 l 5.956609237288143 -57.62479097046554 a78.93183691197434,78.93183691197434 0 0,0 1.3465925422029261,0.150888503077096 l -6.944937681091866 57.51404670688147" fill="#46fffa" stroke="none" /><path d="M 102.87502721639298 79.19773525538626 l 5.9916038505566815 -43.35226074850855 a64.76434426229508,64.76434426229508 0 0,0 1.099991221435325,0.16166082927291386 l -6.7349201775996885 43.24301884593675" fill="#34ff5a" stroke="none" /><path d="M 103.23170211078529 79.25015418208739 l 7.292384472792505 -46.822339518977195 a68.38681619743406,68.38681619743406 0 0,0 1.158415667428665,0.1906168572465265 l -8.09507764327424 46.690256663235004" fill="#39ff86" stroke="none" /><path d="M 103.58742460773223 79.30868818359171 l 9.293955537925486 -53.60506577018073 a75.40478550427653,75.40478550427653 0 0,0 1.2734980163047562,0.23207376102166946 l -10.212788287781297 53.4376238352277" fill="#42ffd5" stroke="none" /><path d="M 104.29559338865022 79.4440306129975 l 2.0815869958008313 -9.96114731788192 a31.176318602993586,31.176318602993586 0 0,0 0.5229271963538282,0.1139695485671636 l -2.2522766087737938 9.923946311181039" fill="#ff5a08" stroke="none" /><path d="M 104.64783097203109 79.52079915486377 l 2.089225695976463 -9.205513904483569 a30.439616001425517,30.439616001425517 0 0,0 0.508584881305005,0.12002464718314447 l -2.246942731021353 9.168293113654197" fill="#ff4f07" stroke="none" /><path d="M 104.9986988182912 79.60360301121754 l 6.68972335616109 -27.296354166830124 a49.104151817533854,49.104151817533854 0 0,0 0.8169871774144265,0.20767494569524234 l -7.157315826800911 27.177493989299613" fill="#b7ff1f" stroke="none" /><path d="M 105.3480935250658 79.69241777938227 l 8.972732463516941 -34.07092665684715 a56.232626514611546,56.232626514611546 0 0,0 0.9313692083845161,0.2538488193601043 l -9.55628307283615 33.91187734334291" fill="#65ff29" stroke="none" /><path d="M 106.04205211174951 79.88797359093562 l 12.96458635868079 -43.154891484854176 a66.06023921952958,66.06023921952958 0 0,0 1.083260103332663,0.3355967490594571 l -13.703487094885084 42.92597814798807" fill="#36ff6a" stroke="none" /><path d="M 106.38641147887787 79.99465700312896 l 16.548182763866727 -51.83694681449349 a75.41425739486814,75.41425739486814 0 0,0 1.2298889721391877,0.4042889338411923 l -17.43559447365366 51.545236959250275" fill="#42ffd5" stroke="none" /><path d="M 106.72888874123014 80.10723608172694 l 17.507423142783075 -51.75758565641331 a75.63842547220241,75.63842547220241 0 0,0 1.2264022516613324,0.4266063652843575 l -18.393331166489425 51.449420858560366" fill="#42ffd7" stroke="none" /><path d="M 107.06938296918511 80.22567764915836 l 17.80993701331696 -49.817563581523025 a73.9054203047042,73.9054203047042 0 0,0 1.190971237270163,0.4373411349961503 l -18.66249740224125 49.504491597518154" fill="#40ffc5" stroke="none" /><path d="M 107.74402155503746 80.48000691201159 l 3.7900358522685638 -9.553366182379214 a31.277702913399857,31.277702913399857 0 0,0 0.497383302482889,0.20228145907460263 l -3.9534736159418924 9.486897466725317" fill="#ff5c08" stroke="none" /><path d="M 109.06512990194946 81.05736502329252 l 15.275145693598645 -31.919179561634227 a56.38593081789023,56.38593081789023 0 0,0 0.869524084818662,0.42532780229235806 l -15.820830027679374 31.652258009244647" fill="#63ff29" stroke="none" /><path d="M 109.3889696526874 81.21577127319529 l 23.602396615662375 -47.22060385001491 a73.79070518531718,73.79070518531718 0 0,0 1.1281993678840005,0.5760666359803301 l -24.409523205259955 46.80847926236175" fill="#40ffc3" stroke="none" /><path d="M 109.71004243097381 81.37971332152246 l 16.277989877156386 -31.215191922864705 a56.204561653599434,56.204561653599434 0 0,0 0.8516628629518668,0.45346250442034064 l -16.811441555894813 30.93115895072179" fill="#65ff29" stroke="none" /><path d="M 110.34350942703115 81.72400993836675 l 16.13385650538054 -28.506978528735647 a53.75590253029223,53.75590253029223 0 0,0 0.7991903650914075,0.46141277241927947 l -16.620839338332342 28.225818859040196" fill="#81ff25" stroke="none" /><line stroke="#e1ed5e" stroke-width="0.3" x1="143.13028292997686" x2="145.6673583964461" y1="26.7553504044142" y2="22.446841604673864" /><path d="M 143.63769802327073 25.89364864446614 a86.0,86.0 0 0,1 29.32050498858742,28.57503671076993" fill="none" id="id50" stroke="none" /><text fill="#e1ed5e" style="font-size:6.75px; font-family:Arial;" text-anchor="middle"><textPath startOffset="20.669276256404974" xlink:href="#id50">February</textPath></text><path d="M 110.65571695917076 81.90426304109057 l 18.587279086549763 -31.56526345630508 a57.63130902530292,57.63130902530292 0 0,0 0.8481880864970016,0.5093125755182875 l -19.1263999296042 31.24153688025087" fill="#56ff2a" stroke="none" /><path d="M 110.96478420261332 82.08984904055464 l 2.1678137423923394 -3.5409608306703664 a25.15184537598004,25.15184537598004 0 0,0 0.3663017401480617,0.2285993774119568 l -2.2282796113301133 3.503225656416864" fill="#ff0000" stroke="none" /><path d="M 111.27062007382361 82.28071324371311 l 24.208888248823495 -38.060393316610096 a66.10724786172487,66.10724786172487 0 0,0 0.9523043947675717,0.6172722032730501 l -24.858678275848074 37.639207271633154" fill="#36ff6b" stroke="none" /><path d="M 111.5731344415666 82.4767994020092 l 19.71990343861023 -29.858447205681923 a56.782697790449035,56.782697790449035 0 0,0 0.8087578895709299,0.5441684018211422 l -20.22955761627816 29.51552912980366" fill="#5fff29" stroke="none" /><path d="M 112.16784306229584 82.88440491214696 l 29.055210739837 -40.86979258930864 a71.1452412241625,71.1452412241625 0 0,0 0.9893219742371554,0.7161928150125942 l -29.752513724448125 40.36499900292297" fill="#3cffa6" stroke="none" /><path d="M 112.45986205192187 83.09580414077388 l 12.558245451276075 -17.03767183552903 a42.16581655381326,42.16581655381326 0 0,0 0.5789708177823326,0.43447049533910553 l -12.848869257969174 16.81958231292591" fill="#fff116" stroke="none" /><path d="M 113.03279911837588 83.53348406188908 l 33.18717705382534 -41.93091406796921 a74.47513698325017,74.47513698325017 0 0,0 0.9956589207492383,0.8020323475586508 l -33.90208674492984 41.355033426617155" fill="#41ffcb" stroke="none" /><path d="M 113.31354834802062 83.75963576809568 l 21.24827014778366 -25.919434659897462 a54.51575864219529,54.51575864219529 0 0,0 0.7186362468950125,0.599511916343627 l -21.690080728840567 25.550860559641965" fill="#78ff26" stroke="none" /><path d="M 113.59037401385872 83.9905735841838 l 12.205863742433959 -14.37847679737938 a39.860639032430505,39.860639032430505 0 0,0 0.5178476322767871,0.44730445103324074 l -12.450890854473606 14.16682821388142" fill="#ffd313" stroke="none" /><path d="M 113.86319453409587 84.22622945171908 l 27.858471691631667 -31.697826875963717 a63.20007907163221,63.20007907163221 0 0,0 0.8087653120988393,0.7232029291731725 l -28.398502030553882 31.21492841690716" fill="#32ff47" stroke="none" /><path d="M 114.13192950727249 84.46653392183569 l 14.69560450649621 -16.153043643637233 a42.8376191642908,42.8376191642908 0 0,0 0.5396932713648427,0.4995320348225953 l -14.970727549175017 15.898393862682262" fill="#fffa17" stroke="none" /><path d="M 114.39649973595853 84.71141617570332 l 6.234656636810442 -6.620989292939244 a30.094418210976478,30.094418210976478 0 0,0 0.3730669086758661,0.3573896593965894 l -6.34739603135162 6.512987503237075" fill="#ff4a06" stroke="none" /><path d="M 114.91283532996326 85.21462403516908 l 24.996504220941492 -24.78286016948956 a56.1996503029223,56.1996503029223 0 0,0 0.6733606565201918,0.6909273534258471 l -25.418251678612496 24.35011012399597" fill="#65ff29" stroke="none" /><path d="M 115.16444852881244 85.47280134310134 l 20.307394101064542 -19.4540241769807 a49.12204316642908,49.12204316642908 0 0,0 0.578106019216122,0.6139285587621182 l -20.638355954016923 19.10255415827409" fill="#b6ff1f" stroke="none" /><path d="M 115.41159269507618 85.73525988315684 l 25.895327252809032 -23.96832831041159 a56.28524812900927,56.28524812900927 0 0,0 0.6502347907039553,0.7147219393533157 l -26.302959744354865 23.520268795500602" fill="#65ff29" stroke="none" /><path d="M 115.8921839302757 86.27271002978787 l 21.343529385822496 -18.436032338435556 a49.203431263364216,49.203431263364216 0 0,0 0.5466394289450948,0.6439398727920329 l -21.656863378274704 18.066925683193972" fill="#b5ff1f" stroke="none" /><path d="M 116.35404254752997 86.82634096563983 l 21.898520488013617 -17.639897990213615 a49.11958749109052,49.11958749109052 0 0,0 0.5233190778474236,0.6611965593747303 l -22.1981059965026 17.261381486924208" fill="#b6ff1f" stroke="none" /><path d="M 116.7966241395341 87.39550010848427 l 23.195997266465923 -17.40670878861963 a50.00082412687099,50.00082412687099 0 0,0 0.5092892999943821,0.6909487472845035 l -23.49138858604413 17.00595373206625" fill="#acff21" stroke="none" /><line stroke="#e1ed5e" stroke-width="0.3" x1="172.87174338648825" x2="177.1583165268699" y1="56.24261187166439" y2="53.66864786411523" /><path d="M 173.72905801456457 55.72781907015455 a86.0,86.0 0 0,1 12.242430191666344,42.057860355516425" fill="none" id="id51" stroke="none" /><text fill="#e1ed5e" style="font-size:6.75px; font-family:Arial;" text-anchor="middle"><textPath startOffset="22.145653131862474" xlink:href="#id51">March</textPath></text><path d="M 120.05942366710727 93.78553927170692 l 16.766972379622555 -5.194450903213075 a38.55316732002851,38.55316732002851 0 0,0 0.19042268523567854,0.6338551875276595 l -16.85367138486186 4.905858112094692" fill="#ffc112" stroke="none" /><path d="M 120.26092885502905 94.47779374421319 l 16.96688072278852 -4.624398789363257 a38.58579272095509,38.58579272095509 0 0,0 0.16869436491771173,0.6405599807978621 l -17.043764568510962 4.332458304192596" fill="#ffc212" stroke="none" /><path d="M 120.43855184770803 95.1765574152323 l 6.597483139142611 -1.5569880568224288 a27.778716366714182,27.778716366714182 0 0,0 0.10554475456828934,0.4650496629420354 l -6.6232387552685665 1.443504059941367" fill="#ff2803" stroke="none" /><path d="M 120.51834098615036 95.52812308129327 l 25.962698313813473 -5.658449258410127 a47.572161217034925,47.572161217034925 0 0,0 0.16705143186554436,0.7994015747757208 l -26.056007456503384 5.211931232349002" fill="#c9ff1d" stroke="none" /><path d="M 120.592083275326 95.88100663000786 l 43.46153739622425 -8.69352469058908 a65.32248418567355,65.32248418567355 0 0,0 0.2105054620087952,1.1014535283713751 l -43.604369150515204 7.946168597184389" fill="#35ff61" stroke="none" /><path d="M 120.65975698304385 96.23510406497455 l 26.173044322981667 -4.769600545626395 a47.604084996436214,47.604084996436214 0 0,0 0.1396050601247959,0.8052048881987822 l -26.251064200598698 4.31960262450702" fill="#c9ff1d" stroke="none" /><path d="M 120.7213421655516 96.59031103205396 l 53.373748471574345 -8.78262999990423 a75.0915114932288,75.0915114932288 0 0,0 0.19837928622507825,1.2737373252628144 l -53.51664924993769 7.865104492709976" fill="#41ffd2" stroke="none" /><path d="M 120.77682067341334 96.94652285012252 l 34.754063964555165 -5.10765058086799 a56.12738328581611,56.12738328581611 0 0,0 0.13191400650296844,0.9544640381666679 l -34.83662248761335 4.510298234501236" fill="#66ff29" stroke="none" /><path d="M 120.82617615685814 97.30363454192243 l 26.321946871807718 -3.407903006290641 a47.541640680684246,47.541640680684246 0 0,0 0.09784050123866081,0.8102597051929519 l -26.37656945930604 2.9555496241742762" fill="#c9ff1d" stroke="none" /><path d="M 120.86939407059847 97.66154086499901 l 62.6081822117954 -7.015377405002951 a84.0,84.0 0 0,0 0.14827043007333573,1.4343819108682743 l -62.7193850343504 5.939590971851745" fill="#4dd2ff" stroke="none" /><line stroke="#e1ed5e" stroke-width="0.3" x1="184.99686870605535" x2="189.99668451229388" y1="99.2704041080226" y2="99.22748670261217" /><path d="M 185.99683186730306 99.26182062694052 a86.0,86.0 0 0,1 -10.086455211305974,41.156179273409016" fill="none" id="id52" stroke="none" /><text fill="#e1ed5e" style="font-size:6.75px; font-family:Arial;" text-anchor="middle"><textPath startOffset="21.40746469413373" xlink:href="#id52">April</textPath></text><line stroke="#e1ed5e" stroke-width="0.3" x1="174.33088141563837" x2="178.70328620479359" y1="141.23008692659167" y2="143.65538615756765" /><path d="M 175.20536237346943 141.71514677278685 a86.0,86.0 0 0,1 -30.301960400862466,31.631185727798858" fill="none" id="id53" stroke="none" /><text fill="#e1ed5e" style="font-size:6.75px; font-family:Arial;" text-anchor="middle"><textPath startOffset="22.145653131862474" xlink:href="#id53">May</textPath></text><line stroke="#e1ed5e" stroke-width="0.3" x1="143.1302829299769" x2="145.66735839644613" y1="173.24464959558577" y2="177.55315839532614" /><path d="M 143.63769802327073 174.10635135553383 a86.0,86.0 0 0,1 -40.68552437913181,11.842963189579606" fill="none" id="id54" stroke="none" /><text fill="#e1ed5e" style="font-size:6.75px; font-family:Arial;" text-anchor="middle"><textPath startOffset="21.407464694133747" xlink:href="#id54">June</textPath></text><line stroke="#e1ed5e" stroke-width="0.3" x1="101.45913802915013" x2="101.54496967792366" y1="184.9874750549273" y2="189.98673829345242" /><path d="M 101.47630435890484 185.9873277026323 a86.0,86.0 0 0,1 -42.54439059252881,-10.42667462771756" fill="none" id="id55" stroke="none" /><text fill="#e1ed5e" style="font-size:6.75px; font-family:Arial;" text-anchor="middle"><textPath startOffset="22.145653131862474" xlink:href="#id55">July</textPath></text><line stroke="#e1ed5e" stroke-width="0.3" x1="58.13341422392154" x2="55.67067388415222" y1="173.97424548756322" y2="178.32567169271397" /><path d="M 57.64086615596768 174.84453072859336 a86.0,86.0 0 0,1 -31.369924170532247,-30.572349798747897" fill="none" id="id56" stroke="none" /><text fill="#e1ed5e" style="font-size:6.75px; font-family:Arial;" text-anchor="middle"><textPath startOffset="22.145653131862474" xlink:href="#id56">August</textPath></text><line stroke="#e1ed5e" stroke-width="0.3" x1="26.387840678322732" x2="22.057713659400548" y1="142.50000000000003" y2="145.00000000000006" /><path d="M 25.521815274538298 143.00000000000003 a86.0,86.0 0 0,1 -11.493303480769221,-40.785679425670985" fill="none" id="id57" stroke="none" /><text fill="#e1ed5e" style="font-size:6.75px; font-family:Arial;" text-anchor="middle"><textPath startOffset="21.40746469413373" xlink:href="#id57">September</textPath></text><line stroke="#e1ed5e" stroke-width="0.3" x1="15.003131293944662" x2="10.003315487706104" y1="100.72959589197737" y2="100.7725132973878" /><path d="M 14.003168132696942 100.73817937305945 a86.0,86.0 0 0,1 10.791469493833604,-42.45332614584628" fill="none" id="id58" stroke="none" /><text fill="#e1ed5e" style="font-size:6.75px; font-family:Arial;" text-anchor="middle"><textPath startOffset="22.145653131862435" xlink:href="#id58">October</textPath></text><line stroke="#e1ed5e" stroke-width="0.3" x1="26.387840678322718" x2="22.05771365940052" y1="57.49999999999999" y2="54.99999999999999" /><path d="M 25.521815274538284 56.99999999999999 a86.0,86.0 0 0,1 29.574782752854787,-30.34633250058573" fill="none" id="id59" stroke="none" /><text fill="#e1ed5e" style="font-size:6.75px; font-family:Arial;" text-anchor="middle"><textPath startOffset="21.40746469413373" xlink:href="#id59">November</textPath></text><line stroke="#e1ed5e" stroke-width="0.3" x1="56.869717070023135" x2="54.33264160355391" y1="26.7553504044142" y2="22.446841604673864" /><path d="M 56.362301976729285 25.89364864446614 a86.0,86.0 0 0,1 42.16139366436587,-11.88097634709845" fill="none" id="id60" stroke="none" /><text fill="#e1ed5e" style="font-size:6.75px; font-family:Arial;" text-anchor="middle"><textPath startOffset="22.145653131862474" xlink:href="#id60">December</textPath></text></svg>