<?xml version="1.0" encoding="utf-8" ?>
<svg baseProfile="full" height="200mm" version="1.1" viewBox="0,0,200,200" width="200mm" xmlns="http://www.w3.org/2000/svg" xmlns:ev="http://www.w3.org/2001/xml-events" xmlns:xlink="http://www.w3.org/1999/xlink"><defs /><rect fill="#1a1a1a" height="200" width="200" x="0" y="0" /><text alignment-baseline="middle" fill="#e1ed5e" style="dominant-baseline: central; font-size:9.0px; font-family:Arial;" text-anchor="middle" x="100.0" y="100.0">2024</text><line stroke="#e1ed5e" stroke-width="0.3" x1="100.0" x2="100.0" y1="15.0" y2="10.0" /><path d="M 100.0 14.0 a86.0,86.0 0 0,1 42.35913384403234,11.155469271406648" fill="none" id="id49" stroke="none" /><text fill="#e1ed5e" style="font-size:6.75px; font-family:Arial;" text-anchor="middle"><textPath startOffset="22.145653131862478" xlink:href="#id49">January</textPath></text><path d="M 100.0 79.0 l 0.0 -38.19248866093002 a59.19248866093002,59.19248866093002 0 0,0 1.0161177793553016,0.008722149049356703 l -0.6556248545064468 38.1868609100751" fill="#47ff2c" stroke="none" /><path d="M 100.72087961077811 79.0123766808444 l 1.937085936197833 -56.39614348624928 a77.42940104277054,77.42940104277054 0 0,0 1.3280036013196521,0.05703018868847377 l -2.904915298118321 56.35458072913497" fill="#44ffea" stroke="none" /><path d="M 101.44090949804482 79.04949213459386 l 4.0597843464051016 -59.02837339654169 a80.16781823576788,80.16781823576788 0 0,0 1.372133309293258,0.10621179611684387 l -5.072486650473594 58.94998383342979" fill="#48f8ff" stroke="none" /><path d="M 101.80034050326958 79.07731436759882 l 3.7666873215581225 -43.77461628030207 a64.93637404094783,64.93637404094783 0 0,0 1.1097949045471565,0.10509873131002748 l -4.517581789490292 43.70350579348686" fill="#34ff5b" stroke="none" /><path d="M 102.15924093988457 79.11130261209362 l 6.477722819653705 -62.666092163719114 a84.0,84.0 0 0,0 1.4330563935968135,0.16057695797211657 l -7.552515114851315 62.54565944524002" fill="#4dd2ff" stroke="none" /><path d="M 102.87502721639298 79.19773525538626 l 6.515778934450615 -47.144930538039084 a68.59306515196474,68.59306515196474 0 0,0 1.1650202032915433,0.17121785020980107 l -7.32412424334984 47.0261316145304" fill="#39ff87" stroke="none" /><path d="M 103.23170211078529 79.25015418208739 l 7.930358267147696 -50.91858893025791 a72.53244881522613,72.53244881522613 0 0,0 1.2286392286775045,0.20217211752682399 l -8.80327499887827 50.77495081423542" fill="#3effb5" stroke="none" /><path d="M 103.58742460773223 79.30868818359171 l 10.107036650313441 -58.29470155853708 a80.16438472298756,80.16438472298756 0 0,0 1.353882041309249,0.24672240811024745 l -11.106253425173744 58.11261097649546" fill="#48f8ff" stroke="none" /><path d="M 104.29559338865022 79.4440306129975 l 2.263694502467021 -10.83259766093914 a32.066593192319104,32.066593192319104 0 0,0 0.5378599663485623,0.11722407628540753 l -2.449316885434717 10.792142126520012" fill="#ff6209" stroke="none" /><path d="M 104.64783097203109 79.52079915486377 l 2.2720014738443663 -10.010857706163835 a31.265440210249672,31.265440210249672 0 0,0 0.5223827461402238,0.12328090571461796 l -2.443516373724475 9.97038065680299" fill="#ff5708" stroke="none" /><path d="M 104.9986988182912 79.60360301121754 l 7.274973380846407 -29.684373984606843 a51.56284176168877,51.56284176168877 0 0,0 0.8578944751328874,0.21807342080853173 l -7.7834731492046885 29.555115331963044" fill="#9cff22" stroke="none" /><path d="M 105.3480935250658 79.69241777938227 l 9.757711395557788 -37.05161952041783 a59.31495061676063,59.31495061676063 0 0,0 0.9824210965309316,0.2677632384920726 l -10.392313893023413 36.87865578778162" fill="#46ff2d" stroke="none" /><path d="M 106.04205211174951 79.88797359093562 l 14.098792376253241 -46.93029443683762 a70.00233139756688,70.00233139756688 0 0,0 1.147902787503645,0.3556232178563022 l -14.902335796628517 46.68135463117467" fill="#3bff98" stroke="none" /><path d="M 106.38641147887787 79.99465700312896 l 17.995899486282553 -56.37189882784596 a80.17468526132848,80.17468526132848 0 0,0 1.3075241294406512,0.4298091520763468 l -18.96094635337095 56.05466875436759" fill="#48f8ff" stroke="none" /><path d="M 106.72888874123014 80.10723608172694 l 19.039058949075955 -56.28559476387078 a80.4184646687296,80.4184646687296 0 0,0 1.3039058590811456,0.4535661431329411 l -20.002470580202118 55.95047018816925" fill="#48f5ff" stroke="none" /><path d="M 107.06938296918511 80.22567764915836 l 19.368038226439342 -54.175849980466104 a78.53384765376626,78.53384765376626 0 0,0 1.2655574289703224,0.4647302177148529 l -20.29518480706379 53.835388913742534" fill="#46fff6" stroke="none" /><path d="M 107.74402155503746 80.48000691201159 l 4.121606899082566 -10.389141818589342 a32.176847102708656,32.176847102708656 0 0,0 0.5116816449003276,0.20809647045940333 l -4.299343005173332 10.316858091550646" fill="#ff6409" stroke="none" /><path d="M 109.06512990194946 81.05736502329252 l 16.61149084844232 -34.71162696667931 a59.481666737315074,59.481666737315074 0 0,0 0.9172632442709004,0.4486794174202352 l -17.20491434197529 34.42135379916186" fill="#44ff2d" stroke="none" /><path d="M 109.3889696526874 81.21577127319529 l 25.667250790719905 -51.35169539110605 a78.40909668941546,78.40909668941546 0 0,0 1.1988107865237738,0.6121213294640756 l -26.544988798957256 50.90351610996914" fill="#46fff4" stroke="none" /><path d="M 109.71004243097381 81.37971332152246 l 17.7020687919682 -33.94605101385961 a59.284430503157985,59.284430503157985 0 0,0 0.8983318493252055,0.47831111102303214 l -18.282189457079962 33.637169435114004" fill="#46ff2c" stroke="none" /><path d="M 110.34350942703115 81.72400993836675 l 17.54532592127905 -31.000909742241067 a56.62155059132721,56.62155059132721 0 0,0 0.8417940274302821,0.48601000833909264 l -18.07491241656973 30.6951528366258" fill="#63ff29" stroke="none" /><line stroke="#e1ed5e" stroke-width="0.3" x1="143.13028292997686" x2="145.6673583964461" y1="26.7553504044142" y2="22.446841604673864" /><path d="M 143.63769802327073 25.89364864446614 a86.0,86.0 0 0,1 29.32050498858742,28.57503671076993" fill="none" id="id50" stroke="none" /><text fill="#e1ed5e" style="font-size:6.75px; font-family:Arial;" text-anchor="middle"><textPath startOffset="20.669276256404974" xlink:href="#id50">February</textPath></text><path d="M 110.65571695917076 81.90426304109057 l 20.213386021781627 -34.32674853326081 a60.835996778432445,60.835996778432445 0 0,0 0.8953530393519489,0.5376337745485177 l -20.79967181769101 33.974700758176375" fill="#36ff2f" stroke="none" /><path d="M 110.96478420261332 82.08984904055464 l 2.357464790530202 -3.8507415649739745 a25.515069306091306,25.515069306091306 0 0,0 0.37159159286758564,0.2319006367447553 l -2.4232205121875 3.8097051313876737" fill="#ff0000" stroke="none" /><path d="M 111.27062007382361 82.28071324371311 l 26.326801306047212 -41.390104418574325 a70.0534525878513,70.0534525878513 0 0,0 1.0091512341822642,0.6541196377776247 l -27.033438172486484 40.9320709390928" fill="#3bff98" stroke="none" /><path d="M 111.5731344415666 82.4767994020092 l 21.445097943643034 -32.4706115709089 a59.91314484337247,59.91314484337247 0 0,0 0.8533449530683205,0.5741685679996076 l -21.999339184808356 32.09769332885217" fill="#40ff2d" stroke="none" /><path d="M 112.16784306229584 82.88440491214696 l 31.59710401365465 -44.44528380894895 a75.53219448094612,75.53219448094612 0 0,0 1.0503254817410879,0.7603546499890911 l -32.355410505769704 43.896328387586784" fill="#42ffd6" stroke="none" /><path d="M 112.45986205192187 83.09580414077388 l 13.65690276026549 -18.528211478418797 a44.01750667627485,44.01750667627485 0 0,0 0.6043960231287734,0.4535500434297653 l -13.97295177230503 18.291042407725016" fill="#f8ff18" stroke="none" /><path d="M 113.03279911837588 83.53348406188908 l 36.090555139273285 -45.59923743305369 a79.15340595989997,79.15340595989997 0 0,0 1.0582027498571107,0.8524132290425899 l -36.86800865948565 44.972975910217684" fill="#47fffc" stroke="none" /><path d="M 113.31354834802062 83.75963576809568 l 23.107173717698526 -28.18699476170105 a57.44788266711881,57.44788266711881 0 0,0 0.75728801763403,0.6317565981919783 l -23.587636069494447 27.7861759795972" fill="#5aff2a" stroke="none" /><path d="M 113.59037401385872 83.9905735841838 l 13.273692959913651 -15.636376930552082 a41.510660845237595,41.510660845237595 0 0,0 0.5392838136754852,0.46582051397367835 l -13.540156253351997 15.406212284113684" fill="#ffe515" stroke="none" /><path d="M 113.86319453409587 84.22622945171908 l 30.295668325511432 -34.47090925530359 a66.8919503200373,66.8919503200373 0 0,0 0.8560098321422531,0.7654492703201603 l -30.88294318447706 33.94576445510004" fill="#36ff73" stroke="none" /><path d="M 114.13192950727249 84.46653392183569 l 15.981248537242505 -17.56619164511254 a44.748081895638165,44.748081895638165 0 0,0 0.5637623933519246,0.5218100548027116 l -16.280440701908397 17.28926384417745" fill="#efff19" stroke="none" /><path d="M 114.39649973595853 84.71141617570332 l 6.780095178336573 -7.200226122451065 a30.89004281293714,30.89004281293714 0 0,0 0.38292990747647654,0.3668381891375151 l -6.902697571678362 7.08277580300797" fill="#ff5107" stroke="none" /><path d="M 114.91283532996326 85.21462403516908 l 27.183321811668844 -26.950987123888734 a59.27908948327752,59.27908948327752 0 0,0 0.7102572061787965,0.7287864637841913 l -27.64196581899845 26.480377968036798" fill="#46ff2c" stroke="none" /><path d="M 115.16444852881244 85.47280134310134 l 22.08398518954307 -21.155958251626842 a51.58229833411046,51.58229833411046 0 0,0 0.6070601959881541,0.6446768911180071 l -22.443901219267488 20.77373990056434" fill="#9cff22" stroke="none" /><path d="M 115.41159269507618 85.73525988315684 l 28.160778319628296 -26.065195996638884 a59.372175829765595,59.372175829765595 0 0,0 0.6858964934438782,0.7539203976753093 l -28.60407251391405 25.577938023405906" fill="#45ff2d" stroke="none" /><path d="M 115.8921839302757 86.27271002978787 l 23.210766704151993 -20.04890746147509 a51.67080666355814,51.67080666355814 0 0,0 0.5740514334562404,0.6762311451796577 l -23.551512701115346 19.647509533845877" fill="#9bff22" stroke="none" /><path d="M 116.35404254752997 86.82634096563983 l 23.814311167814825 -19.18312335015485 a51.57962782417023,51.57962782417023 0 0,0 0.5495282971086451,0.6943110517236412 l -24.140105895565032 18.771492354516532" fill="#9cff22" stroke="none" /><path d="M 116.7966241395341 87.39550010848427 l 25.22529762016396 -18.929533606008754 a52.537959391293285,52.537959391293285 0 0,0 0.535131590904029,0.7260087780591128 l -25.546531230651816 18.493718518680765" fill="#91ff24" stroke="none" /><line stroke="#e1ed5e" stroke-width="0.3" x1="172.87174338648825" x2="177.1583165268699" y1="56.24261187166439" y2="53.66864786411523" /><path d="M 173.72905801456457 55.72781907015455 a86.0,86.0 0 0,1 12.242430191666344,42.057860355516425" fill="none" id="id51" stroke="none" /><text fill="#e1ed5e" style="font-size:6.75px; font-family:Arial;" text-anchor="middle"><textPath startOffset="22.145653131862474" xlink:href="#id51">March</textPath></text><path d="M 120.05942366710727 93.78553927170692 l 18.23382989773423 -5.648887111928986 a40.08880505277436,40.08880505277436 0 0,0 0.19800754222528263,0.659102709605009 l -18.328113759963138 5.335046798733253" fill="#ffd213" stroke="none" /><path d="M 120.26092885502905 94.47779374421319 l 18.451227209657763 -5.028964024955105 a40.124284684837434,40.124284684837434 0 0,0 0.17542054329779688,0.6661003756776319 l -18.53483723376029 4.711483144904674" fill="#ffd313" stroke="none" /><path d="M 120.43855184770803 95.1765574152323 l 7.17466353427631 -1.693201058493246 a28.371751939298886,28.371751939298886 0 0,0 0.10779798301601264,0.4749778032312541 l -7.202672378849989 1.5697889213229657" fill="#ff2c04" stroke="none" /><path d="M 120.51834098615036 95.52812308129327 l 28.23404333364345 -6.153478333882317 a49.89682506040439,49.89682506040439 0 0,0 0.17521457631192008,0.838465176043184 l -28.335515620779734 5.667896706553728" fill="#b0ff20" stroke="none" /><path d="M 120.592083275326 95.88100663000786 l 47.26376724636839 -9.454077148275367 a69.20003391123733,69.20003391123733 0 0,0 0.2230010889987574,1.166835928932228 l -47.41909462764931 8.641338654309823" fill="#3aff8e" stroke="none" /><path d="M 120.65975698304385 96.23510406497455 l 28.462791450119227 -5.186868747680837 a49.9315416896274,49.9315416896274 0 0,0 0.14643062418332448,0.8445729278653112 l -28.547636891794788 4.697502786894933" fill="#afff20" stroke="none" /><path d="M 120.7213421655516 96.59031103205396 l 58.043147480693044 -9.550977829939997 a79.82370395489805,79.82370395489805 0 0,0 0.21088095178164776,1.3540069862257447 l -58.198549924612955 8.553182661782811" fill="#48fbff" stroke="none" /><line stroke="#e1ed5e" stroke-width="0.3" x1="184.99686870605535" x2="189.99668451229388" y1="99.2704041080226" y2="99.22748670261217" /><path d="M 185.99683186730306 99.26182062694052 a86.0,86.0 0 0,1 -10.086455211305974,41.156179273409016" fill="none" id="id52" stroke="none" /><text fill="#e1ed5e" style="font-size:6.75px; font-family:Arial;" text-anchor="middle"><textPath startOffset="21.40746469413373" xlink:href="#id52">April</textPath></text><line stroke="#e1ed5e" stroke-width="0.3" x1="174.33088141563837" x2="178.70328620479359" y1="141.23008692659167" y2="143.65538615756765" /><path d="M 175.20536237346943 141.71514677278685 a86.0,86.0 0 0,1 -30.301960400862466,31.631185727798858" fill="none" id="id53" stroke="none" /><text fill="#e1ed5e" style="font-size:6.75px; font-family:Arial;" text-anchor="middle"><textPath startOffset="22.145653131862474" xlink:href="#id53">May</textPath></text><line stroke="#e1ed5e" stroke-width="0.3" x1="143.1302829299769" x2="145.66735839644613" y1="173.24464959558577" y2="177.55315839532614" /><path d="M 143.63769802327073 174.10635135553383 a86.0,86.0 0 0,1 -40.68552437913181,11.842963189579606" fill="none" id="id54" stroke="none" /><text fill="#e1ed5e" style="font-size:6.75px; font-family:Arial;" text-anchor="middle"><textPath startOffset="21.407464694133747" xlink:href="#id54">June</textPath></text><line stroke="#e1ed5e" stroke-width="0.3" x1="101.45913802915013" x2="101.54496967792366" y1="184.9874750549273" y2="189.98673829345242" /><path d="M 101.47630435890484 185.9873277026323 a86.0,86.0 0 0,1 -42.54439059252881,-10.42667462771756" fill="none" id="id55" stroke="none" /><text fill="#e1ed5e" style="font-size:6.75px; font-family:Arial;" text-anchor="middle"><textPath startOffset="22.145653131862474" xlink:href="#id55">July</textPath></text><line stroke="#e1ed5e" stroke-width="0.3" x1="58.13341422392154" x2="55.67067388415222" y1="173.97424548756322" y2="178.32567169271397" /><path d="M 57.64086615596768 174.84453072859336 a86.0,86.0 0 0,1 -31.369924170532247,-30.572349798747897" fill="none" id="id56" stroke="none" /><text fill="#e1ed5e" style="font-size:6.75px; font-family:Arial;" text-anchor="middle"><textPath startOffset="22.145653131862474" xlink:href="#id56">August</textPath></text><line stroke="#e1ed5e" stroke-width="0.3" x1="26.387840678322732" x2="22.057713659400548" y1="142.50000000000003" y2="145.00000000000006" /><path d="M 25.521815274538298 143.00000000000003 a86.0,86.0 0 0,1 -11.493303480769221,-40.785679425670985" fill="none" id="id57" stroke="none" /><text fill="#e1ed5e" style="font-size:6.75px; font-family:Arial;" text-anchor="middle"><textPath startOffset="21.40746469413373" xlink:href="#id57">September</textPath></text><line stroke="#e1ed5e" stroke-width="0.3" x1="15.003131293944662" x2="10.003315487706104" y1="100.72959589197737" y2="100.7725132973878" /><path d="M 14.003168132696942 100.73817937305945 a86.0,86.0 0 0,1 10.791469493833604,-42.45332614584628" fill="none" id="id58" stroke="none" /><text fill="#e1ed5e" style="font-size:6.75px; font-family:Arial;" text-anchor="middle"><textPath startOffset="22.145653131862435" xlink:href="#id58">October</textPath></text><line stroke="#e1ed5e" stroke-width="0.3" x1="26.387840678322718" x2="22.05771365940052" y1="57.49999999999999" y2="54.99999999999999" /><path d="M 25.521815274538284 56.99999999999999 a86.0,86.0 0 0,1 29.574782752854787,-30.34633250058573" fill="none" id="id59" stroke="none" /><text fill="#e1ed5e" style="font-size:6.75px; font-family:Arial;" text-anchor="middle"><textPath startOffset="21.40746469413373" xlink:href="#id59">November</textPath></text><line stroke="#e1ed5e" stroke-width="0.3" x1="56.869717070023135" x2="54.33264160355391" y1="26.7553504044142" y2="22.446841604673864" /><path d="M 56.362301976729285 25.89364864446614 a86.0,86.0 0 0,1 42.16139366436587,-11.88097634709845" fill="none" id="id60" stroke="none" /><text fill="#e1ed5e" style="font-size:6.75px; font-family:Arial;" text-anchor="middle"><textPath startOffset="22.145653131862474" xlink:href="#id60">December</textPath></text></svg>