<?xml version="1.0" encoding="utf-8" ?>
<svg baseProfile="full" height="200mm" version="1.1" viewBox="0,0,200,200" width="200mm" xmlns="http://www.w3.org/2000/svg" xmlns:ev="http://www.w3.org/2001/xml-events" xmlns:xlink="http://www.w3.org/1999/xlink"><defs /><rect fill="#1a1a1a" height="200" width="200" x="0" y="0" /><text alignment-baseline="middle" fill="#e1ed5e" style="dominant-baseline: central; font-size:9.0px; font-family:Arial;" text-anchor="middle" x="100.0" y="100.0">2024</text><line stroke="#e1ed5e" stroke-width="0.3" x1="100.0" x2="100.0" y1="15.0" y2="10.0" /><path d="M 100.0 14.0 a86.0,86.0 0 0,1 42.35913384403234,11.155469271406648" fill="none" id="id49" stroke="none" /><text fill="#e1ed5e" style="font-size:6.75px; font-family:Arial;" text-anchor="middle"><textPath startOffset="22.145653131862478" xlink:href="#id49">January</textPath></text><path d="M 100.0 79.0 l 0.0 -12.36129637941206 a33.36129637941206,33.36129637941206 0 0,0 0.5726910146935125,0.004915863584783838 l -0.21219808984465774 12.359474914021712" fill="#ff990e" stroke="none" /><path d="M 100.72087961077811 79.0123766808444 l 0.6269529483222007 -18.253051024729967 a39.26381509189155,39.26381509189155 0 0,0 0.6734197493634022,0.028919541584507606 l -0.9401984582864392 18.23959891471963" fill="#ffe515" stroke="none" /><path d="M 101.44090949804482 79.04949213459386 l 1.313980819316138 -19.10499273370697 a40.150125141850296,40.150125141850296 0 0,0 0.6871999923635915,0.053193625565443506 l -1.641749806454963 19.079621341146474" fill="#fff016" stroke="none" /><path d="M 101.80034050326958 79.07731436759882 l 1.2191176847290561 -14.167995454284013 a35.22034961320683,35.22034961320683 0 0,0 0.6019332787577344,0.05700370732602773 l -1.4621505268718034 14.144979991452802" fill="#ffb110" stroke="none" /><path d="M 102.15924093988457 79.11130261209362 l 2.096565435897688 -20.282368741467103 a41.39044061298928,41.39044061298928 0 0,0 0.7061289946932559,0.07912322669951627 l -2.4444303321917404 20.243389754260615" fill="#ffff18" stroke="none" /><path d="M 102.87502721639298 79.19773525538626 l 2.108882593813997 -15.258823910149054 a36.40386616779788,36.40386616779788 0 0,0 0.6183021486129232,0.09086912344224245 l -2.3705098480346023 15.22037371340793" fill="#ffc111" stroke="none" /><path d="M 103.23170211078529 79.25015418208739 l 2.5667222108889463 -16.48019783618471 a37.6788783683933,37.6788783683933 0 0,0 0.6382487950173578,0.10502359633795534 l -2.8492485089593744 16.433708241351088" fill="#ffd113" stroke="none" /><path d="M 103.58742460773223 79.30868818359171 l 3.2712211205003534 -18.867534129861646 a40.14901385870044,40.14901385870044 0 0,0 0.6780695570408777,0.12356686097822404 l -3.594625411092285 18.808599094952054" fill="#fff016" stroke="none" /><path d="M 104.29559338865022 79.4440306129975 l 0.7326623542619699 -3.506054591901367 a24.58178906787451,24.58178906787451 0 0,0 0.41231571316410975,0.08986229062881994 l -0.7927404840452138 3.492960843138828" fill="#ff1f03" stroke="none" /><path d="M 104.64783097203109 79.52079915486377 l 0.7353509702388517 -3.2400920562320588 a24.322489666242667,24.322489666242667 0 0,0 0.4063799792799271,0.0959045685947464 l -0.7908631032586637 3.226991343991085" fill="#ff1b02" stroke="none" /><path d="M 104.9986988182912 79.60360301121754 l 2.354601788622643 -9.607578807410949 a30.891901744538153,30.891901744538153 0 0,0 0.5139746167496587,0.13065033769565934 l -2.5191816985976963 9.565743237880023" fill="#ff770b" stroke="none" /><path d="M 105.3480935250658 79.69241777938227 l 3.1581592814255512 -11.992045197557996 a33.40093214509007,33.40093214509007 0 0,0 0.553212639341934,0.15078056487997998 l -3.363553321702178 11.936064138533874" fill="#ff990e" stroke="none" /><path d="M 106.04205211174951 79.88797359093562 l 4.5631839470294855 -15.18935526451489 a36.85998616285884,36.85998616285884 0 0,0 0.6044324527334543,0.18725471891683662 l -4.82325703263457 15.108783957791408" fill="#ffc612" stroke="none" /><path d="M 106.38641147887787 79.99465700312896 l 5.8245130119423605 -18.245204052232268 a40.15234770815,40.15234770815 0 0,0 0.6548221961953885,0.2152530623109133 l -6.136857945785491 18.142530068519335" fill="#fff016" stroke="none" /><path d="M 106.72888874123014 80.10723608172694 l 6.162139695687861 -18.217271069833128 a40.2312488117894,40.2312488117894 0 0,0 0.6523099049445241,0.22690724614244615 l -6.473955372677403 18.108805391122093" fill="#fff116" stroke="none" /><path d="M 107.06938296918511 80.22567764915836 l 6.268616400735199 -17.53443574103032 a39.62127783842688,39.62127783842688 0 0,0 0.6384890593261747,0.23446202657956433 l -6.5686946117154985 17.424242865442036" fill="#ffe915" stroke="none" /><path d="M 107.74402155503746 80.48000691201159 l 1.3339901699338093 -3.3625266551090403 a24.617473604575274,24.617473604575274 0 0,0 0.3914712136671437,0.15920793458686636 l -1.3915158447913927 3.33913146394288" fill="#ff1f03" stroke="none" /><path d="M 109.06512990194946 81.05736502329252 l 5.376438375212348 -11.23468838483034 a33.4548911158106,33.4548911158106 0 0,0 0.5159058857099423,0.25235542107435 l -5.568504510184357 11.140739213658769" fill="#ff9a0e" stroke="none" /><path d="M 109.3889696526874 81.21577127319529 l 8.307405602331366 -16.62037611505814 a39.580901217315635,39.580901217315635 0 0,0 0.6051595200439962,0.30899876286675937 l -8.591492344088941 16.475319400518543" fill="#ffe915" stroke="none" /><path d="M 109.71004243097381 81.37971332152246 l 5.729412419518703 -10.986903765771567 a33.39105407264695,33.39105407264695 0 0,0 0.5059717551710481,0.26940146065613535 l -5.917172990476311 10.88693183739286" fill="#ff990e" stroke="none" /><path d="M 110.34350942703115 81.72400993836675 l 5.678681368783837 -10.033685857901698 a32.529192251984924,32.529192251984924 0 0,0 0.483612325499376,0.27921370631048564 l -5.850086162143611 9.93472525431504" fill="#ff8e0d" stroke="none" /><line stroke="#e1ed5e" stroke-width="0.3" x1="143.13028292997686" x2="145.6673583964461" y1="26.7553504044142" y2="22.446841604673864" /><path d="M 143.63769802327073 25.89364864446614 a86.0,86.0 0 0,1 29.32050498858742,28.57503671076993" fill="none" id="id50" stroke="none" /><text fill="#e1ed5e" style="font-size:6.75px; font-family:Arial;" text-anchor="middle"><textPath startOffset="20.669276256404974" xlink:href="#id50">February</textPath></text><path d="M 110.65571695917076 81.90426304109057 l 6.542219797850253 -11.11011948261066 a33.893230580473954,33.893230580473954 0 0,0 0.49882320699382654,0.29952900344494016 l -6.731975761401514 10.996176478629797" fill="#ffa00e" stroke="none" /><path d="M 110.96478420261332 82.08984904055464 l 0.7630118382304654 -1.2463224951836709 a22.46133734205374,22.46133734205374 0 0,0 0.3271182225978651,0.2041459644602061 l -0.784294189618043 1.2330407338819194" fill="#ff0000" stroke="none" /><path d="M 111.27062007382361 82.28071324371311 l 8.520874262871812 -13.396229620831186 a36.87653193420106,36.87653193420106 0 0,0 0.5312228925061482,0.34433226086957774 l -8.749582787634967 13.247983518257712" fill="#ffc712" stroke="none" /><path d="M 111.5731344415666 82.4767994020092 l 6.940872953326852 -10.509366300064446 a33.594542364975176,33.594542364975176 0 0,0 0.4784882057641252,0.3219482190882469 l -7.120257447187978 10.38866840691908" fill="#ff9c0e" stroke="none" /><path d="M 112.16784306229584 82.88440491214696 l 10.226648776712224 -14.385062222759162 a38.64976941364624,38.64976941364624 0 0,0 0.5374507911167664,0.3890729257453974 l -10.472080578202958 14.20738852564069" fill="#ffdd14" stroke="none" /><path d="M 112.45986205192187 83.09580414077388 l 4.420162931596233 -5.996799933581025 a28.449795284788355,28.449795284788355 0 0,0 0.39063873506996644,0.293142589422007 l -4.522454655576967 5.9200383168950035" fill="#ff5607" stroke="none" /><path d="M 113.03279911837588 83.53348406188908 l 11.680989226304229 -14.758548299623465 a39.821802709022165,39.821802709022165 0 0,0 0.5323781158868006,0.42884612508893527 l -11.932618112546288 14.555853880741122" fill="#ffec16" stroke="none" /><path d="M 113.31354834802062 83.75963576809568 l 7.478816721027911 -9.12294036106516 a32.79664106338234,32.79664106338234 0 0,0 0.4323310476011537,0.3606659362954189 l -7.634322102790958 8.99321224085787" fill="#ff910d" stroke="none" /><path d="M 113.59037401385872 83.9905735841838 l 4.2961340954630645 -5.060835161979964 a27.63843510949177,27.63843510949177 0 0,0 0.3590634402434273,0.31015044776403927 l -4.382377015469352 4.986340581751204" fill="#ff4a06" stroke="none" /><path d="M 113.86319453409587 84.22622945171908 l 9.805428981304143 -11.15677822295254 a35.853287104999595,35.853287104999595 0 0,0 0.45881105468837524,0.4102716742717011 l -9.995505062815894 10.986811018797452" fill="#ffb911" stroke="none" /><path d="M 114.13192950727249 84.46653392183569 l 5.172455543175635 -5.6854347227945325 a28.68625164389549,28.68625164389549 0 0,0 0.3614061027414561,0.3345120932176663 l -5.269291417231057 5.595804883444492" fill="#ff5908" stroke="none" /><path d="M 114.39649973595853 84.71141617570332 l 2.194430604512488 -2.330409256348134 a24.200989375192318,24.200989375192318 0 0,0 0.3000087335068481,0.28740158022745244 l -2.2341118238846485 2.292395545815101" fill="#ff1902" stroke="none" /><path d="M 114.91283532996326 85.21462403516908 l 8.79809379467634 -8.722896863668122 a33.3893254099694,33.3893254099694 0 0,0 0.4000569035151849,0.4104936260961923 l -8.946537499342337 8.570580545504187" fill="#ff990e" stroke="none" /><path d="M 115.16444852881244 85.47280134310134 l 7.14765378580179 -6.8472906403282146 a30.89819901572064,30.89819901572064 0 0,0 0.36363379213292335,0.38616648590526126 l -7.264143411670973 6.723582694478459" fill="#ff780b" stroke="none" /><path d="M 115.41159269507618 85.73525988315684 l 9.114455205427566 -8.43620366722843 a33.41945353092092,33.41945353092092 0 0,0 0.3860779172956881,0.4243672620044333 l -9.257930823565133 8.278498829666324" fill="#ff990e" stroke="none" /><path d="M 115.8921839302757 86.27271002978787 l 7.512345397824761 -6.488985030928973 a30.92684542580568,30.92684542580568 0 0,0 0.34359053197217454,0.40474878271712045 l -7.622630493304048 6.359069465762301" fill="#ff780b" stroke="none" /><path d="M 116.35404254752997 86.82634096563983 l 7.707687263596438 -6.208767260999689 a30.897334684381867,30.897334684381867 0 0,0 0.3291795701237669,0.4159076334032392 l -7.813133264361764 6.075539683681772" fill="#ff780b" stroke="none" /><path d="M 116.7966241395341 87.39550010848427 l 8.16436401696719 -6.126690965474702 a31.207506159095765,31.207506159095765 0 0,0 0.3178677400598049,0.4312486376582055 l -8.26833377661082 5.985636018547622" fill="#ff7c0b" stroke="none" /><line stroke="#e1ed5e" stroke-width="0.3" x1="172.87174338648825" x2="177.1583165268699" y1="56.24261187166439" y2="53.66864786411523" /><path d="M 173.72905801456457 55.72781907015455 a86.0,86.0 0 0,1 12.242430191666344,42.057860355516425" fill="none" id="id51" stroke="none" /><text fill="#e1ed5e" style="font-size:6.75px; font-family:Arial;" text-anchor="middle"><textPath startOffset="22.145653131862474" xlink:href="#id51">March</textPath></text><path d="M 120.05942366710727 93.78553927170692 l 5.901521042493622 -1.8283063045280716 a27.17824040954802,27.17824040954802 0 0,0 0.13423938624306872,0.4468392578089518 l -5.932036748740318 1.7267294431283964" fill="#ff4406" stroke="none" /><path d="M 120.26092885502905 94.47779374421319 l 5.971883375480927 -1.6276633697731204 a27.189723668763143,27.189723668763143 0 0,0 0.11887155460976467,0.4513746548403423 l -5.998944410895422 1.5249082105599796" fill="#ff4406" stroke="none" /><path d="M 120.43855184770803 95.1765574152323 l 2.32213572561652 -0.5480177083977317 a23.38592492272956,23.38592492272956 0 0,0 0.08885441910769945,0.3915089653291116 l -2.331201006281886 0.5080744091295938" fill="#ff0e01" stroke="none" /><path d="M 120.51834098615036 95.52812308129327 l 9.13816799776544 -1.9916211830213273 a30.35268246504946,30.35268246504946 0 0,0 0.10658458512351658,0.5100458238701873 l -9.171010293713323 1.8344589078657356" fill="#ff700a" stroke="none" /><path d="M 120.592083275326 95.88100663000786 l 15.297286336241623 -3.059885692738537 a36.60031633351038,36.60031633351038 0 0,0 0.11794662428259904,0.617146577745967 l -15.347559252806379 2.796836549959256" fill="#ffc312" stroke="none" /><path d="M 120.65975698304385 96.23510406497455 l 9.212204107040558 -1.6787704629675586 a30.36391877245351,30.36391877245351 0 0,0 0.08904607044059627,0.5135940712289854 l -9.239664994973388 1.5203833588179805" fill="#ff700a" stroke="none" /><path d="M 120.7213421655516 96.59031103205396 l 18.786116693588088 -3.0912483529741066 a40.038749875054144,40.038749875054144 0 0,0 0.10577571903415356,0.6791559945802531 l -18.83641390476051 2.768304176462412" fill="#ffee16" stroke="none" /><path d="M 120.77682067341334 96.94652285012252 l 12.232491063697251 -1.7977549373988861 a33.36388937342838,33.36388937342838 0 0,0 0.07841385188685546,0.5673635704366758 l -12.26154943213932 1.5875030587621246" fill="#ff990e" stroke="none" /><path d="M 120.82617615685814 97.30363454192243 l 9.264613779179452 -1.199489737744426 a30.34194006126757,30.34194006126757 0 0,0 0.06244358801344369,0.5171224858256415 l -9.28383945345256 1.0402735749953715" fill="#ff700a" stroke="none" /><path d="M 120.86939407059847 97.66154086499901 l 22.036387750255415 -2.469223210922424 a43.17429702031081,43.17429702031081 0 0,0 0.07620799508708835,0.7372432221474746 l -22.07552813782417 2.090575466492018" fill="#e9ff1a" stroke="none" /><path d="M 120.9064616781168 98.02013634271609 l 22.724576987207808 -2.1520410673421932 a43.826249801556585,43.826249801556585 0 0,0 0.06450050533857002,0.7495936429131284 l -22.75817111524412 1.761626377053403" fill="#e1ff1b" stroke="none" /><path d="M 120.93736805541906 98.37931529534042 l 9.343746913817254 -0.7232651051149829 a30.37169775450246,30.37169775450246 0 0,0 0.035775023578011815,0.5201609912858978 l -9.354785898560332 0.562760689674751" fill="#ff700a" stroke="none" /><path d="M 120.96210409425399 98.7389718711861 l 18.612201859969154 -1.1196638457213508 a39.64584954362913,39.64584954362913 0 0,0 0.03503637867493431,0.6796963862499409 l -18.628679828100662 0.7999956660946792" fill="#ffea16" stroke="none" /><path d="M 120.98066250479742 99.09900007780936 l 18.53233394612258 -0.7958581593717247 a39.5494148614032,39.5494148614032 0 0,0 0.023306494666731938,0.6785431626056317 l -18.54326512778616 0.477608732201973" fill="#ffe815" stroke="none" /><path d="M 120.99303781780057 99.45929381324524 l 6.177056166932727 -0.1590990553334842 a27.179104740886793,27.179104740886793 0 0,0 0.008009511846476112,0.4665139107167816 l -6.178877110377869 0.053038228647636215" fill="#ff4406" stroke="none" /><line stroke="#e1ed5e" stroke-width="0.3" x1="184.99686870605535" x2="189.99668451229388" y1="99.2704041080226" y2="99.22748670261217" /><path d="M 185.99683186730306 99.26182062694052 a86.0,86.0 0 0,1 -10.086455211305974,41.156179273409016" fill="none" id="id52" stroke="none" /><text fill="#e1ed5e" style="font-size:6.75px; font-family:Arial;" text-anchor="middle"><textPath startOffset="21.40746469413373" xlink:href="#id52">April</textPath></text><path d="M 120.99922638620191 99.81974689727618 l 7.40235478531211 -0.06354031300847443 a28.40262748887247,28.40262748887247 0 0,0 0.0,0.4875868314646017 l -7.40235478531211 -0.06354031300847353" fill="#ff5507" stroke="none" /><path d="M 120.99922638620191 100.18025310272382 l 16.777905324295038 0.14401813839665775 a37.778523424163254,37.778523424163254 0 0,0 -0.011133094110083043,0.6484469180178255 l -16.772960798586286 -0.4320119723835543" fill="#ffd213" stroke="none" /><path d="M 120.99303781780057 100.54070618675476 l 18.109514645788646 0.4664368584045952 a39.11552052933925,39.11552052933925 0 0,0 -0.02305080046818462,0.6710989050016596 l -18.098839158323617 -0.7772420279703656" fill="#ffe315" stroke="none" /><path d="M 120.96210409425399 101.26102812881392 l 12.330238623591558 0.7417565369117141 a33.35252959011879,33.35252959011879 0 0,0 -0.03928616510402195,0.5712122184844316 l -12.315688497322471 -0.9533121795504891" fill="#ff990e" stroke="none" /><path d="M 120.9064616781168 101.97986365728391 l 15.583318681129551 1.475756481018313 a36.65304054517552,36.65304054517552 0 0,0 -0.06469716768010222,0.6258864087657285 l -15.555689120967783 -1.743047412066973" fill="#ffc412" stroke="none" /><path d="M 120.86939407059847 102.33845913500097 l 7.0500636014521 0.7899743315681617 a28.094184676836115,28.094184676836115 0 0,0 -0.05781771666517058,0.4788136351200538 l -7.0354637985272666 -0.910881643611624" fill="#ff5107" stroke="none" /><path d="M 120.82617615685814 102.69636545807757 l 15.475473316571156 2.0036098505996076 a36.604637990204246,36.604637990204246 0 0,0 -0.08603045734895473,0.6224735333526322 l -15.43879834266699 -2.268971692152325" fill="#ffc312" stroke="none" /><path d="M 120.77682067341334 103.0534771498775 l 15.641956500288218 2.2988289451872626 a36.80997842111556,36.80997842111556 0 0,0 -0.09724584177266964,0.6243880636404593 l -15.60018916637728 -2.5670051907591724" fill="#ffc612" stroke="none" /><path d="M 120.7213421655516 103.40968896794604 l 9.260742874135401 1.5238517158130127 a30.38528010411175,30.38528010411175 0 0,0 -0.08910871527434779,0.5139553899828541 l -9.233219341368818 -1.6826001387164546" fill="#ff710a" stroke="none" /><path d="M 120.65975698304385 103.76489593502545 l 21.3919293667117 3.8983221332750895 a42.744230441318564,42.744230441318564 0 0,0 -0.13774574083380114,0.7207439218521818 l -21.32185733359574 -4.264968620160586" fill="#eeff19" stroke="none" /><path d="M 120.592083275326 104.11899336999214 l 12.113313035115757 2.4230018601404084 a33.35327044555203,33.35327044555203 0 0,0 -0.1171212625785274,0.5604676398125659 l -12.069934061712866 -2.6305859512383836" fill="#ff990e" stroke="none" /><path d="M 120.51834098615036 104.47187691870673 l 18.100919845702496 3.9450112326330107 a39.52583096344526,39.52583096344526 0 0,0 -0.15017771422812864,0.6617107185370219 l -18.030531269916704 -4.25515628510905" fill="#ffe815" stroke="none" /><path d="M 120.43855184770803 104.8234425847677 l 4.567119293915556 1.0778277177429703 a25.692578314103105,25.692578314103105 0 0,0 -0.10498779501461736,0.42838603083254545 l -4.547943972384642 -1.1560695731836155" fill="#ff2f04" stroke="none" /><path d="M 120.35273937422433 105.17358676015961 l 20.897996418733026 5.312188968662634 a42.56259738427074,42.56259738427074 0 0,0 -0.18608067448329169,0.7065786301279957 l -20.803726263445004 -5.670148103163433" fill="#f1ff19" stroke="none" /><path d="M 120.26092885502905 105.52220625578681 l 21.01982864815491 5.729047769080736 a42.78658267691844,42.78658267691844 0 0,0 -0.19922555110117862,0.7069811977218811 l -20.91838460497915 -6.089036890705626" fill="#eeff19" stroke="none" /><path d="M 120.16314734710363 105.8691983318838 l 4.23112278211274 1.2316181768288688 a25.406731592780382,25.406731592780382 0 0,0 -0.12548950940396308,0.4177137635547919 l -4.209356952705147 -1.3040695439743841" fill="#ff2b04" stroke="none" /><path d="M 120.05942366710727 106.21446072829308 l 18.38286769849735 5.695059403578236 a40.24483116139869,40.24483116139869 0 0,0 -0.21010730966077795,0.6581581549850606 l -18.28239567305932 -6.00978659225468" fill="#fff116" stroke="none" /><path d="M 119.71291397450082 107.23885506374661 l 14.5424085943782 5.340173869203549 a36.49190448844716,36.49190448844716 0 0,0 -0.2209833590525986,0.5861846142894463 l -14.44859455151116 -5.589026763687155" fill="#ffc212" stroke="none" /><path d="M 119.58574465831526 107.57618678355244 l 8.902356459650251 3.4436227229910483 a30.545181401784717,30.545181401784717 0 0,0 -0.1933674709025406,0.4874123436554865 l -8.841930313781587 -3.595936083860099" fill="#ff730a" stroke="none" /><path d="M 119.4528033332814 107.91128576633889 l 20.103999346249203 8.17612151572801 a42.70298948886855,42.70298948886855 0 0,0 -0.2819905239588658,0.6766746024555371 l -19.96068297775385 -8.520028627624825" fill="#efff19" stroke="none" /><path d="M 119.31412917781788 108.2440532568976 l 8.457173542452832 3.60986449064869 a30.19537416139281,30.19537416139281 0 0,0 -0.20758042612978575,0.47498463822944953 l -8.393959234306081 -3.7545111986539843" fill="#ff6e0a" stroke="none" /><path d="M 119.16976305983485 108.57439118712176 l 8.680592129430897 3.882718446820076 a30.509373389178414,30.509373389178414 0 0,0 -0.21794666551973862,0.47625279727136494 l -8.612660999056104 -4.03116022630613" fill="#ff720a" stroke="none" /><path d="M 118.8641267826498 109.22738970284198 l 4.266659143478162 2.0870367920914004 a25.74974765836765,25.74974765836765 0 0,0 -0.19763555058817572,0.3954034919831309 l -4.2302036796782545 -2.159972140238277" fill="#ff3004" stroke="none" /><path d="M 118.70294669586154 109.54985784667822 l 8.260812390198112 4.218029667053815 a30.275386548182063,30.275386548182063 0 0,0 -0.24031726886887209,0.46084005007570444 l -8.18718705235429 -4.359215960234023" fill="#ff6f0a" stroke="none" /><path d="M 118.5362547648365 109.86951160357373 l 13.760695372263948 7.3267952114813415 a36.58969740563403,36.58969740563403 0 0,0 -0.2999565030736888,0.5518861808505441 l -13.63289351957492 -7.561936225806488" fill="#ffc312" stroke="none" /><line stroke="#e1ed5e" stroke-width="0.3" x1="174.33088141563837" x2="178.70328620479359" y1="141.23008692659167" y2="143.65538615756765" /><path d="M 175.20536237346943 141.71514677278685 a86.0,86.0 0 0,1 -30.301960400862466,31.631185727798858" fill="none" id="id53" stroke="none" /><text fill="#e1ed5e" style="font-size:6.75px; font-family:Arial;" text-anchor="middle"><textPath startOffset="22.145653131862474" xlink:href="#id53">May</textPath></text><path d="M 118.36410011445183 110.18625677009912 l 10.943286252816703 6.070056413609034 a33.51403607456376,33.51403607456376 0 0,0 -0.2833797433482106,0.5007048535737215 l -10.837473144447115 -6.257018037281878" fill="#ff9b0e" stroke="none" /><path d="M 118.18653347947321 110.5 l 10.710436418556094 6.1836733493917295 a33.367346698783464,33.367346698783464 0 0,0 -0.29065547306772765,0.4935965366248177 l -10.602707235358602 -6.366621054310096" fill="#ff990e" stroke="none" /><path d="M 117.62189284568427 111.42229804090321 l 18.91854414601398 12.26277174808036 a43.54521864054988,43.54521864054988 0 0,0 -0.4119700355109942,0.6237751413905905 l -18.70524967158226 -12.58572676781001" fill="#e5ff1a" stroke="none" /><path d="M 117.423217284605 111.72311816256416 l 7.647630694422893 5.1456672341215475 a30.217599824389822,30.217599824389822 0 0,0 -0.29326937966753425,0.42788878939652714 l -7.558171577940039 -5.276190758588118" fill="#ff6e0a" stroke="none" /><path d="M 117.21940702142032 112.02048342749411 l 12.430671707722151 8.67757426660614 a36.159877778452866,36.159877778452866 0 0,0 -0.35967869080575204,0.505933122414781 l -12.279877918386438 -8.889684615730424" fill="#ffbd11" stroke="none" /><path d="M 117.01052211995028 112.31430620078461 l 6.994497479870662 5.063476775161758 a29.634917026151413,29.634917026151413 0 0,0 -0.30184994769974355,0.4095174260156888 l -6.9065455125870905 -5.182800510446325" fill="#ff6609" stroke="none" /><path d="M 116.79662413953412 112.60449989151573 l 7.277688880949248 5.461313413241288 a30.098939479166873,30.098939479166873 0 0,0 -0.3136711137499111,0.41060555687665856 l -7.1828657898450325 -5.5854398833588235" fill="#ff6d0a" stroke="none" /><path d="M 116.57777611688842 112.89097897827486 l 16.912924534232477 13.151592414728677 a42.42455132187817,42.42455132187817 0 0,0 -0.45199029979400274,0.5710749784315683 l -16.684667803796913 -13.439987337074928" fill="#f2ff19" stroke="none" /><path d="M 116.35404254752997 113.17365903436017 l 7.129678029833797 5.743163937407328 a30.155121016187103,30.155121016187103 0 0,0 -0.3281928011663653,0.4003418540199423 l -7.030038409428804 -5.8647080731257635" fill="#ff6d0a" stroke="none" /><path d="M 116.1254893667686 113.45245675266167 l 9.486024449208081 7.913578977680039 a33.353517397363106,33.353517397363106 0 0,0 -0.3705503302364214,0.4365073572829519 l -9.348779555464546 -8.075253117412547" fill="#ff990e" stroke="none" /><path d="M 115.89218393027572 113.72728997021213 l 6.832547987921472 5.901792219186844 a30.028558213009656,30.028558213009656 0 0,0 -0.34030783904627837,0.3872078513862795 l -6.7302290849166075 -6.0182123483844165" fill="#ff6c09" stroke="none" /><path d="M 115.6541949942343 113.99807769240083 l 7.18943467715743 6.428836820568359 a30.64457950574359,30.64457950574359 0 0,0 -0.3540212116584383,0.3891313270008224 l -7.0780157646571125 -6.551305723126853" fill="#ff740a" stroke="none" /><path d="M 115.41159269507618 114.26474011684316 l 6.741191780260558 6.239546471659513 a30.18561956485523,30.18561956485523 0 0,0 -0.3552476085957421,0.377260649602987 l -6.633088337928556 -6.354348581206997" fill="#ff6e0a" stroke="none" /><path d="M 115.16444852881244 114.52719865689866 l 6.643966346010434 6.364769466878939 a30.20068362533098,30.20068362533098 0 0,0 -0.3618519340191413,0.37129196171913903 l -6.5337276108404865 -6.4778841206658155" fill="#ff6e0a" stroke="none" /><path d="M 114.91283532996324 114.78537596483092 l 4.854831261634128 4.813337226680951 a27.836490461976283,27.836490461976283 0 0,0 -0.33935078445195693,0.33645036782517973 l -4.771488557052206 -4.895967604734793" fill="#ff4d07" stroke="none" /><path d="M 114.65682725009322 115.03919595460226 l 1.5829411348986748 1.6242370539088027 a23.268005432939844,23.268005432939844 0 0,0 -0.28844295301093537,0.2763218241409074 l -1.5548256960224274 -1.6511710083552902" fill="#ff0c01" stroke="none" /><path d="M 114.39649973595853 115.28858382429668 l 4.236070465268418 4.498560037626511 a27.179104740886793,27.179104740886793 0 0,0 -0.34241818841800264,0.3169371631929755 l -4.158222505536449 -4.570614946951866" fill="#ff4406" stroke="none" /><path d="M 114.13192950727249 115.5334660781643 l 6.256985250472597 6.877522852755082 a30.297859162990157,30.297859162990157 0 0,0 -0.38771877949882066,0.34670052342048185 l -6.138001444150398 -6.983918906058951" fill="#ff6f0a" stroke="none" /><path d="M 113.86319453409587 115.77377054828091 l 14.357026737508104 16.335660944236796 a42.748058194390275,42.748058194390275 0 0,0 -0.5553594036057752,0.4797062256784655 l -14.074487854139473 -16.579711302379977" fill="#eeff19" stroke="none" /><path d="M 113.59037401385872 116.0094264158162 l 13.979636168569195 16.46797625527936 a42.60149229451551,42.60149229451551 0 0,0 -0.5615803081012455,0.46849026631384294 l -13.694881526306055 -16.705528705505074" fill="#f0ff19" stroke="none" /><path d="M 113.31354834802062 116.24036423190432 l 6.179820670569066 7.538376393308712 a30.74768188686863,30.74768188686863 0 0,0 -0.41106609538572014,0.33112574860061905 l -6.049503804828094 -7.643350435702735" fill="#ff760a" stroke="none" /><path d="M 113.03279911837588 116.46651593811092 l 13.422183306326824 16.958490139409108 a42.6274222346787,42.6274222346787 0 0,0 -0.5776828787535528,0.4492097006024197 l -13.129090482938041 -17.18640089163232" fill="#f0ff19" stroke="none" /><path d="M 112.45986205192187 116.90419585922612 l 5.577402525647583 7.566817697210918 a30.400220688681962,30.400220688681962 0 0,0 -0.4227353204722526,0.30602777160359956 l -5.446686194801363 -7.661446240187594" fill="#ff710a" stroke="none" /><path d="M 112.16784306229584 117.11559508785304 l 5.248006993921772 7.381979062872464 a30.057328099000237,30.057328099000237 0 0,0 -0.4230997015364473,0.2953564512511941 l -5.120512201211565 -7.47098032992878" fill="#ff6c0a" stroke="none" /><path d="M 111.8722381534696 117.32195027204791 l 5.226199159790415 7.625180760988344 a30.244270619986242,30.244270619986242 0 0,0 -0.4307701717255539,0.28984139619889837 l -5.094532699967858 -7.7137718312443635" fill="#ff6f0a" stroke="none" /><path d="M 111.5731344415666 117.5232005979908 l 3.845583855013338 5.822704095250414 a27.977993849723944,27.977993849723944 0 0,0 -0.403035481912691,0.2612427300392586 l -3.7450627408436374 -5.887860666993567" fill="#ff4f07" stroke="none" /><path d="M 111.27062007382361 117.71928675628689 l 5.676540429952846 8.924464404190223 a31.576822592562834,31.576822592562834 0 0,0 -0.45987262131662227,0.28699452773358664 l -5.522503679846508 -9.020594728765358" fill="#ff810b" stroke="none" /><path d="M 110.96478420261333 117.91015095944535 l 4.735508706523373 7.735097584810386 a30.069552213648596,30.069552213648596 0 0,0 -0.4425482673440287,0.2657375190955815 l -4.602027682621908 -7.81524910444189" fill="#ff6c0a" stroke="none" /><line stroke="#e1ed5e" stroke-width="0.3" x1="143.1302829299769" x2="145.66735839644613" y1="173.24464959558577" y2="177.55315839532614" /><path d="M 143.63769802327073 174.10635135553383 a86.0,86.0 0 0,1 -40.68552437913181,11.842963189579606" fill="none" id="id54" stroke="none" /><text fill="#e1ed5e" style="font-size:6.75px; font-family:Arial;" text-anchor="middle"><textPath startOffset="21.407464694133747" xlink:href="#id54">June</textPath></text><path d="M 110.65571695917076 118.09573695890943 l 2.3780776932091316 4.038495820511305 a25.686651470637234,25.686651470637234 0 0,0 -0.3818840983132245,0.22048088696037854 l -2.3084011270355087 -4.0787236047478554" fill="#ff2f04" stroke="none" /><path d="M 110.34350942703117 118.27599006163325 l 2.5403602876033626 4.488573215573769 a26.157588574362876,26.157588574362876 0 0,0 -0.3926824677090303,0.21781434539514985 l -2.4629336317382378 -4.531520476402063" fill="#ff3605" stroke="none" /><path d="M 110.02825361518725 118.45085714620011 l 6.83094082602928 12.568161734994073 a35.30456018078441,35.30456018078441 0 0,0 -0.5349669477743947,0.28483976755670165 l -6.614185062468332 -12.683571970273343" fill="#ffb210" stroke="none" /><path d="M 109.71004243097381 118.62028667847754 l 4.24219279144908 8.134964031689702 a30.17463020926226,30.17463020926226 0 0,0 -0.46134535024062395,0.2355662230486271 l -4.101920219494874 -8.206588206411164" fill="#ff6e0a" stroke="none" /><path d="M 109.3889696526874 118.78422872680471 l 3.0836030537168773 6.169271731228999 a27.896993655690377,27.896993655690377 0 0,0 -0.4301978796093525,0.21043134040759337 l -2.977244924845455 -6.221296821733817" fill="#ff4e07" stroke="none" /><path d="M 109.06512990194946 118.94263497670748 l 4.009475893471716 8.378262542228956 a30.288228042358114,30.288228042358114 0 0,0 -0.47092610917445044,0.22041719754686703 l -3.8650610704257593 -8.445855971346356" fill="#ff6f0a" stroke="none" /><path d="M 108.73861861582097 119.09545874513695 l 3.545777214535599 7.7481631246645435 a29.520948765338943,29.520948765338943 0 0,0 -0.4626165987456559,0.20692252037335138 l -3.4122472129343158 -7.807889395947745" fill="#ff6509" stroke="none" /><path d="M 108.4095320186766 119.2426549942271 l 2.547726204501451 5.829696142911904 a27.36209603289555,27.36209603289555 0 0,0 -0.43201482449173606,0.18440143938612275 l -2.4472763048392836 -5.872572231957431" fill="#ff4706" stroke="none" /><path d="M 108.07796709384702 119.3841803445677 l 4.752726951333101 11.4048145137038 a33.35549301185173,33.35549301185173 0 0,0 -0.5304246707667291,0.21571909590904098 l -4.5562478193759315 -11.48472086619213" fill="#ff990e" stroke="none" /><path d="M 107.74402155503746 119.51999308798841 l 2.28672971035416 5.76405267249995 a27.20108345207273,27.20108345207273 0 0,0 -0.4355123212769101,0.1684655217401463 l -2.1874451265837207 -5.802458082378138" fill="#ff4406" stroke="none" /><path d="M 107.407793817531 119.65005319985036 l 5.459139303087763 14.481015586206244 a36.475852620727096,36.475852620727096 0 0,0 -0.5878011537866329,0.21584872556479728 l -5.2097489976470035 -14.572595160779763" fill="#ffc112" stroke="none" /><path d="M 107.06938296918513 119.77432235084164 l 5.669558655060906 15.85876460800956 a37.841743087799216,37.841743087799216 0 0,0 -0.6135664331976584,0.21343025550741176 l -5.396486449818226 -15.953753296085562" fill="#ffd313" stroke="none" /><path d="M 106.72888874123015 119.89276391827305 l 2.9879151058327698 8.833240092673456 a30.32490038630319,30.32490038630319 0 0,0 -0.49455185073363256,0.1625690163840745 l -2.835840517451403 -8.883230030459549" fill="#ff700a" stroke="none" /><path d="M 106.38641147887787 120.00534299687104 l 2.9201421853761693 9.147303804537694 a30.602103794238182,30.602103794238182 0 0,0 -0.501815290256225,0.15546365966974118 l -2.76268626224832 -9.196084052014081" fill="#ff740a" stroke="none" /><path d="M 105.3480935250658 120.30758222061773 l 3.8586761914972127 14.652022006403778 a36.151604892781755,36.151604892781755 0 0,0 -0.601484732902132,0.1528950670159681 l -3.6065861653696833 -14.716102305255017" fill="#ffbd11" stroke="none" /><path d="M 104.9986988182912 120.39639698878246 l 5.187900892644943 21.168406017511906 a42.79485556258955,42.79485556258955 0 0,0 -0.7150161334408927,0.1687418606040575 l -4.823752605464171 -21.25434402176219" fill="#eeff19" stroke="none" /><path d="M 104.64783097203109 120.47920084513623 l 3.244229215473642 14.294672523839616 a35.65819517424802,35.65819517424802 0 0,0 -0.5981026902809674,0.13035369757668033 l -2.9983641085735386 -14.348257679550015" fill="#ffb711" stroke="none" /><path d="M 104.29559338865022 120.5559693870025 l 1.9177578563415985 9.177165578753405 a30.375402031668628,30.375402031668628 0 0,0 -0.5113243510288056,0.10227919067940153 l -1.7599370197818343 -9.208734166095667" fill="#ff700a" stroke="none" /><path d="M 103.94208987418118 120.62667999033965 l 1.7451489965150877 9.131356979540215 a30.296624403934764,30.296624403934764 0 0,0 -0.5116743031773842,0.0932441028067579 l -1.5881399597866463 -9.159969256278336" fill="#ff6f0a" stroke="none" /><path d="M 103.58742460773223 120.69131181640829 l 2.1100318045627975 12.170102729586414 a33.35166525878002,33.35166525878002 0 0,0 -0.5649494115805396,0.09296221068711033 l -1.9008048899291858 -12.204530938769196" fill="#ff990e" stroke="none" /><path d="M 103.2317021107853 120.74984581791261 l 1.3309795618954732 8.54584356768355 a29.648869803477318,29.648869803477318 0 0,0 -0.5035717860003217,0.07400771109521219 l -1.1840826702874658 -8.567432352077645" fill="#ff6609" stroke="none" /><path d="M 102.875027216393 120.80226474461374 l 0.957121517724406 6.9252545127030345 a27.991082295711074,27.991082295711074 0 0,0 -0.4765444147617704,0.06169821524246939 l -0.8380992810718603 -6.9406643241458985" fill="#ff4f07" stroke="none" /><path d="M 102.51750503828377 120.84855314841334 l 1.1331562931986268 9.384159652095883 a30.45232752081941,30.45232752081941 0 0,0 -0.5195226506382634,0.05821359662456842 l -0.9718977409595639 -9.402229009227423" fill="#ff710a" stroke="none" /><path d="M 102.15924093988457 120.88869738790638 l 0.9619822307744686 9.306305442812352 a30.355892838593473,30.355892838593473 0 0,0 -0.5187972949337565,0.04913064322174086 l -0.802085372455697 -9.321447841539277" fill="#ff700a" stroke="none" /><path d="M 101.80034050326958 120.92268563240118 l 0.796104479562143 9.251940800184803 a30.286128951963953,30.286128951963953 0 0,0 -0.5183701796938684,0.040125130310447274 l -0.6371653050930388 -9.264243697490304" fill="#ff6f0a" stroke="none" /><path d="M 101.44090949804482 120.95050786540614 l 0.630421380634165 9.166188515946248 a30.18784213115493,30.18784213115493 0 0,0 -0.5172983565633154,0.03111938456571175 l -0.47297867193838455 -9.175659878336651" fill="#ff6e0a" stroke="none" /><path d="M 101.08105385017728 120.97215588758144 l 0.3186138412970235 6.181023402790278 a27.189229765140986,27.189229765140986 0 0,0 -0.4663266738337591,0.02002607385460378 l -0.21246140686243492 -6.185582045070713" fill="#ff4406" stroke="none" /><path d="M 100.72087961077811 120.9876233191556 l 0.2968907088732648 8.643649052666996 a29.64874632757178,29.64874632757178 0 0,0 -0.5088101633786094,0.013105144934730167 l -0.14846723142391152 -8.64747191495177" fill="#ff6609" stroke="none" /><line stroke="#e1ed5e" stroke-width="0.3" x1="101.45913802915013" x2="101.54496967792366" y1="184.9874750549273" y2="189.98673829345242" /><path d="M 101.47630435890484 185.9873277026323 a86.0,86.0 0 0,1 -42.54439059252881,-10.42667462771756" fill="none" id="id55" stroke="none" /><text fill="#e1ed5e" style="font-size:6.75px; font-family:Arial;" text-anchor="middle"><textPath startOffset="22.145653131862474" xlink:href="#id55">July</textPath></text><path d="M 100.36049292484886 120.99690560180557 l 0.16351659101373747 9.52402166362628 a30.52542525689848,30.52542525689848 0 0,0 -0.5240095158625886,0.004497991466633547 l -1.1665281551378079e-15 -9.52542525689848" fill="#ff720a" stroke="none" /><path d="M 100.0 121.0 l 1.1603737301774603e-15 9.475170563344122 a30.475170563344122,30.475170563344122 0 0,0 -0.5231468272213126,-0.004490586322205142 l 0.16265390237245927 -9.473774375216351" fill="#ff720a" stroke="none" /><path d="M 99.63950707515114 120.99690560180557 l -0.333474731857538 19.423231311227475 a40.4260937907299,40.4260937907299 0 0,0 -0.693763141252687,-0.017868877571383206 l 0.6668511871809689 -19.414644716306043" fill="#fff316" stroke="none" /><path d="M 99.27912038922189 120.98762331915562 l -0.320864408967306 9.341617173303806 a30.347126049300208,30.347126049300208 0 0,0 -0.5204882401312941,-0.02235200455430027 l 0.48117840969943887 -9.334732600323676" fill="#ff700a" stroke="none" /><path d="M 98.91894614982273 120.97215588758144 l -0.8025572788461179 15.569396804714227 a36.590067833350645,36.590067833350645 0 0,0 -0.627006788842292,-0.03771917142154324 l 1.0697084198208562 -15.553325655467992" fill="#ffc312" stroke="none" /><path d="M 98.55909050195518 120.95050786540614 l -0.4408120472301533 6.409310421780451 a27.42445136519273,27.42445136519273 0 0,0 -0.4693903867585177,-0.03633378456739101 l 0.5507714287639072 -6.400798870218006" fill="#ff4706" stroke="none" /><path d="M 98.19965949673042 120.92268563240118 l -0.7414401770801765 8.616658744336144 a29.6484993757607,29.6484993757607 0 0,0 -0.5067075890923627,-0.0479857355089411 l 0.8892473295575545 -8.602661253322019" fill="#ff6609" stroke="none" /><path d="M 97.84075906011543 120.88869738790638 l -0.9655624790103182 9.3409410967548 a30.390713043955465,30.390713043955465 0 0,0 -0.5184714956381683,-0.05809581251430823 l 1.1257698762492858 -9.32298952373352" fill="#ff710a" stroke="none" /><path d="M 97.48249496171623 120.84855314841334 l -1.1271465030554757 9.33438996849845 a30.402196303170587,30.402196303170587 0 0,0 -0.5175933067434856,-0.06701281613695033 l 1.2872176316897554 -9.313665556161101" fill="#ff710a" stroke="none" /><path d="M 97.12497278360702 120.80226474461374 l -2.144737249302318 15.518250336285913 a36.66575856344603,36.66575856344603 0 0,0 -0.622750264925297,-0.09152284336086439 l 2.4108126198353 -15.479146419626167" fill="#ffc412" stroke="none" /><path d="M 96.76829788921471 120.74984581791261 l -2.5505136939884236 16.376127530477905 a37.573553420968565,37.573553420968565 0 0,0 -0.6364646781940974,-0.10473002059362185 l 2.8312558752355845 -16.329931511388615" fill="#ffcf13" stroke="none" /><path d="M 96.41257539226777 120.69131181640829 l -2.622621478797103 15.126583755164775 a36.35225323928259,36.35225323928259 0 0,0 -0.6139467419585526,-0.11188154802686909 l 2.881902954306713 -15.079334033206539" fill="#ffc011" stroke="none" /><path d="M 96.05791012581884 120.62667999033965 l -3.4727053446611094 18.170661788867907 a39.499530595565446,39.499530595565446 0 0,0 -0.6649153754957063,-0.133001697140295 l 3.784117205687774 -18.10837069506475" fill="#ffe815" stroke="none" /><path d="M 95.70440661134978 120.55596938700252 l -3.4514286876810654 16.516335701803424 a37.87310596780611,37.87310596780611 0 0,0 -0.6352538724393993,-0.13845062481407758 l 3.734444976739601 -16.454653618855627" fill="#ffd313" stroke="none" /><path d="M 95.35216902796893 120.47920084513623 l -2.0460454805564328 9.015253908058495 a30.244517571797317,30.244517571797317 0 0,0 -0.5053251781710781,-0.11925536611925018 l 2.2005028124673984 -8.978802398293018" fill="#ff6f0a" stroke="none" /><path d="M 95.00130118170881 120.39639698878247 l -2.1923907931237325 8.94570259113747 a30.210438221868564,30.210438221868564 0 0,0 -0.5026365335267895,-0.12776824127763647 l 2.3456326198759005 -8.906749118024571" fill="#ff6e0a" stroke="none" /><path d="M 94.6519064749342 120.30758222061772 l -2.2320191352914 8.475340211512929 a29.764319775156256,29.764319775156256 0 0,0 -0.4929801907774571,-0.13436394318192785 l 2.377180727003552 -8.435775774186858" fill="#ff6809" stroke="none" /><path d="M 94.30408787586889 120.21278271476187 l -2.528291454535815 8.972014437093748 a30.3214430609481,30.3214430609481 0 0,0 -0.49978399646135185,-0.14547983743989254 l 2.6819354633787738 -8.92729090535134" fill="#ff700a" stroke="none" /><path d="M 93.95794788825049 120.11202640906438 l -2.470555237565393 8.223674881311169 a29.586761422991213,29.586761422991213 0 0,0 -0.4851656399523437,-0.15030555544549082 l 2.611361510389371 -8.180052738059029" fill="#ff6609" stroke="none" /><path d="M 93.61358852112213 120.00534299687104 l -3.9779122004197123 12.46075331099976 a34.080296577365495,34.080296577365495 0 0,0 -0.5557965081890053,-0.182701351763126 l 4.191231446256461 -12.390631037834613" fill="#ffa20f" stroke="none" /><path d="M 93.27111125876986 119.89276391827306 l -4.614018268567491 13.640525153702047 a35.399760103954954,35.399760103954954 0 0,0 -0.5739720945898847,-0.19965728920991915 l 4.847496135202396 -13.559309431923538" fill="#ffb410" stroke="none" /><path d="M 92.93061703081489 119.77432235084164 l -3.0938846881785693 8.654146112475841 a30.190558601076788,30.190558601076788 0 0,0 -0.4865148832488778,-0.17865500406230056 l 3.241988723081566 -8.599760259404821" fill="#ff6e0a" stroke="none" /><path d="M 92.59220618246901 119.65005319985036 l -11.401231784398977 30.243121855939478 a53.32080608207032,53.32080608207032 0 0,0 -0.8537111424283725,-0.3302338096954244 l 11.918715189320878 -30.042948158106014" fill="#76ff27" stroke="none" /><path d="M 92.25597844496254 119.51999308798841 l -3.316784856759681 8.360464523265444 a29.99435538717536,29.99435538717536 0 0,0 -0.47697529385788945,-0.19398169963180947 l 3.4598146118080115 -8.302295567054344" fill="#ff6b09" stroke="none" /><path d="M 91.92203290615298 119.3841803445677 l -2.6104755553667505 6.26419102262227 a27.78635924432746,27.78635924432746 0 0,0 -0.43871343400632523,-0.1872606774639574 l 2.717624064543507 -6.218455695498908" fill="#ff4d07" stroke="none" /><path d="M 91.59046798132341 119.24265499422711 l -3.6319376064636666 8.310584009493743 a30.069552213648596,30.069552213648596 0 0,0 -0.47121364836402,-0.21076787131758767 l 3.774064657683322 -8.2470123872663" fill="#ff6c0a" stroke="none" /><path d="M 90.6110303473126 118.78422872680471 l -4.1083240355650394 8.219400128297814 a30.188953414304784,30.188953414304784 0 0,0 -0.4615643402995272,-0.23567804093306904 l 4.248815597578149 -8.147664135691908" fill="#ff6e0a" stroke="none" /><path d="M 90.28995756902619 118.62028667847754 l -4.205481891957785 8.064566041401601 a30.0952352020007,30.0952352020007 0 0,0 -0.45603049680050445,-0.24281055352638717 l 4.343301204544852 -7.991185020152642" fill="#ff6d0a" stroke="none" /><path d="M 89.97174638481275 118.45085714620012 l -4.33728685859232 7.980119301009886 a30.08264065963573,30.08264065963573 0 0,0 -0.4516060620743666,-0.2504982699153681 l 4.473637108822789 -7.904488115661369" fill="#ff6c0a" stroke="none" /><line stroke="#e1ed5e" stroke-width="0.3" x1="58.13341422392154" x2="55.67067388415222" y1="173.97424548756322" y2="178.32567169271397" /><path d="M 57.64086615596768 174.84453072859336 a86.0,86.0 0 0,1 -31.369924170532247,-30.572349798747897" fill="none" id="id56" stroke="none" /><text fill="#e1ed5e" style="font-size:6.75px; font-family:Arial;" text-anchor="middle"><textPath startOffset="22.145653131862474" xlink:href="#id56">August</textPath></text><path d="M 89.65649057296885 118.27599006163327 l -3.3554406939825845 5.928742194149775 a27.812412660396184,27.812412660396184 0 0,0 -0.4134878437881175,-0.23872731791770938 l 3.4567210056311017 -5.870267978955894" fill="#ff4d07" stroke="none" /><path d="M 89.34428304082925 118.09573695890944 l -8.128231462037617 13.803514023669333 a37.01889965328749,37.01889965328749 0 0,0 -0.5448252033866084,-0.32715188053409006 l 8.363989421981652 -13.661948142599323" fill="#ffc812" stroke="none" /><path d="M 89.03521579738668 117.91015095944536 l -11.249895540672846 18.375858903216695 a42.54605161292851,42.54605161292851 0 0,0 -0.6196242267427545,-0.3866913446971421 l 11.563683896205314 -18.180031761678006" fill="#f1ff19" stroke="none" /><path d="M 88.72937992617639 117.7192867562869 l -33.81186022147082 53.1578602688607 a84.0,84.0 0 0,0 -1.2100574709719614,-0.7843446331844213 l 34.7194033246998 -52.56960179397239" fill="#4dd2ff" stroke="none" /><path d="M 88.4268655584334 117.5232005979908 l -5.958127000464629 9.02136367157885 a31.811303337181336,31.811303337181336 0 0,0 -0.4530894718391928,-0.304858817394073 l 6.112112760400828 -8.917755180127656" fill="#ff840c" stroke="none" /><path d="M 88.1277618465304 117.32195027204791 l -10.05673538614297 14.673077477560835 a38.78867980737759,38.78867980737759 0 0,0 -0.5460059122833266,-0.38115453172987024 l 10.307136389600062 -14.498278130025836" fill="#ffdf14" stroke="none" /><path d="M 87.83215693770417 117.11559508785305 l -14.281650486274174 20.088929949034664 a45.648136787784125,45.648136787784125 0 0,0 -0.6347677515752508,-0.4595229002473505 l 14.624399248223378 -19.84080627741425" fill="#ccff1d" stroke="none" /><line stroke="#e1ed5e" stroke-width="0.3" x1="26.387840678322732" x2="22.057713659400548" y1="142.50000000000003" y2="145.00000000000006" /><path d="M 25.521815274538298 143.00000000000003 a86.0,86.0 0 0,1 -11.493303480769221,-40.785679425670985" fill="none" id="id57" stroke="none" /><text fill="#e1ed5e" style="font-size:6.75px; font-family:Arial;" text-anchor="middle"><textPath startOffset="21.40746469413373" xlink:href="#id57">September</textPath></text><line stroke="#e1ed5e" stroke-width="0.3" x1="15.003131293944662" x2="10.003315487706104" y1="100.72959589197737" y2="100.7725132973878" /><path d="M 14.003168132696942 100.73817937305945 a86.0,86.0 0 0,1 10.791469493833604,-42.45332614584628" fill="none" id="id58" stroke="none" /><text fill="#e1ed5e" style="font-size:6.75px; font-family:Arial;" text-anchor="middle"><textPath startOffset="22.145653131862435" xlink:href="#id58">October</textPath></text><line stroke="#e1ed5e" stroke-width="0.3" x1="26.387840678322718" x2="22.05771365940052" y1="57.49999999999999" y2="54.99999999999999" /><path d="M 25.521815274538284 56.99999999999999 a86.0,86.0 0 0,1 29.574782752854787,-30.34633250058573" fill="none" id="id59" stroke="none" /><text fill="#e1ed5e" style="font-size:6.75px; font-family:Arial;" text-anchor="middle"><textPath startOffset="21.40746469413373" xlink:href="#id59">November</textPath></text><line stroke="#e1ed5e" stroke-width="0.3" x1="56.869717070023135" x2="54.33264160355391" y1="26.7553504044142" y2="22.446841604673864" /><path d="M 56.362301976729285 25.89364864446614 a86.0,86.0 0 0,1 42.16139366436587,-11.88097634709845" fill="none" id="id60" stroke="none" /><text fill="#e1ed5e" style="font-size:6.75px; font-family:Arial;" text-anchor="middle"><textPath startOffset="22.145653131862474" xlink:href="#id60">December</textPath></text></svg>